<?xml version="1.0" encoding="utf-8" standalone="no"?>
<!DOCTYPE svg PUBLIC "-//W3C//DTD SVG 1.1//EN"
  "http://www.w3.org/Graphics/SVG/1.1/DTD/svg11.dtd">
<svg xmlns:xlink="http://www.w3.org/1999/xlink" width="379.44pt" height="209.52pt" viewBox="0 0 379.44 209.52" xmlns="http://www.w3.org/2000/svg" version="1.1">
 <metadata>
  <rdf:RDF xmlns:dc="http://purl.org/dc/elements/1.1/" xmlns:cc="http://creativecommons.org/ns#" xmlns:rdf="http://www.w3.org/1999/02/22-rdf-syntax-ns#">
   <cc:Work>
    <dc:type rdf:resource="http://purl.org/dc/dcmitype/StillImage"/>
    <dc:date>2026-04-01T14:41:35.369870</dc:date>
    <dc:format>image/svg+xml</dc:format>
    <dc:creator>
     <cc:Agent>
      <dc:title>Matplotlib v3.7.5, https://matplotlib.org/</dc:title>
     </cc:Agent>
    </dc:creator>
   </cc:Work>
  </rdf:RDF>
 </metadata>
 <defs>
  <style type="text/css">*{stroke-linejoin: round; stroke-linecap: butt}</style>
 </defs>
 <g id="figure_1">
  <g id="patch_1">
   <path d="M 0 209.52 
L 379.44 209.52 
L 379.44 0 
L 0 0 
z
" style="fill: #ffffff"/>
  </g>
  <g id="axes_1">
   <g id="patch_2">
    <path d="M 44.268 176.595429 
L 371.217543 176.595429 
L 371.217543 8.461712 
L 44.268 8.461712 
z
" style="fill: #ffffff"/>
   </g>
   <g id="matplotlib.axis_1">
    <g id="xtick_1">
     <g id="line2d_1">
      <path d="M 59.129343 176.595429 
L 59.129343 8.461712 
" clip-path="url(#p0e9ec0f167)" style="fill: none; stroke: #cccccc; stroke-width: 0.5; stroke-linecap: square"/>
     </g>
     <g id="line2d_2">
      <defs>
       <path id="m81d34ff309" d="M 0 0 
L 0 3.5 
" style="stroke: #000000; stroke-width: 0.8"/>
      </defs>
      <g>
       <use xlink:href="#m81d34ff309" x="59.129343" y="176.595429" style="stroke: #000000; stroke-width: 0.8"/>
      </g>
     </g>
     <g id="text_1">
      <!-- 0 -->
      <g transform="translate(55.948093 191.193866) scale(0.1 -0.1)">
       <defs>
        <path id="DejaVuSans-30" d="M 2034 4250 
Q 1547 4250 1301 3770 
Q 1056 3291 1056 2328 
Q 1056 1369 1301 889 
Q 1547 409 2034 409 
Q 2525 409 2770 889 
Q 3016 1369 3016 2328 
Q 3016 3291 2770 3770 
Q 2525 4250 2034 4250 
z
M 2034 4750 
Q 2819 4750 3233 4129 
Q 3647 3509 3647 2328 
Q 3647 1150 3233 529 
Q 2819 -91 2034 -91 
Q 1250 -91 836 529 
Q 422 1150 422 2328 
Q 422 3509 836 4129 
Q 1250 4750 2034 4750 
z
" transform="scale(0.015625)"/>
       </defs>
       <use xlink:href="#DejaVuSans-30"/>
      </g>
     </g>
    </g>
    <g id="xtick_2">
     <g id="line2d_3">
      <path d="M 97.931805 176.595429 
L 97.931805 8.461712 
" clip-path="url(#p0e9ec0f167)" style="fill: none; stroke: #cccccc; stroke-width: 0.5; stroke-linecap: square"/>
     </g>
     <g id="line2d_4">
      <g>
       <use xlink:href="#m81d34ff309" x="97.931805" y="176.595429" style="stroke: #000000; stroke-width: 0.8"/>
      </g>
     </g>
     <g id="text_2">
      <!-- 100 -->
      <g transform="translate(88.388055 191.193866) scale(0.1 -0.1)">
       <defs>
        <path id="DejaVuSans-31" d="M 794 531 
L 1825 531 
L 1825 4091 
L 703 3866 
L 703 4441 
L 1819 4666 
L 2450 4666 
L 2450 531 
L 3481 531 
L 3481 0 
L 794 0 
L 794 531 
z
" transform="scale(0.015625)"/>
       </defs>
       <use xlink:href="#DejaVuSans-31"/>
       <use xlink:href="#DejaVuSans-30" x="63.623047"/>
       <use xlink:href="#DejaVuSans-30" x="127.246094"/>
      </g>
     </g>
    </g>
    <g id="xtick_3">
     <g id="line2d_5">
      <path d="M 136.734266 176.595429 
L 136.734266 8.461712 
" clip-path="url(#p0e9ec0f167)" style="fill: none; stroke: #cccccc; stroke-width: 0.5; stroke-linecap: square"/>
     </g>
     <g id="line2d_6">
      <g>
       <use xlink:href="#m81d34ff309" x="136.734266" y="176.595429" style="stroke: #000000; stroke-width: 0.8"/>
      </g>
     </g>
     <g id="text_3">
      <!-- 200 -->
      <g transform="translate(127.190516 191.193866) scale(0.1 -0.1)">
       <defs>
        <path id="DejaVuSans-32" d="M 1228 531 
L 3431 531 
L 3431 0 
L 469 0 
L 469 531 
Q 828 903 1448 1529 
Q 2069 2156 2228 2338 
Q 2531 2678 2651 2914 
Q 2772 3150 2772 3378 
Q 2772 3750 2511 3984 
Q 2250 4219 1831 4219 
Q 1534 4219 1204 4116 
Q 875 4013 500 3803 
L 500 4441 
Q 881 4594 1212 4672 
Q 1544 4750 1819 4750 
Q 2544 4750 2975 4387 
Q 3406 4025 3406 3419 
Q 3406 3131 3298 2873 
Q 3191 2616 2906 2266 
Q 2828 2175 2409 1742 
Q 1991 1309 1228 531 
z
" transform="scale(0.015625)"/>
       </defs>
       <use xlink:href="#DejaVuSans-32"/>
       <use xlink:href="#DejaVuSans-30" x="63.623047"/>
       <use xlink:href="#DejaVuSans-30" x="127.246094"/>
      </g>
     </g>
    </g>
    <g id="xtick_4">
     <g id="line2d_7">
      <path d="M 175.536728 176.595429 
L 175.536728 8.461712 
" clip-path="url(#p0e9ec0f167)" style="fill: none; stroke: #cccccc; stroke-width: 0.5; stroke-linecap: square"/>
     </g>
     <g id="line2d_8">
      <g>
       <use xlink:href="#m81d34ff309" x="175.536728" y="176.595429" style="stroke: #000000; stroke-width: 0.8"/>
      </g>
     </g>
     <g id="text_4">
      <!-- 300 -->
      <g transform="translate(165.992978 191.193866) scale(0.1 -0.1)">
       <defs>
        <path id="DejaVuSans-33" d="M 2597 2516 
Q 3050 2419 3304 2112 
Q 3559 1806 3559 1356 
Q 3559 666 3084 287 
Q 2609 -91 1734 -91 
Q 1441 -91 1130 -33 
Q 819 25 488 141 
L 488 750 
Q 750 597 1062 519 
Q 1375 441 1716 441 
Q 2309 441 2620 675 
Q 2931 909 2931 1356 
Q 2931 1769 2642 2001 
Q 2353 2234 1838 2234 
L 1294 2234 
L 1294 2753 
L 1863 2753 
Q 2328 2753 2575 2939 
Q 2822 3125 2822 3475 
Q 2822 3834 2567 4026 
Q 2313 4219 1838 4219 
Q 1578 4219 1281 4162 
Q 984 4106 628 3988 
L 628 4550 
Q 988 4650 1302 4700 
Q 1616 4750 1894 4750 
Q 2613 4750 3031 4423 
Q 3450 4097 3450 3541 
Q 3450 3153 3228 2886 
Q 3006 2619 2597 2516 
z
" transform="scale(0.015625)"/>
       </defs>
       <use xlink:href="#DejaVuSans-33"/>
       <use xlink:href="#DejaVuSans-30" x="63.623047"/>
       <use xlink:href="#DejaVuSans-30" x="127.246094"/>
      </g>
     </g>
    </g>
    <g id="xtick_5">
     <g id="line2d_9">
      <path d="M 214.33919 176.595429 
L 214.33919 8.461712 
" clip-path="url(#p0e9ec0f167)" style="fill: none; stroke: #cccccc; stroke-width: 0.5; stroke-linecap: square"/>
     </g>
     <g id="line2d_10">
      <g>
       <use xlink:href="#m81d34ff309" x="214.33919" y="176.595429" style="stroke: #000000; stroke-width: 0.8"/>
      </g>
     </g>
     <g id="text_5">
      <!-- 400 -->
      <g transform="translate(204.79544 191.193866) scale(0.1 -0.1)">
       <defs>
        <path id="DejaVuSans-34" d="M 2419 4116 
L 825 1625 
L 2419 1625 
L 2419 4116 
z
M 2253 4666 
L 3047 4666 
L 3047 1625 
L 3713 1625 
L 3713 1100 
L 3047 1100 
L 3047 0 
L 2419 0 
L 2419 1100 
L 313 1100 
L 313 1709 
L 2253 4666 
z
" transform="scale(0.015625)"/>
       </defs>
       <use xlink:href="#DejaVuSans-34"/>
       <use xlink:href="#DejaVuSans-30" x="63.623047"/>
       <use xlink:href="#DejaVuSans-30" x="127.246094"/>
      </g>
     </g>
    </g>
    <g id="xtick_6">
     <g id="line2d_11">
      <path d="M 253.141652 176.595429 
L 253.141652 8.461712 
" clip-path="url(#p0e9ec0f167)" style="fill: none; stroke: #cccccc; stroke-width: 0.5; stroke-linecap: square"/>
     </g>
     <g id="line2d_12">
      <g>
       <use xlink:href="#m81d34ff309" x="253.141652" y="176.595429" style="stroke: #000000; stroke-width: 0.8"/>
      </g>
     </g>
     <g id="text_6">
      <!-- 500 -->
      <g transform="translate(243.597902 191.193866) scale(0.1 -0.1)">
       <defs>
        <path id="DejaVuSans-35" d="M 691 4666 
L 3169 4666 
L 3169 4134 
L 1269 4134 
L 1269 2991 
Q 1406 3038 1543 3061 
Q 1681 3084 1819 3084 
Q 2600 3084 3056 2656 
Q 3513 2228 3513 1497 
Q 3513 744 3044 326 
Q 2575 -91 1722 -91 
Q 1428 -91 1123 -41 
Q 819 9 494 109 
L 494 744 
Q 775 591 1075 516 
Q 1375 441 1709 441 
Q 2250 441 2565 725 
Q 2881 1009 2881 1497 
Q 2881 1984 2565 2268 
Q 2250 2553 1709 2553 
Q 1456 2553 1204 2497 
Q 953 2441 691 2322 
L 691 4666 
z
" transform="scale(0.015625)"/>
       </defs>
       <use xlink:href="#DejaVuSans-35"/>
       <use xlink:href="#DejaVuSans-30" x="63.623047"/>
       <use xlink:href="#DejaVuSans-30" x="127.246094"/>
      </g>
     </g>
    </g>
    <g id="xtick_7">
     <g id="line2d_13">
      <path d="M 291.944113 176.595429 
L 291.944113 8.461712 
" clip-path="url(#p0e9ec0f167)" style="fill: none; stroke: #cccccc; stroke-width: 0.5; stroke-linecap: square"/>
     </g>
     <g id="line2d_14">
      <g>
       <use xlink:href="#m81d34ff309" x="291.944113" y="176.595429" style="stroke: #000000; stroke-width: 0.8"/>
      </g>
     </g>
     <g id="text_7">
      <!-- 600 -->
      <g transform="translate(282.400363 191.193866) scale(0.1 -0.1)">
       <defs>
        <path id="DejaVuSans-36" d="M 2113 2584 
Q 1688 2584 1439 2293 
Q 1191 2003 1191 1497 
Q 1191 994 1439 701 
Q 1688 409 2113 409 
Q 2538 409 2786 701 
Q 3034 994 3034 1497 
Q 3034 2003 2786 2293 
Q 2538 2584 2113 2584 
z
M 3366 4563 
L 3366 3988 
Q 3128 4100 2886 4159 
Q 2644 4219 2406 4219 
Q 1781 4219 1451 3797 
Q 1122 3375 1075 2522 
Q 1259 2794 1537 2939 
Q 1816 3084 2150 3084 
Q 2853 3084 3261 2657 
Q 3669 2231 3669 1497 
Q 3669 778 3244 343 
Q 2819 -91 2113 -91 
Q 1303 -91 875 529 
Q 447 1150 447 2328 
Q 447 3434 972 4092 
Q 1497 4750 2381 4750 
Q 2619 4750 2861 4703 
Q 3103 4656 3366 4563 
z
" transform="scale(0.015625)"/>
       </defs>
       <use xlink:href="#DejaVuSans-36"/>
       <use xlink:href="#DejaVuSans-30" x="63.623047"/>
       <use xlink:href="#DejaVuSans-30" x="127.246094"/>
      </g>
     </g>
    </g>
    <g id="xtick_8">
     <g id="line2d_15">
      <path d="M 330.746575 176.595429 
L 330.746575 8.461712 
" clip-path="url(#p0e9ec0f167)" style="fill: none; stroke: #cccccc; stroke-width: 0.5; stroke-linecap: square"/>
     </g>
     <g id="line2d_16">
      <g>
       <use xlink:href="#m81d34ff309" x="330.746575" y="176.595429" style="stroke: #000000; stroke-width: 0.8"/>
      </g>
     </g>
     <g id="text_8">
      <!-- 700 -->
      <g transform="translate(321.202825 191.193866) scale(0.1 -0.1)">
       <defs>
        <path id="DejaVuSans-37" d="M 525 4666 
L 3525 4666 
L 3525 4397 
L 1831 0 
L 1172 0 
L 2766 4134 
L 525 4134 
L 525 4666 
z
" transform="scale(0.015625)"/>
       </defs>
       <use xlink:href="#DejaVuSans-37"/>
       <use xlink:href="#DejaVuSans-30" x="63.623047"/>
       <use xlink:href="#DejaVuSans-30" x="127.246094"/>
      </g>
     </g>
    </g>
    <g id="xtick_9">
     <g id="line2d_17">
      <path d="M 369.549037 176.595429 
L 369.549037 8.461712 
" clip-path="url(#p0e9ec0f167)" style="fill: none; stroke: #cccccc; stroke-width: 0.5; stroke-linecap: square"/>
     </g>
     <g id="line2d_18">
      <g>
       <use xlink:href="#m81d34ff309" x="369.549037" y="176.595429" style="stroke: #000000; stroke-width: 0.8"/>
      </g>
     </g>
     <g id="text_9">
      <!-- 800 -->
      <g transform="translate(360.005287 191.193866) scale(0.1 -0.1)">
       <defs>
        <path id="DejaVuSans-38" d="M 2034 2216 
Q 1584 2216 1326 1975 
Q 1069 1734 1069 1313 
Q 1069 891 1326 650 
Q 1584 409 2034 409 
Q 2484 409 2743 651 
Q 3003 894 3003 1313 
Q 3003 1734 2745 1975 
Q 2488 2216 2034 2216 
z
M 1403 2484 
Q 997 2584 770 2862 
Q 544 3141 544 3541 
Q 544 4100 942 4425 
Q 1341 4750 2034 4750 
Q 2731 4750 3128 4425 
Q 3525 4100 3525 3541 
Q 3525 3141 3298 2862 
Q 3072 2584 2669 2484 
Q 3125 2378 3379 2068 
Q 3634 1759 3634 1313 
Q 3634 634 3220 271 
Q 2806 -91 2034 -91 
Q 1263 -91 848 271 
Q 434 634 434 1313 
Q 434 1759 690 2068 
Q 947 2378 1403 2484 
z
M 1172 3481 
Q 1172 3119 1398 2916 
Q 1625 2713 2034 2713 
Q 2441 2713 2670 2916 
Q 2900 3119 2900 3481 
Q 2900 3844 2670 4047 
Q 2441 4250 2034 4250 
Q 1625 4250 1398 4047 
Q 1172 3844 1172 3481 
z
" transform="scale(0.015625)"/>
       </defs>
       <use xlink:href="#DejaVuSans-38"/>
       <use xlink:href="#DejaVuSans-30" x="63.623047"/>
       <use xlink:href="#DejaVuSans-30" x="127.246094"/>
      </g>
     </g>
    </g>
    <g id="text_10">
     <!-- Range bin -->
     <g transform="translate(182.576365 204.871991) scale(0.1 -0.1)">
      <defs>
       <path id="DejaVuSans-52" d="M 2841 2188 
Q 3044 2119 3236 1894 
Q 3428 1669 3622 1275 
L 4263 0 
L 3584 0 
L 2988 1197 
Q 2756 1666 2539 1819 
Q 2322 1972 1947 1972 
L 1259 1972 
L 1259 0 
L 628 0 
L 628 4666 
L 2053 4666 
Q 2853 4666 3247 4331 
Q 3641 3997 3641 3322 
Q 3641 2881 3436 2590 
Q 3231 2300 2841 2188 
z
M 1259 4147 
L 1259 2491 
L 2053 2491 
Q 2509 2491 2742 2702 
Q 2975 2913 2975 3322 
Q 2975 3731 2742 3939 
Q 2509 4147 2053 4147 
L 1259 4147 
z
" transform="scale(0.015625)"/>
       <path id="DejaVuSans-61" d="M 2194 1759 
Q 1497 1759 1228 1600 
Q 959 1441 959 1056 
Q 959 750 1161 570 
Q 1363 391 1709 391 
Q 2188 391 2477 730 
Q 2766 1069 2766 1631 
L 2766 1759 
L 2194 1759 
z
M 3341 1997 
L 3341 0 
L 2766 0 
L 2766 531 
Q 2569 213 2275 61 
Q 1981 -91 1556 -91 
Q 1019 -91 701 211 
Q 384 513 384 1019 
Q 384 1609 779 1909 
Q 1175 2209 1959 2209 
L 2766 2209 
L 2766 2266 
Q 2766 2663 2505 2880 
Q 2244 3097 1772 3097 
Q 1472 3097 1187 3025 
Q 903 2953 641 2809 
L 641 3341 
Q 956 3463 1253 3523 
Q 1550 3584 1831 3584 
Q 2591 3584 2966 3190 
Q 3341 2797 3341 1997 
z
" transform="scale(0.015625)"/>
       <path id="DejaVuSans-6e" d="M 3513 2113 
L 3513 0 
L 2938 0 
L 2938 2094 
Q 2938 2591 2744 2837 
Q 2550 3084 2163 3084 
Q 1697 3084 1428 2787 
Q 1159 2491 1159 1978 
L 1159 0 
L 581 0 
L 581 3500 
L 1159 3500 
L 1159 2956 
Q 1366 3272 1645 3428 
Q 1925 3584 2291 3584 
Q 2894 3584 3203 3211 
Q 3513 2838 3513 2113 
z
" transform="scale(0.015625)"/>
       <path id="DejaVuSans-67" d="M 2906 1791 
Q 2906 2416 2648 2759 
Q 2391 3103 1925 3103 
Q 1463 3103 1205 2759 
Q 947 2416 947 1791 
Q 947 1169 1205 825 
Q 1463 481 1925 481 
Q 2391 481 2648 825 
Q 2906 1169 2906 1791 
z
M 3481 434 
Q 3481 -459 3084 -895 
Q 2688 -1331 1869 -1331 
Q 1566 -1331 1297 -1286 
Q 1028 -1241 775 -1147 
L 775 -588 
Q 1028 -725 1275 -790 
Q 1522 -856 1778 -856 
Q 2344 -856 2625 -561 
Q 2906 -266 2906 331 
L 2906 616 
Q 2728 306 2450 153 
Q 2172 0 1784 0 
Q 1141 0 747 490 
Q 353 981 353 1791 
Q 353 2603 747 3093 
Q 1141 3584 1784 3584 
Q 2172 3584 2450 3431 
Q 2728 3278 2906 2969 
L 2906 3500 
L 3481 3500 
L 3481 434 
z
" transform="scale(0.015625)"/>
       <path id="DejaVuSans-65" d="M 3597 1894 
L 3597 1613 
L 953 1613 
Q 991 1019 1311 708 
Q 1631 397 2203 397 
Q 2534 397 2845 478 
Q 3156 559 3463 722 
L 3463 178 
Q 3153 47 2828 -22 
Q 2503 -91 2169 -91 
Q 1331 -91 842 396 
Q 353 884 353 1716 
Q 353 2575 817 3079 
Q 1281 3584 2069 3584 
Q 2775 3584 3186 3129 
Q 3597 2675 3597 1894 
z
M 3022 2063 
Q 3016 2534 2758 2815 
Q 2500 3097 2075 3097 
Q 1594 3097 1305 2825 
Q 1016 2553 972 2059 
L 3022 2063 
z
" transform="scale(0.015625)"/>
       <path id="DejaVuSans-20" transform="scale(0.015625)"/>
       <path id="DejaVuSans-62" d="M 3116 1747 
Q 3116 2381 2855 2742 
Q 2594 3103 2138 3103 
Q 1681 3103 1420 2742 
Q 1159 2381 1159 1747 
Q 1159 1113 1420 752 
Q 1681 391 2138 391 
Q 2594 391 2855 752 
Q 3116 1113 3116 1747 
z
M 1159 2969 
Q 1341 3281 1617 3432 
Q 1894 3584 2278 3584 
Q 2916 3584 3314 3078 
Q 3713 2572 3713 1747 
Q 3713 922 3314 415 
Q 2916 -91 2278 -91 
Q 1894 -91 1617 61 
Q 1341 213 1159 525 
L 1159 0 
L 581 0 
L 581 4863 
L 1159 4863 
L 1159 2969 
z
" transform="scale(0.015625)"/>
       <path id="DejaVuSans-69" d="M 603 3500 
L 1178 3500 
L 1178 0 
L 603 0 
L 603 3500 
z
M 603 4863 
L 1178 4863 
L 1178 4134 
L 603 4134 
L 603 4863 
z
" transform="scale(0.015625)"/>
      </defs>
      <use xlink:href="#DejaVuSans-52"/>
      <use xlink:href="#DejaVuSans-61" x="67.232422"/>
      <use xlink:href="#DejaVuSans-6e" x="128.511719"/>
      <use xlink:href="#DejaVuSans-67" x="191.890625"/>
      <use xlink:href="#DejaVuSans-65" x="255.367188"/>
      <use xlink:href="#DejaVuSans-20" x="316.890625"/>
      <use xlink:href="#DejaVuSans-62" x="348.677734"/>
      <use xlink:href="#DejaVuSans-69" x="412.154297"/>
      <use xlink:href="#DejaVuSans-6e" x="439.9375"/>
     </g>
    </g>
   </g>
   <g id="matplotlib.axis_2">
    <g id="ytick_1">
     <g id="line2d_19">
      <path d="M 44.268 171.234319 
L 371.217543 171.234319 
" clip-path="url(#p0e9ec0f167)" style="fill: none; stroke: #cccccc; stroke-width: 0.5; stroke-linecap: square"/>
     </g>
     <g id="line2d_20">
      <defs>
       <path id="m88f4d7348d" d="M 0 0 
L -3.5 0 
" style="stroke: #000000; stroke-width: 0.8"/>
      </defs>
      <g>
       <use xlink:href="#m88f4d7348d" x="44.268" y="171.234319" style="stroke: #000000; stroke-width: 0.8"/>
      </g>
     </g>
     <g id="text_11">
      <!-- 70 -->
      <g transform="translate(24.543 175.033538) scale(0.1 -0.1)">
       <use xlink:href="#DejaVuSans-37"/>
       <use xlink:href="#DejaVuSans-30" x="63.623047"/>
      </g>
     </g>
    </g>
    <g id="ytick_2">
     <g id="line2d_21">
      <path d="M 44.268 148.000237 
L 371.217543 148.000237 
" clip-path="url(#p0e9ec0f167)" style="fill: none; stroke: #cccccc; stroke-width: 0.5; stroke-linecap: square"/>
     </g>
     <g id="line2d_22">
      <g>
       <use xlink:href="#m88f4d7348d" x="44.268" y="148.000237" style="stroke: #000000; stroke-width: 0.8"/>
      </g>
     </g>
     <g id="text_12">
      <!-- 80 -->
      <g transform="translate(24.543 151.799455) scale(0.1 -0.1)">
       <use xlink:href="#DejaVuSans-38"/>
       <use xlink:href="#DejaVuSans-30" x="63.623047"/>
      </g>
     </g>
    </g>
    <g id="ytick_3">
     <g id="line2d_23">
      <path d="M 44.268 124.766154 
L 371.217543 124.766154 
" clip-path="url(#p0e9ec0f167)" style="fill: none; stroke: #cccccc; stroke-width: 0.5; stroke-linecap: square"/>
     </g>
     <g id="line2d_24">
      <g>
       <use xlink:href="#m88f4d7348d" x="44.268" y="124.766154" style="stroke: #000000; stroke-width: 0.8"/>
      </g>
     </g>
     <g id="text_13">
      <!-- 90 -->
      <g transform="translate(24.543 128.565373) scale(0.1 -0.1)">
       <defs>
        <path id="DejaVuSans-39" d="M 703 97 
L 703 672 
Q 941 559 1184 500 
Q 1428 441 1663 441 
Q 2288 441 2617 861 
Q 2947 1281 2994 2138 
Q 2813 1869 2534 1725 
Q 2256 1581 1919 1581 
Q 1219 1581 811 2004 
Q 403 2428 403 3163 
Q 403 3881 828 4315 
Q 1253 4750 1959 4750 
Q 2769 4750 3195 4129 
Q 3622 3509 3622 2328 
Q 3622 1225 3098 567 
Q 2575 -91 1691 -91 
Q 1453 -91 1209 -44 
Q 966 3 703 97 
z
M 1959 2075 
Q 2384 2075 2632 2365 
Q 2881 2656 2881 3163 
Q 2881 3666 2632 3958 
Q 2384 4250 1959 4250 
Q 1534 4250 1286 3958 
Q 1038 3666 1038 3163 
Q 1038 2656 1286 2365 
Q 1534 2075 1959 2075 
z
" transform="scale(0.015625)"/>
       </defs>
       <use xlink:href="#DejaVuSans-39"/>
       <use xlink:href="#DejaVuSans-30" x="63.623047"/>
      </g>
     </g>
    </g>
    <g id="ytick_4">
     <g id="line2d_25">
      <path d="M 44.268 101.532072 
L 371.217543 101.532072 
" clip-path="url(#p0e9ec0f167)" style="fill: none; stroke: #cccccc; stroke-width: 0.5; stroke-linecap: square"/>
     </g>
     <g id="line2d_26">
      <g>
       <use xlink:href="#m88f4d7348d" x="44.268" y="101.532072" style="stroke: #000000; stroke-width: 0.8"/>
      </g>
     </g>
     <g id="text_14">
      <!-- 100 -->
      <g transform="translate(18.1805 105.331291) scale(0.1 -0.1)">
       <use xlink:href="#DejaVuSans-31"/>
       <use xlink:href="#DejaVuSans-30" x="63.623047"/>
       <use xlink:href="#DejaVuSans-30" x="127.246094"/>
      </g>
     </g>
    </g>
    <g id="ytick_5">
     <g id="line2d_27">
      <path d="M 44.268 78.29799 
L 371.217543 78.29799 
" clip-path="url(#p0e9ec0f167)" style="fill: none; stroke: #cccccc; stroke-width: 0.5; stroke-linecap: square"/>
     </g>
     <g id="line2d_28">
      <g>
       <use xlink:href="#m88f4d7348d" x="44.268" y="78.29799" style="stroke: #000000; stroke-width: 0.8"/>
      </g>
     </g>
     <g id="text_15">
      <!-- 110 -->
      <g transform="translate(18.1805 82.097209) scale(0.1 -0.1)">
       <use xlink:href="#DejaVuSans-31"/>
       <use xlink:href="#DejaVuSans-31" x="63.623047"/>
       <use xlink:href="#DejaVuSans-30" x="127.246094"/>
      </g>
     </g>
    </g>
    <g id="ytick_6">
     <g id="line2d_29">
      <path d="M 44.268 55.063908 
L 371.217543 55.063908 
" clip-path="url(#p0e9ec0f167)" style="fill: none; stroke: #cccccc; stroke-width: 0.5; stroke-linecap: square"/>
     </g>
     <g id="line2d_30">
      <g>
       <use xlink:href="#m88f4d7348d" x="44.268" y="55.063908" style="stroke: #000000; stroke-width: 0.8"/>
      </g>
     </g>
     <g id="text_16">
      <!-- 120 -->
      <g transform="translate(18.1805 58.863127) scale(0.1 -0.1)">
       <use xlink:href="#DejaVuSans-31"/>
       <use xlink:href="#DejaVuSans-32" x="63.623047"/>
       <use xlink:href="#DejaVuSans-30" x="127.246094"/>
      </g>
     </g>
    </g>
    <g id="ytick_7">
     <g id="line2d_31">
      <path d="M 44.268 31.829826 
L 371.217543 31.829826 
" clip-path="url(#p0e9ec0f167)" style="fill: none; stroke: #cccccc; stroke-width: 0.5; stroke-linecap: square"/>
     </g>
     <g id="line2d_32">
      <g>
       <use xlink:href="#m88f4d7348d" x="44.268" y="31.829826" style="stroke: #000000; stroke-width: 0.8"/>
      </g>
     </g>
     <g id="text_17">
      <!-- 130 -->
      <g transform="translate(18.1805 35.629044) scale(0.1 -0.1)">
       <use xlink:href="#DejaVuSans-31"/>
       <use xlink:href="#DejaVuSans-33" x="63.623047"/>
       <use xlink:href="#DejaVuSans-30" x="127.246094"/>
      </g>
     </g>
    </g>
    <g id="ytick_8">
     <g id="line2d_33">
      <path d="M 44.268 8.595743 
L 371.217543 8.595743 
" clip-path="url(#p0e9ec0f167)" style="fill: none; stroke: #cccccc; stroke-width: 0.5; stroke-linecap: square"/>
     </g>
     <g id="line2d_34">
      <g>
       <use xlink:href="#m88f4d7348d" x="44.268" y="8.595743" style="stroke: #000000; stroke-width: 0.8"/>
      </g>
     </g>
     <g id="text_18">
      <!-- 140 -->
      <g transform="translate(18.1805 12.394962) scale(0.1 -0.1)">
       <use xlink:href="#DejaVuSans-31"/>
       <use xlink:href="#DejaVuSans-34" x="63.623047"/>
       <use xlink:href="#DejaVuSans-30" x="127.246094"/>
      </g>
     </g>
    </g>
    <g id="text_19">
     <!-- Amplitude (dB) -->
     <g transform="translate(12.100812 130.246539) rotate(-90) scale(0.1 -0.1)">
      <defs>
       <path id="DejaVuSans-41" d="M 2188 4044 
L 1331 1722 
L 3047 1722 
L 2188 4044 
z
M 1831 4666 
L 2547 4666 
L 4325 0 
L 3669 0 
L 3244 1197 
L 1141 1197 
L 716 0 
L 50 0 
L 1831 4666 
z
" transform="scale(0.015625)"/>
       <path id="DejaVuSans-6d" d="M 3328 2828 
Q 3544 3216 3844 3400 
Q 4144 3584 4550 3584 
Q 5097 3584 5394 3201 
Q 5691 2819 5691 2113 
L 5691 0 
L 5113 0 
L 5113 2094 
Q 5113 2597 4934 2840 
Q 4756 3084 4391 3084 
Q 3944 3084 3684 2787 
Q 3425 2491 3425 1978 
L 3425 0 
L 2847 0 
L 2847 2094 
Q 2847 2600 2669 2842 
Q 2491 3084 2119 3084 
Q 1678 3084 1418 2786 
Q 1159 2488 1159 1978 
L 1159 0 
L 581 0 
L 581 3500 
L 1159 3500 
L 1159 2956 
Q 1356 3278 1631 3431 
Q 1906 3584 2284 3584 
Q 2666 3584 2933 3390 
Q 3200 3197 3328 2828 
z
" transform="scale(0.015625)"/>
       <path id="DejaVuSans-70" d="M 1159 525 
L 1159 -1331 
L 581 -1331 
L 581 3500 
L 1159 3500 
L 1159 2969 
Q 1341 3281 1617 3432 
Q 1894 3584 2278 3584 
Q 2916 3584 3314 3078 
Q 3713 2572 3713 1747 
Q 3713 922 3314 415 
Q 2916 -91 2278 -91 
Q 1894 -91 1617 61 
Q 1341 213 1159 525 
z
M 3116 1747 
Q 3116 2381 2855 2742 
Q 2594 3103 2138 3103 
Q 1681 3103 1420 2742 
Q 1159 2381 1159 1747 
Q 1159 1113 1420 752 
Q 1681 391 2138 391 
Q 2594 391 2855 752 
Q 3116 1113 3116 1747 
z
" transform="scale(0.015625)"/>
       <path id="DejaVuSans-6c" d="M 603 4863 
L 1178 4863 
L 1178 0 
L 603 0 
L 603 4863 
z
" transform="scale(0.015625)"/>
       <path id="DejaVuSans-74" d="M 1172 4494 
L 1172 3500 
L 2356 3500 
L 2356 3053 
L 1172 3053 
L 1172 1153 
Q 1172 725 1289 603 
Q 1406 481 1766 481 
L 2356 481 
L 2356 0 
L 1766 0 
Q 1100 0 847 248 
Q 594 497 594 1153 
L 594 3053 
L 172 3053 
L 172 3500 
L 594 3500 
L 594 4494 
L 1172 4494 
z
" transform="scale(0.015625)"/>
       <path id="DejaVuSans-75" d="M 544 1381 
L 544 3500 
L 1119 3500 
L 1119 1403 
Q 1119 906 1312 657 
Q 1506 409 1894 409 
Q 2359 409 2629 706 
Q 2900 1003 2900 1516 
L 2900 3500 
L 3475 3500 
L 3475 0 
L 2900 0 
L 2900 538 
Q 2691 219 2414 64 
Q 2138 -91 1772 -91 
Q 1169 -91 856 284 
Q 544 659 544 1381 
z
M 1991 3584 
L 1991 3584 
z
" transform="scale(0.015625)"/>
       <path id="DejaVuSans-64" d="M 2906 2969 
L 2906 4863 
L 3481 4863 
L 3481 0 
L 2906 0 
L 2906 525 
Q 2725 213 2448 61 
Q 2172 -91 1784 -91 
Q 1150 -91 751 415 
Q 353 922 353 1747 
Q 353 2572 751 3078 
Q 1150 3584 1784 3584 
Q 2172 3584 2448 3432 
Q 2725 3281 2906 2969 
z
M 947 1747 
Q 947 1113 1208 752 
Q 1469 391 1925 391 
Q 2381 391 2643 752 
Q 2906 1113 2906 1747 
Q 2906 2381 2643 2742 
Q 2381 3103 1925 3103 
Q 1469 3103 1208 2742 
Q 947 2381 947 1747 
z
" transform="scale(0.015625)"/>
       <path id="DejaVuSans-28" d="M 1984 4856 
Q 1566 4138 1362 3434 
Q 1159 2731 1159 2009 
Q 1159 1288 1364 580 
Q 1569 -128 1984 -844 
L 1484 -844 
Q 1016 -109 783 600 
Q 550 1309 550 2009 
Q 550 2706 781 3412 
Q 1013 4119 1484 4856 
L 1984 4856 
z
" transform="scale(0.015625)"/>
       <path id="DejaVuSans-42" d="M 1259 2228 
L 1259 519 
L 2272 519 
Q 2781 519 3026 730 
Q 3272 941 3272 1375 
Q 3272 1813 3026 2020 
Q 2781 2228 2272 2228 
L 1259 2228 
z
M 1259 4147 
L 1259 2741 
L 2194 2741 
Q 2656 2741 2882 2914 
Q 3109 3088 3109 3444 
Q 3109 3797 2882 3972 
Q 2656 4147 2194 4147 
L 1259 4147 
z
M 628 4666 
L 2241 4666 
Q 2963 4666 3353 4366 
Q 3744 4066 3744 3513 
Q 3744 3084 3544 2831 
Q 3344 2578 2956 2516 
Q 3422 2416 3680 2098 
Q 3938 1781 3938 1306 
Q 3938 681 3513 340 
Q 3088 0 2303 0 
L 628 0 
L 628 4666 
z
" transform="scale(0.015625)"/>
       <path id="DejaVuSans-29" d="M 513 4856 
L 1013 4856 
Q 1481 4119 1714 3412 
Q 1947 2706 1947 2009 
Q 1947 1309 1714 600 
Q 1481 -109 1013 -844 
L 513 -844 
Q 928 -128 1133 580 
Q 1338 1288 1338 2009 
Q 1338 2731 1133 3434 
Q 928 4138 513 4856 
z
" transform="scale(0.015625)"/>
      </defs>
      <use xlink:href="#DejaVuSans-41"/>
      <use xlink:href="#DejaVuSans-6d" x="68.408203"/>
      <use xlink:href="#DejaVuSans-70" x="165.820312"/>
      <use xlink:href="#DejaVuSans-6c" x="229.296875"/>
      <use xlink:href="#DejaVuSans-69" x="257.080078"/>
      <use xlink:href="#DejaVuSans-74" x="284.863281"/>
      <use xlink:href="#DejaVuSans-75" x="324.072266"/>
      <use xlink:href="#DejaVuSans-64" x="387.451172"/>
      <use xlink:href="#DejaVuSans-65" x="450.927734"/>
      <use xlink:href="#DejaVuSans-20" x="512.451172"/>
      <use xlink:href="#DejaVuSans-28" x="544.238281"/>
      <use xlink:href="#DejaVuSans-64" x="583.251953"/>
      <use xlink:href="#DejaVuSans-42" x="646.728516"/>
      <use xlink:href="#DejaVuSans-29" x="715.332031"/>
     </g>
    </g>
   </g>
   <g id="line2d_35">
    <path d="M 59.129343 83.82435 
L 59.517367 72.903327 
L 59.905392 73.913831 
L 60.293417 78.456688 
L 60.681441 69.817904 
L 61.069466 83.58052 
L 61.457491 80.242287 
L 61.845515 80.726263 
L 62.23354 68.285175 
L 62.621564 87.986779 
L 63.009589 64.515884 
L 63.397614 60.97421 
L 63.785638 91.757088 
L 64.173663 76.682098 
L 64.561688 79.497814 
L 64.949712 66.143668 
L 65.337737 71.205746 
L 65.725761 80.279805 
L 66.113786 62.959156 
L 66.501811 72.38073 
L 66.889835 60.70433 
L 67.27786 83.786904 
L 67.665884 71.452944 
L 68.053909 103.937077 
L 68.441934 66.262163 
L 68.829958 91.296144 
L 69.217983 62.715924 
L 69.994032 82.028954 
L 70.382057 55.68992 
L 70.770081 85.293734 
L 71.158106 79.263565 
L 71.934155 73.736563 
L 72.32218 74.384183 
L 72.710204 79.582859 
L 73.098229 66.755144 
L 73.486254 75.645878 
L 73.874278 63.118471 
L 74.262303 77.485147 
L 74.650328 72.391115 
L 75.038352 70.812446 
L 75.426377 67.275066 
L 75.814401 69.43169 
L 76.202426 75.488176 
L 76.590451 62.704819 
L 76.978475 83.964076 
L 77.3665 86.484479 
L 77.754525 87.522273 
L 78.142549 83.797222 
L 78.530574 77.818155 
L 78.918598 79.714945 
L 79.306623 87.654756 
L 79.694648 72.864576 
L 80.082672 77.489935 
L 80.470697 105.354207 
L 80.858721 86.699253 
L 81.246746 78.406472 
L 81.634771 66.174648 
L 82.022795 68.604867 
L 82.41082 62.389738 
L 82.798845 81.609365 
L 83.186869 75.177911 
L 83.574894 93.852955 
L 83.962918 82.637383 
L 84.350943 81.591211 
L 84.738968 66.1041 
L 85.126992 106.88858 
L 85.515017 59.294257 
L 86.291066 82.429439 
L 86.679091 72.96559 
L 87.067115 95.774995 
L 87.45514 68.519949 
L 87.843165 80.189265 
L 88.231189 63.127686 
L 88.619214 75.801064 
L 89.007238 61.153359 
L 89.395263 81.618594 
L 89.783288 64.624144 
L 90.171312 73.77004 
L 90.559337 74.49784 
L 90.947362 97.898924 
L 91.335386 92.205829 
L 91.723411 80.408635 
L 92.111435 81.224163 
L 92.49946 107.182075 
L 92.887485 76.251535 
L 93.275509 80.352073 
L 93.663534 68.649885 
L 94.051558 106.401365 
L 94.439583 75.347137 
L 94.827608 82.497742 
L 95.215632 67.755747 
L 95.603657 76.187449 
L 95.991682 114.300628 
L 96.379706 64.120847 
L 96.767731 78.05452 
L 97.155755 96.555392 
L 97.54378 66.395866 
L 97.931805 67.408253 
L 98.319829 61.305831 
L 98.707854 90.501644 
L 99.095878 64.185759 
L 99.483903 72.780909 
L 99.871928 62.838681 
L 100.259952 58.062799 
L 100.647977 75.039783 
L 101.036002 54.996186 
L 101.424026 109.293558 
L 101.812051 75.260939 
L 102.200075 91.540608 
L 102.5881 56.923526 
L 102.976125 77.902909 
L 103.364149 57.241287 
L 103.752174 66.733302 
L 104.140199 67.217118 
L 104.528223 71.157252 
L 104.916248 68.679292 
L 105.304272 69.491306 
L 105.692297 90.685424 
L 106.080322 71.613585 
L 106.468346 74.461105 
L 106.856371 60.288053 
L 107.244395 98.806857 
L 107.63242 55.478042 
L 108.020445 85.078256 
L 108.408469 69.638431 
L 108.796494 83.470723 
L 109.184519 66.762963 
L 109.572543 86.514717 
L 109.960568 79.977418 
L 110.348592 66.73134 
L 110.736617 89.723643 
L 111.124642 69.82067 
L 111.512666 61.266699 
L 111.900691 76.817986 
L 112.288715 81.730269 
L 112.67674 75.700501 
L 113.064765 100.197903 
L 113.452789 84.758359 
L 113.840814 60.948678 
L 114.228839 74.941242 
L 114.616863 65.268677 
L 115.004888 69.089547 
L 115.392912 85.144546 
L 115.780937 93.235931 
L 116.168962 62.759947 
L 116.556986 63.043986 
L 117.333036 76.349492 
L 117.72106 75.300573 
L 118.109085 103.792551 
L 118.497109 77.395292 
L 118.885134 75.424192 
L 119.273159 57.960423 
L 119.661183 67.102323 
L 120.049208 66.554926 
L 120.437232 67.114774 
L 120.825257 78.031663 
L 121.213282 79.819964 
L 121.989331 68.076663 
L 122.377356 75.087249 
L 122.76538 73.516949 
L 123.153405 68.047501 
L 123.541429 73.926013 
L 123.929454 166.451864 
L 124.317479 71.161772 
L 124.705503 94.665856 
L 125.093528 64.027837 
L 125.481552 81.795796 
L 125.869577 66.715504 
L 126.257602 76.724529 
L 126.645626 79.351911 
L 127.033651 76.030612 
L 127.421676 99.514226 
L 127.8097 81.494272 
L 128.197725 81.142115 
L 128.585749 75.513606 
L 128.973774 81.265606 
L 129.361799 75.42588 
L 129.749823 77.821294 
L 130.137848 73.337149 
L 130.525873 55.727802 
L 130.913897 65.82137 
L 131.301922 52.174063 
L 132.077971 86.414543 
L 132.465996 78.955035 
L 132.85402 59.15566 
L 133.242045 95.494963 
L 133.630069 73.337653 
L 134.018094 73.772567 
L 134.406119 74.611075 
L 134.794143 103.64175 
L 135.182168 58.028334 
L 135.570193 67.62342 
L 135.958217 69.26871 
L 136.346242 63.740932 
L 136.734266 70.854223 
L 137.122291 74.551165 
L 137.89834 93.551887 
L 138.286365 81.197675 
L 138.674389 63.945867 
L 139.450439 85.646995 
L 139.838463 64.412009 
L 140.226488 70.573756 
L 141.002537 74.068008 
L 141.390562 66.135474 
L 141.778586 101.396754 
L 142.166611 65.854665 
L 142.554636 59.775557 
L 142.94266 64.149304 
L 143.330685 57.713329 
L 143.71871 64.064209 
L 144.106734 83.918593 
L 144.494759 72.530372 
L 144.882783 96.659125 
L 145.270808 74.762982 
L 145.658833 78.10011 
L 146.046857 62.86117 
L 146.434882 95.353528 
L 146.822906 77.901519 
L 147.210931 77.622144 
L 147.98698 78.405532 
L 148.375005 78.444527 
L 148.76303 60.43244 
L 149.151054 64.721013 
L 149.539079 56.999106 
L 149.927103 85.902814 
L 150.315128 64.759448 
L 150.703153 84.811706 
L 151.091177 88.672159 
L 151.479202 70.450482 
L 151.867226 82.752153 
L 152.255251 78.08881 
L 152.643276 107.749245 
L 153.0313 68.842916 
L 153.419325 67.519767 
L 153.80735 70.6056 
L 154.195374 62.887375 
L 154.583399 64.364696 
L 154.971423 74.217484 
L 155.359448 70.647729 
L 155.747473 127.57586 
L 156.135497 69.953493 
L 156.523522 61.229471 
L 156.911547 64.821619 
L 157.299571 74.385811 
L 157.687596 61.784542 
L 158.07562 76.695463 
L 158.463645 67.658364 
L 158.85167 72.749241 
L 159.239694 69.195643 
L 159.627719 97.443518 
L 160.015743 74.845003 
L 160.403768 60.032636 
L 160.791793 62.455767 
L 161.179817 59.70455 
L 161.567842 74.752472 
L 161.955867 78.671403 
L 162.343891 80.360097 
L 162.731916 103.823684 
L 163.11994 61.06016 
L 163.507965 83.195909 
L 163.89599 66.71374 
L 164.284014 66.341413 
L 164.672039 72.46814 
L 165.060063 57.760334 
L 165.448088 73.685503 
L 165.836113 61.592841 
L 166.224137 69.335183 
L 166.612162 53.271776 
L 167.000187 68.633709 
L 167.388211 56.296406 
L 167.776236 84.933601 
L 168.16426 53.558839 
L 168.552285 67.267018 
L 168.94031 58.679759 
L 169.328334 62.643011 
L 169.716359 75.774237 
L 170.104384 69.944765 
L 170.492408 83.378633 
L 170.880433 83.333257 
L 171.268457 87.070605 
L 171.656482 65.907241 
L 172.044507 103.512211 
L 172.432531 61.503381 
L 172.820556 77.600881 
L 173.20858 72.822509 
L 173.596605 72.230087 
L 173.98463 110.176997 
L 174.372654 82.397368 
L 174.760679 100.038245 
L 175.148704 88.134902 
L 175.536728 82.797649 
L 175.924753 98.993855 
L 176.312777 73.273527 
L 176.700802 81.158554 
L 177.088827 84.074389 
L 177.476851 80.179773 
L 177.864876 90.747702 
L 178.2529 70.82796 
L 178.640925 86.640171 
L 179.02895 62.837401 
L 179.416974 61.687749 
L 179.804999 78.077947 
L 180.193024 69.550242 
L 180.581048 93.558684 
L 180.969073 90.153033 
L 181.357097 88.177223 
L 181.745122 82.763578 
L 182.133147 65.539223 
L 182.521171 60.260411 
L 182.909196 60.332022 
L 183.297221 69.644136 
L 183.685245 67.519349 
L 184.07327 83.215058 
L 184.461294 69.501819 
L 184.849319 74.161787 
L 185.237344 73.58748 
L 185.625368 68.769576 
L 186.013393 77.450576 
L 186.401417 74.825011 
L 186.789442 74.625297 
L 187.177467 57.056551 
L 187.565491 57.668719 
L 187.953516 45.65303 
L 188.341541 16.367081 
L 188.729565 59.600511 
L 189.11759 21.4419 
L 189.505614 39.835908 
L 190.281664 50.317138 
L 190.669688 66.455914 
L 191.057713 68.550679 
L 191.445737 97.435355 
L 191.833762 80.54264 
L 192.221787 80.104287 
L 192.609811 80.691633 
L 192.997836 81.498238 
L 193.385861 81.823861 
L 193.773885 69.227594 
L 194.16191 77.001707 
L 194.549934 79.420931 
L 194.937959 77.722359 
L 195.325984 65.099014 
L 195.714008 70.637658 
L 196.102033 68.752645 
L 196.490058 70.653858 
L 196.878082 90.446255 
L 197.266107 66.25522 
L 197.654131 77.250283 
L 198.042156 72.353232 
L 198.430181 58.314208 
L 198.818205 65.433021 
L 199.20623 87.122301 
L 199.594254 59.184154 
L 199.982279 58.154821 
L 200.370304 75.130574 
L 200.758328 71.214029 
L 201.146353 97.563247 
L 201.534378 65.979783 
L 201.922402 68.195589 
L 202.310427 67.524396 
L 202.698451 80.257543 
L 203.086476 76.130441 
L 203.474501 83.038987 
L 203.862525 70.48696 
L 204.25055 92.571309 
L 204.638574 65.408101 
L 205.414624 91.956333 
L 205.802648 63.277139 
L 206.190673 66.492199 
L 206.578698 96.579544 
L 206.966722 67.16446 
L 207.354747 77.224405 
L 207.742771 73.414589 
L 208.130796 58.614741 
L 208.518821 118.188554 
L 208.906845 83.51345 
L 209.29487 61.05495 
L 209.682895 89.174765 
L 210.070919 65.058546 
L 210.458944 89.823917 
L 210.846968 74.659951 
L 211.234993 67.294297 
L 211.623018 89.687801 
L 212.011042 65.523912 
L 212.399067 75.751684 
L 212.787091 89.160001 
L 213.175116 74.281539 
L 213.563141 86.412376 
L 213.951165 67.960868 
L 214.33919 74.391308 
L 214.727215 85.726479 
L 215.115239 61.744601 
L 215.503264 90.671755 
L 215.891288 65.189596 
L 216.667338 96.411044 
L 217.055362 74.504543 
L 217.443387 67.893572 
L 217.831411 68.362138 
L 218.219436 68.242661 
L 218.607461 100.790228 
L 218.995485 72.205019 
L 219.38351 79.094704 
L 219.771535 91.097574 
L 220.159559 92.20768 
L 220.547584 70.393156 
L 220.935608 83.274257 
L 221.323633 88.781376 
L 221.711658 84.896184 
L 222.099682 106.504692 
L 222.487707 66.625932 
L 222.875732 83.72635 
L 223.263756 64.570245 
L 223.651781 81.012773 
L 224.039805 79.416389 
L 224.42783 89.282034 
L 224.815855 69.580432 
L 225.203879 73.116544 
L 225.591904 59.533564 
L 225.979928 66.431459 
L 226.367953 62.011927 
L 226.755978 70.415823 
L 227.144002 97.845551 
L 227.532027 67.00928 
L 227.920052 81.704674 
L 228.308076 67.086126 
L 228.696101 95.673997 
L 229.084125 72.372033 
L 229.47215 76.893099 
L 229.860175 76.607958 
L 230.248199 73.014264 
L 230.636224 63.439073 
L 231.024248 72.378864 
L 231.412273 59.263852 
L 231.800298 59.639674 
L 232.188322 77.566954 
L 232.576347 65.209987 
L 232.964372 90.522765 
L 233.352396 74.323904 
L 233.740421 83.209247 
L 234.128445 71.657828 
L 234.51647 93.939665 
L 235.292519 66.313036 
L 235.680544 69.372711 
L 236.068569 62.998834 
L 236.456593 70.145283 
L 236.844618 67.81035 
L 237.232642 72.270652 
L 237.620667 55.134908 
L 238.008692 72.99944 
L 238.396716 66.318128 
L 238.784741 80.578492 
L 239.172765 82.992981 
L 239.56079 74.425702 
L 239.948815 71.553645 
L 240.336839 70.986691 
L 240.724864 55.751922 
L 241.112889 65.582412 
L 241.500913 63.723116 
L 241.888938 71.044481 
L 242.276962 73.389142 
L 242.664987 61.640244 
L 243.053012 66.189711 
L 243.441036 79.521965 
L 243.829061 77.426758 
L 244.217085 70.590631 
L 244.60511 78.111684 
L 244.993135 68.004983 
L 245.381159 75.402733 
L 245.769184 71.874073 
L 246.157209 82.316464 
L 246.545233 74.897308 
L 246.933258 70.114454 
L 247.321282 87.886891 
L 247.709307 64.99253 
L 248.485356 101.702952 
L 248.873381 58.05977 
L 249.261406 81.374479 
L 249.64943 90.45557 
L 250.037455 63.107786 
L 250.425479 79.758492 
L 250.813504 65.787567 
L 251.201529 61.773657 
L 251.589553 68.716701 
L 251.977578 62.146385 
L 252.365602 79.83277 
L 252.753627 86.310887 
L 253.141652 89.936163 
L 253.529676 68.32127 
L 253.917701 74.865652 
L 254.305726 67.27658 
L 254.69375 69.459154 
L 255.081775 62.395104 
L 255.469799 58.521891 
L 255.857824 78.91888 
L 256.245849 65.538367 
L 256.633873 113.051583 
L 257.021898 82.322663 
L 257.409922 81.974449 
L 257.797947 77.910091 
L 258.185972 88.875023 
L 258.573996 73.234791 
L 259.350046 96.359962 
L 259.73807 63.08817 
L 260.126095 66.025505 
L 260.514119 79.154635 
L 260.902144 58.554959 
L 261.290169 65.816439 
L 261.678193 68.932195 
L 262.066218 58.4355 
L 262.454243 67.411473 
L 262.842267 61.931703 
L 263.230292 73.15469 
L 263.618316 69.368082 
L 264.006341 69.633509 
L 264.394366 66.470346 
L 264.78239 71.043647 
L 265.170415 68.488334 
L 265.558439 67.493719 
L 265.946464 76.196579 
L 266.334489 73.607346 
L 266.722513 73.533699 
L 267.110538 76.780611 
L 267.498563 99.824146 
L 267.886587 76.141017 
L 268.274612 71.550883 
L 269.050661 86.902905 
L 269.438686 94.470738 
L 269.82671 56.675862 
L 270.214735 75.946768 
L 270.602759 73.81622 
L 270.990784 88.636979 
L 272.154858 63.223053 
L 272.542883 79.696535 
L 272.930907 77.766502 
L 273.318932 119.317996 
L 273.706956 74.745173 
L 274.094981 73.764556 
L 274.483006 81.805898 
L 274.87103 84.998015 
L 275.259055 75.467184 
L 275.64708 128.637586 
L 276.035104 67.944968 
L 276.423129 84.555451 
L 276.811153 60.989742 
L 277.199178 99.498356 
L 277.587203 66.368447 
L 277.975227 71.917507 
L 278.363252 72.513241 
L 278.751276 51.756865 
L 279.139301 90.069674 
L 279.527326 59.917316 
L 279.91535 79.970024 
L 280.303375 71.239909 
L 280.6914 84.577335 
L 281.079424 104.951852 
L 281.467449 71.258614 
L 281.855473 110.869666 
L 282.243498 76.707015 
L 282.631523 87.243165 
L 283.019547 73.594003 
L 283.407572 84.714605 
L 283.795596 62.672101 
L 284.183621 80.894768 
L 284.571646 78.638632 
L 284.95967 80.206687 
L 285.347695 85.329084 
L 285.73572 68.94967 
L 286.123744 81.491117 
L 286.899793 69.814606 
L 287.287818 85.051878 
L 287.675843 79.899092 
L 288.063867 64.879523 
L 288.451892 85.189789 
L 288.839917 64.070924 
L 289.227941 73.548439 
L 289.615966 69.990858 
L 290.00399 72.398316 
L 290.392015 67.677368 
L 290.78004 99.329028 
L 291.168064 70.07413 
L 291.556089 96.988778 
L 291.944113 68.139225 
L 292.332138 78.681558 
L 292.720163 79.349113 
L 293.108187 76.499686 
L 293.496212 77.46023 
L 293.884237 82.205847 
L 294.272261 89.496143 
L 294.660286 77.672647 
L 295.04831 69.924569 
L 295.436335 74.388046 
L 295.82436 61.256807 
L 296.212384 103.397243 
L 296.600409 65.150298 
L 296.988433 81.174304 
L 297.764483 63.974305 
L 298.152507 115.505018 
L 298.540532 66.304356 
L 298.928557 86.207789 
L 299.316581 76.239398 
L 299.704606 99.754241 
L 300.09263 82.211339 
L 300.480655 75.336505 
L 300.86868 63.9104 
L 301.256704 73.889438 
L 301.644729 74.699072 
L 302.032754 73.095049 
L 302.420778 76.796414 
L 302.808803 86.650388 
L 303.196827 60.257208 
L 303.584852 68.693437 
L 303.972877 87.69196 
L 304.360901 82.562927 
L 304.748926 84.831607 
L 305.13695 78.984372 
L 305.524975 65.618638 
L 305.913 65.095762 
L 306.301024 67.632472 
L 306.689049 75.138115 
L 307.077074 74.410787 
L 307.465098 67.850291 
L 307.853123 79.037047 
L 308.241147 78.636714 
L 308.629172 61.761138 
L 309.017197 63.860788 
L 309.405221 56.203307 
L 310.18127 74.6659 
L 310.569295 59.766672 
L 310.95732 68.627172 
L 311.345344 65.572759 
L 311.733369 65.648045 
L 312.121394 86.050754 
L 312.509418 66.392573 
L 312.897443 82.741211 
L 313.285467 69.590186 
L 313.673492 71.387567 
L 314.061517 63.289914 
L 314.449541 60.982613 
L 314.837566 69.918694 
L 315.225591 81.733629 
L 315.613615 67.580009 
L 316.00164 101.362131 
L 316.389664 63.870514 
L 316.777689 77.74703 
L 317.165714 58.376324 
L 317.553738 78.498056 
L 317.941763 81.103419 
L 318.329787 99.521496 
L 318.717812 76.350175 
L 319.105837 78.860741 
L 319.493861 96.832513 
L 319.881886 91.875558 
L 320.269911 79.935779 
L 320.657935 92.71662 
L 321.04596 70.626727 
L 321.433984 76.291342 
L 321.822009 95.935225 
L 322.598058 64.074179 
L 322.986083 72.535248 
L 323.374107 97.157862 
L 324.150157 71.601751 
L 324.538181 87.030967 
L 324.926206 70.605813 
L 325.314231 68.666824 
L 325.702255 80.123532 
L 326.09028 75.114953 
L 326.478304 83.717185 
L 326.866329 71.474162 
L 327.254354 74.303833 
L 327.642378 65.395962 
L 328.030403 69.687966 
L 328.418428 65.535697 
L 328.806452 113.042709 
L 329.194477 65.838263 
L 329.582501 65.157115 
L 329.970526 56.476848 
L 330.358551 67.793283 
L 330.746575 70.133282 
L 331.1346 82.873598 
L 331.522624 72.672759 
L 331.910649 74.913916 
L 332.298674 72.170278 
L 332.686698 76.936759 
L 333.074723 69.715326 
L 333.462748 73.138061 
L 333.850772 93.763484 
L 334.238797 93.842479 
L 334.626821 75.771432 
L 335.014846 79.103293 
L 335.402871 70.445034 
L 335.790895 122.097732 
L 336.17892 68.107902 
L 336.566944 76.316881 
L 336.954969 69.651108 
L 337.342994 71.130722 
L 337.731018 81.761503 
L 338.119043 75.874666 
L 338.507068 60.216422 
L 338.895092 77.841115 
L 339.283117 52.820512 
L 339.671141 75.980117 
L 340.059166 77.299065 
L 340.447191 75.262556 
L 340.835215 78.405638 
L 341.22324 76.518967 
L 341.611265 77.131463 
L 341.999289 75.522969 
L 342.387314 85.406554 
L 342.775338 73.60071 
L 343.163363 71.309015 
L 343.551388 64.691338 
L 343.939412 62.731662 
L 344.327437 67.206977 
L 344.715461 77.771469 
L 345.103486 59.414205 
L 345.491511 68.85818 
L 345.879535 71.143753 
L 346.26756 74.409031 
L 346.655585 69.747332 
L 347.043609 117.462031 
L 347.431634 68.743387 
L 347.819658 110.208019 
L 348.207683 54.596137 
L 348.595708 77.318091 
L 348.983732 72.825599 
L 349.371757 57.084326 
L 349.759781 57.91153 
L 350.147806 60.808442 
L 350.535831 73.576916 
L 350.923855 65.940545 
L 351.31188 64.78278 
L 351.699905 60.095296 
L 352.087929 74.139698 
L 352.475954 76.858074 
L 352.863978 73.248862 
L 353.252003 74.528681 
L 353.640028 64.864021 
L 354.028052 86.139421 
L 354.416077 71.884833 
L 354.804102 68.866551 
L 355.192126 75.717793 
L 355.580151 68.170858 
L 355.968175 102.770503 
L 356.3562 101.579129 
L 356.3562 101.579129 
" clip-path="url(#p0e9ec0f167)" style="fill: none; stroke: #1f77b4; stroke-width: 1.2; stroke-linecap: square"/>
   </g>
   <g id="line2d_36">
    <path d="M 59.129343 80.059648 
L 59.517367 73.758878 
L 59.905392 70.663875 
L 60.293417 71.914367 
L 60.681441 79.269349 
L 61.069466 84.003516 
L 61.457491 77.622329 
L 61.845515 92.978257 
L 62.23354 71.959813 
L 62.621564 77.72013 
L 63.397614 68.705205 
L 63.785638 71.035065 
L 64.173663 88.691664 
L 64.561688 80.425946 
L 64.949712 100.163952 
L 65.337737 68.237053 
L 65.725761 75.038878 
L 66.113786 68.167281 
L 66.501811 71.434983 
L 66.889835 70.794083 
L 67.27786 58.326723 
L 67.665884 73.398093 
L 68.053909 75.925713 
L 68.441934 67.930521 
L 69.217983 87.630604 
L 69.606008 82.578952 
L 69.994032 67.220162 
L 70.382057 65.774608 
L 70.770081 70.783212 
L 71.158106 72.713593 
L 71.546131 63.543016 
L 71.934155 90.580316 
L 72.32218 84.359462 
L 72.710204 68.813243 
L 73.098229 73.733037 
L 73.486254 81.374546 
L 73.874278 80.762341 
L 74.262303 69.213804 
L 74.650328 67.123738 
L 75.038352 81.204602 
L 75.426377 78.24251 
L 75.814401 79.509054 
L 76.590451 67.702033 
L 76.978475 79.93455 
L 77.3665 82.424877 
L 77.754525 91.940622 
L 78.142549 87.167332 
L 78.530574 76.369294 
L 78.918598 95.386718 
L 79.306623 95.035364 
L 79.694648 85.300378 
L 80.082672 90.30108 
L 80.470697 81.329447 
L 80.858721 78.738843 
L 81.246746 71.132152 
L 81.634771 68.897018 
L 82.022795 70.801479 
L 82.41082 67.957712 
L 82.798845 71.1318 
L 83.186869 78.19847 
L 83.574894 110.531241 
L 83.962918 81.718822 
L 84.350943 75.67124 
L 84.738968 71.601477 
L 85.126992 73.972302 
L 85.515017 77.445843 
L 85.903041 71.156661 
L 86.291066 86.862455 
L 86.679091 87.702038 
L 87.067115 85.819683 
L 87.45514 64.170201 
L 87.843165 69.389705 
L 88.231189 66.437098 
L 88.619214 66.441138 
L 89.007238 74.128567 
L 89.395263 68.680513 
L 89.783288 66.511094 
L 90.559337 77.976069 
L 90.947362 87.559669 
L 91.335386 125.48334 
L 91.723411 106.065445 
L 92.111435 72.879274 
L 92.49946 80.167742 
L 93.275509 100.110653 
L 94.051558 68.584201 
L 94.439583 81.78798 
L 94.827608 69.752674 
L 95.215632 74.206352 
L 95.603657 117.418991 
L 95.991682 69.289407 
L 96.379706 70.057683 
L 96.767731 72.848916 
L 97.155755 95.764178 
L 97.54378 77.799489 
L 97.931805 80.710676 
L 98.319829 168.952987 
L 98.707854 87.701564 
L 99.095878 69.186884 
L 99.483903 78.052202 
L 99.871928 81.185356 
L 100.259952 82.364496 
L 101.036002 68.35092 
L 101.424026 68.328571 
L 101.812051 90.020327 
L 102.200075 82.363466 
L 102.5881 70.756211 
L 102.976125 66.011312 
L 103.364149 83.127589 
L 103.752174 93.507915 
L 104.528223 59.121051 
L 104.916248 64.858416 
L 105.304272 99.334348 
L 106.080322 69.736889 
L 106.468346 68.899003 
L 106.856371 70.353437 
L 107.244395 61.687584 
L 107.63242 67.002618 
L 108.020445 81.638787 
L 108.408469 82.946032 
L 108.796494 113.121727 
L 109.184519 98.265792 
L 109.572543 67.363423 
L 109.960568 66.582884 
L 110.348592 93.807123 
L 110.736617 86.803355 
L 111.124642 67.341372 
L 111.512666 63.162462 
L 111.900691 66.897434 
L 112.67674 112.423769 
L 113.064765 72.309725 
L 113.452789 71.560716 
L 113.840814 87.399153 
L 114.228839 69.599801 
L 114.616863 62.420371 
L 115.392912 77.836441 
L 115.780937 93.898586 
L 116.168962 78.749036 
L 116.556986 75.429452 
L 116.945011 80.646266 
L 117.333036 72.728651 
L 117.72106 101.976348 
L 118.109085 104.022191 
L 118.497109 134.039649 
L 118.885134 70.34426 
L 119.273159 56.516939 
L 119.661183 58.044851 
L 120.049208 76.207908 
L 120.437232 85.828918 
L 120.825257 77.086956 
L 121.213282 91.708648 
L 121.601306 84.780742 
L 121.989331 80.781871 
L 122.377356 86.885103 
L 122.76538 69.450376 
L 123.541429 86.127335 
L 123.929454 78.256242 
L 124.317479 90.08471 
L 125.093528 74.242156 
L 125.481552 73.699295 
L 125.869577 90.000467 
L 126.257602 88.185088 
L 126.645626 78.005141 
L 127.033651 82.359229 
L 127.421676 78.803126 
L 127.8097 101.731148 
L 128.197725 83.352316 
L 128.585749 102.690008 
L 128.973774 70.385464 
L 129.361799 76.476855 
L 129.749823 111.312975 
L 130.525873 66.574781 
L 130.913897 57.85164 
L 131.301922 57.660142 
L 131.689946 60.204621 
L 132.077971 76.303277 
L 132.465996 75.644233 
L 132.85402 67.832433 
L 133.242045 73.188272 
L 133.630069 109.984142 
L 134.018094 77.743854 
L 134.406119 76.641782 
L 134.794143 85.040091 
L 135.182168 71.517397 
L 135.570193 64.41559 
L 135.958217 83.041518 
L 136.346242 65.722109 
L 136.734266 68.987653 
L 137.122291 73.50322 
L 137.510316 80.865803 
L 137.89834 97.29207 
L 138.286365 73.941695 
L 138.674389 66.439321 
L 139.062414 89.149191 
L 139.450439 63.33649 
L 139.838463 59.347071 
L 140.226488 81.507675 
L 140.614513 70.036951 
L 141.002537 67.547056 
L 141.390562 72.685882 
L 142.554636 112.491259 
L 142.94266 75.180814 
L 143.330685 74.337249 
L 143.71871 73.214207 
L 144.106734 81.063188 
L 144.494759 98.007726 
L 144.882783 95.541091 
L 145.270808 77.681875 
L 145.658833 81.083586 
L 146.046857 71.215205 
L 146.434882 70.156741 
L 146.822906 78.780102 
L 147.210931 76.880991 
L 147.598956 77.566514 
L 147.98698 84.478904 
L 148.375005 73.922711 
L 148.76303 71.517362 
L 149.151054 70.825687 
L 149.539079 72.383755 
L 149.927103 72.782393 
L 150.315128 72.523957 
L 150.703153 84.373749 
L 151.091177 86.57866 
L 151.479202 71.829728 
L 151.867226 75.428145 
L 152.643276 92.842709 
L 153.419325 67.041148 
L 154.195374 57.089351 
L 154.583399 73.091944 
L 154.971423 71.314785 
L 155.359448 70.861372 
L 156.135497 74.913756 
L 156.523522 84.790033 
L 156.911547 81.09012 
L 157.299571 79.587316 
L 158.07562 65.692122 
L 158.463645 70.58351 
L 158.85167 77.647167 
L 159.239694 97.174276 
L 159.627719 63.456206 
L 160.015743 68.504859 
L 160.403768 63.21079 
L 160.791793 63.60466 
L 161.567842 90.613699 
L 161.955867 79.139289 
L 162.343891 96.183564 
L 162.731916 80.33695 
L 163.11994 69.229282 
L 163.507965 68.206953 
L 163.89599 71.009228 
L 164.284014 75.347284 
L 164.672039 59.358431 
L 165.060063 61.855064 
L 165.448088 76.50325 
L 165.836113 70.436085 
L 166.224137 61.839438 
L 166.612162 58.390151 
L 167.000187 61.781759 
L 167.388211 69.572765 
L 167.776236 67.880906 
L 168.552285 57.306658 
L 168.94031 58.793554 
L 169.328334 70.375364 
L 169.716359 66.515899 
L 170.104384 70.525504 
L 170.492408 86.562628 
L 170.880433 78.338756 
L 171.268457 79.315637 
L 171.656482 81.678939 
L 172.044507 78.515215 
L 172.432531 79.383631 
L 172.820556 79.271998 
L 173.20858 74.651368 
L 173.596605 74.853243 
L 173.98463 77.764483 
L 174.372654 107.653053 
L 174.760679 86.863108 
L 175.148704 94.71495 
L 175.924753 75.1613 
L 176.312777 81.952909 
L 176.700802 86.534663 
L 177.088827 101.078774 
L 177.476851 84.062822 
L 177.864876 97.435318 
L 178.2529 100.588045 
L 178.640925 69.255321 
L 179.02895 62.792817 
L 179.416974 63.762062 
L 179.804999 67.938632 
L 180.193024 82.900603 
L 180.581048 90.143525 
L 180.969073 82.636059 
L 181.357097 100.957001 
L 181.745122 72.001351 
L 182.133147 66.053996 
L 182.909196 58.571282 
L 183.297221 65.507404 
L 183.685245 103.682688 
L 184.07327 80.55807 
L 184.461294 89.287493 
L 185.237344 69.878036 
L 185.625368 83.42262 
L 186.013393 74.971262 
L 186.789442 88.644294 
L 187.177467 69.505186 
L 187.565491 87.156538 
L 187.953516 99.608363 
L 188.341541 37.232638 
L 188.729565 17.540282 
L 189.11759 26.454484 
L 189.505614 65.21498 
L 189.893639 78.274735 
L 190.281664 107.312959 
L 190.669688 74.417109 
L 191.057713 72.368618 
L 191.445737 75.726804 
L 191.833762 89.286602 
L 192.221787 77.79965 
L 192.609811 78.550443 
L 192.997836 85.221573 
L 193.773885 78.488666 
L 194.16191 99.174395 
L 194.549934 90.982539 
L 194.937959 99.141092 
L 195.325984 94.05882 
L 195.714008 70.585737 
L 196.102033 71.073959 
L 196.490058 80.143346 
L 196.878082 81.439856 
L 197.266107 87.404176 
L 197.654131 72.383875 
L 198.042156 72.680694 
L 198.430181 74.269211 
L 198.818205 60.061458 
L 199.594254 72.330077 
L 199.982279 69.818058 
L 200.370304 77.768899 
L 200.758328 74.445237 
L 201.146353 113.791288 
L 201.534378 91.223248 
L 201.922402 78.378033 
L 202.310427 82.088174 
L 202.698451 70.214597 
L 203.474501 89.360951 
L 204.638574 71.580529 
L 205.026599 79.358364 
L 205.802648 56.77807 
L 206.190673 71.721636 
L 206.578698 66.738862 
L 206.966722 69.610939 
L 207.354747 83.066358 
L 207.742771 74.186788 
L 208.130796 79.357038 
L 208.518821 74.815288 
L 208.906845 75.523688 
L 209.29487 78.953716 
L 209.682895 70.403984 
L 210.458944 95.716301 
L 210.846968 119.929106 
L 211.623018 76.2915 
L 212.011042 80.812928 
L 212.399067 70.162283 
L 212.787091 78.115997 
L 213.175116 68.428843 
L 213.563141 86.221172 
L 214.33919 65.44416 
L 214.727215 70.627675 
L 215.115239 81.305875 
L 215.503264 65.729803 
L 215.891288 89.447115 
L 216.279313 79.870087 
L 216.667338 116.335625 
L 217.055362 63.195692 
L 217.443387 63.978542 
L 217.831411 76.279824 
L 218.219436 74.773487 
L 218.607461 75.435821 
L 218.995485 91.639659 
L 219.38351 79.913219 
L 219.771535 96.049319 
L 220.159559 72.908492 
L 220.547584 65.671878 
L 220.935608 82.426126 
L 221.323633 86.248496 
L 221.711658 73.746567 
L 222.099682 89.636597 
L 222.487707 69.664757 
L 222.875732 73.912884 
L 223.263756 95.327861 
L 223.651781 84.790867 
L 224.039805 79.076652 
L 224.42783 81.48035 
L 224.815855 66.904077 
L 225.203879 65.618008 
L 225.591904 63.22237 
L 225.979928 59.901742 
L 226.367953 67.194686 
L 226.755978 79.146101 
L 227.144002 76.582925 
L 227.532027 76.356944 
L 227.920052 71.367482 
L 228.308076 69.911161 
L 228.696101 76.152277 
L 229.084125 114.313452 
L 229.47215 91.253167 
L 229.860175 81.076187 
L 230.248199 100.028389 
L 230.636224 65.541275 
L 231.024248 62.51597 
L 231.412273 67.282633 
L 231.800298 69.854513 
L 232.188322 68.818067 
L 232.576347 73.859079 
L 232.964372 81.708 
L 233.352396 95.911205 
L 233.740421 104.318909 
L 234.128445 88.920331 
L 234.51647 80.969001 
L 234.904495 93.351314 
L 235.292519 66.541002 
L 235.680544 60.312198 
L 236.068569 63.946751 
L 236.456593 72.574914 
L 236.844618 74.580593 
L 237.232642 79.309437 
L 237.620667 77.264972 
L 238.008692 65.93495 
L 238.396716 74.085399 
L 238.784741 99.351858 
L 239.172765 104.98784 
L 239.56079 106.49524 
L 239.948815 73.043073 
L 240.336839 63.370342 
L 240.724864 71.010836 
L 241.112889 68.922379 
L 241.500913 63.680507 
L 241.888938 81.731966 
L 242.276962 69.171731 
L 242.664987 82.331703 
L 243.053012 72.588638 
L 243.441036 73.647064 
L 243.829061 94.330987 
L 244.217085 70.505565 
L 244.60511 81.735623 
L 244.993135 88.407446 
L 245.381159 73.885244 
L 245.769184 66.619765 
L 246.545233 93.235597 
L 246.933258 88.936503 
L 247.321282 68.043791 
L 248.097332 73.161281 
L 248.873381 70.810811 
L 249.261406 65.428163 
L 249.64943 71.13712 
L 250.037455 79.358532 
L 250.425479 66.273046 
L 250.813504 65.962279 
L 251.201529 66.462008 
L 251.589553 61.107344 
L 251.977578 63.689358 
L 252.365602 75.304102 
L 252.753627 98.140682 
L 253.141652 79.127209 
L 253.529676 77.716621 
L 254.305726 65.770893 
L 255.081775 95.170999 
L 255.469799 101.979257 
L 255.857824 83.923691 
L 256.245849 78.656541 
L 256.633873 77.884726 
L 257.021898 87.583659 
L 257.409922 141.729462 
L 257.797947 76.728028 
L 258.185972 71.339068 
L 258.573996 106.323373 
L 258.962021 93.015162 
L 259.350046 92.870035 
L 259.73807 68.408572 
L 260.126095 61.201946 
L 260.514119 69.002886 
L 260.902144 59.856932 
L 261.290169 63.490914 
L 261.678193 73.876114 
L 262.066218 72.417577 
L 262.454243 62.67617 
L 262.842267 75.889183 
L 263.230292 109.423898 
L 263.618316 81.756248 
L 264.006341 95.100624 
L 264.394366 84.291164 
L 264.78239 100.671434 
L 265.170415 97.040909 
L 265.558439 89.746076 
L 265.946464 63.994757 
L 266.334489 64.777182 
L 266.722513 103.212333 
L 267.110538 97.643207 
L 267.498563 76.799642 
L 267.886587 77.485931 
L 268.274612 90.199052 
L 268.662636 62.832034 
L 269.050661 75.467776 
L 269.438686 62.519903 
L 270.214735 69.437548 
L 270.602759 69.893228 
L 270.990784 117.660516 
L 271.378809 82.204601 
L 271.766833 83.071638 
L 272.154858 84.411002 
L 272.542883 78.099907 
L 272.930907 113.681759 
L 273.318932 84.503932 
L 273.706956 81.281563 
L 274.094981 80.693986 
L 274.483006 73.590362 
L 274.87103 83.23224 
L 275.259055 81.706924 
L 275.64708 84.730054 
L 276.035104 86.193041 
L 276.423129 83.812038 
L 277.199178 70.149829 
L 277.587203 87.235418 
L 277.975227 83.837998 
L 278.363252 79.430671 
L 278.751276 93.192693 
L 279.139301 64.021181 
L 279.527326 63.654387 
L 279.91535 71.134465 
L 280.303375 82.404812 
L 280.6914 83.605099 
L 281.079424 90.506059 
L 281.467449 101.237769 
L 281.855473 83.167017 
L 282.243498 81.294121 
L 282.631523 75.253036 
L 283.019547 78.447601 
L 283.407572 83.43106 
L 283.795596 68.810482 
L 284.183621 67.617786 
L 284.571646 85.187311 
L 284.95967 80.772623 
L 285.347695 82.637364 
L 285.73572 88.010248 
L 286.123744 96.444114 
L 286.511769 79.693421 
L 287.287818 73.223483 
L 287.675843 71.596038 
L 288.063867 82.400233 
L 288.451892 79.094316 
L 288.839917 93.630169 
L 289.227941 93.901188 
L 290.00399 70.700477 
L 290.392015 91.413672 
L 291.168064 85.085415 
L 291.556089 72.470382 
L 291.944113 78.17811 
L 292.332138 74.886941 
L 292.720163 102.462246 
L 293.108187 75.870704 
L 293.496212 81.477906 
L 293.884237 75.683292 
L 294.272261 72.683239 
L 294.660286 98.101026 
L 295.04831 76.226621 
L 295.436335 62.018703 
L 295.82436 79.090451 
L 296.212384 85.727864 
L 296.600409 75.725271 
L 296.988433 72.34661 
L 297.376458 81.058158 
L 297.764483 95.293121 
L 298.152507 71.292825 
L 298.540532 67.266901 
L 298.928557 73.888005 
L 299.316581 108.395127 
L 299.704606 125.89648 
L 300.09263 97.511424 
L 300.480655 89.655715 
L 300.86868 67.253686 
L 301.256704 63.853432 
L 301.644729 69.98725 
L 302.032754 90.465969 
L 302.420778 129.013112 
L 302.808803 71.087527 
L 303.196827 62.185172 
L 303.584852 63.655152 
L 303.972877 78.753207 
L 304.360901 103.437477 
L 304.748926 94.98908 
L 305.13695 91.385147 
L 305.524975 119.833662 
L 305.913 87.492883 
L 306.301024 74.245611 
L 306.689049 90.442746 
L 307.077074 81.477477 
L 307.465098 82.971586 
L 307.853123 79.280372 
L 308.241147 85.987285 
L 308.629172 66.180572 
L 309.017197 55.707574 
L 309.405221 57.96161 
L 310.18127 74.74033 
L 310.569295 70.789231 
L 311.345344 81.212076 
L 311.733369 78.035745 
L 312.121394 97.573816 
L 312.509418 88.062862 
L 312.897443 70.930726 
L 313.285467 75.17606 
L 313.673492 86.988379 
L 314.061517 81.740006 
L 314.449541 79.283247 
L 314.837566 84.692184 
L 315.225591 78.453047 
L 315.613615 69.389007 
L 316.389664 78.767622 
L 316.777689 72.376645 
L 317.165714 70.293365 
L 317.553738 74.917128 
L 317.941763 88.721221 
L 318.329787 77.919296 
L 318.717812 107.821354 
L 319.105837 90.805278 
L 319.493861 101.515781 
L 319.881886 108.747841 
L 320.269911 75.603057 
L 320.657935 76.78492 
L 321.04596 102.634096 
L 321.433984 76.156172 
L 321.822009 83.820789 
L 322.210034 64.979163 
L 322.598058 73.248916 
L 322.986083 78.493961 
L 323.374107 89.148616 
L 323.762132 76.509733 
L 324.150157 78.892487 
L 324.538181 80.00558 
L 324.926206 77.2224 
L 325.314231 68.380989 
L 325.702255 67.091971 
L 326.09028 73.223805 
L 326.866329 81.925703 
L 327.254354 71.507665 
L 327.642378 64.895483 
L 328.030403 63.395676 
L 328.418428 70.516518 
L 328.806452 110.428266 
L 329.194477 92.759187 
L 329.582501 69.652805 
L 329.970526 69.984645 
L 330.358551 75.850496 
L 330.746575 83.635827 
L 331.1346 77.915621 
L 331.522624 82.931003 
L 331.910649 80.911458 
L 332.298674 96.577909 
L 332.686698 88.524785 
L 333.074723 71.709638 
L 333.462748 71.55461 
L 333.850772 89.33645 
L 334.238797 78.678107 
L 334.626821 72.636814 
L 335.014846 82.94614 
L 335.402871 75.029202 
L 335.790895 74.594767 
L 336.17892 96.258349 
L 336.954969 76.461718 
L 337.342994 75.341551 
L 337.731018 77.216913 
L 338.119043 73.456238 
L 338.507068 67.340189 
L 338.895092 58.190609 
L 339.283117 59.675441 
L 339.671141 62.366767 
L 340.447191 105.361811 
L 340.835215 93.92608 
L 341.22324 86.961761 
L 341.611265 86.653102 
L 342.387314 69.311237 
L 342.775338 71.856637 
L 343.163363 86.987617 
L 343.551388 82.722943 
L 343.939412 81.262832 
L 344.327437 96.369994 
L 345.103486 60.059675 
L 345.491511 58.143428 
L 345.879535 74.54074 
L 346.26756 74.736808 
L 347.043609 71.174845 
L 347.431634 138.292225 
L 347.819658 64.706251 
L 348.207683 63.999886 
L 348.595708 71.471868 
L 348.983732 91.602033 
L 349.759781 66.076061 
L 350.147806 65.122157 
L 350.535831 86.638276 
L 350.923855 58.870443 
L 351.31188 60.580296 
L 352.087929 76.605729 
L 352.475954 89.324222 
L 352.863978 76.606504 
L 353.252003 81.150818 
L 353.640028 90.034416 
L 354.028052 82.659869 
L 354.416077 77.893174 
L 354.804102 77.148656 
L 355.192126 92.084846 
L 355.580151 77.203756 
L 355.968175 89.714808 
L 356.3562 72.513703 
L 356.3562 72.513703 
" clip-path="url(#p0e9ec0f167)" style="fill: none; stroke: #ff7f0e; stroke-width: 1.2; stroke-linecap: square"/>
   </g>
   <g id="line2d_37">
    <path d="M 59.129343 79.57894 
L 59.517367 73.809749 
L 59.905392 70.151358 
L 60.293417 70.974459 
L 60.681441 80.253283 
L 61.069466 84.023474 
L 61.457491 77.419094 
L 61.845515 92.129355 
L 62.23354 71.081617 
L 62.621564 75.390884 
L 63.397614 69.188803 
L 63.785638 69.907319 
L 64.173663 89.694531 
L 64.561688 80.375278 
L 64.949712 101.625628 
L 65.337737 66.236548 
L 65.725761 74.073412 
L 66.113786 68.023535 
L 66.501811 70.681589 
L 66.889835 71.853083 
L 67.27786 57.18777 
L 67.665884 73.549551 
L 68.053909 74.739401 
L 68.441934 67.992458 
L 68.829958 74.725173 
L 69.217983 90.038561 
L 69.606008 81.188898 
L 69.994032 65.969643 
L 70.382057 66.842262 
L 71.158106 72.142296 
L 71.546131 62.665049 
L 71.934155 91.741755 
L 72.32218 83.741569 
L 72.710204 67.672338 
L 73.486254 80.515068 
L 73.874278 80.744506 
L 74.262303 68.290986 
L 74.650328 66.748288 
L 75.038352 81.71742 
L 75.426377 79.152382 
L 75.814401 77.393824 
L 76.590451 68.144393 
L 76.978475 78.874491 
L 77.3665 80.555731 
L 77.754525 92.338856 
L 78.142549 87.021066 
L 78.530574 75.500887 
L 78.918598 93.504304 
L 79.306623 92.533089 
L 79.694648 86.692305 
L 80.082672 88.8862 
L 80.470697 79.361505 
L 80.858721 78.219375 
L 81.246746 70.635223 
L 81.634771 68.537174 
L 82.022795 70.259955 
L 82.41082 68.400867 
L 82.798845 70.339008 
L 83.186869 77.365999 
L 83.574894 110.547951 
L 83.962918 81.231782 
L 84.350943 75.114219 
L 84.738968 72.042011 
L 85.126992 72.226546 
L 85.515017 79.474565 
L 85.903041 70.025888 
L 86.291066 84.848487 
L 86.679091 86.04577 
L 87.067115 85.085819 
L 87.45514 63.761155 
L 87.843165 68.708364 
L 88.231189 66.377182 
L 88.619214 65.754081 
L 89.007238 75.633436 
L 89.395263 67.779966 
L 89.783288 66.582261 
L 90.559337 77.84125 
L 90.947362 86.769481 
L 91.335386 121.846183 
L 91.723411 109.060092 
L 92.111435 72.303511 
L 92.49946 78.349282 
L 92.887485 87.106777 
L 93.275509 102.973019 
L 94.051558 66.829057 
L 94.439583 82.214189 
L 94.827608 68.891419 
L 95.215632 74.768163 
L 95.603657 115.822158 
L 95.991682 67.769826 
L 96.379706 70.578766 
L 96.767731 72.242033 
L 97.155755 93.427515 
L 97.54378 76.895082 
L 97.931805 77.784063 
L 98.319829 112.613532 
L 98.707854 84.933093 
L 99.095878 69.50249 
L 99.483903 76.571007 
L 100.259952 83.374191 
L 100.647977 71.44928 
L 101.036002 69.796869 
L 101.424026 66.947376 
L 101.812051 91.319761 
L 102.976125 63.677148 
L 103.364149 86.750893 
L 103.752174 96.750836 
L 104.528223 58.254066 
L 104.916248 64.577938 
L 105.304272 105.254555 
L 106.080322 69.457655 
L 106.468346 68.320637 
L 106.856371 71.404472 
L 107.244395 60.360965 
L 107.63242 68.274297 
L 108.020445 79.765623 
L 108.408469 81.980183 
L 108.796494 106.461856 
L 109.184519 99.962947 
L 109.572543 66.343624 
L 109.960568 65.814569 
L 110.348592 97.67786 
L 110.736617 86.345813 
L 111.124642 67.029082 
L 111.512666 63.225917 
L 111.900691 66.23138 
L 112.288715 89.003941 
L 112.67674 103.290821 
L 113.064765 71.10939 
L 113.452789 70.711811 
L 113.840814 89.151538 
L 114.228839 68.512717 
L 114.616863 62.155639 
L 115.004888 71.078236 
L 115.392912 77.22502 
L 115.780937 91.486313 
L 116.168962 78.68927 
L 116.556986 72.612417 
L 116.945011 77.751951 
L 117.333036 71.545771 
L 117.72106 98.118364 
L 118.109085 103.914626 
L 118.497109 152.323741 
L 118.885134 69.987624 
L 119.273159 56.378867 
L 119.661183 57.442241 
L 120.049208 77.175433 
L 120.437232 88.456721 
L 120.825257 74.51906 
L 121.213282 88.707633 
L 121.601306 84.978744 
L 121.989331 79.404836 
L 122.377356 83.446497 
L 122.76538 68.176544 
L 123.541429 87.376447 
L 123.929454 76.685563 
L 124.317479 92.660279 
L 124.705503 79.094851 
L 125.093528 75.158957 
L 125.481552 72.389281 
L 125.869577 91.932989 
L 126.257602 86.965927 
L 126.645626 77.29795 
L 127.033651 82.935844 
L 127.421676 76.722439 
L 127.8097 100.040998 
L 128.197725 83.539742 
L 128.585749 106.290332 
L 128.973774 69.011643 
L 129.361799 76.037113 
L 129.749823 119.230158 
L 130.137848 85.261943 
L 130.525873 66.644315 
L 130.913897 56.977254 
L 131.301922 58.109189 
L 131.689946 59.61387 
L 132.077971 75.433776 
L 132.465996 73.570417 
L 132.85402 68.66513 
L 133.242045 71.32449 
L 133.630069 102.948422 
L 134.018094 77.793918 
L 134.406119 76.777603 
L 134.794143 83.586912 
L 135.570193 62.408067 
L 135.958217 79.980231 
L 136.346242 65.87661 
L 136.734266 68.651866 
L 137.122291 73.191683 
L 137.510316 80.538019 
L 137.89834 97.096337 
L 138.286365 73.11189 
L 138.674389 66.376865 
L 139.062414 85.17342 
L 139.450439 62.109544 
L 139.838463 58.88209 
L 140.226488 82.569926 
L 140.614513 69.847712 
L 141.002537 67.105818 
L 141.390562 73.292286 
L 141.778586 83.905295 
L 142.554636 117.926981 
L 142.94266 71.910801 
L 143.330685 75.129238 
L 143.71871 73.314073 
L 144.106734 79.274258 
L 144.494759 101.430587 
L 144.882783 94.2095 
L 145.270808 77.828266 
L 145.658833 78.096854 
L 146.046857 70.382871 
L 146.434882 69.036587 
L 146.822906 76.128744 
L 147.210931 75.069862 
L 147.598956 77.510161 
L 147.98698 84.701428 
L 148.375005 73.279648 
L 149.151054 69.452769 
L 149.539079 73.54882 
L 149.927103 71.475542 
L 150.315128 73.292599 
L 150.703153 83.205892 
L 151.091177 84.148396 
L 151.479202 71.513495 
L 151.867226 74.912461 
L 152.255251 84.814643 
L 152.643276 91.827904 
L 153.419325 65.320744 
L 154.195374 56.671032 
L 154.583399 73.977473 
L 154.971423 71.08599 
L 155.359448 70.501718 
L 155.747473 71.48796 
L 156.135497 74.189691 
L 156.523522 88.384927 
L 156.911547 79.485645 
L 157.687596 73.73665 
L 158.07562 64.992775 
L 158.85167 77.982985 
L 159.239694 97.697879 
L 159.627719 62.0228 
L 160.015743 68.066921 
L 160.403768 63.156816 
L 160.791793 62.893428 
L 161.567842 88.293813 
L 161.955867 79.176971 
L 162.343891 97.707853 
L 162.731916 79.180644 
L 163.11994 70.049361 
L 163.507965 66.883055 
L 164.284014 74.7982 
L 164.672039 58.066206 
L 165.060063 62.190427 
L 165.448088 76.739303 
L 165.836113 71.343408 
L 166.224137 60.988241 
L 166.612162 58.544529 
L 167.000187 61.075603 
L 167.388211 71.120139 
L 168.16426 63.361144 
L 168.552285 56.682385 
L 168.94031 58.755345 
L 169.328334 70.893076 
L 169.716359 65.559885 
L 170.104384 70.539854 
L 170.492408 86.833156 
L 170.880433 77.968855 
L 171.268457 78.580411 
L 171.656482 83.61102 
L 172.044507 76.537359 
L 172.432531 81.790436 
L 173.20858 73.950168 
L 173.98463 76.427601 
L 174.372654 108.746085 
L 174.760679 85.453755 
L 175.148704 95.009869 
L 175.924753 74.032527 
L 176.312777 82.710572 
L 176.700802 86.732619 
L 177.088827 96.597693 
L 177.476851 82.165823 
L 177.864876 96.813533 
L 178.2529 105.719348 
L 178.640925 68.321373 
L 179.02895 62.788484 
L 179.416974 63.937091 
L 179.804999 67.245939 
L 180.193024 84.089586 
L 180.581048 89.785828 
L 180.969073 82.139653 
L 181.357097 101.635687 
L 181.745122 71.332541 
L 182.133147 66.064989 
L 182.909196 58.352034 
L 183.297221 64.85541 
L 183.685245 113.529032 
L 184.07327 78.499213 
L 184.461294 92.007445 
L 185.237344 69.303074 
L 185.625368 83.444325 
L 186.013393 73.01386 
L 186.401417 80.667882 
L 186.789442 85.460711 
L 187.177467 69.922956 
L 187.565491 81.618213 
L 187.953516 107.222597 
L 188.341541 40.35515 
L 188.729565 16.104154 
L 189.11759 26.911823 
L 189.505614 65.031039 
L 189.893639 82.051129 
L 190.281664 91.170821 
L 190.669688 71.066805 
L 191.445737 74.211451 
L 191.833762 90.164308 
L 192.221787 76.461075 
L 192.609811 77.66593 
L 192.997836 85.04076 
L 193.385861 80.006334 
L 193.773885 77.383807 
L 194.16191 94.357075 
L 194.549934 91.837932 
L 194.937959 101.853897 
L 195.325984 90.698671 
L 195.714008 68.87131 
L 196.102033 70.95223 
L 196.490058 81.128466 
L 196.878082 80.212177 
L 197.266107 89.435883 
L 197.654131 71.384233 
L 198.042156 72.105263 
L 198.430181 75.864438 
L 198.818205 59.412442 
L 199.594254 72.387678 
L 199.982279 69.929792 
L 200.370304 74.605996 
L 200.758328 73.049537 
L 201.146353 113.71129 
L 201.534378 87.909692 
L 201.922402 75.115787 
L 202.310427 83.179385 
L 202.698451 69.397084 
L 203.474501 89.568541 
L 203.862525 84.610157 
L 204.638574 71.847015 
L 205.026599 76.487289 
L 205.802648 56.33817 
L 206.190673 72.103859 
L 206.578698 65.50926 
L 206.966722 69.792019 
L 207.354747 83.289646 
L 207.742771 72.402334 
L 208.130796 80.801916 
L 208.518821 73.215247 
L 208.906845 74.520774 
L 209.29487 80.75078 
L 209.682895 68.635649 
L 210.070919 84.737298 
L 210.458944 92.329637 
L 210.846968 124.794148 
L 211.623018 74.432691 
L 212.011042 82.629586 
L 212.399067 68.26674 
L 212.787091 76.811785 
L 213.175116 67.675112 
L 213.563141 86.051187 
L 214.33919 64.524949 
L 214.727215 69.792154 
L 215.115239 82.055728 
L 215.503264 63.747035 
L 215.891288 89.010474 
L 216.279313 77.730021 
L 216.667338 119.047315 
L 217.055362 62.514587 
L 217.443387 63.653124 
L 217.831411 76.596129 
L 218.607461 74.041544 
L 218.995485 93.701049 
L 219.38351 79.726839 
L 219.771535 92.828858 
L 220.159559 71.926697 
L 220.547584 65.31181 
L 220.935608 82.34325 
L 221.323633 85.993601 
L 221.711658 72.836353 
L 222.099682 88.732217 
L 222.487707 69.534521 
L 222.875732 72.221522 
L 223.263756 98.590779 
L 223.651781 83.895208 
L 224.039805 79.022911 
L 224.42783 79.896016 
L 224.815855 66.599236 
L 225.591904 62.965591 
L 225.979928 59.424377 
L 226.367953 67.625466 
L 226.755978 79.384668 
L 227.144002 74.610743 
L 227.532027 77.215502 
L 227.920052 70.523142 
L 228.308076 70.021518 
L 228.696101 74.96181 
L 229.084125 116.099299 
L 229.47215 88.794632 
L 229.860175 78.24089 
L 230.248199 99.439934 
L 230.636224 65.429015 
L 231.024248 61.885779 
L 231.412273 67.810264 
L 231.800298 69.485154 
L 232.188322 67.124038 
L 232.964372 80.714159 
L 233.352396 97.646314 
L 233.740421 99.457148 
L 234.51647 79.736996 
L 234.904495 94.397891 
L 235.292519 66.064685 
L 235.680544 59.680391 
L 236.068569 64.007952 
L 236.456593 72.741494 
L 237.232642 77.59062 
L 237.620667 78.693311 
L 238.008692 64.28138 
L 238.396716 74.751971 
L 238.784741 101.391139 
L 239.172765 101.815339 
L 239.56079 105.744082 
L 239.948815 73.062655 
L 240.336839 62.414484 
L 240.724864 71.694025 
L 241.500913 63.529577 
L 241.888938 81.086861 
L 242.276962 66.649118 
L 242.664987 85.163107 
L 243.053012 72.797892 
L 243.441036 71.938707 
L 243.829061 92.949819 
L 244.217085 69.845011 
L 244.993135 91.024433 
L 245.381159 73.617259 
L 245.769184 66.024811 
L 246.545233 93.971547 
L 246.933258 89.914041 
L 247.321282 66.896066 
L 247.709307 71.032354 
L 248.097332 71.762109 
L 248.485356 70.359363 
L 248.873381 71.433868 
L 249.261406 64.417613 
L 249.64943 70.165725 
L 250.037455 79.185057 
L 250.425479 65.385439 
L 250.813504 65.969454 
L 251.201529 66.888601 
L 251.589553 60.601892 
L 251.977578 63.813045 
L 252.365602 74.944899 
L 252.753627 99.464617 
L 253.141652 77.911316 
L 253.529676 78.189645 
L 254.305726 65.481851 
L 254.69375 79.338876 
L 255.081775 88.063999 
L 255.469799 113.619007 
L 255.857824 80.559345 
L 256.245849 80.128688 
L 256.633873 76.592993 
L 257.021898 87.909495 
L 257.409922 141.448561 
L 257.797947 76.534637 
L 258.185972 70.134879 
L 258.573996 111.101153 
L 258.962021 92.094866 
L 259.350046 92.611301 
L 259.73807 68.802353 
L 260.126095 60.133606 
L 260.514119 67.984004 
L 260.902144 59.763025 
L 261.290169 63.170058 
L 261.678193 74.295934 
L 262.066218 73.949392 
L 262.454243 61.113594 
L 262.842267 74.957748 
L 263.230292 109.403078 
L 263.618316 79.654361 
L 264.006341 89.165467 
L 264.394366 84.377375 
L 264.78239 100.47305 
L 265.170415 99.426698 
L 265.558439 88.267574 
L 265.946464 63.132124 
L 266.334489 64.212191 
L 266.722513 109.194362 
L 267.110538 100.535663 
L 267.498563 75.613457 
L 267.886587 77.531089 
L 268.274612 92.755393 
L 268.662636 61.774512 
L 269.050661 74.263346 
L 269.438686 60.896721 
L 269.82671 67.340012 
L 270.214735 68.697522 
L 270.602759 69.598629 
L 270.990784 117.252926 
L 271.378809 79.905504 
L 271.766833 82.24852 
L 272.154858 87.532346 
L 272.542883 75.616257 
L 272.930907 106.691134 
L 273.318932 82.731623 
L 273.706956 80.918654 
L 274.094981 81.142338 
L 274.483006 73.049443 
L 274.87103 82.954782 
L 275.259055 81.387809 
L 275.64708 83.139333 
L 276.035104 86.401308 
L 276.423129 81.109646 
L 276.811153 78.246481 
L 277.199178 68.251465 
L 277.587203 90.392805 
L 277.975227 84.689434 
L 278.363252 75.875848 
L 278.751276 108.228408 
L 279.139301 62.086953 
L 279.527326 63.97724 
L 279.91535 70.109055 
L 280.303375 83.630998 
L 280.6914 83.427087 
L 281.079424 88.598677 
L 281.467449 104.245622 
L 281.855473 81.375618 
L 282.243498 81.694464 
L 282.631523 74.488567 
L 283.019547 78.762313 
L 283.407572 81.42323 
L 283.795596 68.715989 
L 284.183621 66.647931 
L 284.571646 85.555602 
L 284.95967 80.813346 
L 285.347695 80.320791 
L 285.73572 85.124594 
L 286.123744 95.11774 
L 286.511769 79.863126 
L 287.287818 72.260302 
L 287.675843 70.200653 
L 288.063867 84.294511 
L 288.451892 76.757528 
L 288.839917 97.750394 
L 289.615966 79.72488 
L 290.00399 68.496958 
L 290.392015 92.918386 
L 290.78004 87.037432 
L 291.168064 86.614274 
L 291.556089 71.254913 
L 291.944113 79.155007 
L 292.332138 72.88311 
L 292.720163 97.339329 
L 293.108187 75.565626 
L 293.496212 81.507523 
L 293.884237 75.242256 
L 294.272261 71.663028 
L 294.660286 94.629973 
L 295.436335 60.717564 
L 295.82436 81.12975 
L 296.212384 83.745355 
L 296.988433 71.140883 
L 297.376458 79.420957 
L 297.764483 99.529053 
L 298.152507 69.907132 
L 298.540532 67.34408 
L 298.928557 72.845608 
L 299.316581 115.643835 
L 299.704606 130.46268 
L 300.09263 97.802457 
L 300.480655 88.376025 
L 300.86868 66.84186 
L 301.256704 63.197268 
L 301.644729 69.447453 
L 302.032754 92.37154 
L 302.420778 153.262605 
L 302.808803 70.078069 
L 303.196827 62.290783 
L 303.584852 63.297788 
L 303.972877 78.165052 
L 304.360901 98.877118 
L 304.748926 95.746003 
L 305.13695 88.564426 
L 305.524975 103.768239 
L 305.913 85.618855 
L 306.301024 73.857181 
L 306.689049 88.264156 
L 307.077074 78.282045 
L 307.465098 84.155354 
L 307.853123 79.289298 
L 308.241147 84.599874 
L 308.629172 66.071202 
L 309.017197 55.147706 
L 309.405221 58.075149 
L 310.18127 74.334493 
L 310.569295 71.361375 
L 310.95732 72.80497 
L 311.345344 77.747812 
L 311.733369 78.752974 
L 312.121394 93.564256 
L 312.509418 91.361005 
L 312.897443 69.407853 
L 313.285467 75.134741 
L 313.673492 88.954418 
L 314.061517 76.838643 
L 314.449541 74.611752 
L 314.837566 83.953055 
L 315.225591 78.173022 
L 315.613615 69.504041 
L 316.00164 72.462307 
L 316.389664 79.580407 
L 316.777689 71.480982 
L 317.165714 71.536967 
L 317.553738 72.167541 
L 317.941763 85.098065 
L 318.329787 76.859641 
L 318.717812 102.614256 
L 319.105837 88.251701 
L 319.493861 98.220158 
L 319.881886 104.41878 
L 320.269911 74.570846 
L 320.657935 75.6829 
L 321.04596 106.800221 
L 321.433984 73.513192 
L 321.822009 82.671598 
L 322.210034 63.908737 
L 322.598058 73.350247 
L 322.986083 78.812019 
L 323.374107 88.484492 
L 323.762132 75.961967 
L 324.150157 78.080498 
L 324.538181 77.627111 
L 324.926206 77.8494 
L 325.314231 68.179623 
L 325.702255 66.337465 
L 326.09028 72.986622 
L 326.478304 76.574125 
L 326.866329 82.824873 
L 327.254354 71.289304 
L 327.642378 64.624434 
L 328.030403 62.667901 
L 328.418428 70.967504 
L 328.806452 107.669487 
L 329.194477 94.640639 
L 329.582501 68.466312 
L 329.970526 70.030861 
L 330.358551 73.700193 
L 330.746575 84.887747 
L 331.1346 77.458171 
L 331.522624 83.317504 
L 331.910649 79.571391 
L 332.298674 95.879583 
L 332.686698 87.123485 
L 333.074723 71.376238 
L 333.462748 71.337975 
L 333.850772 87.895625 
L 334.238797 77.193558 
L 334.626821 72.305353 
L 335.014846 83.269216 
L 335.402871 75.251543 
L 335.790895 73.091578 
L 336.17892 100.899261 
L 336.566944 86.051349 
L 336.954969 76.362992 
L 337.342994 75.108828 
L 337.731018 76.877108 
L 338.507068 67.781374 
L 338.895092 57.110066 
L 339.283117 60.11939 
L 339.671141 61.589469 
L 340.447191 103.266316 
L 340.835215 90.975934 
L 341.22324 86.696113 
L 341.611265 87.336227 
L 342.387314 68.41498 
L 342.775338 71.637984 
L 343.163363 87.035106 
L 343.551388 79.105008 
L 343.939412 79.776969 
L 344.327437 96.801957 
L 344.715461 74.056112 
L 345.103486 60.068194 
L 345.491511 57.428017 
L 345.879535 74.511117 
L 346.26756 74.611683 
L 346.655585 73.031039 
L 347.043609 69.724463 
L 347.431634 126.570362 
L 347.819658 63.003111 
L 348.207683 64.844853 
L 348.595708 70.548493 
L 348.983732 93.153175 
L 349.371757 82.162583 
L 349.759781 63.942488 
L 350.147806 62.444664 
L 350.535831 83.226571 
L 350.923855 58.38301 
L 351.31188 60.263829 
L 352.087929 75.100985 
L 352.475954 90.74732 
L 352.863978 76.309529 
L 353.252003 78.681773 
L 353.640028 88.225552 
L 354.028052 80.108618 
L 354.416077 77.748065 
L 354.804102 77.736979 
L 355.192126 88.112104 
L 355.580151 75.363425 
L 355.968175 87.493452 
L 356.3562 71.311427 
L 356.3562 71.311427 
" clip-path="url(#p0e9ec0f167)" style="fill: none; stroke: #2ca02c; stroke-width: 1.2; stroke-linecap: square"/>
   </g>
   <g id="patch_3">
    <path d="M 44.268 176.595429 
L 44.268 8.461712 
" style="fill: none; stroke: #cccccc; stroke-width: 0.8; stroke-linejoin: miter; stroke-linecap: square"/>
   </g>
   <g id="patch_4">
    <path d="M 371.217543 176.595429 
L 371.217543 8.461712 
" style="fill: none; stroke: #cccccc; stroke-width: 0.8; stroke-linejoin: miter; stroke-linecap: square"/>
   </g>
   <g id="patch_5">
    <path d="M 44.268 176.595429 
L 371.217543 176.595429 
" style="fill: none; stroke: #cccccc; stroke-width: 0.8; stroke-linejoin: miter; stroke-linecap: square"/>
   </g>
   <g id="patch_6">
    <path d="M 44.268 8.461712 
L 371.217543 8.461712 
" style="fill: none; stroke: #cccccc; stroke-width: 0.8; stroke-linejoin: miter; stroke-linecap: square"/>
   </g>
   <g id="legend_1">
    <g id="patch_7">
     <path d="M 167.445896 171.595429 
L 248.039646 171.595429 
Q 250.039646 171.595429 250.039646 169.595429 
L 250.039646 126.561054 
Q 250.039646 124.561054 248.039646 124.561054 
L 167.445896 124.561054 
Q 165.445896 124.561054 165.445896 126.561054 
L 165.445896 169.595429 
Q 165.445896 171.595429 167.445896 171.595429 
z
" style="fill: #ffffff; opacity: 0.8; stroke: #cccccc; stroke-linejoin: miter"/>
    </g>
    <g id="line2d_38">
     <path d="M 169.445896 132.659491 
L 179.445896 132.659491 
L 189.445896 132.659491 
" style="fill: none; stroke: #1f77b4; stroke-width: 1.2; stroke-linecap: square"/>
    </g>
    <g id="text_20">
     <!-- No filter -->
     <g transform="translate(197.445896 136.159491) scale(0.1 -0.1)">
      <defs>
       <path id="DejaVuSans-4e" d="M 628 4666 
L 1478 4666 
L 3547 763 
L 3547 4666 
L 4159 4666 
L 4159 0 
L 3309 0 
L 1241 3903 
L 1241 0 
L 628 0 
L 628 4666 
z
" transform="scale(0.015625)"/>
       <path id="DejaVuSans-6f" d="M 1959 3097 
Q 1497 3097 1228 2736 
Q 959 2375 959 1747 
Q 959 1119 1226 758 
Q 1494 397 1959 397 
Q 2419 397 2687 759 
Q 2956 1122 2956 1747 
Q 2956 2369 2687 2733 
Q 2419 3097 1959 3097 
z
M 1959 3584 
Q 2709 3584 3137 3096 
Q 3566 2609 3566 1747 
Q 3566 888 3137 398 
Q 2709 -91 1959 -91 
Q 1206 -91 779 398 
Q 353 888 353 1747 
Q 353 2609 779 3096 
Q 1206 3584 1959 3584 
z
" transform="scale(0.015625)"/>
       <path id="DejaVuSans-66" d="M 2375 4863 
L 2375 4384 
L 1825 4384 
Q 1516 4384 1395 4259 
Q 1275 4134 1275 3809 
L 1275 3500 
L 2222 3500 
L 2222 3053 
L 1275 3053 
L 1275 0 
L 697 0 
L 697 3053 
L 147 3053 
L 147 3500 
L 697 3500 
L 697 3744 
Q 697 4328 969 4595 
Q 1241 4863 1831 4863 
L 2375 4863 
z
" transform="scale(0.015625)"/>
       <path id="DejaVuSans-72" d="M 2631 2963 
Q 2534 3019 2420 3045 
Q 2306 3072 2169 3072 
Q 1681 3072 1420 2755 
Q 1159 2438 1159 1844 
L 1159 0 
L 581 0 
L 581 3500 
L 1159 3500 
L 1159 2956 
Q 1341 3275 1631 3429 
Q 1922 3584 2338 3584 
Q 2397 3584 2469 3576 
Q 2541 3569 2628 3553 
L 2631 2963 
z
" transform="scale(0.015625)"/>
      </defs>
      <use xlink:href="#DejaVuSans-4e"/>
      <use xlink:href="#DejaVuSans-6f" x="74.804688"/>
      <use xlink:href="#DejaVuSans-20" x="135.986328"/>
      <use xlink:href="#DejaVuSans-66" x="167.773438"/>
      <use xlink:href="#DejaVuSans-69" x="202.978516"/>
      <use xlink:href="#DejaVuSans-6c" x="230.761719"/>
      <use xlink:href="#DejaVuSans-74" x="258.544922"/>
      <use xlink:href="#DejaVuSans-65" x="297.753906"/>
      <use xlink:href="#DejaVuSans-72" x="359.277344"/>
     </g>
    </g>
    <g id="line2d_39">
     <path d="M 169.445896 147.337616 
L 179.445896 147.337616 
L 189.445896 147.337616 
" style="fill: none; stroke: #ff7f0e; stroke-width: 1.2; stroke-linecap: square"/>
    </g>
    <g id="text_21">
     <!-- Hann -->
     <g transform="translate(197.445896 150.837616) scale(0.1 -0.1)">
      <defs>
       <path id="DejaVuSans-48" d="M 628 4666 
L 1259 4666 
L 1259 2753 
L 3553 2753 
L 3553 4666 
L 4184 4666 
L 4184 0 
L 3553 0 
L 3553 2222 
L 1259 2222 
L 1259 0 
L 628 0 
L 628 4666 
z
" transform="scale(0.015625)"/>
      </defs>
      <use xlink:href="#DejaVuSans-48"/>
      <use xlink:href="#DejaVuSans-61" x="75.195312"/>
      <use xlink:href="#DejaVuSans-6e" x="136.474609"/>
      <use xlink:href="#DejaVuSans-6e" x="199.853516"/>
     </g>
    </g>
    <g id="line2d_40">
     <path d="M 169.445896 162.015741 
L 179.445896 162.015741 
L 189.445896 162.015741 
" style="fill: none; stroke: #2ca02c; stroke-width: 1.2; stroke-linecap: square"/>
    </g>
    <g id="text_22">
     <!-- Hamming -->
     <g transform="translate(197.445896 165.515741) scale(0.1 -0.1)">
      <use xlink:href="#DejaVuSans-48"/>
      <use xlink:href="#DejaVuSans-61" x="75.195312"/>
      <use xlink:href="#DejaVuSans-6d" x="136.474609"/>
      <use xlink:href="#DejaVuSans-6d" x="233.886719"/>
      <use xlink:href="#DejaVuSans-69" x="331.298828"/>
      <use xlink:href="#DejaVuSans-6e" x="359.082031"/>
      <use xlink:href="#DejaVuSans-67" x="422.460938"/>
     </g>
    </g>
   </g>
  </g>
 </g>
 <defs>
  <clipPath id="p0e9ec0f167">
   <rect x="44.268" y="8.461712" width="326.949543" height="168.133717"/>
  </clipPath>
 </defs>
</svg>
