<?xml version="1.0" encoding="UTF-8" standalone="no"?>
<!-- Created with Inkscape (http://www.inkscape.org/) -->

<svg
   xmlns:dc="http://purl.org/dc/elements/1.1/"
   xmlns:cc="http://creativecommons.org/ns#"
   xmlns:rdf="http://www.w3.org/1999/02/22-rdf-syntax-ns#"
   xmlns:svg="http://www.w3.org/2000/svg"
   xmlns="http://www.w3.org/2000/svg"
   xmlns:xlink="http://www.w3.org/1999/xlink"
   xmlns:sodipodi="http://sodipodi.sourceforge.net/DTD/sodipodi-0.dtd"
   xmlns:inkscape="http://www.inkscape.org/namespaces/inkscape"
   width="160.84618mm"
   height="120.63464mm"
   viewBox="0 0 160.84618 120.63464"
   version="1.1"
   id="svg8"
   inkscape:version="0.92.5 (2060ec1f9f, 2020-04-08)"
   sodipodi:docname="mht.svg">
  <defs
     id="defs2">
    <style
       id="style820"
       type="text/css">*{stroke-linejoin: round; stroke-linecap: butt}</style>
    <path
       style="stroke: #0000ff"
       d="M 0 3  C 0.795609 3 1.55874 2.683901 2.12132 2.12132  C 2.683901 1.55874 3 0.795609 3 0  C 3 -0.795609 2.683901 -1.55874 2.12132 -2.12132  C 1.55874 -2.683901 0.795609 -3 0 -3  C -0.795609 -3 -1.55874 -2.683901 -2.12132 -2.12132  C -2.683901 -1.55874 -3 -0.795609 -3 0  C -3 0.795609 -2.683901 1.55874 -2.12132 2.12132  C -1.55874 2.683901 -0.795609 3 0 3  z "
       id="md824ecbd1f" />
    <path
       style="stroke: #1f77b4; stroke-width: 1.5"
       d="M 0 0  L 0 -3  M 0 0  L -2.4 1.5  M 0 0  L 2.4 1.5  "
       id="m89c76df2ee" />
    <path
       style="stroke: #000000; stroke-width: 0.8"
       d="M 0 0  L 0 3.5  "
       id="mf8ad11d309" />
    <path
       transform="scale(0.015625)"
       d="M 678 2272  L 4684 2272  L 4684 1741  L 678 1741  L 678 2272  z "
       id="DejaVuSans-2212" />
    <path
       transform="scale(0.015625)"
       d="M 525 4666  L 3525 4666  L 3525 4397  L 1831 0  L 1172 0  L 2766 4134  L 525 4134  L 525 4666  z "
       id="DejaVuSans-37" />
    <path
       transform="scale(0.015625)"
       d="M 684 794  L 1344 794  L 1344 0  L 684 0  L 684 794  z "
       id="DejaVuSans-2e" />
    <path
       transform="scale(0.015625)"
       d="M 691 4666  L 3169 4666  L 3169 4134  L 1269 4134  L 1269 2991  Q 1406 3038 1543 3061  Q 1681 3084 1819 3084  Q 2600 3084 3056 2656  Q 3513 2228 3513 1497  Q 3513 744 3044 326  Q 2575 -91 1722 -91  Q 1428 -91 1123 -41  Q 819 9 494 109  L 494 744  Q 775 591 1075 516  Q 1375 441 1709 441  Q 2250 441 2565 725  Q 2881 1009 2881 1497  Q 2881 1984 2565 2268  Q 2250 2553 1709 2553  Q 1456 2553 1204 2497  Q 953 2441 691 2322  L 691 4666  z "
       id="DejaVuSans-35" />
    <path
       transform="scale(0.015625)"
       d="M 2034 4250  Q 1547 4250 1301 3770  Q 1056 3291 1056 2328  Q 1056 1369 1301 889  Q 1547 409 2034 409  Q 2525 409 2770 889  Q 3016 1369 3016 2328  Q 3016 3291 2770 3770  Q 2525 4250 2034 4250  z M 2034 4750  Q 2819 4750 3233 4129  Q 3647 3509 3647 2328  Q 3647 1150 3233 529  Q 2819 -91 2034 -91  Q 1250 -91 836 529  Q 422 1150 422 2328  Q 422 3509 836 4129  Q 1250 4750 2034 4750  z "
       id="DejaVuSans-30" />
    <path
       transform="scale(0.015625)"
       d="M 1228 531  L 3431 531  L 3431 0  L 469 0  L 469 531  Q 828 903 1448 1529  Q 2069 2156 2228 2338  Q 2531 2678 2651 2914  Q 2772 3150 2772 3378  Q 2772 3750 2511 3984  Q 2250 4219 1831 4219  Q 1534 4219 1204 4116  Q 875 4013 500 3803  L 500 4441  Q 881 4594 1212 4672  Q 1544 4750 1819 4750  Q 2544 4750 2975 4387  Q 3406 4025 3406 3419  Q 3406 3131 3298 2873  Q 3191 2616 2906 2266  Q 2828 2175 2409 1742  Q 1991 1309 1228 531  z "
       id="DejaVuSans-32" />
    <path
       transform="scale(0.015625)"
       d="M 794 531  L 1825 531  L 1825 4091  L 703 3866  L 703 4441  L 1819 4666  L 2450 4666  L 2450 531  L 3481 531  L 3481 0  L 794 0  L 794 531  z "
       id="DejaVuSans-31" />
    <path
       transform="scale(0.015625)"
       d="M 3841 3500  L 2234 1784  L 3219 0  L 2559 0  L 1819 1388  L 531 0  L -166 0  L 1556 1844  L 641 3500  L 1300 3500  L 1972 2234  L 3144 3500  L 3841 3500  z "
       id="DejaVuSans-Oblique-78" />
    <path
       style="stroke: #000000; stroke-width: 0.8"
       d="M 0 0  L -3.5 0  "
       id="m097a6b5307" />
    <path
       transform="scale(0.015625)"
       d="M 2419 4116  L 825 1625  L 2419 1625  L 2419 4116  z M 2253 4666  L 3047 4666  L 3047 1625  L 3713 1625  L 3713 1100  L 3047 1100  L 3047 0  L 2419 0  L 2419 1100  L 313 1100  L 313 1709  L 2253 4666  z "
       id="DejaVuSans-34" />
    <path
       transform="scale(0.015625)"
       d="M 2113 2584  Q 1688 2584 1439 2293  Q 1191 2003 1191 1497  Q 1191 994 1439 701  Q 1688 409 2113 409  Q 2538 409 2786 701  Q 3034 994 3034 1497  Q 3034 2003 2786 2293  Q 2538 2584 2113 2584  z M 3366 4563  L 3366 3988  Q 3128 4100 2886 4159  Q 2644 4219 2406 4219  Q 1781 4219 1451 3797  Q 1122 3375 1075 2522  Q 1259 2794 1537 2939  Q 1816 3084 2150 3084  Q 2853 3084 3261 2657  Q 3669 2231 3669 1497  Q 3669 778 3244 343  Q 2819 -91 2113 -91  Q 1303 -91 875 529  Q 447 1150 447 2328  Q 447 3434 972 4092  Q 1497 4750 2381 4750  Q 2619 4750 2861 4703  Q 3103 4656 3366 4563  z "
       id="DejaVuSans-36" />
    <path
       transform="scale(0.015625)"
       d="M 2034 2216  Q 1584 2216 1326 1975  Q 1069 1734 1069 1313  Q 1069 891 1326 650  Q 1584 409 2034 409  Q 2484 409 2743 651  Q 3003 894 3003 1313  Q 3003 1734 2745 1975  Q 2488 2216 2034 2216  z M 1403 2484  Q 997 2584 770 2862  Q 544 3141 544 3541  Q 544 4100 942 4425  Q 1341 4750 2034 4750  Q 2731 4750 3128 4425  Q 3525 4100 3525 3541  Q 3525 3141 3298 2862  Q 3072 2584 2669 2484  Q 3125 2378 3379 2068  Q 3634 1759 3634 1313  Q 3634 634 3220 271  Q 2806 -91 2034 -91  Q 1263 -91 848 271  Q 434 634 434 1313  Q 434 1759 690 2068  Q 947 2378 1403 2484  z M 1172 3481  Q 1172 3119 1398 2916  Q 1625 2713 2034 2713  Q 2441 2713 2670 2916  Q 2900 3119 2900 3481  Q 2900 3844 2670 4047  Q 2441 4250 2034 4250  Q 1625 4250 1398 4047  Q 1172 3844 1172 3481  z "
       id="DejaVuSans-38" />
    <path
       transform="scale(0.015625)"
       d="M 1588 -325  Q 1188 -997 936 -1164  Q 684 -1331 294 -1331  L -159 -1331  L -63 -850  L 269 -850  Q 509 -850 678 -719  Q 847 -588 1056 -206  L 1234 128  L 459 3500  L 1069 3500  L 1650 819  L 3256 3500  L 3859 3500  L 1588 -325  z "
       id="DejaVuSans-Oblique-79" />
    <path
       transform="scale(0.015625)"
       d="M 3809 666  L 3809 1919  L 2778 1919  L 2778 2438  L 4434 2438  L 4434 434  Q 4069 175 3628 42  Q 3188 -91 2688 -91  Q 1594 -91 976 548  Q 359 1188 359 2328  Q 359 3472 976 4111  Q 1594 4750 2688 4750  Q 3144 4750 3555 4637  Q 3966 4525 4313 4306  L 4313 3634  Q 3963 3931 3569 4081  Q 3175 4231 2741 4231  Q 1884 4231 1454 3753  Q 1025 3275 1025 2328  Q 1025 1384 1454 906  Q 1884 428 2741 428  Q 3075 428 3337 486  Q 3600 544 3809 666  z "
       id="DejaVuSans-47" />
    <path
       transform="scale(0.015625)"
       d="M 2631 2963  Q 2534 3019 2420 3045  Q 2306 3072 2169 3072  Q 1681 3072 1420 2755  Q 1159 2438 1159 1844  L 1159 0  L 581 0  L 581 3500  L 1159 3500  L 1159 2956  Q 1341 3275 1631 3429  Q 1922 3584 2338 3584  Q 2397 3584 2469 3576  Q 2541 3569 2628 3553  L 2631 2963  z "
       id="DejaVuSans-72" />
    <path
       transform="scale(0.015625)"
       d="M 1959 3097  Q 1497 3097 1228 2736  Q 959 2375 959 1747  Q 959 1119 1226 758  Q 1494 397 1959 397  Q 2419 397 2687 759  Q 2956 1122 2956 1747  Q 2956 2369 2687 2733  Q 2419 3097 1959 3097  z M 1959 3584  Q 2709 3584 3137 3096  Q 3566 2609 3566 1747  Q 3566 888 3137 398  Q 2709 -91 1959 -91  Q 1206 -91 779 398  Q 353 888 353 1747  Q 353 2609 779 3096  Q 1206 3584 1959 3584  z "
       id="DejaVuSans-6f" />
    <path
       transform="scale(0.015625)"
       d="M 544 1381  L 544 3500  L 1119 3500  L 1119 1403  Q 1119 906 1312 657  Q 1506 409 1894 409  Q 2359 409 2629 706  Q 2900 1003 2900 1516  L 2900 3500  L 3475 3500  L 3475 0  L 2900 0  L 2900 538  Q 2691 219 2414 64  Q 2138 -91 1772 -91  Q 1169 -91 856 284  Q 544 659 544 1381  z M 1991 3584  L 1991 3584  z "
       id="DejaVuSans-75" />
    <path
       transform="scale(0.015625)"
       d="M 3513 2113  L 3513 0  L 2938 0  L 2938 2094  Q 2938 2591 2744 2837  Q 2550 3084 2163 3084  Q 1697 3084 1428 2787  Q 1159 2491 1159 1978  L 1159 0  L 581 0  L 581 3500  L 1159 3500  L 1159 2956  Q 1366 3272 1645 3428  Q 1925 3584 2291 3584  Q 2894 3584 3203 3211  Q 3513 2838 3513 2113  z "
       id="DejaVuSans-6e" />
    <path
       transform="scale(0.015625)"
       d="M 2906 2969  L 2906 4863  L 3481 4863  L 3481 0  L 2906 0  L 2906 525  Q 2725 213 2448 61  Q 2172 -91 1784 -91  Q 1150 -91 751 415  Q 353 922 353 1747  Q 353 2572 751 3078  Q 1150 3584 1784 3584  Q 2172 3584 2448 3432  Q 2725 3281 2906 2969  z M 947 1747  Q 947 1113 1208 752  Q 1469 391 1925 391  Q 2381 391 2643 752  Q 2906 1113 2906 1747  Q 2906 2381 2643 2742  Q 2381 3103 1925 3103  Q 1469 3103 1208 2742  Q 947 2381 947 1747  z "
       id="DejaVuSans-64" />
    <path
       transform="scale(0.015625)"
       id="DejaVuSans-20" />
    <path
       transform="scale(0.015625)"
       d="M -19 4666  L 3928 4666  L 3928 4134  L 2272 4134  L 2272 0  L 1638 0  L 1638 4134  L -19 4134  L -19 4666  z "
       id="DejaVuSans-54" />
    <path
       transform="scale(0.015625)"
       d="M 1172 4494  L 1172 3500  L 2356 3500  L 2356 3053  L 1172 3053  L 1172 1153  Q 1172 725 1289 603  Q 1406 481 1766 481  L 2356 481  L 2356 0  L 1766 0  Q 1100 0 847 248  Q 594 497 594 1153  L 594 3053  L 172 3053  L 172 3500  L 594 3500  L 594 4494  L 1172 4494  z "
       id="DejaVuSans-74" />
    <path
       transform="scale(0.015625)"
       d="M 3513 2113  L 3513 0  L 2938 0  L 2938 2094  Q 2938 2591 2744 2837  Q 2550 3084 2163 3084  Q 1697 3084 1428 2787  Q 1159 2491 1159 1978  L 1159 0  L 581 0  L 581 4863  L 1159 4863  L 1159 2956  Q 1366 3272 1645 3428  Q 1925 3584 2291 3584  Q 2894 3584 3203 3211  Q 3513 2838 3513 2113  z "
       id="DejaVuSans-68" />
    <path
       transform="scale(0.015625)"
       d="M 628 4666  L 1569 4666  L 2759 1491  L 3956 4666  L 4897 4666  L 4897 0  L 4281 0  L 4281 4097  L 3078 897  L 2444 897  L 1241 4097  L 1241 0  L 628 0  L 628 4666  z "
       id="DejaVuSans-4d" />
    <path
       transform="scale(0.015625)"
       d="M 3597 1894  L 3597 1613  L 953 1613  Q 991 1019 1311 708  Q 1631 397 2203 397  Q 2534 397 2845 478  Q 3156 559 3463 722  L 3463 178  Q 3153 47 2828 -22  Q 2503 -91 2169 -91  Q 1331 -91 842 396  Q 353 884 353 1716  Q 353 2575 817 3079  Q 1281 3584 2069 3584  Q 2775 3584 3186 3129  Q 3597 2675 3597 1894  z M 3022 2063  Q 3016 2534 2758 2815  Q 2500 3097 2075 3097  Q 1594 3097 1305 2825  Q 1016 2553 972 2059  L 3022 2063  z "
       id="DejaVuSans-65" />
    <path
       transform="scale(0.015625)"
       d="M 2194 1759  Q 1497 1759 1228 1600  Q 959 1441 959 1056  Q 959 750 1161 570  Q 1363 391 1709 391  Q 2188 391 2477 730  Q 2766 1069 2766 1631  L 2766 1759  L 2194 1759  z M 3341 1997  L 3341 0  L 2766 0  L 2766 531  Q 2569 213 2275 61  Q 1981 -91 1556 -91  Q 1019 -91 701 211  Q 384 513 384 1019  Q 384 1609 779 1909  Q 1175 2209 1959 2209  L 2766 2209  L 2766 2266  Q 2766 2663 2505 2880  Q 2244 3097 1772 3097  Q 1472 3097 1187 3025  Q 903 2953 641 2809  L 641 3341  Q 956 3463 1253 3523  Q 1550 3584 1831 3584  Q 2591 3584 2966 3190  Q 3341 2797 3341 1997  z "
       id="DejaVuSans-61" />
    <path
       transform="scale(0.015625)"
       d="M 2834 3397  L 2834 2853  Q 2591 2978 2328 3040  Q 2066 3103 1784 3103  Q 1356 3103 1142 2972  Q 928 2841 928 2578  Q 928 2378 1081 2264  Q 1234 2150 1697 2047  L 1894 2003  Q 2506 1872 2764 1633  Q 3022 1394 3022 966  Q 3022 478 2636 193  Q 2250 -91 1575 -91  Q 1294 -91 989 -36  Q 684 19 347 128  L 347 722  Q 666 556 975 473  Q 1284 391 1588 391  Q 1994 391 2212 530  Q 2431 669 2431 922  Q 2431 1156 2273 1281  Q 2116 1406 1581 1522  L 1381 1569  Q 847 1681 609 1914  Q 372 2147 372 2553  Q 372 3047 722 3315  Q 1072 3584 1716 3584  Q 2034 3584 2315 3537  Q 2597 3491 2834 3397  z "
       id="DejaVuSans-73" />
    <path
       transform="scale(0.015625)"
       d="M 3328 2828  Q 3544 3216 3844 3400  Q 4144 3584 4550 3584  Q 5097 3584 5394 3201  Q 5691 2819 5691 2113  L 5691 0  L 5113 0  L 5113 2094  Q 5113 2597 4934 2840  Q 4756 3084 4391 3084  Q 3944 3084 3684 2787  Q 3425 2491 3425 1978  L 3425 0  L 2847 0  L 2847 2094  Q 2847 2600 2669 2842  Q 2491 3084 2119 3084  Q 1678 3084 1418 2786  Q 1159 2488 1159 1978  L 1159 0  L 581 0  L 581 3500  L 1159 3500  L 1159 2956  Q 1356 3278 1631 3431  Q 1906 3584 2284 3584  Q 2666 3584 2933 3390  Q 3200 3197 3328 2828  z "
       id="DejaVuSans-6d" />
    <path
       style="stroke: #1f77b4"
       d="M 0 0  L 0 -3  M 0 0  L -2.4 1.5  M 0 0  L 2.4 1.5  "
       id="m21b57cc532" />
    <path
       transform="scale(0.015625)"
       d="M 4122 4306  L 4122 3641  Q 3803 3938 3442 4084  Q 3081 4231 2675 4231  Q 1875 4231 1450 3742  Q 1025 3253 1025 2328  Q 1025 1406 1450 917  Q 1875 428 2675 428  Q 3081 428 3442 575  Q 3803 722 4122 1019  L 4122 359  Q 3791 134 3420 21  Q 3050 -91 2638 -91  Q 1578 -91 968 557  Q 359 1206 359 2328  Q 359 3453 968 4101  Q 1578 4750 2638 4750  Q 3056 4750 3426 4639  Q 3797 4528 4122 4306  z "
       id="DejaVuSans-43" />
    <path
       transform="scale(0.015625)"
       d="M 603 4863  L 1178 4863  L 1178 0  L 603 0  L 603 4863  z "
       id="DejaVuSans-6c" />
    <clipPath
       id="p43e5c84876">
      <rect
         id="rect1445"
         height="332.64"
         width="446.4"
         y="10.999219"
         x="42.620312" />
    </clipPath>
  </defs>
  <sodipodi:namedview
     id="base"
     pagecolor="#ffffff"
     bordercolor="#666666"
     borderopacity="1.0"
     inkscape:pageopacity="0.0"
     inkscape:pageshadow="2"
     inkscape:zoom="1.1827611"
     inkscape:cx="114.05605"
     inkscape:cy="186.56391"
     inkscape:document-units="mm"
     inkscape:current-layer="layer1"
     showgrid="false"
     showborder="true"
     width="200mm"
     showguides="true"
     inkscape:guide-bbox="true"
     inkscape:window-width="2488"
     inkscape:window-height="1376"
     inkscape:window-x="2632"
     inkscape:window-y="27"
     inkscape:window-maximized="1"
     fit-margin-top="0"
     fit-margin-left="0"
     fit-margin-right="0"
     fit-margin-bottom="0">
    <inkscape:grid
       type="xygrid"
       id="grid815"
       units="mm"
       spacingx="10"
       spacingy="10"
       empspacing="4"
       dotted="false"
       originx="-0.74262556"
       originy="-0.41714477" />
  </sodipodi:namedview>
  <metadata
     id="metadata5">
    <rdf:RDF>
      <cc:Work
         rdf:about="">
        <dc:format>image/svg+xml</dc:format>
        <dc:type
           rdf:resource="http://purl.org/dc/dcmitype/StillImage" />
        <dc:title />
      </cc:Work>
    </rdf:RDF>
  </metadata>
  <g
     inkscape:label="Layer 1"
     inkscape:groupmode="layer"
     id="layer1"
     transform="translate(-0.74262553,-175.94821)">
    <flowRoot
       xml:space="preserve"
       id="flowRoot7042"
       style="font-style:normal;font-weight:normal;font-size:40px;line-height:1.25;font-family:sans-serif;letter-spacing:0px;word-spacing:0px;fill:#000000;fill-opacity:1;stroke:none"
       transform="matrix(0.26458333,0,0,0.26458333,0,177)"><flowRegion
         id="flowRegion7044"><rect
           id="rect7046"
           width="132.26601"
           height="49.777531"
           x="261.68759"
           y="53.900856" /></flowRegion><flowPara
         id="flowPara7054" /></flowRoot>    <g
       id="figure_1">
      <g
         id="patch_1">
        <path
           id="path824"
           style="fill: #ffffff"
           d="M 0 381.195469  L 505.913125 381.195469  L 505.913125 0  L 0 0  z " />
      </g>
      <g
         id="axes_1">
        <g
           id="patch_2">
          <path
             id="path827"
             style="fill: #ffffff"
             d="M 42.620312 343.639219  L 489.020312 343.639219  L 489.020312 10.999219  L 42.620312 10.999219  z " />
        </g>
        <g
           id="PathCollection_1">
          <defs
             id="defs831">
            <path
               style="stroke: #0000ff"
               d="M 0 3  C 0.795609 3 1.55874 2.683901 2.12132 2.12132  C 2.683901 1.55874 3 0.795609 3 0  C 3 -0.795609 2.683901 -1.55874 2.12132 -2.12132  C 1.55874 -2.683901 0.795609 -3 0 -3  C -0.795609 -3 -1.55874 -2.683901 -2.12132 -2.12132  C -2.683901 -1.55874 -3 -0.795609 -3 0  C -3 0.795609 -2.683901 1.55874 -2.12132 2.12132  C -1.55874 2.683901 -0.795609 3 0 3  z "
               id="path1495" />
          </defs>
          <g
             id="g837"
             clip-path="url(#p43e5c84876)">
            <use
               id="use833"
               style="fill: #0000ff; stroke: #0000ff"
               y="231.873459"
               x="210.764206"
               xlink:href="#md824ecbd1f" />
            <use
               id="use835"
               style="fill: #0000ff; stroke: #0000ff"
               y="54.376879"
               x="217.829249"
               xlink:href="#md824ecbd1f" />
          </g>
        </g>
        <g
           id="PathCollection_2">
          <defs
             id="defs841">
            <path
               style="stroke: #1f77b4; stroke-width: 1.5"
               d="M 0 0  L 0 -3  M 0 0  L -2.4 1.5  M 0 0  L 2.4 1.5  "
               id="path1502" />
          </defs>
          <g
             id="g919"
             clip-path="url(#p43e5c84876)">
            <use
               id="use843"
               style="fill: #1f77b4; stroke: #1f77b4; stroke-width: 1.5"
               y="71.707385"
               x="212.445989"
               xlink:href="#m89c76df2ee" />
            <use
               id="use845"
               style="fill: #1f77b4; stroke: #1f77b4; stroke-width: 1.5"
               y="126.020907"
               x="126.644175"
               xlink:href="#m89c76df2ee" />
            <use
               id="use847"
               style="fill: #1f77b4; stroke: #1f77b4; stroke-width: 1.5"
               y="42.848477"
               x="313.894867"
               xlink:href="#m89c76df2ee" />
            <use
               id="use849"
               style="fill: #1f77b4; stroke: #1f77b4; stroke-width: 1.5"
               y="255.911195"
               x="373.918419"
               xlink:href="#m89c76df2ee" />
            <use
               id="use851"
               style="fill: #1f77b4; stroke: #1f77b4; stroke-width: 1.5"
               y="177.661036"
               x="243.051611"
               xlink:href="#m89c76df2ee" />
            <use
               id="use853"
               style="fill: #1f77b4; stroke: #1f77b4; stroke-width: 1.5"
               y="208.44649"
               x="149.496358"
               xlink:href="#m89c76df2ee" />
            <use
               id="use855"
               style="fill: #1f77b4; stroke: #1f77b4; stroke-width: 1.5"
               y="129.580897"
               x="118.418916"
               xlink:href="#m89c76df2ee" />
            <use
               id="use857"
               style="fill: #1f77b4; stroke: #1f77b4; stroke-width: 1.5"
               y="321.663234"
               x="318.28511"
               xlink:href="#m89c76df2ee" />
            <use
               id="use859"
               style="fill: #1f77b4; stroke: #1f77b4; stroke-width: 1.5"
               y="303.32144"
               x="314.17267"
               xlink:href="#m89c76df2ee" />
            <use
               id="use861"
               style="fill: #1f77b4; stroke: #1f77b4; stroke-width: 1.5"
               y="213.254269"
               x="266.798978"
               xlink:href="#m89c76df2ee" />
            <use
               id="use863"
               style="fill: #1f77b4; stroke: #1f77b4; stroke-width: 1.5"
               y="319.766587"
               x="141.725303"
               xlink:href="#m89c76df2ee" />
            <use
               id="use865"
               style="fill: #1f77b4; stroke: #1f77b4; stroke-width: 1.5"
               y="282.340282"
               x="210.547506"
               xlink:href="#m89c76df2ee" />
            <use
               id="use867"
               style="fill: #1f77b4; stroke: #1f77b4; stroke-width: 1.5"
               y="325.525444"
               x="246.183425"
               xlink:href="#m89c76df2ee" />
            <use
               id="use869"
               style="fill: #1f77b4; stroke: #1f77b4; stroke-width: 1.5"
               y="167.107272"
               x="144.863905"
               xlink:href="#m89c76df2ee" />
            <use
               id="use871"
               style="fill: #1f77b4; stroke: #1f77b4; stroke-width: 1.5"
               y="305.891613"
               x="290.351127"
               xlink:href="#m89c76df2ee" />
            <use
               id="use873"
               style="fill: #1f77b4; stroke: #1f77b4; stroke-width: 1.5"
               y="317.658487"
               x="314.159669"
               xlink:href="#m89c76df2ee" />
            <use
               id="use875"
               style="fill: #1f77b4; stroke: #1f77b4; stroke-width: 1.5"
               y="229.686526"
               x="406.896267"
               xlink:href="#m89c76df2ee" />
            <use
               id="use877"
               style="fill: #1f77b4; stroke: #1f77b4; stroke-width: 1.5"
               y="341.811011"
               x="242.889155"
               xlink:href="#m89c76df2ee" />
            <use
               id="use879"
               style="fill: #1f77b4; stroke: #1f77b4; stroke-width: 1.5"
               y="171.049241"
               x="243.328432"
               xlink:href="#m89c76df2ee" />
            <use
               id="use881"
               style="fill: #1f77b4; stroke: #1f77b4; stroke-width: 1.5"
               y="157.600223"
               x="109.977327"
               xlink:href="#m89c76df2ee" />
            <use
               id="use883"
               style="fill: #1f77b4; stroke: #1f77b4; stroke-width: 1.5"
               y="137.734984"
               x="202.742103"
               xlink:href="#m89c76df2ee" />
            <use
               id="use885"
               style="fill: #1f77b4; stroke: #1f77b4; stroke-width: 1.5"
               y="51.115429"
               x="368.924723"
               xlink:href="#m89c76df2ee" />
            <use
               id="use887"
               style="fill: #1f77b4; stroke: #1f77b4; stroke-width: 1.5"
               y="329.04425"
               x="206.026562"
               xlink:href="#m89c76df2ee" />
            <use
               id="use889"
               style="fill: #1f77b4; stroke: #1f77b4; stroke-width: 1.5"
               y="136.588908"
               x="421.641176"
               xlink:href="#m89c76df2ee" />
            <use
               id="use891"
               style="fill: #1f77b4; stroke: #1f77b4; stroke-width: 1.5"
               y="46.536961"
               x="139.60246"
               xlink:href="#m89c76df2ee" />
            <use
               id="use893"
               style="fill: #1f77b4; stroke: #1f77b4; stroke-width: 1.5"
               y="308.488454"
               x="292.317909"
               xlink:href="#m89c76df2ee" />
            <use
               id="use895"
               style="fill: #1f77b4; stroke: #1f77b4; stroke-width: 1.5"
               y="32.869768"
               x="176.164981"
               xlink:href="#m89c76df2ee" />
            <use
               id="use897"
               style="fill: #1f77b4; stroke: #1f77b4; stroke-width: 1.5"
               y="119.633289"
               x="124.166955"
               xlink:href="#m89c76df2ee" />
            <use
               id="use899"
               style="fill: #1f77b4; stroke: #1f77b4; stroke-width: 1.5"
               y="287.699611"
               x="323.129474"
               xlink:href="#m89c76df2ee" />
            <use
               id="use901"
               style="fill: #1f77b4; stroke: #1f77b4; stroke-width: 1.5"
               y="220.903232"
               x="255.132739"
               xlink:href="#m89c76df2ee" />
            <use
               id="use903"
               style="fill: #1f77b4; stroke: #1f77b4; stroke-width: 1.5"
               y="185.425455"
               x="348.058126"
               xlink:href="#m89c76df2ee" />
            <use
               id="use905"
               style="fill: #1f77b4; stroke: #1f77b4; stroke-width: 1.5"
               y="332.186689"
               x="366.452672"
               xlink:href="#m89c76df2ee" />
            <use
               id="use907"
               style="fill: #1f77b4; stroke: #1f77b4; stroke-width: 1.5"
               y="300.806429"
               x="383.304929"
               xlink:href="#m89c76df2ee" />
            <use
               id="use909"
               style="fill: #1f77b4; stroke: #1f77b4; stroke-width: 1.5"
               y="117.744478"
               x="381.568037"
               xlink:href="#m89c76df2ee" />
            <use
               id="use911"
               style="fill: #1f77b4; stroke: #1f77b4; stroke-width: 1.5"
               y="198.602201"
               x="268.041742"
               xlink:href="#m89c76df2ee" />
            <use
               id="use913"
               style="fill: #1f77b4; stroke: #1f77b4; stroke-width: 1.5"
               y="270.011889"
               x="171.347184"
               xlink:href="#m89c76df2ee" />
            <use
               id="use915"
               style="fill: #1f77b4; stroke: #1f77b4; stroke-width: 1.5"
               y="184.828284"
               x="270.757529"
               xlink:href="#m89c76df2ee" />
            <use
               id="use917"
               style="fill: #1f77b4; stroke: #1f77b4; stroke-width: 1.5"
               y="101.308324"
               x="418.807189"
               xlink:href="#m89c76df2ee" />
          </g>
        </g>
        <g
           id="patch_3">
          <path
             id="path922"
             style="fill: #ff0000; opacity: 0.2; stroke: #ff0000; stroke-linejoin: miter"
             clip-path="url(#p43e5c84876)"
             d="M 210.380313 259.919161  C 217.583213 259.919161 224.492072 257.057418 229.585292 251.964198  C 234.678512 246.870978 237.540255 239.96212 237.540255 232.759219  C 237.540255 225.556318 234.678512 218.647459 229.585292 213.554239  C 224.492072 208.461019 217.583213 205.599276 210.380313 205.599276  C 203.177412 205.599276 196.268553 208.461019 191.175333 213.554239  C 186.082113 218.647459 183.22037 225.556318 183.22037 232.759219  C 183.22037 239.96212 186.082113 246.870978 191.175333 251.964198  C 196.268553 257.057418 203.177412 259.919161 210.380313 259.919161  z " />
        </g>
        <g
           id="patch_4">
          <path
             id="path925"
             style="fill: #ff0000; opacity: 0.2; stroke: #ff0000; stroke-linejoin: miter"
             clip-path="url(#p43e5c84876)"
             d="M 210.380313 259.919161  C 217.583213 259.919161 224.492072 257.057418 229.585292 251.964198  C 234.678512 246.870978 237.540255 239.96212 237.540255 232.759219  C 237.540255 225.556318 234.678512 218.647459 229.585292 213.554239  C 224.492072 208.461019 217.583213 205.599276 210.380313 205.599276  C 203.177412 205.599276 196.268553 208.461019 191.175333 213.554239  C 186.082113 218.647459 183.22037 225.556318 183.22037 232.759219  C 183.22037 239.96212 186.082113 246.870978 191.175333 251.964198  C 196.268553 257.057418 203.177412 259.919161 210.380313 259.919161  z " />
        </g>
        <g
           id="patch_5">
          <path
             id="path928"
             style="fill: #ff0000; opacity: 0.2; stroke: #ff0000; stroke-linejoin: miter"
             clip-path="url(#p43e5c84876)"
             d="M 210.742476 238.385367  C 212.456157 238.385367 214.099882 237.704514 215.311638 236.492758  C 216.523393 235.281003 217.204246 233.637278 217.204246 231.923597  C 217.204246 230.209915 216.523393 228.566191 215.311638 227.354435  C 214.099882 226.142679 212.456157 225.461826 210.742476 225.461826  C 209.028794 225.461826 207.38507 226.142679 206.173314 227.354435  C 204.961558 228.566191 204.280705 230.209915 204.280705 231.923597  C 204.280705 233.637278 204.961558 235.281003 206.173314 236.492758  C 207.38507 237.704514 209.028794 238.385367 210.742476 238.385367  z " />
        </g>
        <g
           id="patch_6">
          <path
             id="path931"
             style="fill: #ff0000; opacity: 0.2; stroke: #ff0000; stroke-linejoin: miter"
             clip-path="url(#p43e5c84876)"
             d="M 241.202292 187.241572  C 242.915974 187.241572 244.559698 186.560719 245.771454 185.348963  C 246.98321 184.137207 247.664063 182.493483 247.664063 180.779801  C 247.664063 179.06612 246.98321 177.422395 245.771454 176.210639  C 244.559698 174.998884 242.915974 174.318031 241.202292 174.318031  C 239.488611 174.318031 237.844886 174.998884 236.633131 176.210639  C 235.421375 177.422395 234.740522 179.06612 234.740522 180.779801  C 234.740522 182.493483 235.421375 184.137207 236.633131 185.348963  C 237.844886 186.560719 239.488611 187.241572 241.202292 187.241572  z " />
        </g>
        <g
           id="patch_7">
          <path
             id="path934"
             style="fill: #ff0000; opacity: 0.2; stroke: #ff0000; stroke-linejoin: miter"
             clip-path="url(#p43e5c84876)"
             d="M 152.94262 216.284453  C 154.656301 216.284453 156.300026 215.6036 157.511782 214.391844  C 158.723537 213.180088 159.40439 211.536364 159.40439 209.822682  C 159.40439 208.109001 158.723537 206.465276 157.511782 205.25352  C 156.300026 204.041765 154.656301 203.360912 152.94262 203.360912  C 151.228938 203.360912 149.585214 204.041765 148.373458 205.25352  C 147.161702 206.465276 146.480849 208.109001 146.480849 209.822682  C 146.480849 211.536364 147.161702 213.180088 148.373458 214.391844  C 149.585214 215.6036 151.228938 216.284453 152.94262 216.284453  z " />
        </g>
        <g
           id="patch_8">
          <path
             id="path937"
             style="fill: #ff0000; opacity: 0.2; stroke: #ff0000; stroke-linejoin: miter"
             clip-path="url(#p43e5c84876)"
             d="M 263.605468 220.820094  C 265.31915 220.820094 266.962874 220.139241 268.17463 218.927485  C 269.386386 217.715729 270.067239 216.072005 270.067239 214.358323  C 270.067239 212.644642 269.386386 211.000917 268.17463 209.789161  C 266.962874 208.577405 265.31915 207.896553 263.605468 207.896553  C 261.891787 207.896553 260.248062 208.577405 259.036307 209.789161  C 257.824551 211.000917 257.143698 212.644642 257.143698 214.358323  C 257.143698 216.072005 257.824551 217.715729 259.036307 218.927485  C 260.248062 220.139241 261.891787 220.820094 263.605468 220.820094  z " />
        </g>
        <g
           id="patch_9">
          <path
             id="path940"
             style="fill: #ff0000; opacity: 0.2; stroke: #ff0000; stroke-linejoin: miter"
             clip-path="url(#p43e5c84876)"
             d="M 210.538042 285.995577  C 212.251724 285.995577 213.895448 285.314724 215.107204 284.102969  C 216.31896 282.891213 216.999813 281.247488 216.999813 279.533807  C 216.999813 277.820125 216.31896 276.176401 215.107204 274.964645  C 213.895448 273.752889 212.251724 273.072036 210.538042 273.072036  C 208.824361 273.072036 207.180637 273.752889 205.968881 274.964645  C 204.757125 276.176401 204.076272 277.820125 204.076272 279.533807  C 204.076272 281.247488 204.757125 282.891213 205.968881 284.102969  C 207.180637 285.314724 208.824361 285.995577 210.538042 285.995577  z " />
        </g>
        <g
           id="patch_10">
          <path
             id="path943"
             style="fill: #ff0000; opacity: 0.2; stroke: #ff0000; stroke-linejoin: miter"
             clip-path="url(#p43e5c84876)"
             d="M 241.463444 181.004029  C 243.177126 181.004029 244.82085 180.323176 246.032606 179.11142  C 247.244362 177.899664 247.925215 176.25594 247.925215 174.542258  C 247.925215 172.828577 247.244362 171.184852 246.032606 169.973097  C 244.82085 168.761341 243.177126 168.080488 241.463444 168.080488  C 239.749763 168.080488 238.106038 168.761341 236.894282 169.973097  C 235.682527 171.184852 235.001674 172.828577 235.001674 174.542258  C 235.001674 176.25594 235.682527 177.899664 236.894282 179.11142  C 238.106038 180.323176 239.749763 181.004029 241.463444 181.004029  z " />
        </g>
        <g
           id="patch_11">
          <path
             id="path946"
             style="fill: #ff0000; opacity: 0.2; stroke: #ff0000; stroke-linejoin: miter"
             clip-path="url(#p43e5c84876)"
             d="M 252.599583 228.036096  C 254.313265 228.036096 255.956989 227.355243 257.168745 226.143487  C 258.380501 224.931731 259.061354 223.288007 259.061354 221.574325  C 259.061354 219.860644 258.380501 218.216919 257.168745 217.005163  C 255.956989 215.793408 254.313265 215.112555 252.599583 215.112555  C 250.885902 215.112555 249.242177 215.793408 248.030421 217.005163  C 246.818665 218.216919 246.137813 219.860644 246.137813 221.574325  C 246.137813 223.288007 246.818665 224.931731 248.030421 226.143487  C 249.242177 227.355243 250.885902 228.036096 252.599583 228.036096  z " />
        </g>
        <g
           id="patch_12">
          <path
             id="path949"
             style="fill: #ff0000; opacity: 0.2; stroke: #ff0000; stroke-linejoin: miter"
             clip-path="url(#p43e5c84876)"
             d="M 264.777887 206.997387  C 266.491569 206.997387 268.135293 206.316535 269.347049 205.104779  C 270.558805 203.893023 271.239658 202.249298 271.239658 200.535617  C 271.239658 198.821935 270.558805 197.178211 269.347049 195.966455  C 268.135293 194.754699 266.491569 194.073846 264.777887 194.073846  C 263.064205 194.073846 261.420481 194.754699 260.208725 195.966455  C 258.996969 197.178211 258.316116 198.821935 258.316116 200.535617  C 258.316116 202.249298 258.996969 203.893023 260.208725 205.104779  C 261.420481 206.316535 263.064205 206.997387 264.777887 206.997387  z " />
        </g>
        <g
           id="patch_13">
          <path
             id="path952"
             style="fill: #ff0000; opacity: 0.2; stroke: #ff0000; stroke-linejoin: miter"
             clip-path="url(#p43e5c84876)"
             d="M 173.556606 274.365017  C 175.270288 274.365017 176.914012 273.684165 178.125768 272.472409  C 179.337524 271.260653 180.018377 269.616928 180.018377 267.903247  C 180.018377 266.189565 179.337524 264.545841 178.125768 263.334085  C 176.914012 262.122329 175.270288 261.441476 173.556606 261.441476  C 171.842924 261.441476 170.1992 262.122329 168.987444 263.334085  C 167.775688 264.545841 167.094835 266.189565 167.094835 267.903247  C 167.094835 269.616928 167.775688 271.260653 168.987444 272.472409  C 170.1992 273.684165 171.842924 274.365017 173.556606 274.365017  z " />
        </g>
        <g
           id="patch_14">
          <path
             id="path955"
             style="fill: #ff0000; opacity: 0.2; stroke: #ff0000; stroke-linejoin: miter"
             clip-path="url(#p43e5c84876)"
             d="M 267.339951 194.003126  C 269.053632 194.003126 270.697357 193.322273 271.909113 192.110517  C 273.120868 190.898761 273.801721 189.255037 273.801721 187.541355  C 273.801721 185.827674 273.120868 184.183949 271.909113 182.972194  C 270.697357 181.760438 269.053632 181.079585 267.339951 181.079585  C 265.626269 181.079585 263.982545 181.760438 262.770789 182.972194  C 261.559033 184.183949 260.87818 185.827674 260.87818 187.541355  C 260.87818 189.255037 261.559033 190.898761 262.770789 192.110517  C 263.982545 193.322273 265.626269 194.003126 267.339951 194.003126  z " />
        </g>
        <g
           id="patch_15">
          <path
             id="path958"
             style="fill: #0000ff; opacity: 0.2; stroke: #0000ff; stroke-linejoin: miter"
             clip-path="url(#p43e5c84876)"
             d="M 210.380313 82.511161  C 217.583213 82.511161 224.492072 79.649418 229.585292 74.556198  C 234.678512 69.462978 237.540255 62.55412 237.540255 55.351219  C 237.540255 48.148318 234.678512 41.239459 229.585292 36.146239  C 224.492072 31.053019 217.583213 28.191276 210.380313 28.191276  C 203.177412 28.191276 196.268553 31.053019 191.175333 36.146239  C 186.082113 41.239459 183.22037 48.148318 183.22037 55.351219  C 183.22037 62.55412 186.082113 69.462978 191.175333 74.556198  C 196.268553 79.649418 203.177412 82.511161 210.380313 82.511161  z " />
        </g>
        <g
           id="patch_16">
          <path
             id="path961"
             style="fill: #0000ff; opacity: 0.2; stroke: #0000ff; stroke-linejoin: miter"
             clip-path="url(#p43e5c84876)"
             d="M 210.380313 82.511161  C 217.583213 82.511161 224.492072 79.649418 229.585292 74.556198  C 234.678512 69.462978 237.540255 62.55412 237.540255 55.351219  C 237.540255 48.148318 234.678512 41.239459 229.585292 36.146239  C 224.492072 31.053019 217.583213 28.191276 210.380313 28.191276  C 203.177412 28.191276 196.268553 31.053019 191.175333 36.146239  C 186.082113 41.239459 183.22037 48.148318 183.22037 55.351219  C 183.22037 62.55412 186.082113 69.462978 191.175333 74.556198  C 196.268553 79.649418 203.177412 82.511161 210.380313 82.511161  z " />
        </g>
        <g
           id="patch_17">
          <path
             id="path964"
             style="fill: #0000ff; opacity: 0.2; stroke: #0000ff; stroke-linejoin: miter"
             clip-path="url(#p43e5c84876)"
             d="M 212.329063 77.243335  C 214.042745 77.243335 215.686469 76.562482 216.898225 75.350726  C 218.109981 74.138971 218.790834 72.495246 218.790834 70.781565  C 218.790834 69.067883 218.109981 67.424159 216.898225 66.212403  C 215.686469 65.000647 214.042745 64.319794 212.329063 64.319794  C 210.615382 64.319794 208.971658 65.000647 207.759902 66.212403  C 206.548146 67.424159 205.867293 69.067883 205.867293 70.781565  C 205.867293 72.495246 206.548146 74.138971 207.759902 75.350726  C 208.971658 76.562482 210.615382 77.243335 212.329063 77.243335  z " />
        </g>
        <g
           id="patch_18">
          <path
             id="path967"
             style="fill: #0000ff; opacity: 0.2; stroke: #0000ff; stroke-linejoin: miter"
             clip-path="url(#p43e5c84876)"
             d="M 217.407611 60.893801  C 219.121293 60.893801 220.765017 60.212948 221.976773 59.001192  C 223.188529 57.789436 223.869382 56.145712 223.869382 54.43203  C 223.869382 52.718349 223.188529 51.074624 221.976773 49.862868  C 220.765017 48.651112 219.121293 47.97026 217.407611 47.97026  C 215.69393 47.97026 214.050205 48.651112 212.838449 49.862868  C 211.626693 51.074624 210.945841 52.718349 210.945841 54.43203  C 210.945841 56.145712 211.626693 57.789436 212.838449 59.001192  C 214.050205 60.212948 215.69393 60.893801 217.407611 60.893801  z " />
        </g>
        <g
           id="patch_19">
          <path
             id="path970"
             style="fill: #0000ff; opacity: 0.2; stroke: #0000ff; stroke-linejoin: miter"
             clip-path="url(#p43e5c84876)"
             d="M 143.608754 53.497651  C 145.322436 53.497651 146.96616 52.816799 148.177916 51.605043  C 149.389672 50.393287 150.070525 48.749562 150.070525 47.035881  C 150.070525 45.322199 149.389672 43.678475 148.177916 42.466719  C 146.96616 41.254963 145.322436 40.57411 143.608754 40.57411  C 141.895072 40.57411 140.251348 41.254963 139.039592 42.466719  C 137.827836 43.678475 137.146983 45.322199 137.146983 47.035881  C 137.146983 48.749562 137.827836 50.393287 139.039592 51.605043  C 140.251348 52.816799 141.895072 53.497651 143.608754 53.497651  z " />
        </g>
        <g
           id="patch_20">
          <path
             id="path973"
             style="fill: #0000ff; opacity: 0.2; stroke: #0000ff; stroke-linejoin: miter"
             clip-path="url(#p43e5c84876)"
             d="M 178.101698 40.604073  C 179.81538 40.604073 181.459104 39.92322 182.67086 38.711464  C 183.882616 37.499708 184.563469 35.855984 184.563469 34.142303  C 184.563469 32.428621 183.882616 30.784897 182.67086 29.573141  C 181.459104 28.361385 179.81538 27.680532 178.101698 27.680532  C 176.388017 27.680532 174.744292 28.361385 173.532537 29.573141  C 172.320781 30.784897 171.639928 32.428621 171.639928 34.142303  C 171.639928 35.855984 172.320781 37.499708 173.532537 38.711464  C 174.744292 39.92322 176.388017 40.604073 178.101698 40.604073  z " />
        </g>
        <g
           id="matplotlib.axis_1">
          <g
             id="xtick_1">
            <g
               id="line2d_1">
              <defs
                 id="defs977">
                <path
                   style="stroke: #000000; stroke-width: 0.8"
                   d="M 0 0  L 0 3.5  "
                   id="path1581" />
              </defs>
              <g
                 id="g981">
                <use
                   id="use979"
                   style="stroke: #000000; stroke-width: 0.8"
                   y="343.639219"
                   x="44.060313"
                   xlink:href="#mf8ad11d309" />
              </g>
            </g>
            <g
               id="text_1">
              <!-- −7.5 -->
              <g
                 id="g998"
                 transform="translate(31.918906 358.237656) scale(0.1 -0.1)">
                <defs
                   id="defs988">
                  <path
                     transform="scale(0.015625)"
                     d="M 678 2272  L 4684 2272  L 4684 1741  L 678 1741  L 678 2272  z "
                     id="path1587" />
                  <path
                     transform="scale(0.015625)"
                     d="M 525 4666  L 3525 4666  L 3525 4397  L 1831 0  L 1172 0  L 2766 4134  L 525 4134  L 525 4666  z "
                     id="path1589" />
                  <path
                     transform="scale(0.015625)"
                     d="M 684 794  L 1344 794  L 1344 0  L 684 0  L 684 794  z "
                     id="path1591" />
                  <path
                     transform="scale(0.015625)"
                     d="M 691 4666  L 3169 4666  L 3169 4134  L 1269 4134  L 1269 2991  Q 1406 3038 1543 3061  Q 1681 3084 1819 3084  Q 2600 3084 3056 2656  Q 3513 2228 3513 1497  Q 3513 744 3044 326  Q 2575 -91 1722 -91  Q 1428 -91 1123 -41  Q 819 9 494 109  L 494 744  Q 775 591 1075 516  Q 1375 441 1709 441  Q 2250 441 2565 725  Q 2881 1009 2881 1497  Q 2881 1984 2565 2268  Q 2250 2553 1709 2553  Q 1456 2553 1204 2497  Q 953 2441 691 2322  L 691 4666  z "
                     id="path1593" />
                </defs>
                <use
                   id="use990"
                   xlink:href="#DejaVuSans-2212" />
                <use
                   id="use992"
                   x="83.789062"
                   xlink:href="#DejaVuSans-37" />
                <use
                   id="use994"
                   x="147.412109"
                   xlink:href="#DejaVuSans-2e" />
                <use
                   id="use996"
                   x="179.199219"
                   xlink:href="#DejaVuSans-35" />
              </g>
            </g>
          </g>
          <g
             id="xtick_2">
            <g
               id="line2d_2">
              <g
                 id="g1004">
                <use
                   id="use1002"
                   style="stroke: #000000; stroke-width: 0.8"
                   y="343.639219"
                   x="99.500313"
                   xlink:href="#mf8ad11d309" />
              </g>
            </g>
            <g
               id="text_2">
              <!-- −5.0 -->
              <g
                 id="g1018"
                 transform="translate(87.358906 358.237656) scale(0.1 -0.1)">
                <defs
                   id="defs1008">
                  <path
                     transform="scale(0.015625)"
                     d="M 2034 4250  Q 1547 4250 1301 3770  Q 1056 3291 1056 2328  Q 1056 1369 1301 889  Q 1547 409 2034 409  Q 2525 409 2770 889  Q 3016 1369 3016 2328  Q 3016 3291 2770 3770  Q 2525 4250 2034 4250  z M 2034 4750  Q 2819 4750 3233 4129  Q 3647 3509 3647 2328  Q 3647 1150 3233 529  Q 2819 -91 2034 -91  Q 1250 -91 836 529  Q 422 1150 422 2328  Q 422 3509 836 4129  Q 1250 4750 2034 4750  z "
                     id="path1606" />
                </defs>
                <use
                   id="use1010"
                   xlink:href="#DejaVuSans-2212" />
                <use
                   id="use1012"
                   x="83.789062"
                   xlink:href="#DejaVuSans-35" />
                <use
                   id="use1014"
                   x="147.412109"
                   xlink:href="#DejaVuSans-2e" />
                <use
                   id="use1016"
                   x="179.199219"
                   xlink:href="#DejaVuSans-30" />
              </g>
            </g>
          </g>
          <g
             id="xtick_3">
            <g
               id="line2d_3">
              <g
                 id="g1024">
                <use
                   id="use1022"
                   style="stroke: #000000; stroke-width: 0.8"
                   y="343.639219"
                   x="154.940313"
                   xlink:href="#mf8ad11d309" />
              </g>
            </g>
            <g
               id="text_3">
              <!-- −2.5 -->
              <g
                 id="g1038"
                 transform="translate(142.798906 358.237656) scale(0.1 -0.1)">
                <defs
                   id="defs1028">
                  <path
                     transform="scale(0.015625)"
                     d="M 1228 531  L 3431 531  L 3431 0  L 469 0  L 469 531  Q 828 903 1448 1529  Q 2069 2156 2228 2338  Q 2531 2678 2651 2914  Q 2772 3150 2772 3378  Q 2772 3750 2511 3984  Q 2250 4219 1831 4219  Q 1534 4219 1204 4116  Q 875 4013 500 3803  L 500 4441  Q 881 4594 1212 4672  Q 1544 4750 1819 4750  Q 2544 4750 2975 4387  Q 3406 4025 3406 3419  Q 3406 3131 3298 2873  Q 3191 2616 2906 2266  Q 2828 2175 2409 1742  Q 1991 1309 1228 531  z "
                     id="path1619" />
                </defs>
                <use
                   id="use1030"
                   xlink:href="#DejaVuSans-2212" />
                <use
                   id="use1032"
                   x="83.789062"
                   xlink:href="#DejaVuSans-32" />
                <use
                   id="use1034"
                   x="147.412109"
                   xlink:href="#DejaVuSans-2e" />
                <use
                   id="use1036"
                   x="179.199219"
                   xlink:href="#DejaVuSans-35" />
              </g>
            </g>
          </g>
          <g
             id="xtick_4">
            <g
               id="line2d_4">
              <g
                 id="g1044">
                <use
                   id="use1042"
                   style="stroke: #000000; stroke-width: 0.8"
                   y="343.639219"
                   x="210.380313"
                   xlink:href="#mf8ad11d309" />
              </g>
            </g>
            <g
               id="text_4">
              <!-- 0.0 -->
              <g
                 id="g1053"
                 transform="translate(202.42875 358.237656) scale(0.1 -0.1)">
                <use
                   id="use1047"
                   xlink:href="#DejaVuSans-30" />
                <use
                   id="use1049"
                   x="63.623047"
                   xlink:href="#DejaVuSans-2e" />
                <use
                   id="use1051"
                   x="95.410156"
                   xlink:href="#DejaVuSans-30" />
              </g>
            </g>
          </g>
          <g
             id="xtick_5">
            <g
               id="line2d_5">
              <g
                 id="g1059">
                <use
                   id="use1057"
                   style="stroke: #000000; stroke-width: 0.8"
                   y="343.639219"
                   x="265.820312"
                   xlink:href="#mf8ad11d309" />
              </g>
            </g>
            <g
               id="text_5">
              <!-- 2.5 -->
              <g
                 id="g1068"
                 transform="translate(257.86875 358.237656) scale(0.1 -0.1)">
                <use
                   id="use1062"
                   xlink:href="#DejaVuSans-32" />
                <use
                   id="use1064"
                   x="63.623047"
                   xlink:href="#DejaVuSans-2e" />
                <use
                   id="use1066"
                   x="95.410156"
                   xlink:href="#DejaVuSans-35" />
              </g>
            </g>
          </g>
          <g
             id="xtick_6">
            <g
               id="line2d_6">
              <g
                 id="g1074">
                <use
                   id="use1072"
                   style="stroke: #000000; stroke-width: 0.8"
                   y="343.639219"
                   x="321.260312"
                   xlink:href="#mf8ad11d309" />
              </g>
            </g>
            <g
               id="text_6">
              <!-- 5.0 -->
              <g
                 id="g1083"
                 transform="translate(313.30875 358.237656) scale(0.1 -0.1)">
                <use
                   id="use1077"
                   xlink:href="#DejaVuSans-35" />
                <use
                   id="use1079"
                   x="63.623047"
                   xlink:href="#DejaVuSans-2e" />
                <use
                   id="use1081"
                   x="95.410156"
                   xlink:href="#DejaVuSans-30" />
              </g>
            </g>
          </g>
          <g
             id="xtick_7">
            <g
               id="line2d_7">
              <g
                 id="g1089">
                <use
                   id="use1087"
                   style="stroke: #000000; stroke-width: 0.8"
                   y="343.639219"
                   x="376.700312"
                   xlink:href="#mf8ad11d309" />
              </g>
            </g>
            <g
               id="text_7">
              <!-- 7.5 -->
              <g
                 id="g1098"
                 transform="translate(368.74875 358.237656) scale(0.1 -0.1)">
                <use
                   id="use1092"
                   xlink:href="#DejaVuSans-37" />
                <use
                   id="use1094"
                   x="63.623047"
                   xlink:href="#DejaVuSans-2e" />
                <use
                   id="use1096"
                   x="95.410156"
                   xlink:href="#DejaVuSans-35" />
              </g>
            </g>
          </g>
          <g
             id="xtick_8">
            <g
               id="line2d_8">
              <g
                 id="g1104">
                <use
                   id="use1102"
                   style="stroke: #000000; stroke-width: 0.8"
                   y="343.639219"
                   x="432.140312"
                   xlink:href="#mf8ad11d309" />
              </g>
            </g>
            <g
               id="text_8">
              <!-- 10.0 -->
              <g
                 id="g1118"
                 transform="translate(421.0075 358.237656) scale(0.1 -0.1)">
                <defs
                   id="defs1108">
                  <path
                     transform="scale(0.015625)"
                     d="M 794 531  L 1825 531  L 1825 4091  L 703 3866  L 703 4441  L 1819 4666  L 2450 4666  L 2450 531  L 3481 531  L 3481 0  L 794 0  L 794 531  z "
                     id="path1668" />
                </defs>
                <use
                   id="use1110"
                   xlink:href="#DejaVuSans-31" />
                <use
                   id="use1112"
                   x="63.623047"
                   xlink:href="#DejaVuSans-30" />
                <use
                   id="use1114"
                   x="127.246094"
                   xlink:href="#DejaVuSans-2e" />
                <use
                   id="use1116"
                   x="159.033203"
                   xlink:href="#DejaVuSans-30" />
              </g>
            </g>
          </g>
          <g
             id="xtick_9">
            <g
               id="line2d_9">
              <g
                 id="g1124">
                <use
                   id="use1122"
                   style="stroke: #000000; stroke-width: 0.8"
                   y="343.639219"
                   x="487.580312"
                   xlink:href="#mf8ad11d309" />
              </g>
            </g>
            <g
               id="text_9">
              <!-- 12.5 -->
              <g
                 id="g1135"
                 transform="translate(476.4475 358.237656) scale(0.1 -0.1)">
                <use
                   id="use1127"
                   xlink:href="#DejaVuSans-31" />
                <use
                   id="use1129"
                   x="63.623047"
                   xlink:href="#DejaVuSans-32" />
                <use
                   id="use1131"
                   x="127.246094"
                   xlink:href="#DejaVuSans-2e" />
                <use
                   id="use1133"
                   x="159.033203"
                   xlink:href="#DejaVuSans-35" />
              </g>
            </g>
          </g>
          <g
             id="text_10">
            <!-- $x$ -->
            <g
               id="g1144"
               transform="translate(262.820312 371.915781) scale(0.1 -0.1)">
              <defs
                 id="defs1140">
                <path
                   transform="scale(0.015625)"
                   d="M 3841 3500  L 2234 1784  L 3219 0  L 2559 0  L 1819 1388  L 531 0  L -166 0  L 1556 1844  L 641 3500  L 1300 3500  L 1972 2234  L 3144 3500  L 3841 3500  z "
                   id="path1688" />
              </defs>
              <use
                 id="use1142"
                 transform="translate(0 0.3125)"
                 xlink:href="#DejaVuSans-Oblique-78" />
            </g>
          </g>
        </g>
        <g
           id="matplotlib.axis_2">
          <g
             id="ytick_1">
            <g
               id="line2d_10">
              <defs
                 id="defs1149">
                <path
                   style="stroke: #000000; stroke-width: 0.8"
                   d="M 0 0  L -3.5 0  "
                   id="path1695" />
              </defs>
              <g
                 id="g1153">
                <use
                   id="use1151"
                   style="stroke: #000000; stroke-width: 0.8"
                   y="321.463219"
                   x="42.620312"
                   xlink:href="#m097a6b5307" />
              </g>
            </g>
            <g
               id="text_11">
              <!-- −4 -->
              <g
                 id="g1163"
                 transform="translate(20.878125 325.262438) scale(0.1 -0.1)">
                <defs
                   id="defs1157">
                  <path
                     transform="scale(0.015625)"
                     d="M 2419 4116  L 825 1625  L 2419 1625  L 2419 4116  z M 2253 4666  L 3047 4666  L 3047 1625  L 3713 1625  L 3713 1100  L 3047 1100  L 3047 0  L 2419 0  L 2419 1100  L 313 1100  L 313 1709  L 2253 4666  z "
                     id="path1701" />
                </defs>
                <use
                   id="use1159"
                   xlink:href="#DejaVuSans-2212" />
                <use
                   id="use1161"
                   x="83.789062"
                   xlink:href="#DejaVuSans-34" />
              </g>
            </g>
          </g>
          <g
             id="ytick_2">
            <g
               id="line2d_11">
              <g
                 id="g1169">
                <use
                   id="use1167"
                   style="stroke: #000000; stroke-width: 0.8"
                   y="277.111219"
                   x="42.620312"
                   xlink:href="#m097a6b5307" />
              </g>
            </g>
            <g
               id="text_12">
              <!-- −2 -->
              <g
                 id="g1176"
                 transform="translate(20.878125 280.910438) scale(0.1 -0.1)">
                <use
                   id="use1172"
                   xlink:href="#DejaVuSans-2212" />
                <use
                   id="use1174"
                   x="83.789062"
                   xlink:href="#DejaVuSans-32" />
              </g>
            </g>
          </g>
          <g
             id="ytick_3">
            <g
               id="line2d_12">
              <g
                 id="g1182">
                <use
                   id="use1180"
                   style="stroke: #000000; stroke-width: 0.8"
                   y="232.759219"
                   x="42.620312"
                   xlink:href="#m097a6b5307" />
              </g>
            </g>
            <g
               id="text_13">
              <!-- 0 -->
              <g
                 id="g1187"
                 transform="translate(29.257812 236.558438) scale(0.1 -0.1)">
                <use
                   id="use1185"
                   xlink:href="#DejaVuSans-30" />
              </g>
            </g>
          </g>
          <g
             id="ytick_4">
            <g
               id="line2d_13">
              <g
                 id="g1193">
                <use
                   id="use1191"
                   style="stroke: #000000; stroke-width: 0.8"
                   y="188.407219"
                   x="42.620312"
                   xlink:href="#m097a6b5307" />
              </g>
            </g>
            <g
               id="text_14">
              <!-- 2 -->
              <g
                 id="g1198"
                 transform="translate(29.257812 192.206438) scale(0.1 -0.1)">
                <use
                   id="use1196"
                   xlink:href="#DejaVuSans-32" />
              </g>
            </g>
          </g>
          <g
             id="ytick_5">
            <g
               id="line2d_14">
              <g
                 id="g1204">
                <use
                   id="use1202"
                   style="stroke: #000000; stroke-width: 0.8"
                   y="144.055219"
                   x="42.620312"
                   xlink:href="#m097a6b5307" />
              </g>
            </g>
            <g
               id="text_15">
              <!-- 4 -->
              <g
                 id="g1209"
                 transform="translate(29.257812 147.854438) scale(0.1 -0.1)">
                <use
                   id="use1207"
                   xlink:href="#DejaVuSans-34" />
              </g>
            </g>
          </g>
          <g
             id="ytick_6">
            <g
               id="line2d_15">
              <g
                 id="g1215">
                <use
                   id="use1213"
                   style="stroke: #000000; stroke-width: 0.8"
                   y="99.703219"
                   x="42.620312"
                   xlink:href="#m097a6b5307" />
              </g>
            </g>
            <g
               id="text_16">
              <!-- 6 -->
              <g
                 id="g1223"
                 transform="translate(29.257812 103.502438) scale(0.1 -0.1)">
                <defs
                   id="defs1219">
                  <path
                     transform="scale(0.015625)"
                     d="M 2113 2584  Q 1688 2584 1439 2293  Q 1191 2003 1191 1497  Q 1191 994 1439 701  Q 1688 409 2113 409  Q 2538 409 2786 701  Q 3034 994 3034 1497  Q 3034 2003 2786 2293  Q 2538 2584 2113 2584  z M 3366 4563  L 3366 3988  Q 3128 4100 2886 4159  Q 2644 4219 2406 4219  Q 1781 4219 1451 3797  Q 1122 3375 1075 2522  Q 1259 2794 1537 2939  Q 1816 3084 2150 3084  Q 2853 3084 3261 2657  Q 3669 2231 3669 1497  Q 3669 778 3244 343  Q 2819 -91 2113 -91  Q 1303 -91 875 529  Q 447 1150 447 2328  Q 447 3434 972 4092  Q 1497 4750 2381 4750  Q 2619 4750 2861 4703  Q 3103 4656 3366 4563  z "
                     id="path1741" />
                </defs>
                <use
                   id="use1221"
                   xlink:href="#DejaVuSans-36" />
              </g>
            </g>
          </g>
          <g
             id="ytick_7">
            <g
               id="line2d_16">
              <g
                 id="g1229">
                <use
                   id="use1227"
                   style="stroke: #000000; stroke-width: 0.8"
                   y="55.351219"
                   x="42.620312"
                   xlink:href="#m097a6b5307" />
              </g>
            </g>
            <g
               id="text_17">
              <!-- 8 -->
              <g
                 id="g1237"
                 transform="translate(29.257812 59.150438) scale(0.1 -0.1)">
                <defs
                   id="defs1233">
                  <path
                     transform="scale(0.015625)"
                     d="M 2034 2216  Q 1584 2216 1326 1975  Q 1069 1734 1069 1313  Q 1069 891 1326 650  Q 1584 409 2034 409  Q 2484 409 2743 651  Q 3003 894 3003 1313  Q 3003 1734 2745 1975  Q 2488 2216 2034 2216  z M 1403 2484  Q 997 2584 770 2862  Q 544 3141 544 3541  Q 544 4100 942 4425  Q 1341 4750 2034 4750  Q 2731 4750 3128 4425  Q 3525 4100 3525 3541  Q 3525 3141 3298 2862  Q 3072 2584 2669 2484  Q 3125 2378 3379 2068  Q 3634 1759 3634 1313  Q 3634 634 3220 271  Q 2806 -91 2034 -91  Q 1263 -91 848 271  Q 434 634 434 1313  Q 434 1759 690 2068  Q 947 2378 1403 2484  z M 1172 3481  Q 1172 3119 1398 2916  Q 1625 2713 2034 2713  Q 2441 2713 2670 2916  Q 2900 3119 2900 3481  Q 2900 3844 2670 4047  Q 2441 4250 2034 4250  Q 1625 4250 1398 4047  Q 1172 3844 1172 3481  z "
                     id="path1751" />
                </defs>
                <use
                   id="use1235"
                   xlink:href="#DejaVuSans-38" />
              </g>
            </g>
          </g>
          <g
             id="ytick_8">
            <g
               id="line2d_17">
              <g
                 id="g1243">
                <use
                   id="use1241"
                   style="stroke: #000000; stroke-width: 0.8"
                   y="10.999219"
                   x="42.620312"
                   xlink:href="#m097a6b5307" />
              </g>
            </g>
            <g
               id="text_18">
              <!-- 10 -->
              <g
                 id="g1250"
                 transform="translate(22.895312 14.798438) scale(0.1 -0.1)">
                <use
                   id="use1246"
                   xlink:href="#DejaVuSans-31" />
                <use
                   id="use1248"
                   x="63.623047"
                   xlink:href="#DejaVuSans-30" />
              </g>
            </g>
          </g>
          <g
             id="text_19">
            <!-- $y$ -->
            <g
               id="g1259"
               transform="translate(14.778125 180.319219) rotate(-90) scale(0.1 -0.1)">
              <defs
                 id="defs1255">
                <path
                   transform="scale(0.015625)"
                   d="M 1588 -325  Q 1188 -997 936 -1164  Q 684 -1331 294 -1331  L -159 -1331  L -63 -850  L 269 -850  Q 509 -850 678 -719  Q 847 -588 1056 -206  L 1234 128  L 459 3500  L 1069 3500  L 1650 819  L 3256 3500  L 3859 3500  L 1588 -325  z "
                   id="path1766" />
              </defs>
              <use
                 id="use1257"
                 transform="translate(0 0.3125)"
                 xlink:href="#DejaVuSans-Oblique-79" />
            </g>
          </g>
        </g>
        <g
           id="line2d_18">
          <path
             id="path1263"
             style="fill: none; stroke-dasharray: 5.55,2.4; stroke-dashoffset: 0; stroke: #1f77b4; stroke-width: 1.5"
             clip-path="url(#p43e5c84876)"
             d="M 210.380313 232.759219  " />
        </g>
        <g
           id="line2d_19">
          <path
             id="path1266"
             style="fill: none; stroke-dasharray: 5.55,2.4; stroke-dashoffset: 0; stroke: #ff7f0e; stroke-width: 1.5"
             clip-path="url(#p43e5c84876)"
             d="M 210.380313 55.351219  " />
        </g>
        <g
           id="line2d_20">
          <path
             id="path1269"
             style="fill: none; stroke: #ff0000; stroke-width: 1.5; stroke-linecap: square"
             clip-path="url(#p43e5c84876)"
             d="M 210.380313 232.759219  L 210.380313 232.759219  " />
        </g>
        <g
           id="line2d_21">
          <path
             id="path1272"
             style="fill: none; stroke: #ff0000; stroke-width: 1.5; stroke-linecap: square"
             clip-path="url(#p43e5c84876)"
             d="M 210.380313 232.759219  L 210.742476 231.923597  " />
        </g>
        <g
           id="line2d_22">
          <path
             id="path1275"
             style="fill: none; stroke: #ff0000; stroke-width: 1.5; stroke-linecap: square"
             clip-path="url(#p43e5c84876)"
             d="M 210.380313 232.759219  L 241.202292 180.779801  " />
        </g>
        <g
           id="line2d_23">
          <path
             id="path1278"
             style="fill: none; stroke: #ff0000; stroke-width: 1.5; stroke-linecap: square"
             clip-path="url(#p43e5c84876)"
             d="M 210.380313 232.759219  L 152.94262 209.822682  " />
        </g>
        <g
           id="line2d_24">
          <path
             id="path1281"
             style="fill: none; stroke: #ff0000; stroke-width: 1.5; stroke-linecap: square"
             clip-path="url(#p43e5c84876)"
             d="M 210.380313 232.759219  L 263.605468 214.358323  " />
        </g>
        <g
           id="line2d_25">
          <path
             id="path1284"
             style="fill: none; stroke: #ff0000; stroke-width: 1.5; stroke-linecap: square"
             clip-path="url(#p43e5c84876)"
             d="M 210.380313 232.759219  L 210.538042 279.533807  " />
        </g>
        <g
           id="line2d_26">
          <path
             id="path1287"
             style="fill: none; stroke: #ff0000; stroke-width: 1.5; stroke-linecap: square"
             clip-path="url(#p43e5c84876)"
             d="M 210.380313 232.759219  L 241.463444 174.542258  " />
        </g>
        <g
           id="line2d_27">
          <path
             id="path1290"
             style="fill: none; stroke: #ff0000; stroke-width: 1.5; stroke-linecap: square"
             clip-path="url(#p43e5c84876)"
             d="M 210.380313 232.759219  L 252.599583 221.574325  " />
        </g>
        <g
           id="line2d_28">
          <path
             id="path1293"
             style="fill: none; stroke: #ff0000; stroke-width: 1.5; stroke-linecap: square"
             clip-path="url(#p43e5c84876)"
             d="M 210.380313 232.759219  L 264.777887 200.535617  " />
        </g>
        <g
           id="line2d_29">
          <path
             id="path1296"
             style="fill: none; stroke: #ff0000; stroke-width: 1.5; stroke-linecap: square"
             clip-path="url(#p43e5c84876)"
             d="M 210.380313 232.759219  L 173.556606 267.903247  " />
        </g>
        <g
           id="line2d_30">
          <path
             id="path1299"
             style="fill: none; stroke: #ff0000; stroke-width: 1.5; stroke-linecap: square"
             clip-path="url(#p43e5c84876)"
             d="M 210.380313 232.759219  L 267.339951 187.541355  " />
        </g>
        <g
           id="line2d_31">
          <path
             id="path1302"
             style="fill: none; stroke: #0000ff; stroke-width: 1.5; stroke-linecap: square"
             clip-path="url(#p43e5c84876)"
             d="M 210.380313 55.351219  L 210.380313 55.351219  " />
        </g>
        <g
           id="line2d_32">
          <path
             id="path1305"
             style="fill: none; stroke: #0000ff; stroke-width: 1.5; stroke-linecap: square"
             clip-path="url(#p43e5c84876)"
             d="M 210.380313 55.351219  L 212.329063 70.781565  " />
        </g>
        <g
           id="line2d_33">
          <path
             id="path1308"
             style="fill: none; stroke: #0000ff; stroke-width: 1.5; stroke-linecap: square"
             clip-path="url(#p43e5c84876)"
             d="M 210.380313 55.351219  L 217.407611 54.43203  " />
        </g>
        <g
           id="line2d_34">
          <path
             id="path1311"
             style="fill: none; stroke: #0000ff; stroke-width: 1.5; stroke-linecap: square"
             clip-path="url(#p43e5c84876)"
             d="M 210.380313 55.351219  L 143.608754 47.035881  " />
        </g>
        <g
           id="line2d_35">
          <path
             id="path1314"
             style="fill: none; stroke: #0000ff; stroke-width: 1.5; stroke-linecap: square"
             clip-path="url(#p43e5c84876)"
             d="M 210.380313 55.351219  L 178.101698 34.142303  " />
        </g>
        <g
           id="patch_21">
          <path
             id="path1317"
             style="fill: none; stroke: #000000; stroke-width: 0.8; stroke-linejoin: miter; stroke-linecap: square"
             d="M 42.620312 343.639219  L 42.620312 10.999219  " />
        </g>
        <g
           id="patch_22">
          <path
             id="path1320"
             style="fill: none; stroke: #000000; stroke-width: 0.8; stroke-linejoin: miter; stroke-linecap: square"
             d="M 489.020312 343.639219  L 489.020312 10.999219  " />
        </g>
        <g
           id="patch_23">
          <path
             id="path1323"
             style="fill: none; stroke: #000000; stroke-width: 0.8; stroke-linejoin: miter; stroke-linecap: square"
             d="M 42.620313 343.639219  L 489.020312 343.639219  " />
        </g>
        <g
           id="patch_24">
          <path
             id="path1326"
             style="fill: none; stroke: #000000; stroke-width: 0.8; stroke-linejoin: miter; stroke-linecap: square"
             d="M 42.620313 10.999219  L 489.020312 10.999219  " />
        </g>
        <g
           id="legend_1">
          <g
             id="patch_25">
            <path
               id="path1329"
               style="fill: #ffffff; opacity: 0.8; stroke: #cccccc; stroke-linejoin: miter"
               d="M 376.164062 63.033594  L 482.020312 63.033594  Q 484.020312 63.033594 484.020312 61.033594  L 484.020312 17.999219  Q 484.020312 15.999219 482.020312 15.999219  L 376.164062 15.999219  Q 374.164062 15.999219 374.164062 17.999219  L 374.164062 61.033594  Q 374.164062 63.033594 376.164062 63.033594  z " />
          </g>
          <g
             id="line2d_36">
            <path
               id="path1332"
               style="fill: none; stroke-dasharray: 5.55,2.4; stroke-dashoffset: 0; stroke: #000000; stroke-width: 1.5"
               d="M 378.164062 24.097656  L 388.164062 24.097656  L 398.164062 24.097656  " />
          </g>
          <g
             id="text_20">
            <!-- Ground Truth -->
            <g
               id="g1371"
               transform="translate(406.164062 27.597656) scale(0.1 -0.1)">
              <defs
                 id="defs1345">
                <path
                   transform="scale(0.015625)"
                   d="M 3809 666  L 3809 1919  L 2778 1919  L 2778 2438  L 4434 2438  L 4434 434  Q 4069 175 3628 42  Q 3188 -91 2688 -91  Q 1594 -91 976 548  Q 359 1188 359 2328  Q 359 3472 976 4111  Q 1594 4750 2688 4750  Q 3144 4750 3555 4637  Q 3966 4525 4313 4306  L 4313 3634  Q 3963 3931 3569 4081  Q 3175 4231 2741 4231  Q 1884 4231 1454 3753  Q 1025 3275 1025 2328  Q 1025 1384 1454 906  Q 1884 428 2741 428  Q 3075 428 3337 486  Q 3600 544 3809 666  z "
                   id="path1821" />
                <path
                   transform="scale(0.015625)"
                   d="M 2631 2963  Q 2534 3019 2420 3045  Q 2306 3072 2169 3072  Q 1681 3072 1420 2755  Q 1159 2438 1159 1844  L 1159 0  L 581 0  L 581 3500  L 1159 3500  L 1159 2956  Q 1341 3275 1631 3429  Q 1922 3584 2338 3584  Q 2397 3584 2469 3576  Q 2541 3569 2628 3553  L 2631 2963  z "
                   id="path1823" />
                <path
                   transform="scale(0.015625)"
                   d="M 1959 3097  Q 1497 3097 1228 2736  Q 959 2375 959 1747  Q 959 1119 1226 758  Q 1494 397 1959 397  Q 2419 397 2687 759  Q 2956 1122 2956 1747  Q 2956 2369 2687 2733  Q 2419 3097 1959 3097  z M 1959 3584  Q 2709 3584 3137 3096  Q 3566 2609 3566 1747  Q 3566 888 3137 398  Q 2709 -91 1959 -91  Q 1206 -91 779 398  Q 353 888 353 1747  Q 353 2609 779 3096  Q 1206 3584 1959 3584  z "
                   id="path1825" />
                <path
                   transform="scale(0.015625)"
                   d="M 544 1381  L 544 3500  L 1119 3500  L 1119 1403  Q 1119 906 1312 657  Q 1506 409 1894 409  Q 2359 409 2629 706  Q 2900 1003 2900 1516  L 2900 3500  L 3475 3500  L 3475 0  L 2900 0  L 2900 538  Q 2691 219 2414 64  Q 2138 -91 1772 -91  Q 1169 -91 856 284  Q 544 659 544 1381  z M 1991 3584  L 1991 3584  z "
                   id="path1827" />
                <path
                   transform="scale(0.015625)"
                   d="M 3513 2113  L 3513 0  L 2938 0  L 2938 2094  Q 2938 2591 2744 2837  Q 2550 3084 2163 3084  Q 1697 3084 1428 2787  Q 1159 2491 1159 1978  L 1159 0  L 581 0  L 581 3500  L 1159 3500  L 1159 2956  Q 1366 3272 1645 3428  Q 1925 3584 2291 3584  Q 2894 3584 3203 3211  Q 3513 2838 3513 2113  z "
                   id="path1829" />
                <path
                   transform="scale(0.015625)"
                   d="M 2906 2969  L 2906 4863  L 3481 4863  L 3481 0  L 2906 0  L 2906 525  Q 2725 213 2448 61  Q 2172 -91 1784 -91  Q 1150 -91 751 415  Q 353 922 353 1747  Q 353 2572 751 3078  Q 1150 3584 1784 3584  Q 2172 3584 2448 3432  Q 2725 3281 2906 2969  z M 947 1747  Q 947 1113 1208 752  Q 1469 391 1925 391  Q 2381 391 2643 752  Q 2906 1113 2906 1747  Q 2906 2381 2643 2742  Q 2381 3103 1925 3103  Q 1469 3103 1208 2742  Q 947 2381 947 1747  z "
                   id="path1831" />
                <path
                   transform="scale(0.015625)"
                   id="path1833" />
                <path
                   transform="scale(0.015625)"
                   d="M -19 4666  L 3928 4666  L 3928 4134  L 2272 4134  L 2272 0  L 1638 0  L 1638 4134  L -19 4134  L -19 4666  z "
                   id="path1835" />
                <path
                   transform="scale(0.015625)"
                   d="M 1172 4494  L 1172 3500  L 2356 3500  L 2356 3053  L 1172 3053  L 1172 1153  Q 1172 725 1289 603  Q 1406 481 1766 481  L 2356 481  L 2356 0  L 1766 0  Q 1100 0 847 248  Q 594 497 594 1153  L 594 3053  L 172 3053  L 172 3500  L 594 3500  L 594 4494  L 1172 4494  z "
                   id="path1837" />
                <path
                   transform="scale(0.015625)"
                   d="M 3513 2113  L 3513 0  L 2938 0  L 2938 2094  Q 2938 2591 2744 2837  Q 2550 3084 2163 3084  Q 1697 3084 1428 2787  Q 1159 2491 1159 1978  L 1159 0  L 581 0  L 581 4863  L 1159 4863  L 1159 2956  Q 1366 3272 1645 3428  Q 1925 3584 2291 3584  Q 2894 3584 3203 3211  Q 3513 2838 3513 2113  z "
                   id="path1839" />
              </defs>
              <use
                 id="use1347"
                 xlink:href="#DejaVuSans-47" />
              <use
                 id="use1349"
                 x="77.490234"
                 xlink:href="#DejaVuSans-72" />
              <use
                 id="use1351"
                 x="116.353516"
                 xlink:href="#DejaVuSans-6f" />
              <use
                 id="use1353"
                 x="177.535156"
                 xlink:href="#DejaVuSans-75" />
              <use
                 id="use1355"
                 x="240.914062"
                 xlink:href="#DejaVuSans-6e" />
              <use
                 id="use1357"
                 x="304.292969"
                 xlink:href="#DejaVuSans-64" />
              <use
                 id="use1359"
                 x="367.769531"
                 xlink:href="#DejaVuSans-20" />
              <use
                 id="use1361"
                 x="399.556641"
                 xlink:href="#DejaVuSans-54" />
              <use
                 id="use1363"
                 x="445.890625"
                 xlink:href="#DejaVuSans-72" />
              <use
                 id="use1365"
                 x="487.003906"
                 xlink:href="#DejaVuSans-75" />
              <use
                 id="use1367"
                 x="550.382812"
                 xlink:href="#DejaVuSans-74" />
              <use
                 id="use1369"
                 x="589.591797"
                 xlink:href="#DejaVuSans-68" />
            </g>
          </g>
          <g
             id="line2d_37">
            <g
               id="g1376">
              <use
                 id="use1374"
                 style="fill: #0000ff; stroke: #0000ff"
                 y="38.775781"
                 x="388.164062"
                 xlink:href="#md824ecbd1f" />
            </g>
          </g>
          <g
             id="text_21">
            <!-- Measurements -->
            <g
               id="g1410"
               transform="translate(406.164062 42.275781) scale(0.1 -0.1)">
              <defs
                 id="defs1384">
                <path
                   transform="scale(0.015625)"
                   d="M 628 4666  L 1569 4666  L 2759 1491  L 3956 4666  L 4897 4666  L 4897 0  L 4281 0  L 4281 4097  L 3078 897  L 2444 897  L 1241 4097  L 1241 0  L 628 0  L 628 4666  z "
                   id="path1859" />
                <path
                   transform="scale(0.015625)"
                   d="M 3597 1894  L 3597 1613  L 953 1613  Q 991 1019 1311 708  Q 1631 397 2203 397  Q 2534 397 2845 478  Q 3156 559 3463 722  L 3463 178  Q 3153 47 2828 -22  Q 2503 -91 2169 -91  Q 1331 -91 842 396  Q 353 884 353 1716  Q 353 2575 817 3079  Q 1281 3584 2069 3584  Q 2775 3584 3186 3129  Q 3597 2675 3597 1894  z M 3022 2063  Q 3016 2534 2758 2815  Q 2500 3097 2075 3097  Q 1594 3097 1305 2825  Q 1016 2553 972 2059  L 3022 2063  z "
                   id="path1861" />
                <path
                   transform="scale(0.015625)"
                   d="M 2194 1759  Q 1497 1759 1228 1600  Q 959 1441 959 1056  Q 959 750 1161 570  Q 1363 391 1709 391  Q 2188 391 2477 730  Q 2766 1069 2766 1631  L 2766 1759  L 2194 1759  z M 3341 1997  L 3341 0  L 2766 0  L 2766 531  Q 2569 213 2275 61  Q 1981 -91 1556 -91  Q 1019 -91 701 211  Q 384 513 384 1019  Q 384 1609 779 1909  Q 1175 2209 1959 2209  L 2766 2209  L 2766 2266  Q 2766 2663 2505 2880  Q 2244 3097 1772 3097  Q 1472 3097 1187 3025  Q 903 2953 641 2809  L 641 3341  Q 956 3463 1253 3523  Q 1550 3584 1831 3584  Q 2591 3584 2966 3190  Q 3341 2797 3341 1997  z "
                   id="path1863" />
                <path
                   transform="scale(0.015625)"
                   d="M 2834 3397  L 2834 2853  Q 2591 2978 2328 3040  Q 2066 3103 1784 3103  Q 1356 3103 1142 2972  Q 928 2841 928 2578  Q 928 2378 1081 2264  Q 1234 2150 1697 2047  L 1894 2003  Q 2506 1872 2764 1633  Q 3022 1394 3022 966  Q 3022 478 2636 193  Q 2250 -91 1575 -91  Q 1294 -91 989 -36  Q 684 19 347 128  L 347 722  Q 666 556 975 473  Q 1284 391 1588 391  Q 1994 391 2212 530  Q 2431 669 2431 922  Q 2431 1156 2273 1281  Q 2116 1406 1581 1522  L 1381 1569  Q 847 1681 609 1914  Q 372 2147 372 2553  Q 372 3047 722 3315  Q 1072 3584 1716 3584  Q 2034 3584 2315 3537  Q 2597 3491 2834 3397  z "
                   id="path1865" />
                <path
                   transform="scale(0.015625)"
                   d="M 3328 2828  Q 3544 3216 3844 3400  Q 4144 3584 4550 3584  Q 5097 3584 5394 3201  Q 5691 2819 5691 2113  L 5691 0  L 5113 0  L 5113 2094  Q 5113 2597 4934 2840  Q 4756 3084 4391 3084  Q 3944 3084 3684 2787  Q 3425 2491 3425 1978  L 3425 0  L 2847 0  L 2847 2094  Q 2847 2600 2669 2842  Q 2491 3084 2119 3084  Q 1678 3084 1418 2786  Q 1159 2488 1159 1978  L 1159 0  L 581 0  L 581 3500  L 1159 3500  L 1159 2956  Q 1356 3278 1631 3431  Q 1906 3584 2284 3584  Q 2666 3584 2933 3390  Q 3200 3197 3328 2828  z "
                   id="path1867" />
              </defs>
              <use
                 id="use1386"
                 xlink:href="#DejaVuSans-4d" />
              <use
                 id="use1388"
                 x="86.279297"
                 xlink:href="#DejaVuSans-65" />
              <use
                 id="use1390"
                 x="147.802734"
                 xlink:href="#DejaVuSans-61" />
              <use
                 id="use1392"
                 x="209.082031"
                 xlink:href="#DejaVuSans-73" />
              <use
                 id="use1394"
                 x="261.181641"
                 xlink:href="#DejaVuSans-75" />
              <use
                 id="use1396"
                 x="324.560547"
                 xlink:href="#DejaVuSans-72" />
              <use
                 id="use1398"
                 x="363.423828"
                 xlink:href="#DejaVuSans-65" />
              <use
                 id="use1400"
                 x="424.947266"
                 xlink:href="#DejaVuSans-6d" />
              <use
                 id="use1402"
                 x="522.359375"
                 xlink:href="#DejaVuSans-65" />
              <use
                 id="use1404"
                 x="583.882812"
                 xlink:href="#DejaVuSans-6e" />
              <use
                 id="use1406"
                 x="647.261719"
                 xlink:href="#DejaVuSans-74" />
              <use
                 id="use1408"
                 x="686.470703"
                 xlink:href="#DejaVuSans-73" />
            </g>
          </g>
          <g
             id="line2d_38">
            <defs
               id="defs1414">
              <path
                 style="stroke: #1f77b4"
                 d="M 0 0  L 0 -3  M 0 0  L -2.4 1.5  M 0 0  L 2.4 1.5  "
                 id="path1884" />
            </defs>
            <g
               id="g1418">
              <use
                 id="use1416"
                 style="fill: #1f77b4; stroke: #1f77b4"
                 y="53.453906"
                 x="388.164062"
                 xlink:href="#m21b57cc532" />
            </g>
          </g>
          <g
             id="text_22">
            <!-- Clutter -->
            <g
               id="g1439"
               transform="translate(406.164062 56.953906) scale(0.1 -0.1)">
              <defs
                 id="defs1423">
                <path
                   transform="scale(0.015625)"
                   d="M 4122 4306  L 4122 3641  Q 3803 3938 3442 4084  Q 3081 4231 2675 4231  Q 1875 4231 1450 3742  Q 1025 3253 1025 2328  Q 1025 1406 1450 917  Q 1875 428 2675 428  Q 3081 428 3442 575  Q 3803 722 4122 1019  L 4122 359  Q 3791 134 3420 21  Q 3050 -91 2638 -91  Q 1578 -91 968 557  Q 359 1206 359 2328  Q 359 3453 968 4101  Q 1578 4750 2638 4750  Q 3056 4750 3426 4639  Q 3797 4528 4122 4306  z "
                   id="path1890" />
                <path
                   transform="scale(0.015625)"
                   d="M 603 4863  L 1178 4863  L 1178 0  L 603 0  L 603 4863  z "
                   id="path1892" />
              </defs>
              <use
                 id="use1425"
                 xlink:href="#DejaVuSans-43" />
              <use
                 id="use1427"
                 x="69.824219"
                 xlink:href="#DejaVuSans-6c" />
              <use
                 id="use1429"
                 x="97.607422"
                 xlink:href="#DejaVuSans-75" />
              <use
                 id="use1431"
                 x="160.986328"
                 xlink:href="#DejaVuSans-74" />
              <use
                 id="use1433"
                 x="200.195312"
                 xlink:href="#DejaVuSans-74" />
              <use
                 id="use1435"
                 x="239.404297"
                 xlink:href="#DejaVuSans-65" />
              <use
                 id="use1437"
                 x="300.927734"
                 xlink:href="#DejaVuSans-72" />
            </g>
          </g>
        </g>
      </g>
    </g>
  </g>
</svg>
