<?xml version="1.0" encoding="utf-8" standalone="no"?>
<!DOCTYPE svg PUBLIC "-//W3C//DTD SVG 1.1//EN"
  "http://www.w3.org/Graphics/SVG/1.1/DTD/svg11.dtd">
<svg xmlns:xlink="http://www.w3.org/1999/xlink" width="390.24pt" height="205.2pt" viewBox="0 0 390.24 205.2" xmlns="http://www.w3.org/2000/svg" version="1.1">
 <metadata>
  <rdf:RDF xmlns:dc="http://purl.org/dc/elements/1.1/" xmlns:cc="http://creativecommons.org/ns#" xmlns:rdf="http://www.w3.org/1999/02/22-rdf-syntax-ns#">
   <cc:Work>
    <dc:type rdf:resource="http://purl.org/dc/dcmitype/StillImage"/>
    <dc:date>2026-04-01T14:39:16.659881</dc:date>
    <dc:format>image/svg+xml</dc:format>
    <dc:creator>
     <cc:Agent>
      <dc:title>Matplotlib v3.7.5, https://matplotlib.org/</dc:title>
     </cc:Agent>
    </dc:creator>
   </cc:Work>
  </rdf:RDF>
 </metadata>
 <defs>
  <style type="text/css">*{stroke-linejoin: round; stroke-linecap: butt}</style>
 </defs>
 <g id="figure_1">
  <g id="patch_1">
   <path d="M 0 205.2 
L 390.24 205.2 
L 390.24 0 
L 0 0 
z
" style="fill: #ffffff"/>
  </g>
  <g id="axes_1">
   <g id="patch_2">
    <path d="M 43.669714 172.954286 
L 381.783507 172.954286 
L 381.783507 6.156 
L 43.669714 6.156 
z
" style="fill: #ffffff"/>
   </g>
   <g id="matplotlib.axis_1">
    <g id="xtick_1">
     <g id="line2d_1">
      <path d="M 59.038523 172.954286 
L 59.038523 6.156 
" clip-path="url(#p1a4e1ab0b5)" style="fill: none; stroke: #cccccc; stroke-width: 0.5; stroke-linecap: square"/>
     </g>
     <g id="line2d_2">
      <defs>
       <path id="m06cc19a321" d="M 0 0 
L 0 3.5 
" style="stroke: #000000; stroke-width: 0.8"/>
      </defs>
      <g>
       <use xlink:href="#m06cc19a321" x="59.038523" y="172.954286" style="stroke: #000000; stroke-width: 0.8"/>
      </g>
     </g>
     <g id="text_1">
      <!-- 0 -->
      <g transform="translate(55.857273 187.552723) scale(0.1 -0.1)">
       <defs>
        <path id="DejaVuSans-30" d="M 2034 4250 
Q 1547 4250 1301 3770 
Q 1056 3291 1056 2328 
Q 1056 1369 1301 889 
Q 1547 409 2034 409 
Q 2525 409 2770 889 
Q 3016 1369 3016 2328 
Q 3016 3291 2770 3770 
Q 2525 4250 2034 4250 
z
M 2034 4750 
Q 2819 4750 3233 4129 
Q 3647 3509 3647 2328 
Q 3647 1150 3233 529 
Q 2819 -91 2034 -91 
Q 1250 -91 836 529 
Q 422 1150 422 2328 
Q 422 3509 836 4129 
Q 1250 4750 2034 4750 
z
" transform="scale(0.015625)"/>
       </defs>
       <use xlink:href="#DejaVuSans-30"/>
      </g>
     </g>
    </g>
    <g id="xtick_2">
     <g id="line2d_3">
      <path d="M 99.165961 172.954286 
L 99.165961 6.156 
" clip-path="url(#p1a4e1ab0b5)" style="fill: none; stroke: #cccccc; stroke-width: 0.5; stroke-linecap: square"/>
     </g>
     <g id="line2d_4">
      <g>
       <use xlink:href="#m06cc19a321" x="99.165961" y="172.954286" style="stroke: #000000; stroke-width: 0.8"/>
      </g>
     </g>
     <g id="text_2">
      <!-- 100 -->
      <g transform="translate(89.622211 187.552723) scale(0.1 -0.1)">
       <defs>
        <path id="DejaVuSans-31" d="M 794 531 
L 1825 531 
L 1825 4091 
L 703 3866 
L 703 4441 
L 1819 4666 
L 2450 4666 
L 2450 531 
L 3481 531 
L 3481 0 
L 794 0 
L 794 531 
z
" transform="scale(0.015625)"/>
       </defs>
       <use xlink:href="#DejaVuSans-31"/>
       <use xlink:href="#DejaVuSans-30" x="63.623047"/>
       <use xlink:href="#DejaVuSans-30" x="127.246094"/>
      </g>
     </g>
    </g>
    <g id="xtick_3">
     <g id="line2d_5">
      <path d="M 139.293399 172.954286 
L 139.293399 6.156 
" clip-path="url(#p1a4e1ab0b5)" style="fill: none; stroke: #cccccc; stroke-width: 0.5; stroke-linecap: square"/>
     </g>
     <g id="line2d_6">
      <g>
       <use xlink:href="#m06cc19a321" x="139.293399" y="172.954286" style="stroke: #000000; stroke-width: 0.8"/>
      </g>
     </g>
     <g id="text_3">
      <!-- 200 -->
      <g transform="translate(129.749649 187.552723) scale(0.1 -0.1)">
       <defs>
        <path id="DejaVuSans-32" d="M 1228 531 
L 3431 531 
L 3431 0 
L 469 0 
L 469 531 
Q 828 903 1448 1529 
Q 2069 2156 2228 2338 
Q 2531 2678 2651 2914 
Q 2772 3150 2772 3378 
Q 2772 3750 2511 3984 
Q 2250 4219 1831 4219 
Q 1534 4219 1204 4116 
Q 875 4013 500 3803 
L 500 4441 
Q 881 4594 1212 4672 
Q 1544 4750 1819 4750 
Q 2544 4750 2975 4387 
Q 3406 4025 3406 3419 
Q 3406 3131 3298 2873 
Q 3191 2616 2906 2266 
Q 2828 2175 2409 1742 
Q 1991 1309 1228 531 
z
" transform="scale(0.015625)"/>
       </defs>
       <use xlink:href="#DejaVuSans-32"/>
       <use xlink:href="#DejaVuSans-30" x="63.623047"/>
       <use xlink:href="#DejaVuSans-30" x="127.246094"/>
      </g>
     </g>
    </g>
    <g id="xtick_4">
     <g id="line2d_7">
      <path d="M 179.420837 172.954286 
L 179.420837 6.156 
" clip-path="url(#p1a4e1ab0b5)" style="fill: none; stroke: #cccccc; stroke-width: 0.5; stroke-linecap: square"/>
     </g>
     <g id="line2d_8">
      <g>
       <use xlink:href="#m06cc19a321" x="179.420837" y="172.954286" style="stroke: #000000; stroke-width: 0.8"/>
      </g>
     </g>
     <g id="text_4">
      <!-- 300 -->
      <g transform="translate(169.877087 187.552723) scale(0.1 -0.1)">
       <defs>
        <path id="DejaVuSans-33" d="M 2597 2516 
Q 3050 2419 3304 2112 
Q 3559 1806 3559 1356 
Q 3559 666 3084 287 
Q 2609 -91 1734 -91 
Q 1441 -91 1130 -33 
Q 819 25 488 141 
L 488 750 
Q 750 597 1062 519 
Q 1375 441 1716 441 
Q 2309 441 2620 675 
Q 2931 909 2931 1356 
Q 2931 1769 2642 2001 
Q 2353 2234 1838 2234 
L 1294 2234 
L 1294 2753 
L 1863 2753 
Q 2328 2753 2575 2939 
Q 2822 3125 2822 3475 
Q 2822 3834 2567 4026 
Q 2313 4219 1838 4219 
Q 1578 4219 1281 4162 
Q 984 4106 628 3988 
L 628 4550 
Q 988 4650 1302 4700 
Q 1616 4750 1894 4750 
Q 2613 4750 3031 4423 
Q 3450 4097 3450 3541 
Q 3450 3153 3228 2886 
Q 3006 2619 2597 2516 
z
" transform="scale(0.015625)"/>
       </defs>
       <use xlink:href="#DejaVuSans-33"/>
       <use xlink:href="#DejaVuSans-30" x="63.623047"/>
       <use xlink:href="#DejaVuSans-30" x="127.246094"/>
      </g>
     </g>
    </g>
    <g id="xtick_5">
     <g id="line2d_9">
      <path d="M 219.548275 172.954286 
L 219.548275 6.156 
" clip-path="url(#p1a4e1ab0b5)" style="fill: none; stroke: #cccccc; stroke-width: 0.5; stroke-linecap: square"/>
     </g>
     <g id="line2d_10">
      <g>
       <use xlink:href="#m06cc19a321" x="219.548275" y="172.954286" style="stroke: #000000; stroke-width: 0.8"/>
      </g>
     </g>
     <g id="text_5">
      <!-- 400 -->
      <g transform="translate(210.004525 187.552723) scale(0.1 -0.1)">
       <defs>
        <path id="DejaVuSans-34" d="M 2419 4116 
L 825 1625 
L 2419 1625 
L 2419 4116 
z
M 2253 4666 
L 3047 4666 
L 3047 1625 
L 3713 1625 
L 3713 1100 
L 3047 1100 
L 3047 0 
L 2419 0 
L 2419 1100 
L 313 1100 
L 313 1709 
L 2253 4666 
z
" transform="scale(0.015625)"/>
       </defs>
       <use xlink:href="#DejaVuSans-34"/>
       <use xlink:href="#DejaVuSans-30" x="63.623047"/>
       <use xlink:href="#DejaVuSans-30" x="127.246094"/>
      </g>
     </g>
    </g>
    <g id="xtick_6">
     <g id="line2d_11">
      <path d="M 259.675713 172.954286 
L 259.675713 6.156 
" clip-path="url(#p1a4e1ab0b5)" style="fill: none; stroke: #cccccc; stroke-width: 0.5; stroke-linecap: square"/>
     </g>
     <g id="line2d_12">
      <g>
       <use xlink:href="#m06cc19a321" x="259.675713" y="172.954286" style="stroke: #000000; stroke-width: 0.8"/>
      </g>
     </g>
     <g id="text_6">
      <!-- 500 -->
      <g transform="translate(250.131963 187.552723) scale(0.1 -0.1)">
       <defs>
        <path id="DejaVuSans-35" d="M 691 4666 
L 3169 4666 
L 3169 4134 
L 1269 4134 
L 1269 2991 
Q 1406 3038 1543 3061 
Q 1681 3084 1819 3084 
Q 2600 3084 3056 2656 
Q 3513 2228 3513 1497 
Q 3513 744 3044 326 
Q 2575 -91 1722 -91 
Q 1428 -91 1123 -41 
Q 819 9 494 109 
L 494 744 
Q 775 591 1075 516 
Q 1375 441 1709 441 
Q 2250 441 2565 725 
Q 2881 1009 2881 1497 
Q 2881 1984 2565 2268 
Q 2250 2553 1709 2553 
Q 1456 2553 1204 2497 
Q 953 2441 691 2322 
L 691 4666 
z
" transform="scale(0.015625)"/>
       </defs>
       <use xlink:href="#DejaVuSans-35"/>
       <use xlink:href="#DejaVuSans-30" x="63.623047"/>
       <use xlink:href="#DejaVuSans-30" x="127.246094"/>
      </g>
     </g>
    </g>
    <g id="xtick_7">
     <g id="line2d_13">
      <path d="M 299.803151 172.954286 
L 299.803151 6.156 
" clip-path="url(#p1a4e1ab0b5)" style="fill: none; stroke: #cccccc; stroke-width: 0.5; stroke-linecap: square"/>
     </g>
     <g id="line2d_14">
      <g>
       <use xlink:href="#m06cc19a321" x="299.803151" y="172.954286" style="stroke: #000000; stroke-width: 0.8"/>
      </g>
     </g>
     <g id="text_7">
      <!-- 600 -->
      <g transform="translate(290.259401 187.552723) scale(0.1 -0.1)">
       <defs>
        <path id="DejaVuSans-36" d="M 2113 2584 
Q 1688 2584 1439 2293 
Q 1191 2003 1191 1497 
Q 1191 994 1439 701 
Q 1688 409 2113 409 
Q 2538 409 2786 701 
Q 3034 994 3034 1497 
Q 3034 2003 2786 2293 
Q 2538 2584 2113 2584 
z
M 3366 4563 
L 3366 3988 
Q 3128 4100 2886 4159 
Q 2644 4219 2406 4219 
Q 1781 4219 1451 3797 
Q 1122 3375 1075 2522 
Q 1259 2794 1537 2939 
Q 1816 3084 2150 3084 
Q 2853 3084 3261 2657 
Q 3669 2231 3669 1497 
Q 3669 778 3244 343 
Q 2819 -91 2113 -91 
Q 1303 -91 875 529 
Q 447 1150 447 2328 
Q 447 3434 972 4092 
Q 1497 4750 2381 4750 
Q 2619 4750 2861 4703 
Q 3103 4656 3366 4563 
z
" transform="scale(0.015625)"/>
       </defs>
       <use xlink:href="#DejaVuSans-36"/>
       <use xlink:href="#DejaVuSans-30" x="63.623047"/>
       <use xlink:href="#DejaVuSans-30" x="127.246094"/>
      </g>
     </g>
    </g>
    <g id="xtick_8">
     <g id="line2d_15">
      <path d="M 339.930589 172.954286 
L 339.930589 6.156 
" clip-path="url(#p1a4e1ab0b5)" style="fill: none; stroke: #cccccc; stroke-width: 0.5; stroke-linecap: square"/>
     </g>
     <g id="line2d_16">
      <g>
       <use xlink:href="#m06cc19a321" x="339.930589" y="172.954286" style="stroke: #000000; stroke-width: 0.8"/>
      </g>
     </g>
     <g id="text_8">
      <!-- 700 -->
      <g transform="translate(330.386839 187.552723) scale(0.1 -0.1)">
       <defs>
        <path id="DejaVuSans-37" d="M 525 4666 
L 3525 4666 
L 3525 4397 
L 1831 0 
L 1172 0 
L 2766 4134 
L 525 4134 
L 525 4666 
z
" transform="scale(0.015625)"/>
       </defs>
       <use xlink:href="#DejaVuSans-37"/>
       <use xlink:href="#DejaVuSans-30" x="63.623047"/>
       <use xlink:href="#DejaVuSans-30" x="127.246094"/>
      </g>
     </g>
    </g>
    <g id="xtick_9">
     <g id="line2d_17">
      <path d="M 380.058027 172.954286 
L 380.058027 6.156 
" clip-path="url(#p1a4e1ab0b5)" style="fill: none; stroke: #cccccc; stroke-width: 0.5; stroke-linecap: square"/>
     </g>
     <g id="line2d_18">
      <g>
       <use xlink:href="#m06cc19a321" x="380.058027" y="172.954286" style="stroke: #000000; stroke-width: 0.8"/>
      </g>
     </g>
     <g id="text_9">
      <!-- 800 -->
      <g transform="translate(370.514277 187.552723) scale(0.1 -0.1)">
       <defs>
        <path id="DejaVuSans-38" d="M 2034 2216 
Q 1584 2216 1326 1975 
Q 1069 1734 1069 1313 
Q 1069 891 1326 650 
Q 1584 409 2034 409 
Q 2484 409 2743 651 
Q 3003 894 3003 1313 
Q 3003 1734 2745 1975 
Q 2488 2216 2034 2216 
z
M 1403 2484 
Q 997 2584 770 2862 
Q 544 3141 544 3541 
Q 544 4100 942 4425 
Q 1341 4750 2034 4750 
Q 2731 4750 3128 4425 
Q 3525 4100 3525 3541 
Q 3525 3141 3298 2862 
Q 3072 2584 2669 2484 
Q 3125 2378 3379 2068 
Q 3634 1759 3634 1313 
Q 3634 634 3220 271 
Q 2806 -91 2034 -91 
Q 1263 -91 848 271 
Q 434 634 434 1313 
Q 434 1759 690 2068 
Q 947 2378 1403 2484 
z
M 1172 3481 
Q 1172 3119 1398 2916 
Q 1625 2713 2034 2713 
Q 2441 2713 2670 2916 
Q 2900 3119 2900 3481 
Q 2900 3844 2670 4047 
Q 2441 4250 2034 4250 
Q 1625 4250 1398 4047 
Q 1172 3844 1172 3481 
z
" transform="scale(0.015625)"/>
       </defs>
       <use xlink:href="#DejaVuSans-38"/>
       <use xlink:href="#DejaVuSans-30" x="63.623047"/>
       <use xlink:href="#DejaVuSans-30" x="127.246094"/>
      </g>
     </g>
    </g>
    <g id="text_10">
     <!-- Range bin -->
     <g transform="translate(187.560204 201.230848) scale(0.1 -0.1)">
      <defs>
       <path id="DejaVuSans-52" d="M 2841 2188 
Q 3044 2119 3236 1894 
Q 3428 1669 3622 1275 
L 4263 0 
L 3584 0 
L 2988 1197 
Q 2756 1666 2539 1819 
Q 2322 1972 1947 1972 
L 1259 1972 
L 1259 0 
L 628 0 
L 628 4666 
L 2053 4666 
Q 2853 4666 3247 4331 
Q 3641 3997 3641 3322 
Q 3641 2881 3436 2590 
Q 3231 2300 2841 2188 
z
M 1259 4147 
L 1259 2491 
L 2053 2491 
Q 2509 2491 2742 2702 
Q 2975 2913 2975 3322 
Q 2975 3731 2742 3939 
Q 2509 4147 2053 4147 
L 1259 4147 
z
" transform="scale(0.015625)"/>
       <path id="DejaVuSans-61" d="M 2194 1759 
Q 1497 1759 1228 1600 
Q 959 1441 959 1056 
Q 959 750 1161 570 
Q 1363 391 1709 391 
Q 2188 391 2477 730 
Q 2766 1069 2766 1631 
L 2766 1759 
L 2194 1759 
z
M 3341 1997 
L 3341 0 
L 2766 0 
L 2766 531 
Q 2569 213 2275 61 
Q 1981 -91 1556 -91 
Q 1019 -91 701 211 
Q 384 513 384 1019 
Q 384 1609 779 1909 
Q 1175 2209 1959 2209 
L 2766 2209 
L 2766 2266 
Q 2766 2663 2505 2880 
Q 2244 3097 1772 3097 
Q 1472 3097 1187 3025 
Q 903 2953 641 2809 
L 641 3341 
Q 956 3463 1253 3523 
Q 1550 3584 1831 3584 
Q 2591 3584 2966 3190 
Q 3341 2797 3341 1997 
z
" transform="scale(0.015625)"/>
       <path id="DejaVuSans-6e" d="M 3513 2113 
L 3513 0 
L 2938 0 
L 2938 2094 
Q 2938 2591 2744 2837 
Q 2550 3084 2163 3084 
Q 1697 3084 1428 2787 
Q 1159 2491 1159 1978 
L 1159 0 
L 581 0 
L 581 3500 
L 1159 3500 
L 1159 2956 
Q 1366 3272 1645 3428 
Q 1925 3584 2291 3584 
Q 2894 3584 3203 3211 
Q 3513 2838 3513 2113 
z
" transform="scale(0.015625)"/>
       <path id="DejaVuSans-67" d="M 2906 1791 
Q 2906 2416 2648 2759 
Q 2391 3103 1925 3103 
Q 1463 3103 1205 2759 
Q 947 2416 947 1791 
Q 947 1169 1205 825 
Q 1463 481 1925 481 
Q 2391 481 2648 825 
Q 2906 1169 2906 1791 
z
M 3481 434 
Q 3481 -459 3084 -895 
Q 2688 -1331 1869 -1331 
Q 1566 -1331 1297 -1286 
Q 1028 -1241 775 -1147 
L 775 -588 
Q 1028 -725 1275 -790 
Q 1522 -856 1778 -856 
Q 2344 -856 2625 -561 
Q 2906 -266 2906 331 
L 2906 616 
Q 2728 306 2450 153 
Q 2172 0 1784 0 
Q 1141 0 747 490 
Q 353 981 353 1791 
Q 353 2603 747 3093 
Q 1141 3584 1784 3584 
Q 2172 3584 2450 3431 
Q 2728 3278 2906 2969 
L 2906 3500 
L 3481 3500 
L 3481 434 
z
" transform="scale(0.015625)"/>
       <path id="DejaVuSans-65" d="M 3597 1894 
L 3597 1613 
L 953 1613 
Q 991 1019 1311 708 
Q 1631 397 2203 397 
Q 2534 397 2845 478 
Q 3156 559 3463 722 
L 3463 178 
Q 3153 47 2828 -22 
Q 2503 -91 2169 -91 
Q 1331 -91 842 396 
Q 353 884 353 1716 
Q 353 2575 817 3079 
Q 1281 3584 2069 3584 
Q 2775 3584 3186 3129 
Q 3597 2675 3597 1894 
z
M 3022 2063 
Q 3016 2534 2758 2815 
Q 2500 3097 2075 3097 
Q 1594 3097 1305 2825 
Q 1016 2553 972 2059 
L 3022 2063 
z
" transform="scale(0.015625)"/>
       <path id="DejaVuSans-20" transform="scale(0.015625)"/>
       <path id="DejaVuSans-62" d="M 3116 1747 
Q 3116 2381 2855 2742 
Q 2594 3103 2138 3103 
Q 1681 3103 1420 2742 
Q 1159 2381 1159 1747 
Q 1159 1113 1420 752 
Q 1681 391 2138 391 
Q 2594 391 2855 752 
Q 3116 1113 3116 1747 
z
M 1159 2969 
Q 1341 3281 1617 3432 
Q 1894 3584 2278 3584 
Q 2916 3584 3314 3078 
Q 3713 2572 3713 1747 
Q 3713 922 3314 415 
Q 2916 -91 2278 -91 
Q 1894 -91 1617 61 
Q 1341 213 1159 525 
L 1159 0 
L 581 0 
L 581 4863 
L 1159 4863 
L 1159 2969 
z
" transform="scale(0.015625)"/>
       <path id="DejaVuSans-69" d="M 603 3500 
L 1178 3500 
L 1178 0 
L 603 0 
L 603 3500 
z
M 603 4863 
L 1178 4863 
L 1178 4134 
L 603 4134 
L 603 4863 
z
" transform="scale(0.015625)"/>
      </defs>
      <use xlink:href="#DejaVuSans-52"/>
      <use xlink:href="#DejaVuSans-61" x="67.232422"/>
      <use xlink:href="#DejaVuSans-6e" x="128.511719"/>
      <use xlink:href="#DejaVuSans-67" x="191.890625"/>
      <use xlink:href="#DejaVuSans-65" x="255.367188"/>
      <use xlink:href="#DejaVuSans-20" x="316.890625"/>
      <use xlink:href="#DejaVuSans-62" x="348.677734"/>
      <use xlink:href="#DejaVuSans-69" x="412.154297"/>
      <use xlink:href="#DejaVuSans-6e" x="439.9375"/>
     </g>
    </g>
   </g>
   <g id="matplotlib.axis_2">
    <g id="ytick_1">
     <g id="line2d_19">
      <path d="M 43.669714 158.344808 
L 381.783507 158.344808 
" clip-path="url(#p1a4e1ab0b5)" style="fill: none; stroke: #cccccc; stroke-width: 0.5; stroke-linecap: square"/>
     </g>
     <g id="line2d_20">
      <defs>
       <path id="mf3fecbeea5" d="M 0 0 
L -3.5 0 
" style="stroke: #000000; stroke-width: 0.8"/>
      </defs>
      <g>
       <use xlink:href="#mf3fecbeea5" x="43.669714" y="158.344808" style="stroke: #000000; stroke-width: 0.8"/>
      </g>
     </g>
     <g id="text_11">
      <!-- 0 -->
      <g transform="translate(30.307214 162.144027) scale(0.1 -0.1)">
       <use xlink:href="#DejaVuSans-30"/>
      </g>
     </g>
    </g>
    <g id="ytick_2">
     <g id="line2d_21">
      <path d="M 43.669714 132.966227 
L 381.783507 132.966227 
" clip-path="url(#p1a4e1ab0b5)" style="fill: none; stroke: #cccccc; stroke-width: 0.5; stroke-linecap: square"/>
     </g>
     <g id="line2d_22">
      <g>
       <use xlink:href="#mf3fecbeea5" x="43.669714" y="132.966227" style="stroke: #000000; stroke-width: 0.8"/>
      </g>
     </g>
     <g id="text_12">
      <!-- 25 -->
      <g transform="translate(23.944714 136.765445) scale(0.1 -0.1)">
       <use xlink:href="#DejaVuSans-32"/>
       <use xlink:href="#DejaVuSans-35" x="63.623047"/>
      </g>
     </g>
    </g>
    <g id="ytick_3">
     <g id="line2d_23">
      <path d="M 43.669714 107.587645 
L 381.783507 107.587645 
" clip-path="url(#p1a4e1ab0b5)" style="fill: none; stroke: #cccccc; stroke-width: 0.5; stroke-linecap: square"/>
     </g>
     <g id="line2d_24">
      <g>
       <use xlink:href="#mf3fecbeea5" x="43.669714" y="107.587645" style="stroke: #000000; stroke-width: 0.8"/>
      </g>
     </g>
     <g id="text_13">
      <!-- 50 -->
      <g transform="translate(23.944714 111.386864) scale(0.1 -0.1)">
       <use xlink:href="#DejaVuSans-35"/>
       <use xlink:href="#DejaVuSans-30" x="63.623047"/>
      </g>
     </g>
    </g>
    <g id="ytick_4">
     <g id="line2d_25">
      <path d="M 43.669714 82.209064 
L 381.783507 82.209064 
" clip-path="url(#p1a4e1ab0b5)" style="fill: none; stroke: #cccccc; stroke-width: 0.5; stroke-linecap: square"/>
     </g>
     <g id="line2d_26">
      <g>
       <use xlink:href="#mf3fecbeea5" x="43.669714" y="82.209064" style="stroke: #000000; stroke-width: 0.8"/>
      </g>
     </g>
     <g id="text_14">
      <!-- 75 -->
      <g transform="translate(23.944714 86.008283) scale(0.1 -0.1)">
       <use xlink:href="#DejaVuSans-37"/>
       <use xlink:href="#DejaVuSans-35" x="63.623047"/>
      </g>
     </g>
    </g>
    <g id="ytick_5">
     <g id="line2d_27">
      <path d="M 43.669714 56.830483 
L 381.783507 56.830483 
" clip-path="url(#p1a4e1ab0b5)" style="fill: none; stroke: #cccccc; stroke-width: 0.5; stroke-linecap: square"/>
     </g>
     <g id="line2d_28">
      <g>
       <use xlink:href="#mf3fecbeea5" x="43.669714" y="56.830483" style="stroke: #000000; stroke-width: 0.8"/>
      </g>
     </g>
     <g id="text_15">
      <!-- 100 -->
      <g transform="translate(17.582214 60.629702) scale(0.1 -0.1)">
       <use xlink:href="#DejaVuSans-31"/>
       <use xlink:href="#DejaVuSans-30" x="63.623047"/>
       <use xlink:href="#DejaVuSans-30" x="127.246094"/>
      </g>
     </g>
    </g>
    <g id="ytick_6">
     <g id="line2d_29">
      <path d="M 43.669714 31.451902 
L 381.783507 31.451902 
" clip-path="url(#p1a4e1ab0b5)" style="fill: none; stroke: #cccccc; stroke-width: 0.5; stroke-linecap: square"/>
     </g>
     <g id="line2d_30">
      <g>
       <use xlink:href="#mf3fecbeea5" x="43.669714" y="31.451902" style="stroke: #000000; stroke-width: 0.8"/>
      </g>
     </g>
     <g id="text_16">
      <!-- 125 -->
      <g transform="translate(17.582214 35.25112) scale(0.1 -0.1)">
       <use xlink:href="#DejaVuSans-31"/>
       <use xlink:href="#DejaVuSans-32" x="63.623047"/>
       <use xlink:href="#DejaVuSans-35" x="127.246094"/>
      </g>
     </g>
    </g>
    <g id="text_17">
     <!-- Amplitude (dB) -->
     <g transform="translate(11.502527 127.273112) rotate(-90) scale(0.1 -0.1)">
      <defs>
       <path id="DejaVuSans-41" d="M 2188 4044 
L 1331 1722 
L 3047 1722 
L 2188 4044 
z
M 1831 4666 
L 2547 4666 
L 4325 0 
L 3669 0 
L 3244 1197 
L 1141 1197 
L 716 0 
L 50 0 
L 1831 4666 
z
" transform="scale(0.015625)"/>
       <path id="DejaVuSans-6d" d="M 3328 2828 
Q 3544 3216 3844 3400 
Q 4144 3584 4550 3584 
Q 5097 3584 5394 3201 
Q 5691 2819 5691 2113 
L 5691 0 
L 5113 0 
L 5113 2094 
Q 5113 2597 4934 2840 
Q 4756 3084 4391 3084 
Q 3944 3084 3684 2787 
Q 3425 2491 3425 1978 
L 3425 0 
L 2847 0 
L 2847 2094 
Q 2847 2600 2669 2842 
Q 2491 3084 2119 3084 
Q 1678 3084 1418 2786 
Q 1159 2488 1159 1978 
L 1159 0 
L 581 0 
L 581 3500 
L 1159 3500 
L 1159 2956 
Q 1356 3278 1631 3431 
Q 1906 3584 2284 3584 
Q 2666 3584 2933 3390 
Q 3200 3197 3328 2828 
z
" transform="scale(0.015625)"/>
       <path id="DejaVuSans-70" d="M 1159 525 
L 1159 -1331 
L 581 -1331 
L 581 3500 
L 1159 3500 
L 1159 2969 
Q 1341 3281 1617 3432 
Q 1894 3584 2278 3584 
Q 2916 3584 3314 3078 
Q 3713 2572 3713 1747 
Q 3713 922 3314 415 
Q 2916 -91 2278 -91 
Q 1894 -91 1617 61 
Q 1341 213 1159 525 
z
M 3116 1747 
Q 3116 2381 2855 2742 
Q 2594 3103 2138 3103 
Q 1681 3103 1420 2742 
Q 1159 2381 1159 1747 
Q 1159 1113 1420 752 
Q 1681 391 2138 391 
Q 2594 391 2855 752 
Q 3116 1113 3116 1747 
z
" transform="scale(0.015625)"/>
       <path id="DejaVuSans-6c" d="M 603 4863 
L 1178 4863 
L 1178 0 
L 603 0 
L 603 4863 
z
" transform="scale(0.015625)"/>
       <path id="DejaVuSans-74" d="M 1172 4494 
L 1172 3500 
L 2356 3500 
L 2356 3053 
L 1172 3053 
L 1172 1153 
Q 1172 725 1289 603 
Q 1406 481 1766 481 
L 2356 481 
L 2356 0 
L 1766 0 
Q 1100 0 847 248 
Q 594 497 594 1153 
L 594 3053 
L 172 3053 
L 172 3500 
L 594 3500 
L 594 4494 
L 1172 4494 
z
" transform="scale(0.015625)"/>
       <path id="DejaVuSans-75" d="M 544 1381 
L 544 3500 
L 1119 3500 
L 1119 1403 
Q 1119 906 1312 657 
Q 1506 409 1894 409 
Q 2359 409 2629 706 
Q 2900 1003 2900 1516 
L 2900 3500 
L 3475 3500 
L 3475 0 
L 2900 0 
L 2900 538 
Q 2691 219 2414 64 
Q 2138 -91 1772 -91 
Q 1169 -91 856 284 
Q 544 659 544 1381 
z
M 1991 3584 
L 1991 3584 
z
" transform="scale(0.015625)"/>
       <path id="DejaVuSans-64" d="M 2906 2969 
L 2906 4863 
L 3481 4863 
L 3481 0 
L 2906 0 
L 2906 525 
Q 2725 213 2448 61 
Q 2172 -91 1784 -91 
Q 1150 -91 751 415 
Q 353 922 353 1747 
Q 353 2572 751 3078 
Q 1150 3584 1784 3584 
Q 2172 3584 2448 3432 
Q 2725 3281 2906 2969 
z
M 947 1747 
Q 947 1113 1208 752 
Q 1469 391 1925 391 
Q 2381 391 2643 752 
Q 2906 1113 2906 1747 
Q 2906 2381 2643 2742 
Q 2381 3103 1925 3103 
Q 1469 3103 1208 2742 
Q 947 2381 947 1747 
z
" transform="scale(0.015625)"/>
       <path id="DejaVuSans-28" d="M 1984 4856 
Q 1566 4138 1362 3434 
Q 1159 2731 1159 2009 
Q 1159 1288 1364 580 
Q 1569 -128 1984 -844 
L 1484 -844 
Q 1016 -109 783 600 
Q 550 1309 550 2009 
Q 550 2706 781 3412 
Q 1013 4119 1484 4856 
L 1984 4856 
z
" transform="scale(0.015625)"/>
       <path id="DejaVuSans-42" d="M 1259 2228 
L 1259 519 
L 2272 519 
Q 2781 519 3026 730 
Q 3272 941 3272 1375 
Q 3272 1813 3026 2020 
Q 2781 2228 2272 2228 
L 1259 2228 
z
M 1259 4147 
L 1259 2741 
L 2194 2741 
Q 2656 2741 2882 2914 
Q 3109 3088 3109 3444 
Q 3109 3797 2882 3972 
Q 2656 4147 2194 4147 
L 1259 4147 
z
M 628 4666 
L 2241 4666 
Q 2963 4666 3353 4366 
Q 3744 4066 3744 3513 
Q 3744 3084 3544 2831 
Q 3344 2578 2956 2516 
Q 3422 2416 3680 2098 
Q 3938 1781 3938 1306 
Q 3938 681 3513 340 
Q 3088 0 2303 0 
L 628 0 
L 628 4666 
z
" transform="scale(0.015625)"/>
       <path id="DejaVuSans-29" d="M 513 4856 
L 1013 4856 
Q 1481 4119 1714 3412 
Q 1947 2706 1947 2009 
Q 1947 1309 1714 600 
Q 1481 -109 1013 -844 
L 513 -844 
Q 928 -128 1133 580 
Q 1338 1288 1338 2009 
Q 1338 2731 1133 3434 
Q 928 4138 513 4856 
z
" transform="scale(0.015625)"/>
      </defs>
      <use xlink:href="#DejaVuSans-41"/>
      <use xlink:href="#DejaVuSans-6d" x="68.408203"/>
      <use xlink:href="#DejaVuSans-70" x="165.820312"/>
      <use xlink:href="#DejaVuSans-6c" x="229.296875"/>
      <use xlink:href="#DejaVuSans-69" x="257.080078"/>
      <use xlink:href="#DejaVuSans-74" x="284.863281"/>
      <use xlink:href="#DejaVuSans-75" x="324.072266"/>
      <use xlink:href="#DejaVuSans-64" x="387.451172"/>
      <use xlink:href="#DejaVuSans-65" x="450.927734"/>
      <use xlink:href="#DejaVuSans-20" x="512.451172"/>
      <use xlink:href="#DejaVuSans-28" x="544.238281"/>
      <use xlink:href="#DejaVuSans-64" x="583.251953"/>
      <use xlink:href="#DejaVuSans-42" x="646.728516"/>
      <use xlink:href="#DejaVuSans-29" x="715.332031"/>
     </g>
    </g>
   </g>
   <g id="line2d_31">
    <path d="M 59.038523 72.381729 
L 65.860188 72.23459 
L 75.490773 71.942883 
L 87.12773 71.461023 
L 96.35704 70.974077 
L 112.006741 69.863992 
L 119.22968 69.224527 
L 129.662814 68.109693 
L 137.688302 67.064482 
L 144.91124 65.952915 
L 150.529082 64.94008 
L 156.949472 63.576478 
L 162.166039 62.259516 
L 167.382606 60.677778 
L 171.39535 59.212393 
L 174.605545 57.823276 
L 177.81574 56.15963 
L 180.223386 54.659661 
L 182.229758 53.173829 
L 184.23613 51.380996 
L 185.841227 49.621605 
L 187.04505 48.021818 
L 188.248873 46.059648 
L 189.051422 44.451799 
L 189.853971 42.474887 
L 190.65652 39.898877 
L 191.459069 36.158368 
L 191.860343 33.340279 
L 192.261617 28.821494 
L 192.662892 13.971043 
L 193.064166 39.381313 
L 193.46544 15.507449 
L 193.866715 26.277284 
L 194.267989 32.078831 
L 194.669264 35.301931 
L 195.471812 39.366649 
L 196.274361 42.085434 
L 197.07691 44.143909 
L 198.280733 46.529376 
L 199.484556 48.398136 
L 201.089654 50.393886 
L 202.694751 52.017648 
L 204.701123 53.69442 
L 206.707495 55.099769 
L 209.115141 56.531671 
L 211.924062 57.946161 
L 215.535531 59.475222 
L 219.548275 60.898013 
L 223.962293 62.223718 
L 230.382683 63.8207 
L 236.401799 65.069064 
L 243.624738 66.325647 
L 250.847677 67.379581 
L 259.274439 68.42017 
L 268.102475 69.325804 
L 274.121591 69.853542 
L 284.554725 70.634453 
L 303.815895 71.680376 
L 330.300004 72.435428 
L 347.554802 72.564109 
L 366.414698 72.387823 
L 366.414698 72.387823 
" clip-path="url(#p1a4e1ab0b5)" style="fill: none; stroke: #1f77b4; stroke-width: 1.2; stroke-linecap: square"/>
   </g>
   <g id="line2d_32">
    <path d="M 59.038523 146.189043 
L 59.439797 150.736423 
L 59.841072 138.86319 
L 60.242346 136.614402 
L 60.643621 148.589387 
L 61.044895 143.510864 
L 61.446169 141.779387 
L 61.847444 144.199596 
L 62.649992 139.043887 
L 63.051267 137.529673 
L 63.853816 145.493986 
L 64.25509 140.66774 
L 64.656364 148.773044 
L 65.057639 150.074792 
L 65.458913 143.656079 
L 65.860188 143.914649 
L 66.261462 136.341364 
L 66.662736 138.407723 
L 67.064011 150.336252 
L 67.465285 148.576886 
L 67.866559 140.757116 
L 68.267834 141.06253 
L 68.669108 139.439079 
L 69.070383 136.42646 
L 69.471657 141.50704 
L 69.872931 153.35845 
L 70.274206 145.290874 
L 70.67548 143.934313 
L 71.076754 144.540334 
L 71.478029 149.86167 
L 71.879303 149.398878 
L 72.280578 148.764548 
L 72.681852 152.684529 
L 73.083126 148.478474 
L 73.484401 147.672488 
L 73.885675 149.36783 
L 74.286949 145.753938 
L 74.688224 154.813175 
L 75.089498 143.593454 
L 75.490773 142.48979 
L 75.892047 140.628652 
L 76.293321 137.929544 
L 76.694596 138.954777 
L 77.09587 145.636005 
L 77.497145 135.698366 
L 77.898419 134.607921 
L 78.299693 139.154478 
L 78.700968 139.647741 
L 79.102242 149.577147 
L 79.503516 147.711841 
L 79.904791 149.608902 
L 80.306065 147.347721 
L 80.70734 142.190987 
L 81.108614 139.813708 
L 81.509888 140.764293 
L 81.911163 148.522842 
L 82.312437 158.799151 
L 82.713711 141.738307 
L 83.114986 137.745294 
L 83.51626 139.691814 
L 83.917535 142.969797 
L 84.318809 142.977807 
L 84.720083 145.059583 
L 85.121358 138.20843 
L 85.522632 139.601472 
L 85.923907 139.770487 
L 86.325181 142.95857 
L 86.726455 150.175639 
L 87.529004 139.634844 
L 87.930278 146.145054 
L 88.331553 144.694903 
L 88.732827 146.190182 
L 89.134102 143.780957 
L 89.535376 145.017895 
L 89.93665 136.398701 
L 90.337925 140.675452 
L 90.739199 140.773247 
L 91.140473 138.197739 
L 91.943022 147.281217 
L 92.344297 148.870401 
L 92.745571 158.088105 
L 93.146845 153.93041 
L 93.54812 147.178514 
L 93.949394 144.921881 
L 94.350669 155.548727 
L 94.751943 143.394974 
L 95.153217 144.75464 
L 95.554492 145.331665 
L 95.955766 138.112702 
L 96.35704 139.850151 
L 96.758315 145.563797 
L 97.159589 154.949461 
L 97.560864 144.308908 
L 97.962138 142.354074 
L 98.363412 142.992981 
L 98.764687 151.266882 
L 99.165961 143.675969 
L 99.567235 149.115303 
L 99.96851 140.728959 
L 100.369784 141.007103 
L 100.771059 143.576019 
L 101.172333 147.576484 
L 101.573607 157.346783 
L 102.376156 136.331902 
L 102.77743 134.936691 
L 103.178705 136.46739 
L 104.382528 151.752449 
L 104.783802 147.93148 
L 105.185077 141.14264 
L 105.586351 146.197244 
L 105.987626 141.689586 
L 106.3889 142.599038 
L 106.790174 138.967453 
L 107.191449 138.495815 
L 107.592723 143.819796 
L 107.993997 136.735378 
L 108.395272 139.526325 
L 108.796546 139.166261 
L 109.197821 136.834236 
L 109.599095 149.240777 
L 110.000369 139.535981 
L 110.401644 136.582347 
L 110.802918 137.828677 
L 111.204192 146.888493 
L 111.605467 142.653464 
L 112.006741 144.592283 
L 112.408016 139.0322 
L 112.80929 137.941924 
L 113.611839 139.125416 
L 114.013113 136.580933 
L 114.414388 126.492605 
L 114.815662 123.892787 
L 115.618211 142.278077 
L 116.019485 144.888421 
L 116.420759 151.440078 
L 116.822034 141.40594 
L 117.223308 138.365532 
L 117.624583 137.67997 
L 118.025857 137.325506 
L 118.427131 140.607909 
L 119.22968 135.862845 
L 119.630954 139.340783 
L 120.032229 140.641292 
L 120.433503 138.040091 
L 120.834778 144.312901 
L 121.236052 153.636066 
L 121.637326 140.297458 
L 122.038601 141.259864 
L 122.439875 147.361211 
L 122.84115 147.809564 
L 123.242424 145.931015 
L 123.643698 145.09759 
L 124.044973 144.546407 
L 124.446247 144.502827 
L 124.847521 156.725934 
L 125.248796 148.192545 
L 125.65007 153.801619 
L 126.051345 141.879919 
L 126.452619 140.088622 
L 126.853893 152.356278 
L 127.255168 151.728988 
L 127.656442 139.612021 
L 128.057716 138.085414 
L 128.458991 144.515455 
L 128.860265 145.125145 
L 129.26154 141.037171 
L 129.662814 147.57165 
L 130.064088 143.774777 
L 130.465363 144.166556 
L 130.866637 142.025948 
L 131.267911 140.895856 
L 131.669186 145.239054 
L 132.471735 139.78064 
L 132.873009 140.333038 
L 133.675558 155.75534 
L 134.076832 141.930441 
L 134.478107 140.353581 
L 134.879381 139.827359 
L 135.280655 138.047267 
L 136.083204 147.436492 
L 136.484478 146.286369 
L 136.885753 139.1858 
L 137.287027 143.868353 
L 137.688302 138.641462 
L 138.089576 137.98314 
L 138.49085 153.14849 
L 138.892125 137.903312 
L 139.293399 140.057239 
L 139.694673 156.568861 
L 140.095948 135.760265 
L 140.497222 134.813223 
L 140.898497 136.13456 
L 141.701045 150.619481 
L 142.10232 142.02679 
L 142.503594 138.69597 
L 142.904869 146.267946 
L 143.306143 147.815847 
L 143.707417 139.597615 
L 144.108692 142.196 
L 144.509966 141.749801 
L 144.91124 140.378159 
L 145.312515 142.536929 
L 145.713789 140.442317 
L 146.115064 160.125518 
L 146.516338 152.696042 
L 146.917612 137.423933 
L 147.318887 135.745609 
L 147.720161 140.03727 
L 148.121435 148.828669 
L 148.52271 152.126975 
L 148.923984 140.443738 
L 149.325259 139.455054 
L 149.726533 137.449869 
L 150.127807 150.698681 
L 150.930356 143.785169 
L 151.331631 147.474667 
L 151.732905 141.836384 
L 152.134179 139.434552 
L 152.936728 147.682263 
L 153.338002 142.814903 
L 153.739277 144.752916 
L 154.140551 144.640092 
L 154.541826 146.194453 
L 154.9431 137.706823 
L 155.344374 144.903542 
L 155.745649 140.128604 
L 156.146923 141.46706 
L 156.548197 151.014289 
L 156.949472 142.639798 
L 157.350746 159.146346 
L 157.752021 147.444072 
L 158.153295 151.533965 
L 158.554569 135.001736 
L 158.955844 134.704091 
L 159.357118 132.151656 
L 159.758392 134.753924 
L 160.159667 145.467216 
L 160.560941 140.010465 
L 160.962216 136.982904 
L 161.36349 140.321089 
L 161.764764 134.02147 
L 162.166039 150.321755 
L 162.567313 139.205862 
L 162.968588 139.47858 
L 163.369862 133.722697 
L 163.771136 136.22662 
L 164.172411 151.689143 
L 164.573685 138.595562 
L 164.974959 139.992909 
L 165.376234 139.926363 
L 166.178783 145.159709 
L 166.580057 136.828215 
L 166.981331 137.206345 
L 167.382606 147.362784 
L 167.78388 138.539115 
L 168.185154 141.003159 
L 168.987703 135.564411 
L 169.388978 139.703172 
L 169.790252 140.121932 
L 170.191526 130.665443 
L 170.994075 140.340729 
L 171.39535 131.665449 
L 171.796624 138.88724 
L 172.197898 134.697924 
L 172.599173 132.731783 
L 173.000447 132.666207 
L 173.401721 133.022616 
L 173.802996 135.27102 
L 174.20427 128.833492 
L 174.605545 135.621327 
L 175.006819 128.639735 
L 175.408093 132.060108 
L 175.809368 128.21999 
L 176.210642 130.692749 
L 176.611916 128.752301 
L 177.013191 128.639109 
L 177.414465 125.308664 
L 177.81574 127.139758 
L 178.217014 126.596229 
L 179.019563 123.887439 
L 179.420837 124.038968 
L 179.822112 121.924993 
L 180.223386 122.736204 
L 181.025935 119.765532 
L 181.427209 119.514815 
L 181.828483 118.633042 
L 182.229758 117.275554 
L 182.631032 116.357197 
L 183.032307 115.925107 
L 183.433581 114.250573 
L 183.834855 113.18026 
L 184.23613 112.435583 
L 185.038678 109.510075 
L 185.439953 108.510371 
L 186.242502 105.315996 
L 187.04505 102.20476 
L 189.051422 91.447459 
L 189.853971 85.622364 
L 190.65652 78.105679 
L 191.459069 67.455909 
L 191.860343 59.805773 
L 192.261617 48.605781 
L 192.662892 22.870565 
L 193.064166 14.37798 
L 193.46544 18.306475 
L 193.866715 43.03394 
L 194.267989 56.527769 
L 195.070538 71.464984 
L 195.873087 80.834212 
L 196.675635 87.709629 
L 197.478184 93.144724 
L 198.682007 99.613094 
L 199.484556 103.141061 
L 200.688379 108.035676 
L 201.089654 109.091467 
L 201.892202 111.884394 
L 202.293477 112.683329 
L 202.694751 114.249085 
L 203.4973 115.754751 
L 203.898574 117.976477 
L 204.299849 117.803246 
L 204.701123 118.762744 
L 205.102397 121.004285 
L 205.503672 120.291204 
L 206.306221 123.022275 
L 206.707495 122.029656 
L 207.108769 125.678703 
L 207.510044 124.414373 
L 207.911318 124.646259 
L 208.312592 128.087049 
L 208.713867 125.193634 
L 209.115141 129.370756 
L 209.516416 128.044715 
L 209.91769 129.669002 
L 210.318964 127.749911 
L 210.720239 131.021864 
L 211.121513 130.836169 
L 211.522788 130.045284 
L 211.924062 133.371871 
L 212.325336 129.818262 
L 212.726611 136.814822 
L 213.127885 132.993691 
L 213.529159 132.090138 
L 213.930434 137.560163 
L 214.331708 133.969672 
L 214.732983 136.238111 
L 215.134257 134.323248 
L 215.535531 137.668494 
L 215.936806 134.742407 
L 216.33808 138.248139 
L 216.739354 139.503637 
L 217.140629 133.223117 
L 217.541903 138.269703 
L 217.943178 133.461558 
L 218.344452 140.515717 
L 218.745726 137.653966 
L 219.147001 141.834837 
L 219.94955 134.865983 
L 220.350824 140.414906 
L 220.752098 141.685292 
L 221.153373 150.736974 
L 221.554647 138.488356 
L 221.955921 143.701451 
L 222.357196 138.006248 
L 222.75847 143.98355 
L 223.561019 132.402323 
L 223.962293 137.038062 
L 224.363568 135.281455 
L 224.764842 142.151394 
L 225.166116 137.825449 
L 225.567391 139.902853 
L 225.968665 151.976977 
L 226.36994 142.606472 
L 226.771214 145.200468 
L 227.172488 139.516567 
L 227.573763 146.255209 
L 227.975037 150.874013 
L 228.376312 136.797096 
L 228.777586 140.757388 
L 229.17886 140.150624 
L 229.580135 144.940523 
L 229.981409 144.300739 
L 230.382683 138.882746 
L 230.783958 156.077642 
L 231.586507 140.472587 
L 231.987781 141.433384 
L 232.79033 135.269621 
L 233.191604 141.589121 
L 233.592878 154.327926 
L 234.395427 145.258562 
L 234.796702 149.396502 
L 235.197976 140.471276 
L 235.59925 148.714263 
L 236.000525 147.115051 
L 236.401799 144.617785 
L 236.803073 140.326095 
L 237.204348 141.141262 
L 237.605622 143.278122 
L 238.408171 149.716161 
L 238.809445 144.462425 
L 239.21072 142.675723 
L 239.611994 144.754694 
L 240.013269 143.683703 
L 240.414543 137.973589 
L 240.815817 144.557407 
L 241.217092 142.856099 
L 241.618366 139.722483 
L 242.01964 142.011394 
L 242.420915 146.696243 
L 242.822189 145.638964 
L 243.223464 146.641065 
L 243.624738 137.418614 
L 244.026012 157.53887 
L 244.427287 148.33001 
L 244.828561 143.306193 
L 245.229835 142.681144 
L 245.63111 140.451457 
L 246.032384 143.574106 
L 246.433659 145.433735 
L 247.236207 138.748635 
L 247.637482 140.296489 
L 248.440031 135.067956 
L 248.841305 137.387903 
L 249.242579 144.133607 
L 249.643854 146.817179 
L 250.446402 157.800407 
L 250.847677 155.702425 
L 251.650226 141.900701 
L 252.0515 144.79881 
L 252.452774 144.830964 
L 252.854049 141.965908 
L 253.255323 141.696779 
L 253.656597 146.278679 
L 254.057872 139.917447 
L 254.459146 141.440675 
L 255.261695 143.822203 
L 255.662969 136.72601 
L 256.064244 136.719138 
L 256.465518 145.116881 
L 256.866793 139.332606 
L 257.268067 141.980318 
L 257.669341 148.480121 
L 258.070616 140.844492 
L 258.47189 139.955455 
L 258.873164 142.232457 
L 259.274439 146.186307 
L 259.675713 139.390716 
L 260.076988 136.34034 
L 260.879536 147.196165 
L 261.280811 146.773213 
L 261.682085 144.964562 
L 262.083359 154.093668 
L 262.484634 139.235665 
L 262.885908 142.87062 
L 263.287183 143.137386 
L 263.688457 141.685022 
L 264.089731 145.165891 
L 264.491006 142.816177 
L 264.89228 146.774616 
L 265.694829 131.319222 
L 266.096103 137.88229 
L 266.497378 141.608478 
L 266.898652 140.871278 
L 267.299926 135.265399 
L 267.701201 141.036255 
L 268.102475 143.044479 
L 268.50375 140.95333 
L 269.306298 148.73155 
L 269.707573 142.54267 
L 270.108847 145.479409 
L 270.510121 144.856065 
L 270.911396 134.892739 
L 271.31267 120.172406 
L 271.713945 120.764479 
L 272.516493 147.181112 
L 273.319042 143.985294 
L 273.720316 140.248574 
L 274.121591 147.360426 
L 274.522865 142.055188 
L 275.325414 137.699273 
L 275.726688 135.026753 
L 276.127963 140.587405 
L 276.529237 140.676126 
L 276.930512 135.395952 
L 277.331786 133.476753 
L 277.73306 141.86026 
L 278.134335 144.366609 
L 278.535609 151.502927 
L 278.936883 161.107118 
L 279.338158 162.546558 
L 279.739432 156.320173 
L 280.541981 149.131805 
L 280.943255 145.410325 
L 281.34453 149.298325 
L 281.745804 138.375899 
L 282.548353 144.544156 
L 282.949627 137.717573 
L 283.350902 139.158229 
L 283.752176 146.827301 
L 284.15345 157.826027 
L 284.554725 144.398312 
L 284.955999 144.644256 
L 285.357274 137.666487 
L 285.758548 141.395077 
L 286.159822 143.517306 
L 286.561097 141.338684 
L 286.962371 144.654036 
L 287.363645 139.164285 
L 287.76492 148.649244 
L 288.166194 147.361808 
L 288.567469 143.287073 
L 288.968743 144.634608 
L 289.370017 144.195475 
L 290.172566 138.919793 
L 290.57384 141.238393 
L 290.975115 139.871179 
L 291.376389 140.138835 
L 291.777664 145.936549 
L 292.178938 140.727172 
L 292.580212 137.725793 
L 293.382761 150.247483 
L 293.784035 140.075641 
L 294.18531 145.552768 
L 294.586584 165.372545 
L 294.987859 153.148788 
L 295.790407 142.57811 
L 296.191682 149.975586 
L 296.592956 148.258951 
L 296.994231 149.018869 
L 297.395505 139.684454 
L 297.796779 139.020967 
L 298.198054 139.014116 
L 298.599328 139.274286 
L 299.000602 145.506368 
L 299.803151 135.062182 
L 300.204426 138.566679 
L 300.6057 161.9344 
L 301.006974 144.313763 
L 301.408249 141.05716 
L 301.809523 136.503767 
L 302.210797 137.760904 
L 302.612072 146.073998 
L 303.013346 140.682122 
L 303.414621 139.001461 
L 303.815895 144.602663 
L 304.217169 143.425044 
L 304.618444 147.430846 
L 305.019718 149.683756 
L 305.420993 145.191009 
L 305.822267 136.047068 
L 306.223541 135.652948 
L 306.624816 141.746388 
L 307.02609 136.677376 
L 307.427364 139.922769 
L 308.229913 153.704735 
L 308.631188 148.96121 
L 309.032462 164.442969 
L 309.433736 138.053979 
L 309.835011 135.010376 
L 310.637559 146.895642 
L 311.038834 146.281733 
L 311.440108 147.868538 
L 311.841383 152.098522 
L 312.242657 148.754073 
L 312.643931 148.214634 
L 313.045206 147.261959 
L 313.44648 142.599732 
L 313.847754 144.317418 
L 314.249029 142.335237 
L 314.650303 138.836229 
L 315.051578 140.116545 
L 315.452852 140.665357 
L 315.854126 136.660778 
L 316.255401 136.147735 
L 316.656675 146.918684 
L 317.05795 152.010775 
L 317.459224 150.949242 
L 317.860498 139.915464 
L 318.663047 146.143424 
L 319.064321 137.488058 
L 319.465596 140.560548 
L 319.86687 141.286225 
L 320.268145 140.040743 
L 320.669419 145.014469 
L 321.070693 140.493638 
L 321.471968 153.93101 
L 321.873242 147.266798 
L 322.274516 145.237213 
L 322.675791 154.067867 
L 323.077065 137.997503 
L 323.47834 137.812334 
L 323.879614 140.624574 
L 324.280888 144.342406 
L 324.682163 146.844596 
L 325.083437 140.615762 
L 325.484712 137.328471 
L 325.885986 135.812467 
L 326.28726 138.240617 
L 326.688535 144.090837 
L 327.089809 143.619862 
L 327.491083 151.321165 
L 327.892358 154.151695 
L 328.293632 157.89131 
L 328.694907 142.133911 
L 329.096181 137.826592 
L 329.89873 145.973671 
L 330.300004 143.964321 
L 330.701278 149.826628 
L 331.102553 140.788207 
L 331.503827 139.684195 
L 331.905102 139.525739 
L 332.306376 140.810389 
L 332.70765 139.984906 
L 333.108925 147.04728 
L 333.510199 140.989242 
L 333.911474 145.174268 
L 334.312748 144.778697 
L 334.714022 143.056846 
L 335.115297 140.383879 
L 335.516571 139.263962 
L 335.917845 139.570917 
L 336.31912 145.844724 
L 336.720394 142.159253 
L 337.121669 142.6449 
L 337.522943 138.422997 
L 337.924217 137.702858 
L 338.726766 146.996173 
L 339.12804 144.858201 
L 339.529315 140.830549 
L 339.930589 139.74086 
L 340.331864 143.045999 
L 341.134412 154.531824 
L 341.535687 144.543559 
L 341.936961 141.354584 
L 342.338235 149.894369 
L 342.73951 141.047272 
L 343.140784 140.467903 
L 343.542059 145.15553 
L 343.943333 129.835526 
L 344.344607 130.564849 
L 344.745882 146.621298 
L 345.147156 143.926408 
L 345.548431 138.29185 
L 345.949705 139.456114 
L 346.350979 149.163957 
L 346.752254 155.495901 
L 347.554802 138.329386 
L 347.956077 140.14327 
L 348.758626 156.316769 
L 349.1599 151.372263 
L 349.561174 132.212959 
L 349.962449 126.911792 
L 350.363723 133.436556 
L 350.764997 145.067326 
L 351.166272 142.155714 
L 351.567546 135.54972 
L 351.968821 133.875258 
L 352.370095 141.218311 
L 352.771369 145.478891 
L 353.172644 142.451083 
L 353.573918 140.554541 
L 353.975193 132.859714 
L 354.376467 132.156326 
L 355.179016 144.923366 
L 355.58029 135.80765 
L 355.981564 145.133657 
L 356.382839 139.77741 
L 356.784113 142.511382 
L 357.586662 135.986536 
L 357.987936 135.220254 
L 358.389211 137.349719 
L 358.790485 134.729816 
L 359.191759 139.361742 
L 359.593034 138.070437 
L 359.994308 144.885312 
L 360.395583 141.923404 
L 361.198131 131.582017 
L 361.599406 135.708348 
L 362.401955 148.915415 
L 362.803229 137.62092 
L 363.204503 136.324865 
L 363.605778 137.088332 
L 364.007052 142.853437 
L 364.408326 142.562892 
L 364.809601 138.801245 
L 365.210875 143.061067 
L 365.61215 140.568495 
L 366.414698 144.418878 
L 366.414698 144.418878 
" clip-path="url(#p1a4e1ab0b5)" style="fill: none; stroke: #ff7f0e; stroke-width: 1.2; stroke-linecap: square"/>
   </g>
   <g id="line2d_33">
    <path d="M 59.038523 94.67274 
L 60.643621 94.631402 
L 65.458913 94.497735 
L 65.860188 94.471735 
L 66.261462 94.569468 
L 66.662736 94.422959 
L 67.465285 94.4796 
L 67.866559 94.405539 
L 68.267834 94.484922 
L 68.669108 94.378267 
L 69.070383 94.492261 
L 69.471657 94.3689 
L 71.076754 94.36943 
L 74.286949 94.258952 
L 77.09587 94.14994 
L 77.497145 94.117763 
L 77.898419 94.198809 
L 78.299693 94.061653 
L 79.102242 94.094885 
L 80.70734 93.981101 
L 81.108614 94.048838 
L 81.509888 93.958186 
L 82.713711 93.94369 
L 83.917535 93.870682 
L 85.121358 93.862596 
L 85.522632 93.756882 
L 85.923907 93.813664 
L 86.726455 93.75602 
L 88.732827 93.675393 
L 89.535376 93.616235 
L 91.140473 93.543646 
L 93.54812 93.382999 
L 94.350669 93.352088 
L 97.159589 93.193657 
L 98.363412 93.10158 
L 104.783802 92.707367 
L 105.586351 92.658481 
L 107.592723 92.469989 
L 112.408016 92.066581 
L 112.80929 92.119046 
L 113.611839 91.975902 
L 114.013113 92.022763 
L 114.414388 91.768071 
L 114.815662 92.152199 
L 115.216936 91.799835 
L 116.019485 91.796236 
L 117.624583 91.609383 
L 118.025857 91.6531 
L 118.427131 91.548678 
L 119.22968 91.507472 
L 120.433503 91.346533 
L 121.637326 91.290906 
L 122.439875 91.191596 
L 125.248796 90.867043 
L 127.255168 90.667152 
L 128.458991 90.518178 
L 130.064088 90.350795 
L 131.267911 90.191285 
L 136.484478 89.500045 
L 137.688302 89.353139 
L 139.293399 89.097161 
L 142.503594 88.647159 
L 143.306143 88.480574 
L 144.91124 88.249304 
L 146.115064 88.015616 
L 154.9431 86.328377 
L 156.146923 86.045045 
L 165.777508 83.476848 
L 171.39535 81.514387 
L 177.414465 78.703959 
L 180.62466 76.712496 
L 182.631032 75.201523 
L 184.637404 73.378488 
L 186.242502 71.595626 
L 187.847599 69.382773 
L 189.051422 67.318088 
L 190.255245 64.794467 
L 191.057794 63.073316 
L 191.459069 62.756713 
L 191.860343 65.412471 
L 192.261617 58.495477 
L 192.662892 24.195267 
L 193.064166 13.73774 
L 193.46544 18.574045 
L 194.267989 70.691387 
L 194.669264 63.011531 
L 195.070538 62.866817 
L 195.873087 64.481882 
L 197.07691 67.051353 
L 198.280733 69.170778 
L 199.484556 70.910711 
L 201.089654 72.817958 
L 202.694751 74.38967 
L 204.701123 76.038716 
L 207.510044 77.923161 
L 210.318964 79.476035 
L 214.732983 81.444318 
L 217.140629 82.366184 
L 225.968665 85.02878 
L 228.376312 85.653321 
L 229.580135 85.920342 
L 232.389055 86.54608 
L 234.796702 87.030024 
L 238.809445 87.798791 
L 240.414543 88.055341 
L 242.420915 88.411692 
L 244.828561 88.771556 
L 246.433659 89.038809 
L 247.637482 89.189395 
L 248.038756 89.291547 
L 248.440031 89.267509 
L 248.841305 89.409199 
L 250.045128 89.545384 
L 261.682085 90.976881 
L 264.089731 91.189366 
L 265.293554 91.341387 
L 265.694829 91.278433 
L 266.096103 91.445088 
L 270.911396 91.808612 
L 271.31267 92.256259 
L 271.713945 91.593915 
L 272.115219 92.002744 
L 273.319042 92.035168 
L 274.121591 92.118575 
L 275.325414 92.207398 
L 276.127963 92.282954 
L 276.529237 92.282765 
L 276.930512 92.416277 
L 277.331786 92.307238 
L 278.134335 92.469697 
L 279.739432 92.571287 
L 286.561097 93.071385 
L 287.363645 93.102012 
L 289.370017 93.215006 
L 292.178938 93.392812 
L 292.580212 93.350011 
L 293.784035 93.510497 
L 294.586584 93.502369 
L 298.198054 93.683307 
L 301.006974 93.83979 
L 301.408249 93.800405 
L 301.809523 93.930958 
L 302.210797 93.821272 
L 302.612072 93.914243 
L 303.013346 93.874231 
L 303.414621 93.985 
L 304.217169 93.972499 
L 323.47834 94.563433 
L 324.280888 94.622837 
L 343.542059 94.81376 
L 343.943333 94.704471 
L 344.344607 94.950322 
L 345.147156 94.816043 
L 347.153528 94.850377 
L 347.956077 94.832799 
L 349.561174 94.936589 
L 349.962449 94.613226 
L 350.363723 94.895942 
L 350.764997 94.801315 
L 351.567546 94.816679 
L 353.573918 94.77047 
L 353.975193 94.921466 
L 354.376467 94.701993 
L 354.777741 94.862351 
L 357.185388 94.737249 
L 358.389211 94.815492 
L 358.790485 94.675165 
L 359.191759 94.810529 
L 361.599406 94.715664 
L 362.401955 94.713078 
L 365.210875 94.701032 
L 366.414698 94.647978 
L 366.414698 94.647978 
" clip-path="url(#p1a4e1ab0b5)" style="fill: none; stroke: #2ca02c; stroke-width: 1.2; stroke-linecap: square"/>
   </g>
   <g id="patch_3">
    <path d="M 43.669714 172.954286 
L 43.669714 6.156 
" style="fill: none; stroke: #cccccc; stroke-width: 0.8; stroke-linejoin: miter; stroke-linecap: square"/>
   </g>
   <g id="patch_4">
    <path d="M 381.783507 172.954286 
L 381.783507 6.156 
" style="fill: none; stroke: #cccccc; stroke-width: 0.8; stroke-linejoin: miter; stroke-linecap: square"/>
   </g>
   <g id="patch_5">
    <path d="M 43.669714 172.954286 
L 381.783507 172.954286 
" style="fill: none; stroke: #cccccc; stroke-width: 0.8; stroke-linejoin: miter; stroke-linecap: square"/>
   </g>
   <g id="patch_6">
    <path d="M 43.669714 6.156 
L 381.783507 6.156 
" style="fill: none; stroke: #cccccc; stroke-width: 0.8; stroke-linejoin: miter; stroke-linecap: square"/>
   </g>
   <g id="legend_1">
    <g id="patch_7">
     <path d="M 294.189757 58.190375 
L 374.783507 58.190375 
Q 376.783507 58.190375 376.783507 56.190375 
L 376.783507 13.156 
Q 376.783507 11.156 374.783507 11.156 
L 294.189757 11.156 
Q 292.189757 11.156 292.189757 13.156 
L 292.189757 56.190375 
Q 292.189757 58.190375 294.189757 58.190375 
z
" style="fill: #ffffff; opacity: 0.8; stroke: #cccccc; stroke-linejoin: miter"/>
    </g>
    <g id="line2d_34">
     <path d="M 296.189757 19.254438 
L 306.189757 19.254438 
L 316.189757 19.254438 
" style="fill: none; stroke: #1f77b4; stroke-width: 1.2; stroke-linecap: square"/>
    </g>
    <g id="text_18">
     <!-- No filter -->
     <g transform="translate(324.189757 22.754438) scale(0.1 -0.1)">
      <defs>
       <path id="DejaVuSans-4e" d="M 628 4666 
L 1478 4666 
L 3547 763 
L 3547 4666 
L 4159 4666 
L 4159 0 
L 3309 0 
L 1241 3903 
L 1241 0 
L 628 0 
L 628 4666 
z
" transform="scale(0.015625)"/>
       <path id="DejaVuSans-6f" d="M 1959 3097 
Q 1497 3097 1228 2736 
Q 959 2375 959 1747 
Q 959 1119 1226 758 
Q 1494 397 1959 397 
Q 2419 397 2687 759 
Q 2956 1122 2956 1747 
Q 2956 2369 2687 2733 
Q 2419 3097 1959 3097 
z
M 1959 3584 
Q 2709 3584 3137 3096 
Q 3566 2609 3566 1747 
Q 3566 888 3137 398 
Q 2709 -91 1959 -91 
Q 1206 -91 779 398 
Q 353 888 353 1747 
Q 353 2609 779 3096 
Q 1206 3584 1959 3584 
z
" transform="scale(0.015625)"/>
       <path id="DejaVuSans-66" d="M 2375 4863 
L 2375 4384 
L 1825 4384 
Q 1516 4384 1395 4259 
Q 1275 4134 1275 3809 
L 1275 3500 
L 2222 3500 
L 2222 3053 
L 1275 3053 
L 1275 0 
L 697 0 
L 697 3053 
L 147 3053 
L 147 3500 
L 697 3500 
L 697 3744 
Q 697 4328 969 4595 
Q 1241 4863 1831 4863 
L 2375 4863 
z
" transform="scale(0.015625)"/>
       <path id="DejaVuSans-72" d="M 2631 2963 
Q 2534 3019 2420 3045 
Q 2306 3072 2169 3072 
Q 1681 3072 1420 2755 
Q 1159 2438 1159 1844 
L 1159 0 
L 581 0 
L 581 3500 
L 1159 3500 
L 1159 2956 
Q 1341 3275 1631 3429 
Q 1922 3584 2338 3584 
Q 2397 3584 2469 3576 
Q 2541 3569 2628 3553 
L 2631 2963 
z
" transform="scale(0.015625)"/>
      </defs>
      <use xlink:href="#DejaVuSans-4e"/>
      <use xlink:href="#DejaVuSans-6f" x="74.804688"/>
      <use xlink:href="#DejaVuSans-20" x="135.986328"/>
      <use xlink:href="#DejaVuSans-66" x="167.773438"/>
      <use xlink:href="#DejaVuSans-69" x="202.978516"/>
      <use xlink:href="#DejaVuSans-6c" x="230.761719"/>
      <use xlink:href="#DejaVuSans-74" x="258.544922"/>
      <use xlink:href="#DejaVuSans-65" x="297.753906"/>
      <use xlink:href="#DejaVuSans-72" x="359.277344"/>
     </g>
    </g>
    <g id="line2d_35">
     <path d="M 296.189757 33.932563 
L 306.189757 33.932563 
L 316.189757 33.932563 
" style="fill: none; stroke: #ff7f0e; stroke-width: 1.2; stroke-linecap: square"/>
    </g>
    <g id="text_19">
     <!-- Hann -->
     <g transform="translate(324.189757 37.432563) scale(0.1 -0.1)">
      <defs>
       <path id="DejaVuSans-48" d="M 628 4666 
L 1259 4666 
L 1259 2753 
L 3553 2753 
L 3553 4666 
L 4184 4666 
L 4184 0 
L 3553 0 
L 3553 2222 
L 1259 2222 
L 1259 0 
L 628 0 
L 628 4666 
z
" transform="scale(0.015625)"/>
      </defs>
      <use xlink:href="#DejaVuSans-48"/>
      <use xlink:href="#DejaVuSans-61" x="75.195312"/>
      <use xlink:href="#DejaVuSans-6e" x="136.474609"/>
      <use xlink:href="#DejaVuSans-6e" x="199.853516"/>
     </g>
    </g>
    <g id="line2d_36">
     <path d="M 296.189757 48.610688 
L 306.189757 48.610688 
L 316.189757 48.610688 
" style="fill: none; stroke: #2ca02c; stroke-width: 1.2; stroke-linecap: square"/>
    </g>
    <g id="text_20">
     <!-- Hamming -->
     <g transform="translate(324.189757 52.110688) scale(0.1 -0.1)">
      <use xlink:href="#DejaVuSans-48"/>
      <use xlink:href="#DejaVuSans-61" x="75.195312"/>
      <use xlink:href="#DejaVuSans-6d" x="136.474609"/>
      <use xlink:href="#DejaVuSans-6d" x="233.886719"/>
      <use xlink:href="#DejaVuSans-69" x="331.298828"/>
      <use xlink:href="#DejaVuSans-6e" x="359.082031"/>
      <use xlink:href="#DejaVuSans-67" x="422.460938"/>
     </g>
    </g>
   </g>
  </g>
 </g>
 <defs>
  <clipPath id="p1a4e1ab0b5">
   <rect x="43.669714" y="6.156" width="338.113793" height="166.798286"/>
  </clipPath>
 </defs>
</svg>
