<?xml version="1.0" encoding="utf-8" standalone="no"?>
<!DOCTYPE svg PUBLIC "-//W3C//DTD SVG 1.1//EN"
  "http://www.w3.org/Graphics/SVG/1.1/DTD/svg11.dtd">
<svg xmlns:xlink="http://www.w3.org/1999/xlink" width="504pt" height="288pt" viewBox="0 0 504 288" xmlns="http://www.w3.org/2000/svg" version="1.1">
 <metadata>
  <rdf:RDF xmlns:dc="http://purl.org/dc/elements/1.1/" xmlns:cc="http://creativecommons.org/ns#" xmlns:rdf="http://www.w3.org/1999/02/22-rdf-syntax-ns#">
   <cc:Work>
    <dc:type rdf:resource="http://purl.org/dc/dcmitype/StillImage"/>
    <dc:date>2026-02-10T11:11:16.389872</dc:date>
    <dc:format>image/svg+xml</dc:format>
    <dc:creator>
     <cc:Agent>
      <dc:title>Matplotlib v3.7.5, https://matplotlib.org/</dc:title>
     </cc:Agent>
    </dc:creator>
   </cc:Work>
  </rdf:RDF>
 </metadata>
 <defs>
  <style type="text/css">*{stroke-linejoin: round; stroke-linecap: butt}</style>
 </defs>
 <g id="figure_1">
  <g id="patch_1">
   <path d="M 0 288 
L 504 288 
L 504 0 
L 0 0 
z
" style="fill: #ffffff"/>
  </g>
  <g id="axes_1">
   <g id="patch_2">
    <path d="M 62.8 175.253182 
L 493.2 175.253182 
L 493.2 10.8 
L 62.8 10.8 
z
" style="fill: #ffffff"/>
   </g>
   <g id="matplotlib.axis_1">
    <g id="xtick_1">
     <g id="line2d_1">
      <path d="M 82.363636 175.253182 
L 82.363636 10.8 
" clip-path="url(#p9577ec7503)" style="fill: none; stroke: #b0b0b0; stroke-width: 0.8; stroke-linecap: square"/>
     </g>
     <g id="line2d_2">
      <defs>
       <path id="me45565d8ee" d="M 0 0 
L 0 3.5 
" style="stroke: #000000; stroke-width: 0.8"/>
      </defs>
      <g>
       <use xlink:href="#me45565d8ee" x="82.363636" y="175.253182" style="stroke: #000000; stroke-width: 0.8"/>
      </g>
     </g>
    </g>
    <g id="xtick_2">
     <g id="line2d_3">
      <path d="M 171.695309 175.253182 
L 171.695309 10.8 
" clip-path="url(#p9577ec7503)" style="fill: none; stroke: #b0b0b0; stroke-width: 0.8; stroke-linecap: square"/>
     </g>
     <g id="line2d_4">
      <g>
       <use xlink:href="#me45565d8ee" x="171.695309" y="175.253182" style="stroke: #000000; stroke-width: 0.8"/>
      </g>
     </g>
    </g>
    <g id="xtick_3">
     <g id="line2d_5">
      <path d="M 261.026982 175.253182 
L 261.026982 10.8 
" clip-path="url(#p9577ec7503)" style="fill: none; stroke: #b0b0b0; stroke-width: 0.8; stroke-linecap: square"/>
     </g>
     <g id="line2d_6">
      <g>
       <use xlink:href="#me45565d8ee" x="261.026982" y="175.253182" style="stroke: #000000; stroke-width: 0.8"/>
      </g>
     </g>
    </g>
    <g id="xtick_4">
     <g id="line2d_7">
      <path d="M 350.358655 175.253182 
L 350.358655 10.8 
" clip-path="url(#p9577ec7503)" style="fill: none; stroke: #b0b0b0; stroke-width: 0.8; stroke-linecap: square"/>
     </g>
     <g id="line2d_8">
      <g>
       <use xlink:href="#me45565d8ee" x="350.358655" y="175.253182" style="stroke: #000000; stroke-width: 0.8"/>
      </g>
     </g>
    </g>
    <g id="xtick_5">
     <g id="line2d_9">
      <path d="M 439.690328 175.253182 
L 439.690328 10.8 
" clip-path="url(#p9577ec7503)" style="fill: none; stroke: #b0b0b0; stroke-width: 0.8; stroke-linecap: square"/>
     </g>
     <g id="line2d_10">
      <g>
       <use xlink:href="#me45565d8ee" x="439.690328" y="175.253182" style="stroke: #000000; stroke-width: 0.8"/>
      </g>
     </g>
    </g>
   </g>
   <g id="matplotlib.axis_2">
    <g id="ytick_1">
     <g id="line2d_11">
      <path d="M 62.8 167.788166 
L 493.2 167.788166 
" clip-path="url(#p9577ec7503)" style="fill: none; stroke: #b0b0b0; stroke-width: 0.8; stroke-linecap: square"/>
     </g>
     <g id="line2d_12">
      <defs>
       <path id="mcb65f440b5" d="M 0 0 
L -3.5 0 
" style="stroke: #000000; stroke-width: 0.8"/>
      </defs>
      <g>
       <use xlink:href="#mcb65f440b5" x="62.8" y="167.788166" style="stroke: #000000; stroke-width: 0.8"/>
      </g>
     </g>
     <g id="text_1">
      <!-- 0 -->
      <g transform="translate(49.4375 171.587384) scale(0.1 -0.1)">
       <defs>
        <path id="DejaVuSans-30" d="M 2034 4250 
Q 1547 4250 1301 3770 
Q 1056 3291 1056 2328 
Q 1056 1369 1301 889 
Q 1547 409 2034 409 
Q 2525 409 2770 889 
Q 3016 1369 3016 2328 
Q 3016 3291 2770 3770 
Q 2525 4250 2034 4250 
z
M 2034 4750 
Q 2819 4750 3233 4129 
Q 3647 3509 3647 2328 
Q 3647 1150 3233 529 
Q 2819 -91 2034 -91 
Q 1250 -91 836 529 
Q 422 1150 422 2328 
Q 422 3509 836 4129 
Q 1250 4750 2034 4750 
z
" transform="scale(0.015625)"/>
       </defs>
       <use xlink:href="#DejaVuSans-30"/>
      </g>
     </g>
    </g>
    <g id="ytick_2">
     <g id="line2d_13">
      <path d="M 62.8 145.405233 
L 493.2 145.405233 
" clip-path="url(#p9577ec7503)" style="fill: none; stroke: #b0b0b0; stroke-width: 0.8; stroke-linecap: square"/>
     </g>
     <g id="line2d_14">
      <g>
       <use xlink:href="#mcb65f440b5" x="62.8" y="145.405233" style="stroke: #000000; stroke-width: 0.8"/>
      </g>
     </g>
     <g id="text_2">
      <!-- 2 -->
      <g transform="translate(49.4375 149.204452) scale(0.1 -0.1)">
       <defs>
        <path id="DejaVuSans-32" d="M 1228 531 
L 3431 531 
L 3431 0 
L 469 0 
L 469 531 
Q 828 903 1448 1529 
Q 2069 2156 2228 2338 
Q 2531 2678 2651 2914 
Q 2772 3150 2772 3378 
Q 2772 3750 2511 3984 
Q 2250 4219 1831 4219 
Q 1534 4219 1204 4116 
Q 875 4013 500 3803 
L 500 4441 
Q 881 4594 1212 4672 
Q 1544 4750 1819 4750 
Q 2544 4750 2975 4387 
Q 3406 4025 3406 3419 
Q 3406 3131 3298 2873 
Q 3191 2616 2906 2266 
Q 2828 2175 2409 1742 
Q 1991 1309 1228 531 
z
" transform="scale(0.015625)"/>
       </defs>
       <use xlink:href="#DejaVuSans-32"/>
      </g>
     </g>
    </g>
    <g id="ytick_3">
     <g id="line2d_15">
      <path d="M 62.8 123.022301 
L 493.2 123.022301 
" clip-path="url(#p9577ec7503)" style="fill: none; stroke: #b0b0b0; stroke-width: 0.8; stroke-linecap: square"/>
     </g>
     <g id="line2d_16">
      <g>
       <use xlink:href="#mcb65f440b5" x="62.8" y="123.022301" style="stroke: #000000; stroke-width: 0.8"/>
      </g>
     </g>
     <g id="text_3">
      <!-- 4 -->
      <g transform="translate(49.4375 126.821519) scale(0.1 -0.1)">
       <defs>
        <path id="DejaVuSans-34" d="M 2419 4116 
L 825 1625 
L 2419 1625 
L 2419 4116 
z
M 2253 4666 
L 3047 4666 
L 3047 1625 
L 3713 1625 
L 3713 1100 
L 3047 1100 
L 3047 0 
L 2419 0 
L 2419 1100 
L 313 1100 
L 313 1709 
L 2253 4666 
z
" transform="scale(0.015625)"/>
       </defs>
       <use xlink:href="#DejaVuSans-34"/>
      </g>
     </g>
    </g>
    <g id="ytick_4">
     <g id="line2d_17">
      <path d="M 62.8 100.639368 
L 493.2 100.639368 
" clip-path="url(#p9577ec7503)" style="fill: none; stroke: #b0b0b0; stroke-width: 0.8; stroke-linecap: square"/>
     </g>
     <g id="line2d_18">
      <g>
       <use xlink:href="#mcb65f440b5" x="62.8" y="100.639368" style="stroke: #000000; stroke-width: 0.8"/>
      </g>
     </g>
     <g id="text_4">
      <!-- 6 -->
      <g transform="translate(49.4375 104.438587) scale(0.1 -0.1)">
       <defs>
        <path id="DejaVuSans-36" d="M 2113 2584 
Q 1688 2584 1439 2293 
Q 1191 2003 1191 1497 
Q 1191 994 1439 701 
Q 1688 409 2113 409 
Q 2538 409 2786 701 
Q 3034 994 3034 1497 
Q 3034 2003 2786 2293 
Q 2538 2584 2113 2584 
z
M 3366 4563 
L 3366 3988 
Q 3128 4100 2886 4159 
Q 2644 4219 2406 4219 
Q 1781 4219 1451 3797 
Q 1122 3375 1075 2522 
Q 1259 2794 1537 2939 
Q 1816 3084 2150 3084 
Q 2853 3084 3261 2657 
Q 3669 2231 3669 1497 
Q 3669 778 3244 343 
Q 2819 -91 2113 -91 
Q 1303 -91 875 529 
Q 447 1150 447 2328 
Q 447 3434 972 4092 
Q 1497 4750 2381 4750 
Q 2619 4750 2861 4703 
Q 3103 4656 3366 4563 
z
" transform="scale(0.015625)"/>
       </defs>
       <use xlink:href="#DejaVuSans-36"/>
      </g>
     </g>
    </g>
    <g id="ytick_5">
     <g id="line2d_19">
      <path d="M 62.8 78.256436 
L 493.2 78.256436 
" clip-path="url(#p9577ec7503)" style="fill: none; stroke: #b0b0b0; stroke-width: 0.8; stroke-linecap: square"/>
     </g>
     <g id="line2d_20">
      <g>
       <use xlink:href="#mcb65f440b5" x="62.8" y="78.256436" style="stroke: #000000; stroke-width: 0.8"/>
      </g>
     </g>
     <g id="text_5">
      <!-- 8 -->
      <g transform="translate(49.4375 82.055654) scale(0.1 -0.1)">
       <defs>
        <path id="DejaVuSans-38" d="M 2034 2216 
Q 1584 2216 1326 1975 
Q 1069 1734 1069 1313 
Q 1069 891 1326 650 
Q 1584 409 2034 409 
Q 2484 409 2743 651 
Q 3003 894 3003 1313 
Q 3003 1734 2745 1975 
Q 2488 2216 2034 2216 
z
M 1403 2484 
Q 997 2584 770 2862 
Q 544 3141 544 3541 
Q 544 4100 942 4425 
Q 1341 4750 2034 4750 
Q 2731 4750 3128 4425 
Q 3525 4100 3525 3541 
Q 3525 3141 3298 2862 
Q 3072 2584 2669 2484 
Q 3125 2378 3379 2068 
Q 3634 1759 3634 1313 
Q 3634 634 3220 271 
Q 2806 -91 2034 -91 
Q 1263 -91 848 271 
Q 434 634 434 1313 
Q 434 1759 690 2068 
Q 947 2378 1403 2484 
z
M 1172 3481 
Q 1172 3119 1398 2916 
Q 1625 2713 2034 2713 
Q 2441 2713 2670 2916 
Q 2900 3119 2900 3481 
Q 2900 3844 2670 4047 
Q 2441 4250 2034 4250 
Q 1625 4250 1398 4047 
Q 1172 3844 1172 3481 
z
" transform="scale(0.015625)"/>
       </defs>
       <use xlink:href="#DejaVuSans-38"/>
      </g>
     </g>
    </g>
    <g id="ytick_6">
     <g id="line2d_21">
      <path d="M 62.8 55.873503 
L 493.2 55.873503 
" clip-path="url(#p9577ec7503)" style="fill: none; stroke: #b0b0b0; stroke-width: 0.8; stroke-linecap: square"/>
     </g>
     <g id="line2d_22">
      <g>
       <use xlink:href="#mcb65f440b5" x="62.8" y="55.873503" style="stroke: #000000; stroke-width: 0.8"/>
      </g>
     </g>
     <g id="text_6">
      <!-- 10 -->
      <g transform="translate(43.075 59.672722) scale(0.1 -0.1)">
       <defs>
        <path id="DejaVuSans-31" d="M 794 531 
L 1825 531 
L 1825 4091 
L 703 3866 
L 703 4441 
L 1819 4666 
L 2450 4666 
L 2450 531 
L 3481 531 
L 3481 0 
L 794 0 
L 794 531 
z
" transform="scale(0.015625)"/>
       </defs>
       <use xlink:href="#DejaVuSans-31"/>
       <use xlink:href="#DejaVuSans-30" x="63.623047"/>
      </g>
     </g>
    </g>
    <g id="ytick_7">
     <g id="line2d_23">
      <path d="M 62.8 33.490571 
L 493.2 33.490571 
" clip-path="url(#p9577ec7503)" style="fill: none; stroke: #b0b0b0; stroke-width: 0.8; stroke-linecap: square"/>
     </g>
     <g id="line2d_24">
      <g>
       <use xlink:href="#mcb65f440b5" x="62.8" y="33.490571" style="stroke: #000000; stroke-width: 0.8"/>
      </g>
     </g>
     <g id="text_7">
      <!-- 12 -->
      <g transform="translate(43.075 37.289789) scale(0.1 -0.1)">
       <use xlink:href="#DejaVuSans-31"/>
       <use xlink:href="#DejaVuSans-32" x="63.623047"/>
      </g>
     </g>
    </g>
    <g id="ytick_8">
     <g id="line2d_25">
      <path d="M 62.8 11.107638 
L 493.2 11.107638 
" clip-path="url(#p9577ec7503)" style="fill: none; stroke: #b0b0b0; stroke-width: 0.8; stroke-linecap: square"/>
     </g>
     <g id="line2d_26">
      <g>
       <use xlink:href="#mcb65f440b5" x="62.8" y="11.107638" style="stroke: #000000; stroke-width: 0.8"/>
      </g>
     </g>
     <g id="text_8">
      <!-- 14 -->
      <g transform="translate(43.075 14.906857) scale(0.1 -0.1)">
       <use xlink:href="#DejaVuSans-31"/>
       <use xlink:href="#DejaVuSans-34" x="63.623047"/>
      </g>
     </g>
    </g>
    <g id="text_9">
     <!-- Amplitude / Threshold -->
     <g transform="translate(36.995312 148.150028) rotate(-90) scale(0.1 -0.1)">
      <defs>
       <path id="DejaVuSans-41" d="M 2188 4044 
L 1331 1722 
L 3047 1722 
L 2188 4044 
z
M 1831 4666 
L 2547 4666 
L 4325 0 
L 3669 0 
L 3244 1197 
L 1141 1197 
L 716 0 
L 50 0 
L 1831 4666 
z
" transform="scale(0.015625)"/>
       <path id="DejaVuSans-6d" d="M 3328 2828 
Q 3544 3216 3844 3400 
Q 4144 3584 4550 3584 
Q 5097 3584 5394 3201 
Q 5691 2819 5691 2113 
L 5691 0 
L 5113 0 
L 5113 2094 
Q 5113 2597 4934 2840 
Q 4756 3084 4391 3084 
Q 3944 3084 3684 2787 
Q 3425 2491 3425 1978 
L 3425 0 
L 2847 0 
L 2847 2094 
Q 2847 2600 2669 2842 
Q 2491 3084 2119 3084 
Q 1678 3084 1418 2786 
Q 1159 2488 1159 1978 
L 1159 0 
L 581 0 
L 581 3500 
L 1159 3500 
L 1159 2956 
Q 1356 3278 1631 3431 
Q 1906 3584 2284 3584 
Q 2666 3584 2933 3390 
Q 3200 3197 3328 2828 
z
" transform="scale(0.015625)"/>
       <path id="DejaVuSans-70" d="M 1159 525 
L 1159 -1331 
L 581 -1331 
L 581 3500 
L 1159 3500 
L 1159 2969 
Q 1341 3281 1617 3432 
Q 1894 3584 2278 3584 
Q 2916 3584 3314 3078 
Q 3713 2572 3713 1747 
Q 3713 922 3314 415 
Q 2916 -91 2278 -91 
Q 1894 -91 1617 61 
Q 1341 213 1159 525 
z
M 3116 1747 
Q 3116 2381 2855 2742 
Q 2594 3103 2138 3103 
Q 1681 3103 1420 2742 
Q 1159 2381 1159 1747 
Q 1159 1113 1420 752 
Q 1681 391 2138 391 
Q 2594 391 2855 752 
Q 3116 1113 3116 1747 
z
" transform="scale(0.015625)"/>
       <path id="DejaVuSans-6c" d="M 603 4863 
L 1178 4863 
L 1178 0 
L 603 0 
L 603 4863 
z
" transform="scale(0.015625)"/>
       <path id="DejaVuSans-69" d="M 603 3500 
L 1178 3500 
L 1178 0 
L 603 0 
L 603 3500 
z
M 603 4863 
L 1178 4863 
L 1178 4134 
L 603 4134 
L 603 4863 
z
" transform="scale(0.015625)"/>
       <path id="DejaVuSans-74" d="M 1172 4494 
L 1172 3500 
L 2356 3500 
L 2356 3053 
L 1172 3053 
L 1172 1153 
Q 1172 725 1289 603 
Q 1406 481 1766 481 
L 2356 481 
L 2356 0 
L 1766 0 
Q 1100 0 847 248 
Q 594 497 594 1153 
L 594 3053 
L 172 3053 
L 172 3500 
L 594 3500 
L 594 4494 
L 1172 4494 
z
" transform="scale(0.015625)"/>
       <path id="DejaVuSans-75" d="M 544 1381 
L 544 3500 
L 1119 3500 
L 1119 1403 
Q 1119 906 1312 657 
Q 1506 409 1894 409 
Q 2359 409 2629 706 
Q 2900 1003 2900 1516 
L 2900 3500 
L 3475 3500 
L 3475 0 
L 2900 0 
L 2900 538 
Q 2691 219 2414 64 
Q 2138 -91 1772 -91 
Q 1169 -91 856 284 
Q 544 659 544 1381 
z
M 1991 3584 
L 1991 3584 
z
" transform="scale(0.015625)"/>
       <path id="DejaVuSans-64" d="M 2906 2969 
L 2906 4863 
L 3481 4863 
L 3481 0 
L 2906 0 
L 2906 525 
Q 2725 213 2448 61 
Q 2172 -91 1784 -91 
Q 1150 -91 751 415 
Q 353 922 353 1747 
Q 353 2572 751 3078 
Q 1150 3584 1784 3584 
Q 2172 3584 2448 3432 
Q 2725 3281 2906 2969 
z
M 947 1747 
Q 947 1113 1208 752 
Q 1469 391 1925 391 
Q 2381 391 2643 752 
Q 2906 1113 2906 1747 
Q 2906 2381 2643 2742 
Q 2381 3103 1925 3103 
Q 1469 3103 1208 2742 
Q 947 2381 947 1747 
z
" transform="scale(0.015625)"/>
       <path id="DejaVuSans-65" d="M 3597 1894 
L 3597 1613 
L 953 1613 
Q 991 1019 1311 708 
Q 1631 397 2203 397 
Q 2534 397 2845 478 
Q 3156 559 3463 722 
L 3463 178 
Q 3153 47 2828 -22 
Q 2503 -91 2169 -91 
Q 1331 -91 842 396 
Q 353 884 353 1716 
Q 353 2575 817 3079 
Q 1281 3584 2069 3584 
Q 2775 3584 3186 3129 
Q 3597 2675 3597 1894 
z
M 3022 2063 
Q 3016 2534 2758 2815 
Q 2500 3097 2075 3097 
Q 1594 3097 1305 2825 
Q 1016 2553 972 2059 
L 3022 2063 
z
" transform="scale(0.015625)"/>
       <path id="DejaVuSans-20" transform="scale(0.015625)"/>
       <path id="DejaVuSans-2f" d="M 1625 4666 
L 2156 4666 
L 531 -594 
L 0 -594 
L 1625 4666 
z
" transform="scale(0.015625)"/>
       <path id="DejaVuSans-54" d="M -19 4666 
L 3928 4666 
L 3928 4134 
L 2272 4134 
L 2272 0 
L 1638 0 
L 1638 4134 
L -19 4134 
L -19 4666 
z
" transform="scale(0.015625)"/>
       <path id="DejaVuSans-68" d="M 3513 2113 
L 3513 0 
L 2938 0 
L 2938 2094 
Q 2938 2591 2744 2837 
Q 2550 3084 2163 3084 
Q 1697 3084 1428 2787 
Q 1159 2491 1159 1978 
L 1159 0 
L 581 0 
L 581 4863 
L 1159 4863 
L 1159 2956 
Q 1366 3272 1645 3428 
Q 1925 3584 2291 3584 
Q 2894 3584 3203 3211 
Q 3513 2838 3513 2113 
z
" transform="scale(0.015625)"/>
       <path id="DejaVuSans-72" d="M 2631 2963 
Q 2534 3019 2420 3045 
Q 2306 3072 2169 3072 
Q 1681 3072 1420 2755 
Q 1159 2438 1159 1844 
L 1159 0 
L 581 0 
L 581 3500 
L 1159 3500 
L 1159 2956 
Q 1341 3275 1631 3429 
Q 1922 3584 2338 3584 
Q 2397 3584 2469 3576 
Q 2541 3569 2628 3553 
L 2631 2963 
z
" transform="scale(0.015625)"/>
       <path id="DejaVuSans-73" d="M 2834 3397 
L 2834 2853 
Q 2591 2978 2328 3040 
Q 2066 3103 1784 3103 
Q 1356 3103 1142 2972 
Q 928 2841 928 2578 
Q 928 2378 1081 2264 
Q 1234 2150 1697 2047 
L 1894 2003 
Q 2506 1872 2764 1633 
Q 3022 1394 3022 966 
Q 3022 478 2636 193 
Q 2250 -91 1575 -91 
Q 1294 -91 989 -36 
Q 684 19 347 128 
L 347 722 
Q 666 556 975 473 
Q 1284 391 1588 391 
Q 1994 391 2212 530 
Q 2431 669 2431 922 
Q 2431 1156 2273 1281 
Q 2116 1406 1581 1522 
L 1381 1569 
Q 847 1681 609 1914 
Q 372 2147 372 2553 
Q 372 3047 722 3315 
Q 1072 3584 1716 3584 
Q 2034 3584 2315 3537 
Q 2597 3491 2834 3397 
z
" transform="scale(0.015625)"/>
       <path id="DejaVuSans-6f" d="M 1959 3097 
Q 1497 3097 1228 2736 
Q 959 2375 959 1747 
Q 959 1119 1226 758 
Q 1494 397 1959 397 
Q 2419 397 2687 759 
Q 2956 1122 2956 1747 
Q 2956 2369 2687 2733 
Q 2419 3097 1959 3097 
z
M 1959 3584 
Q 2709 3584 3137 3096 
Q 3566 2609 3566 1747 
Q 3566 888 3137 398 
Q 2709 -91 1959 -91 
Q 1206 -91 779 398 
Q 353 888 353 1747 
Q 353 2609 779 3096 
Q 1206 3584 1959 3584 
z
" transform="scale(0.015625)"/>
      </defs>
      <use xlink:href="#DejaVuSans-41"/>
      <use xlink:href="#DejaVuSans-6d" x="68.408203"/>
      <use xlink:href="#DejaVuSans-70" x="165.820312"/>
      <use xlink:href="#DejaVuSans-6c" x="229.296875"/>
      <use xlink:href="#DejaVuSans-69" x="257.080078"/>
      <use xlink:href="#DejaVuSans-74" x="284.863281"/>
      <use xlink:href="#DejaVuSans-75" x="324.072266"/>
      <use xlink:href="#DejaVuSans-64" x="387.451172"/>
      <use xlink:href="#DejaVuSans-65" x="450.927734"/>
      <use xlink:href="#DejaVuSans-20" x="512.451172"/>
      <use xlink:href="#DejaVuSans-2f" x="544.238281"/>
      <use xlink:href="#DejaVuSans-20" x="577.929688"/>
      <use xlink:href="#DejaVuSans-54" x="609.716797"/>
      <use xlink:href="#DejaVuSans-68" x="670.800781"/>
      <use xlink:href="#DejaVuSans-72" x="734.179688"/>
      <use xlink:href="#DejaVuSans-65" x="773.042969"/>
      <use xlink:href="#DejaVuSans-73" x="834.566406"/>
      <use xlink:href="#DejaVuSans-68" x="886.666016"/>
      <use xlink:href="#DejaVuSans-6f" x="950.044922"/>
      <use xlink:href="#DejaVuSans-6c" x="1011.226562"/>
      <use xlink:href="#DejaVuSans-64" x="1039.009766"/>
     </g>
    </g>
   </g>
   <g id="line2d_27">
    <path d="M 82.363636 148.868704 
L 84.15027 162.559357 
L 85.936903 167.418847 
L 89.51017 158.862202 
L 91.296804 167.764732 
L 93.083437 167.778037 
L 94.870071 147.77361 
L 96.656704 156.149457 
L 98.443337 160.901997 
L 100.229971 160.596932 
L 102.016604 165.81043 
L 103.803238 161.947206 
L 105.589871 164.759028 
L 107.376505 164.967245 
L 109.163138 150.855884 
L 110.949772 161.30953 
L 112.736405 166.337184 
L 114.523039 164.56508 
L 116.309672 149.814811 
L 118.096306 148.302156 
L 119.882939 165.961549 
L 121.669572 163.194355 
L 123.456206 143.648939 
L 125.242839 167.246831 
L 127.029473 150.440943 
L 128.816106 162.930024 
L 130.60274 140.284156 
L 132.389373 155.142948 
L 134.176007 162.756885 
L 137.749274 154.766261 
L 139.535907 147.690224 
L 141.32254 161.254162 
L 143.109174 142.5322 
L 144.895807 159.667033 
L 146.682441 152.981943 
L 148.469074 149.767937 
L 150.255708 145.964413 
L 152.042341 163.70763 
L 153.828975 157.348001 
L 155.615608 165.547589 
L 157.402242 160.699179 
L 159.188875 158.370238 
L 160.975509 146.364611 
L 162.762142 145.120987 
L 164.548775 162.960103 
L 166.335409 139.395288 
L 168.122042 164.376547 
L 169.908676 161.128896 
L 171.695309 143.458598 
L 173.481943 164.761332 
L 175.268576 166.491244 
L 177.05521 164.550996 
L 178.841843 166.087491 
L 180.628477 29.50518 
L 182.41511 149.264921 
L 184.201743 161.297564 
L 185.988377 166.558944 
L 187.77501 152.277455 
L 189.561644 162.982033 
L 191.348277 142.887504 
L 193.134911 166.484015 
L 194.921544 145.484893 
L 196.708178 162.744693 
L 198.494811 156.055877 
L 200.281445 152.014695 
L 202.068078 153.879863 
L 203.854711 163.802658 
L 205.641345 152.08601 
L 207.427978 147.812992 
L 209.214612 164.009775 
L 211.001245 166.332376 
L 212.787879 148.472955 
L 214.574512 147.552865 
L 216.361146 164.918168 
L 218.147779 163.299295 
L 219.934413 157.826787 
L 221.721046 165.168597 
L 223.50768 143.582781 
L 225.294313 158.855106 
L 227.080946 155.557852 
L 228.86758 162.093406 
L 230.654213 155.10201 
L 232.440847 165.089451 
L 234.22748 159.636902 
L 236.014114 163.643651 
L 237.800747 149.814606 
L 239.587381 146.54279 
L 241.374014 158.469634 
L 243.160648 160.132619 
L 244.947281 158.327764 
L 246.733914 167.616624 
L 248.520548 166.725624 
L 250.307181 158.307518 
L 252.093815 167.000194 
L 253.880448 135.843871 
L 255.667082 155.47767 
L 257.453715 162.93137 
L 259.240349 161.074084 
L 261.026982 155.462595 
L 262.813616 162.439056 
L 264.600249 162.181645 
L 266.386883 147.079938 
L 268.173516 160.794535 
L 269.960149 159.581541 
L 271.746783 147.184043 
L 273.533416 165.51828 
L 275.32005 142.876075 
L 277.106683 161.129945 
L 278.893317 163.5939 
L 280.67995 163.412493 
L 282.466584 152.344331 
L 284.253217 159.494467 
L 286.039851 149.671544 
L 287.826484 165.096316 
L 289.613117 167.460096 
L 291.399751 161.447018 
L 293.186384 57.466835 
L 294.973018 141.853786 
L 296.759651 161.982786 
L 298.546285 155.182638 
L 300.332918 158.274685 
L 302.119552 165.833675 
L 303.906185 166.651451 
L 305.692819 127.118288 
L 307.479452 133.360216 
L 309.266086 139.112521 
L 311.052719 129.880673 
L 312.839352 139.77301 
L 314.625986 134.598669 
L 316.412619 139.423266 
L 318.199253 137.045328 
L 319.985886 133.71145 
L 321.77252 128.09459 
L 323.559153 112.761361 
L 325.345787 142.988934 
L 327.13242 122.910344 
L 328.919054 108.468427 
L 330.705687 131.236712 
L 332.49232 18.275145 
L 334.278954 137.65746 
L 336.065587 128.206811 
L 337.852221 127.501749 
L 339.638854 122.511197 
L 341.425488 132.526847 
L 343.212121 133.138013 
L 344.998755 125.108503 
L 346.785388 135.527637 
L 348.572022 117.627448 
L 350.358655 137.70521 
L 352.145289 109.24644 
L 353.931922 134.525903 
L 355.718555 127.905208 
L 357.505189 127.153327 
L 359.291822 115.39791 
L 361.078456 116.19351 
L 362.865089 128.739756 
L 364.651723 118.604443 
L 366.438356 127.521571 
L 368.22499 124.495419 
L 370.011623 135.413507 
L 371.798257 108.406238 
L 373.58489 119.412621 
L 375.371523 133.411728 
L 377.158157 126.402643 
L 378.94479 132.165852 
L 380.731424 127.523073 
L 382.518057 125.074433 
L 384.304691 124.111746 
L 386.091324 37.776 
L 387.877958 141.895264 
L 389.664591 136.807501 
L 391.451225 129.201051 
L 393.237858 38.525873 
L 395.024491 143.152891 
L 396.811125 123.427558 
L 398.597758 134.602258 
L 400.384392 120.281164 
L 402.171025 125.779565 
L 403.957659 133.057277 
L 405.744292 133.067345 
L 407.530926 133.730331 
L 409.317559 123.933387 
L 411.104193 135.933274 
L 412.890826 105.96044 
L 414.67746 120.87061 
L 416.464093 128.139749 
L 418.250726 138.486993 
L 420.03736 119.443814 
L 421.823993 140.498971 
L 423.610627 128.046371 
L 425.39726 119.821158 
L 427.183894 125.013122 
L 428.970527 109.254868 
L 430.757161 102.511439 
L 432.543794 110.408764 
L 434.330428 127.206437 
L 436.117061 124.747468 
L 437.903694 141.422105 
L 439.690328 109.670449 
L 441.476961 120.556835 
L 443.263595 114.086469 
L 445.050228 113.366483 
L 446.836862 136.802109 
L 448.623495 129.513651 
L 450.410129 138.832739 
L 452.196762 126.356252 
L 453.983396 134.03449 
L 455.770029 139.181597 
L 457.556663 121.235879 
L 459.343296 137.351031 
L 461.129929 134.873635 
L 462.916563 135.867902 
L 464.703196 134.49434 
L 466.48983 131.183306 
L 468.276463 126.535776 
L 470.063097 143.103601 
L 473.636364 129.02822 
L 473.636364 129.02822 
" clip-path="url(#p9577ec7503)" style="fill: none; stroke: #1f77b4; stroke-width: 1.5; stroke-linecap: square"/>
   </g>
   <g id="line2d_28">
    <path d="M 109.163138 142.183479 
L 110.949772 144.184367 
L 112.736405 144.360567 
L 114.523039 143.566093 
L 116.309672 139.904309 
L 118.096306 141.953524 
L 119.882939 140.212044 
L 121.669572 139.780796 
L 123.456206 138.124548 
L 125.242839 139.853126 
L 127.029473 140.659321 
L 128.816106 141.257272 
L 130.60274 139.009216 
L 132.389373 139.9973 
L 134.176007 138.261229 
L 135.96264 136.244756 
L 137.749274 137.338552 
L 139.535907 134.404539 
L 141.32254 135.271737 
L 143.109174 135.892175 
L 144.895807 136.163581 
L 146.682441 136.212607 
L 148.469074 136.704879 
L 150.255708 134.301283 
L 152.042341 136.676875 
L 153.828975 120.792921 
L 155.615608 121.040097 
L 157.402242 120.952534 
L 159.188875 123.951356 
L 160.975509 125.625671 
L 162.762142 125.780615 
L 164.548775 123.967594 
L 166.335409 126.922812 
L 169.908676 122.430316 
L 171.695309 123.754565 
L 173.481943 119.943154 
L 175.268576 135.010254 
L 177.05521 137.884382 
L 178.841843 136.584038 
L 180.628477 134.620627 
L 182.41511 136.937308 
L 184.201743 137.198517 
L 185.988377 138.416339 
L 187.77501 122.014543 
L 189.561644 124.493029 
L 191.348277 126.349785 
L 193.134911 126.945697 
L 194.921544 129.835069 
L 196.708178 128.537585 
L 198.494811 125.964175 
L 200.281445 128.904728 
L 202.068078 128.35029 
L 203.854711 126.945968 
L 205.641345 125.865281 
L 207.427978 125.542469 
L 209.214612 141.130732 
L 211.001245 141.067939 
L 212.787879 138.186114 
L 214.574512 136.177108 
L 216.361146 136.92024 
L 218.147779 138.928382 
L 219.934413 140.520548 
L 221.721046 139.659001 
L 223.50768 141.395482 
L 225.294313 142.77744 
L 227.080946 139.728417 
L 228.86758 140.726608 
L 230.654213 139.504835 
L 232.440847 140.205306 
L 234.22748 141.580478 
L 236.014114 143.605768 
L 237.800747 142.844614 
L 239.587381 141.458443 
L 241.374014 141.940284 
L 243.160648 142.933151 
L 244.947281 140.022586 
L 246.733914 137.998564 
L 248.520548 138.850308 
L 250.307181 138.918702 
L 252.093815 140.628563 
L 253.880448 141.860386 
L 255.667082 142.753686 
L 257.453715 142.006766 
L 259.240349 141.938858 
L 261.026982 140.692689 
L 262.813616 140.970831 
L 264.600249 141.098808 
L 266.386883 132.391901 
L 268.173516 130.755598 
L 269.960149 133.31649 
L 271.746783 132.883875 
L 273.533416 131.045335 
L 275.32005 130.556941 
L 277.106683 131.351864 
L 278.893317 126.524457 
L 282.466584 122.446671 
L 284.253217 118.903532 
L 286.039851 116.571767 
L 287.826484 125.391038 
L 289.613117 124.775257 
L 291.399751 121.681026 
L 293.186384 117.909926 
L 294.973018 116.560049 
L 296.759651 111.410024 
L 298.546285 108.991081 
L 300.332918 98.567665 
L 302.119552 93.179095 
L 303.906185 94.425453 
L 305.692819 81.379937 
L 307.479452 80.554858 
L 309.266086 80.11421 
L 311.052719 80.378954 
L 312.839352 75.173047 
L 314.625986 73.231422 
L 316.412619 70.907549 
L 318.199253 68.107377 
L 319.985886 64.874065 
L 321.77252 72.847555 
L 323.559153 75.822401 
L 325.345787 70.61456 
L 327.13242 81.132795 
L 328.919054 76.701272 
L 330.705687 70.694621 
L 332.49232 66.725422 
L 334.278954 65.557332 
L 336.065587 62.374672 
L 337.852221 59.887774 
L 339.638854 47.770057 
L 341.425488 46.310974 
L 343.212121 47.575454 
L 344.998755 43.000979 
L 346.785388 42.516242 
L 348.572022 42.261133 
L 350.358655 42.654083 
L 352.145289 44.580585 
L 353.931922 45.098161 
L 355.718555 45.497455 
L 357.505189 48.228433 
L 359.291822 36.818047 
L 361.078456 51.314195 
L 362.865089 51.598275 
L 364.651723 50.791931 
L 366.438356 41.693672 
L 368.22499 43.627156 
L 370.011623 42.09888 
L 371.798257 41.395965 
L 373.58489 40.344844 
L 375.371523 38.927048 
L 377.158157 41.786772 
L 378.94479 39.529151 
L 380.731424 51.305955 
L 382.518057 49.188976 
L 384.304691 48.925209 
L 386.091324 46.902334 
L 387.877958 57.386203 
L 389.664591 56.705675 
L 391.451225 57.86331 
L 393.237858 47.211093 
L 395.024491 51.049911 
L 396.811125 52.667814 
L 398.597758 50.509494 
L 400.384392 41.860643 
L 402.171025 41.779055 
L 403.957659 38.293737 
L 405.744292 36.371093 
L 407.530926 37.409972 
L 409.317559 37.646722 
L 411.104193 40.006644 
L 412.890826 37.80256 
L 414.67746 48.574684 
L 416.464093 43.650203 
L 418.250726 41.924073 
L 420.03736 41.229403 
L 421.823993 50.867122 
L 423.610627 52.483454 
L 425.39726 56.800882 
L 427.183894 57.740545 
L 428.970527 61.313185 
L 430.757161 61.175044 
L 432.543794 59.254365 
L 434.330428 61.157484 
L 436.117061 60.140458 
L 437.903694 60.02792 
L 439.690328 59.172554 
L 441.476961 60.39103 
L 443.263595 62.329423 
L 445.050228 63.512836 
L 446.836862 60.611422 
L 446.836862 60.611422 
" clip-path="url(#p9577ec7503)" style="fill: none; stroke: #ff7f0e; stroke-width: 1.5; stroke-linecap: square"/>
   </g>
   <g id="line2d_29">
    <path d="M 109.163138 135.618618 
L 110.949772 136.717599 
L 112.736405 136.58178 
L 114.523039 135.536968 
L 116.309672 130.950971 
L 118.096306 134.506212 
L 119.882939 131.340098 
L 121.669572 131.190723 
L 123.456206 127.42518 
L 125.242839 132.624056 
L 127.029473 133.113471 
L 128.816106 133.732872 
L 130.60274 134.155536 
L 132.389373 134.955445 
L 134.176007 134.661223 
L 135.96264 131.08044 
L 137.749274 135.614444 
L 139.535907 131.1151 
L 141.32254 133.644149 
L 143.109174 135.618618 
L 144.895807 135.609562 
L 146.682441 135.843433 
L 148.469074 135.536968 
L 150.255708 130.950971 
L 152.042341 134.506212 
L 153.828975 110.245743 
L 155.615608 110.889471 
L 157.402242 114.479887 
L 159.188875 115.278655 
L 160.975509 118.137872 
L 162.762142 117.828357 
L 164.548775 113.779652 
L 166.335409 118.890179 
L 168.122042 114.611744 
L 169.908676 113.780191 
L 171.695309 111.894687 
L 173.481943 108.771208 
L 175.268576 133.644149 
L 177.05521 136.165732 
L 178.841843 135.609562 
L 180.628477 133.397821 
L 182.41511 136.001827 
L 184.201743 136.74544 
L 185.988377 137.98514 
L 187.77501 110.245743 
L 189.561644 110.889471 
L 191.348277 114.479887 
L 193.134911 115.278655 
L 194.921544 118.137872 
L 196.708178 117.828357 
L 198.494811 113.779652 
L 200.281445 118.890179 
L 202.068078 114.611744 
L 203.854711 113.780191 
L 205.641345 111.894687 
L 207.427978 108.771208 
L 209.214612 136.376358 
L 211.001245 139.603031 
L 212.787879 137.558513 
L 214.574512 133.397821 
L 216.361146 136.001827 
L 218.147779 136.74544 
L 219.934413 137.98514 
L 221.721046 133.783342 
L 223.50768 138.096587 
L 225.294313 138.219682 
L 227.080946 138.612738 
L 228.86758 139.920948 
L 230.654213 139.246814 
L 232.440847 138.148697 
L 234.22748 138.919277 
L 236.014114 142.088837 
L 237.800747 140.111745 
L 239.587381 139.835876 
L 241.374014 141.566838 
L 243.160648 139.981198 
L 244.947281 137.512325 
L 246.733914 137.183412 
L 248.520548 138.744221 
L 250.307181 137.838653 
L 252.093815 140.145801 
L 253.880448 140.664815 
L 257.453715 139.319155 
L 259.240349 136.542519 
L 261.026982 140.541282 
L 262.813616 139.920948 
L 264.600249 139.762857 
L 266.386883 122.521888 
L 268.173516 117.269517 
L 269.960149 121.510281 
L 271.746783 120.190267 
L 273.533416 119.009659 
L 275.32005 119.547044 
L 277.106683 122.722531 
L 278.893317 115.536589 
L 280.67995 111.916265 
L 282.466584 106.149122 
L 284.253217 97.808312 
L 286.039851 92.997733 
L 287.826484 110.117261 
L 289.613117 109.577803 
L 291.399751 104.042896 
L 293.186384 99.277333 
L 294.973018 92.578815 
L 296.759651 80.799334 
L 298.546285 75.547403 
L 300.332918 74.613443 
L 302.119552 69.088672 
L 303.906185 67.340625 
L 305.692819 42.569608 
L 307.479452 42.100058 
L 309.266086 40.681376 
L 311.052719 38.035377 
L 312.839352 34.809504 
L 314.625986 34.54658 
L 316.412619 35.665975 
L 318.199253 38.406442 
L 319.985886 36.750396 
L 321.77252 35.577849 
L 323.559153 42.066998 
L 325.345787 37.186224 
L 327.13242 62.988257 
L 328.919054 60.823729 
L 330.705687 60.589907 
L 332.49232 57.903442 
L 334.278954 56.501221 
L 336.065587 55.660671 
L 337.852221 52.434923 
L 339.638854 42.569608 
L 341.425488 42.100058 
L 343.212121 40.681376 
L 344.998755 38.035377 
L 346.785388 34.809504 
L 348.572022 34.54658 
L 350.358655 35.665975 
L 352.145289 38.406442 
L 353.931922 36.750396 
L 355.718555 35.577849 
L 357.505189 42.066998 
L 359.291822 36.449871 
L 361.078456 39.640134 
L 362.865089 42.37282 
L 364.651723 40.993955 
L 366.438356 25.483902 
L 368.22499 30.753091 
L 370.011623 28.53709 
L 371.798257 30.357007 
L 373.58489 27.719182 
L 375.371523 27.332208 
L 377.158157 29.104012 
L 378.94479 31.091721 
L 380.731424 50.22298 
L 382.518057 48.402265 
L 384.304691 48.208229 
L 386.091324 43.049939 
L 387.877958 53.445926 
L 389.664591 55.417061 
L 391.451225 54.389867 
L 393.237858 36.449871 
L 395.024491 39.640134 
L 396.811125 42.37282 
L 398.597758 40.993955 
L 400.384392 25.483902 
L 402.171025 30.753091 
L 403.957659 28.53709 
L 405.744292 30.357007 
L 407.530926 27.719182 
L 409.317559 27.332208 
L 411.104193 29.104012 
L 412.890826 31.091721 
L 414.67746 44.760436 
L 416.464093 38.898141 
L 418.250726 35.639918 
L 420.03736 39.408866 
L 421.823993 40.407765 
L 423.610627 46.972619 
L 427.183894 57.508777 
L 428.970527 60.166682 
L 430.757161 59.387279 
L 432.543794 58.483698 
L 434.330428 58.237385 
L 436.117061 52.805018 
L 437.903694 48.050384 
L 439.690328 42.38518 
L 441.476961 47.100762 
L 443.263595 47.961236 
L 445.050228 50.909275 
L 446.836862 44.5134 
L 446.836862 44.5134 
" clip-path="url(#p9577ec7503)" style="fill: none; stroke: #2ca02c; stroke-width: 1.5; stroke-linecap: square"/>
   </g>
   <g id="line2d_30">
    <path d="M 109.163138 148.748341 
L 110.949772 151.651135 
L 112.736405 152.139355 
L 114.523039 151.595218 
L 116.309672 148.857647 
L 118.096306 149.400836 
L 119.882939 149.083989 
L 121.669572 148.370868 
L 123.456206 148.823916 
L 125.242839 147.082196 
L 127.029473 148.205171 
L 128.816106 148.781673 
L 130.60274 143.862896 
L 132.389373 145.039156 
L 134.176007 141.861236 
L 135.96264 141.409071 
L 137.749274 139.06266 
L 139.535907 137.693978 
L 143.109174 136.165732 
L 144.895807 136.717599 
L 146.682441 136.58178 
L 148.469074 137.87279 
L 150.255708 137.651595 
L 152.042341 138.847539 
L 153.828975 131.340098 
L 155.615608 131.190723 
L 157.402242 127.42518 
L 159.188875 132.624056 
L 160.975509 133.113471 
L 162.762142 133.732872 
L 164.548775 134.155536 
L 166.335409 134.955445 
L 168.122042 134.661223 
L 169.908676 131.08044 
L 171.695309 135.614444 
L 173.481943 131.1151 
L 175.268576 136.376358 
L 177.05521 139.603031 
L 178.841843 137.558513 
L 180.628477 135.843433 
L 182.41511 137.87279 
L 184.201743 137.651595 
L 185.988377 138.847539 
L 187.77501 133.783342 
L 189.561644 138.096587 
L 191.348277 138.219682 
L 193.134911 138.612738 
L 194.921544 141.532267 
L 196.708178 139.246814 
L 198.494811 138.148697 
L 200.281445 138.919277 
L 202.068078 142.088837 
L 203.854711 140.111745 
L 205.641345 139.835876 
L 207.427978 142.313731 
L 209.214612 145.885105 
L 211.001245 142.532847 
L 212.787879 138.813715 
L 214.574512 138.956396 
L 216.361146 137.838653 
L 218.147779 141.111324 
L 219.934413 143.055957 
L 221.721046 145.534661 
L 223.50768 144.694377 
L 225.294313 147.335197 
L 227.080946 140.844096 
L 228.86758 141.532267 
L 230.654213 139.762857 
L 232.440847 142.261915 
L 234.22748 144.241679 
L 236.014114 145.122699 
L 237.800747 145.577483 
L 239.587381 143.081011 
L 241.374014 142.313731 
L 243.160648 145.885105 
L 244.947281 142.532847 
L 246.733914 138.813715 
L 248.520548 138.956396 
L 252.093815 141.111324 
L 253.880448 143.055957 
L 255.667082 145.534661 
L 257.453715 144.694377 
L 259.240349 147.335197 
L 261.026982 140.844096 
L 262.813616 142.020713 
L 264.600249 142.434758 
L 266.386883 142.261915 
L 268.173516 144.241679 
L 269.960149 145.122699 
L 271.746783 145.577483 
L 273.533416 143.081011 
L 277.106683 139.981198 
L 278.893317 137.512325 
L 280.67995 137.183412 
L 282.466584 138.744221 
L 284.253217 139.998752 
L 286.039851 140.145801 
L 287.826484 140.664815 
L 291.399751 139.319155 
L 293.186384 136.542519 
L 294.973018 140.541282 
L 296.759651 142.020713 
L 298.546285 142.434758 
L 300.332918 122.521888 
L 302.119552 117.269517 
L 303.906185 121.510281 
L 305.692819 120.190267 
L 307.479452 119.009659 
L 309.266086 119.547044 
L 311.052719 122.722531 
L 312.839352 115.536589 
L 314.625986 111.916265 
L 316.412619 106.149122 
L 318.199253 97.808312 
L 319.985886 92.997733 
L 321.77252 110.117261 
L 323.559153 109.577803 
L 325.345787 104.042896 
L 327.13242 99.277333 
L 328.919054 92.578815 
L 330.705687 80.799334 
L 332.49232 75.547403 
L 334.278954 74.613443 
L 336.065587 69.088672 
L 337.852221 67.340625 
L 339.638854 52.970507 
L 341.425488 50.521889 
L 343.212121 54.469532 
L 344.998755 47.966581 
L 346.785388 50.22298 
L 350.358655 49.64219 
L 352.145289 50.754728 
L 353.931922 53.445926 
L 355.718555 55.417061 
L 357.505189 54.389867 
L 359.291822 37.186224 
L 361.078456 62.988257 
L 362.865089 60.823729 
L 364.651723 60.589907 
L 366.438356 57.903442 
L 368.22499 56.501221 
L 370.011623 55.660671 
L 371.798257 52.434923 
L 373.58489 52.970507 
L 375.371523 50.521889 
L 377.158157 54.469532 
L 378.94479 47.966581 
L 380.731424 52.388931 
L 382.518057 49.975687 
L 384.304691 49.64219 
L 386.091324 50.754728 
L 387.877958 61.326479 
L 389.664591 57.994289 
L 391.451225 61.336754 
L 393.237858 57.972314 
L 395.024491 62.459687 
L 396.811125 62.962808 
L 398.597758 60.025032 
L 400.384392 58.237385 
L 402.171025 52.805018 
L 403.957659 48.050384 
L 405.744292 42.38518 
L 407.530926 47.100762 
L 409.317559 47.961236 
L 411.104193 50.909275 
L 412.890826 44.5134 
L 414.67746 52.388931 
L 416.464093 48.402265 
L 418.250726 48.208229 
L 420.03736 43.049939 
L 421.823993 61.326479 
L 423.610627 57.994289 
L 425.39726 61.336754 
L 427.183894 57.972314 
L 428.970527 62.459687 
L 430.757161 62.962808 
L 432.543794 60.025032 
L 434.330428 64.077584 
L 436.117061 67.475898 
L 437.903694 72.005456 
L 439.690328 75.959927 
L 441.476961 73.681299 
L 443.263595 76.697609 
L 445.050228 76.116396 
L 446.836862 76.709444 
L 446.836862 76.709444 
" clip-path="url(#p9577ec7503)" style="fill: none; stroke: #d62728; stroke-width: 1.5; stroke-linecap: square"/>
   </g>
   <g id="line2d_31">
    <path d="M 109.163138 121.585254 
L 110.949772 134.108662 
L 114.523039 134.108662 
L 116.309672 122.690417 
L 118.096306 133.105386 
L 119.882939 128.353002 
L 121.669572 128.353002 
L 123.456206 122.690417 
L 128.816106 122.690417 
L 130.60274 119.917605 
L 134.176007 119.917605 
L 135.96264 119.792758 
L 137.749274 119.792758 
L 139.535907 115.88877 
L 144.895807 115.88877 
L 146.682441 114.25894 
L 148.469074 114.25894 
L 150.255708 110.728278 
L 152.042341 114.25894 
L 153.828975 110.728278 
L 155.615608 114.25894 
L 157.402242 114.25894 
L 159.188875 118.453017 
L 160.975509 119.792758 
L 162.762142 119.792758 
L 164.548775 118.453017 
L 166.335409 119.792758 
L 168.122042 118.453017 
L 169.908676 110.728278 
L 171.695309 118.453017 
L 173.481943 110.728278 
L 177.05521 125.776815 
L 178.841843 125.776815 
L 180.628477 114.585924 
L 184.201743 114.585924 
L 185.988377 116.34368 
L 187.77501 113.893097 
L 189.561644 116.34368 
L 191.348277 118.453017 
L 193.134911 118.453017 
L 194.921544 125.966758 
L 196.708178 118.453017 
L 198.494811 116.34368 
L 200.281445 118.453017 
L 205.641345 118.453017 
L 207.427978 125.776815 
L 209.214612 130.744539 
L 211.001245 130.744539 
L 212.787879 125.966758 
L 214.574512 125.776815 
L 216.361146 125.776815 
L 218.147779 125.966758 
L 219.934413 125.966758 
L 221.721046 125.776815 
L 223.50768 125.966758 
L 225.294313 125.966758 
L 227.080946 125.776815 
L 228.86758 125.966758 
L 230.654213 119.917059 
L 232.440847 125.966758 
L 234.22748 135.000167 
L 236.014114 135.213723 
L 237.800747 135.000167 
L 241.374014 135.000167 
L 243.160648 135.213723 
L 244.947281 134.960015 
L 246.733914 133.999627 
L 250.307181 133.999627 
L 252.093815 134.960015 
L 253.880448 134.960015 
L 255.667082 133.999627 
L 257.453715 133.999627 
L 259.240349 126.654773 
L 264.600249 126.654773 
L 266.386883 135.000167 
L 271.746783 134.960015 
L 273.533416 134.214372 
L 275.32005 134.214372 
L 277.106683 134.960015 
L 278.893317 119.536024 
L 280.67995 112.910768 
L 282.466584 112.633495 
L 284.253217 101.436848 
L 286.039851 98.714065 
L 287.826484 98.714065 
L 289.613117 93.172089 
L 293.186384 91.41293 
L 294.973018 85.907129 
L 296.759651 79.390652 
L 298.546285 79.390652 
L 300.332918 77.027617 
L 302.119552 77.027617 
L 303.906185 70.436355 
L 307.479452 70.436355 
L 309.266086 62.366462 
L 311.052719 62.067571 
L 312.839352 59.467271 
L 319.985886 59.467271 
L 321.77252 60.488587 
L 323.559153 62.366462 
L 325.345787 60.488587 
L 327.13242 62.366462 
L 328.919054 61.563168 
L 330.705687 59.560594 
L 332.49232 59.467271 
L 334.278954 54.114373 
L 336.065587 48.259755 
L 337.852221 36.791339 
L 339.638854 34.189194 
L 341.425488 34.189194 
L 343.212121 36.791339 
L 344.998755 30.370017 
L 346.785388 36.791339 
L 350.358655 36.791339 
L 352.145289 38.943856 
L 353.931922 47.19666 
L 355.718555 47.19666 
L 357.505189 51.459593 
L 359.291822 47.19666 
L 361.078456 51.459593 
L 364.651723 51.459593 
L 366.438356 47.19666 
L 368.22499 51.459593 
L 370.011623 49.637313 
L 371.798257 36.791339 
L 375.371523 36.791339 
L 377.158157 41.257148 
L 378.94479 36.791339 
L 380.731424 41.257148 
L 384.304691 41.257148 
L 386.091324 38.943856 
L 387.877958 42.82709 
L 389.664591 49.637313 
L 391.451225 50.984546 
L 393.237858 42.82709 
L 395.024491 50.984546 
L 396.811125 50.984546 
L 398.597758 42.82709 
L 402.171025 42.82709 
L 403.957659 40.031961 
L 405.744292 39.026936 
L 407.530926 40.031961 
L 411.104193 40.031961 
L 412.890826 39.026936 
L 414.67746 41.257148 
L 416.464093 40.031961 
L 418.250726 24.758086 
L 420.03736 22.840461 
L 421.823993 24.758086 
L 423.610627 41.257148 
L 425.39726 41.991376 
L 427.183894 41.991376 
L 428.970527 42.82709 
L 430.757161 42.82709 
L 432.543794 41.991376 
L 434.330428 42.82709 
L 439.690328 42.82709 
L 441.476961 43.799955 
L 443.263595 53.152784 
L 445.050228 53.152784 
L 446.836862 43.799955 
L 446.836862 43.799955 
" clip-path="url(#p9577ec7503)" style="fill: none; stroke: #9467bd; stroke-width: 1.5; stroke-linecap: square"/>
   </g>
   <g id="patch_3">
    <path d="M 62.8 175.253182 
L 62.8 10.8 
" style="fill: none; stroke: #000000; stroke-width: 0.8; stroke-linejoin: miter; stroke-linecap: square"/>
   </g>
   <g id="patch_4">
    <path d="M 493.2 175.253182 
L 493.2 10.8 
" style="fill: none; stroke: #000000; stroke-width: 0.8; stroke-linejoin: miter; stroke-linecap: square"/>
   </g>
   <g id="patch_5">
    <path d="M 62.8 175.253182 
L 493.2 175.253182 
" style="fill: none; stroke: #000000; stroke-width: 0.8; stroke-linejoin: miter; stroke-linecap: square"/>
   </g>
   <g id="patch_6">
    <path d="M 62.8 10.8 
L 493.2 10.8 
" style="fill: none; stroke: #000000; stroke-width: 0.8; stroke-linejoin: miter; stroke-linecap: square"/>
   </g>
   <g id="legend_1">
    <g id="patch_7">
     <path d="M 69.8 62.834375 
L 283.753125 62.834375 
Q 285.753125 62.834375 285.753125 60.834375 
L 285.753125 17.8 
Q 285.753125 15.8 283.753125 15.8 
L 69.8 15.8 
Q 67.8 15.8 67.8 17.8 
L 67.8 60.834375 
Q 67.8 62.834375 69.8 62.834375 
z
" style="fill: #ffffff; opacity: 0.8; stroke: #cccccc; stroke-linejoin: miter"/>
    </g>
    <g id="line2d_32">
     <path d="M 71.8 23.898438 
L 81.8 23.898438 
L 91.8 23.898438 
" style="fill: none; stroke: #1f77b4; stroke-width: 1.5; stroke-linecap: square"/>
    </g>
    <g id="text_10">
     <!-- Signal -->
     <g transform="translate(99.8 27.398438) scale(0.1 -0.1)">
      <defs>
       <path id="DejaVuSans-53" d="M 3425 4513 
L 3425 3897 
Q 3066 4069 2747 4153 
Q 2428 4238 2131 4238 
Q 1616 4238 1336 4038 
Q 1056 3838 1056 3469 
Q 1056 3159 1242 3001 
Q 1428 2844 1947 2747 
L 2328 2669 
Q 3034 2534 3370 2195 
Q 3706 1856 3706 1288 
Q 3706 609 3251 259 
Q 2797 -91 1919 -91 
Q 1588 -91 1214 -16 
Q 841 59 441 206 
L 441 856 
Q 825 641 1194 531 
Q 1563 422 1919 422 
Q 2459 422 2753 634 
Q 3047 847 3047 1241 
Q 3047 1584 2836 1778 
Q 2625 1972 2144 2069 
L 1759 2144 
Q 1053 2284 737 2584 
Q 422 2884 422 3419 
Q 422 4038 858 4394 
Q 1294 4750 2059 4750 
Q 2388 4750 2728 4690 
Q 3069 4631 3425 4513 
z
" transform="scale(0.015625)"/>
       <path id="DejaVuSans-67" d="M 2906 1791 
Q 2906 2416 2648 2759 
Q 2391 3103 1925 3103 
Q 1463 3103 1205 2759 
Q 947 2416 947 1791 
Q 947 1169 1205 825 
Q 1463 481 1925 481 
Q 2391 481 2648 825 
Q 2906 1169 2906 1791 
z
M 3481 434 
Q 3481 -459 3084 -895 
Q 2688 -1331 1869 -1331 
Q 1566 -1331 1297 -1286 
Q 1028 -1241 775 -1147 
L 775 -588 
Q 1028 -725 1275 -790 
Q 1522 -856 1778 -856 
Q 2344 -856 2625 -561 
Q 2906 -266 2906 331 
L 2906 616 
Q 2728 306 2450 153 
Q 2172 0 1784 0 
Q 1141 0 747 490 
Q 353 981 353 1791 
Q 353 2603 747 3093 
Q 1141 3584 1784 3584 
Q 2172 3584 2450 3431 
Q 2728 3278 2906 2969 
L 2906 3500 
L 3481 3500 
L 3481 434 
z
" transform="scale(0.015625)"/>
       <path id="DejaVuSans-6e" d="M 3513 2113 
L 3513 0 
L 2938 0 
L 2938 2094 
Q 2938 2591 2744 2837 
Q 2550 3084 2163 3084 
Q 1697 3084 1428 2787 
Q 1159 2491 1159 1978 
L 1159 0 
L 581 0 
L 581 3500 
L 1159 3500 
L 1159 2956 
Q 1366 3272 1645 3428 
Q 1925 3584 2291 3584 
Q 2894 3584 3203 3211 
Q 3513 2838 3513 2113 
z
" transform="scale(0.015625)"/>
       <path id="DejaVuSans-61" d="M 2194 1759 
Q 1497 1759 1228 1600 
Q 959 1441 959 1056 
Q 959 750 1161 570 
Q 1363 391 1709 391 
Q 2188 391 2477 730 
Q 2766 1069 2766 1631 
L 2766 1759 
L 2194 1759 
z
M 3341 1997 
L 3341 0 
L 2766 0 
L 2766 531 
Q 2569 213 2275 61 
Q 1981 -91 1556 -91 
Q 1019 -91 701 211 
Q 384 513 384 1019 
Q 384 1609 779 1909 
Q 1175 2209 1959 2209 
L 2766 2209 
L 2766 2266 
Q 2766 2663 2505 2880 
Q 2244 3097 1772 3097 
Q 1472 3097 1187 3025 
Q 903 2953 641 2809 
L 641 3341 
Q 956 3463 1253 3523 
Q 1550 3584 1831 3584 
Q 2591 3584 2966 3190 
Q 3341 2797 3341 1997 
z
" transform="scale(0.015625)"/>
      </defs>
      <use xlink:href="#DejaVuSans-53"/>
      <use xlink:href="#DejaVuSans-69" x="63.476562"/>
      <use xlink:href="#DejaVuSans-67" x="91.259766"/>
      <use xlink:href="#DejaVuSans-6e" x="154.736328"/>
      <use xlink:href="#DejaVuSans-61" x="218.115234"/>
      <use xlink:href="#DejaVuSans-6c" x="279.394531"/>
     </g>
    </g>
    <g id="line2d_33">
     <path d="M 71.8 38.576562 
L 81.8 38.576562 
L 91.8 38.576562 
" style="fill: none; stroke: #ff7f0e; stroke-width: 1.5; stroke-linecap: square"/>
    </g>
    <g id="text_11">
     <!-- CA-CFAR thld -->
     <g transform="translate(99.8 42.076562) scale(0.1 -0.1)">
      <defs>
       <path id="DejaVuSans-43" d="M 4122 4306 
L 4122 3641 
Q 3803 3938 3442 4084 
Q 3081 4231 2675 4231 
Q 1875 4231 1450 3742 
Q 1025 3253 1025 2328 
Q 1025 1406 1450 917 
Q 1875 428 2675 428 
Q 3081 428 3442 575 
Q 3803 722 4122 1019 
L 4122 359 
Q 3791 134 3420 21 
Q 3050 -91 2638 -91 
Q 1578 -91 968 557 
Q 359 1206 359 2328 
Q 359 3453 968 4101 
Q 1578 4750 2638 4750 
Q 3056 4750 3426 4639 
Q 3797 4528 4122 4306 
z
" transform="scale(0.015625)"/>
       <path id="DejaVuSans-2d" d="M 313 2009 
L 1997 2009 
L 1997 1497 
L 313 1497 
L 313 2009 
z
" transform="scale(0.015625)"/>
       <path id="DejaVuSans-46" d="M 628 4666 
L 3309 4666 
L 3309 4134 
L 1259 4134 
L 1259 2759 
L 3109 2759 
L 3109 2228 
L 1259 2228 
L 1259 0 
L 628 0 
L 628 4666 
z
" transform="scale(0.015625)"/>
       <path id="DejaVuSans-52" d="M 2841 2188 
Q 3044 2119 3236 1894 
Q 3428 1669 3622 1275 
L 4263 0 
L 3584 0 
L 2988 1197 
Q 2756 1666 2539 1819 
Q 2322 1972 1947 1972 
L 1259 1972 
L 1259 0 
L 628 0 
L 628 4666 
L 2053 4666 
Q 2853 4666 3247 4331 
Q 3641 3997 3641 3322 
Q 3641 2881 3436 2590 
Q 3231 2300 2841 2188 
z
M 1259 4147 
L 1259 2491 
L 2053 2491 
Q 2509 2491 2742 2702 
Q 2975 2913 2975 3322 
Q 2975 3731 2742 3939 
Q 2509 4147 2053 4147 
L 1259 4147 
z
" transform="scale(0.015625)"/>
      </defs>
      <use xlink:href="#DejaVuSans-43"/>
      <use xlink:href="#DejaVuSans-41" x="69.824219"/>
      <use xlink:href="#DejaVuSans-2d" x="135.982422"/>
      <use xlink:href="#DejaVuSans-43" x="172.066406"/>
      <use xlink:href="#DejaVuSans-46" x="241.890625"/>
      <use xlink:href="#DejaVuSans-41" x="290.285156"/>
      <use xlink:href="#DejaVuSans-52" x="358.693359"/>
      <use xlink:href="#DejaVuSans-20" x="428.175781"/>
      <use xlink:href="#DejaVuSans-74" x="459.962891"/>
      <use xlink:href="#DejaVuSans-68" x="499.171875"/>
      <use xlink:href="#DejaVuSans-6c" x="562.550781"/>
      <use xlink:href="#DejaVuSans-64" x="590.333984"/>
     </g>
    </g>
    <g id="line2d_34">
     <path d="M 71.8 53.254687 
L 81.8 53.254687 
L 91.8 53.254687 
" style="fill: none; stroke: #2ca02c; stroke-width: 1.5; stroke-linecap: square"/>
    </g>
    <g id="text_12">
     <!-- GO-CFAR thld -->
     <g transform="translate(99.8 56.754687) scale(0.1 -0.1)">
      <defs>
       <path id="DejaVuSans-47" d="M 3809 666 
L 3809 1919 
L 2778 1919 
L 2778 2438 
L 4434 2438 
L 4434 434 
Q 4069 175 3628 42 
Q 3188 -91 2688 -91 
Q 1594 -91 976 548 
Q 359 1188 359 2328 
Q 359 3472 976 4111 
Q 1594 4750 2688 4750 
Q 3144 4750 3555 4637 
Q 3966 4525 4313 4306 
L 4313 3634 
Q 3963 3931 3569 4081 
Q 3175 4231 2741 4231 
Q 1884 4231 1454 3753 
Q 1025 3275 1025 2328 
Q 1025 1384 1454 906 
Q 1884 428 2741 428 
Q 3075 428 3337 486 
Q 3600 544 3809 666 
z
" transform="scale(0.015625)"/>
       <path id="DejaVuSans-4f" d="M 2522 4238 
Q 1834 4238 1429 3725 
Q 1025 3213 1025 2328 
Q 1025 1447 1429 934 
Q 1834 422 2522 422 
Q 3209 422 3611 934 
Q 4013 1447 4013 2328 
Q 4013 3213 3611 3725 
Q 3209 4238 2522 4238 
z
M 2522 4750 
Q 3503 4750 4090 4092 
Q 4678 3434 4678 2328 
Q 4678 1225 4090 567 
Q 3503 -91 2522 -91 
Q 1538 -91 948 565 
Q 359 1222 359 2328 
Q 359 3434 948 4092 
Q 1538 4750 2522 4750 
z
" transform="scale(0.015625)"/>
      </defs>
      <use xlink:href="#DejaVuSans-47"/>
      <use xlink:href="#DejaVuSans-4f" x="77.490234"/>
      <use xlink:href="#DejaVuSans-2d" x="158.951172"/>
      <use xlink:href="#DejaVuSans-43" x="195.035156"/>
      <use xlink:href="#DejaVuSans-46" x="264.859375"/>
      <use xlink:href="#DejaVuSans-41" x="313.253906"/>
      <use xlink:href="#DejaVuSans-52" x="381.662109"/>
      <use xlink:href="#DejaVuSans-20" x="451.144531"/>
      <use xlink:href="#DejaVuSans-74" x="482.931641"/>
      <use xlink:href="#DejaVuSans-68" x="522.140625"/>
      <use xlink:href="#DejaVuSans-6c" x="585.519531"/>
      <use xlink:href="#DejaVuSans-64" x="613.302734"/>
     </g>
    </g>
    <g id="line2d_35">
     <path d="M 187.476562 23.898438 
L 197.476562 23.898438 
L 207.476562 23.898438 
" style="fill: none; stroke: #d62728; stroke-width: 1.5; stroke-linecap: square"/>
    </g>
    <g id="text_13">
     <!-- SO-CFAR thld -->
     <g transform="translate(215.476562 27.398438) scale(0.1 -0.1)">
      <use xlink:href="#DejaVuSans-53"/>
      <use xlink:href="#DejaVuSans-4f" x="63.476562"/>
      <use xlink:href="#DejaVuSans-2d" x="144.9375"/>
      <use xlink:href="#DejaVuSans-43" x="181.021484"/>
      <use xlink:href="#DejaVuSans-46" x="250.845703"/>
      <use xlink:href="#DejaVuSans-41" x="299.240234"/>
      <use xlink:href="#DejaVuSans-52" x="367.648438"/>
      <use xlink:href="#DejaVuSans-20" x="437.130859"/>
      <use xlink:href="#DejaVuSans-74" x="468.917969"/>
      <use xlink:href="#DejaVuSans-68" x="508.126953"/>
      <use xlink:href="#DejaVuSans-6c" x="571.505859"/>
      <use xlink:href="#DejaVuSans-64" x="599.289062"/>
     </g>
    </g>
    <g id="line2d_36">
     <path d="M 187.476562 38.576562 
L 197.476562 38.576562 
L 207.476562 38.576562 
" style="fill: none; stroke: #9467bd; stroke-width: 1.5; stroke-linecap: square"/>
    </g>
    <g id="text_14">
     <!-- OS-CFAR thld -->
     <g transform="translate(215.476562 42.076562) scale(0.1 -0.1)">
      <use xlink:href="#DejaVuSans-4f"/>
      <use xlink:href="#DejaVuSans-53" x="78.710938"/>
      <use xlink:href="#DejaVuSans-2d" x="142.1875"/>
      <use xlink:href="#DejaVuSans-43" x="178.271484"/>
      <use xlink:href="#DejaVuSans-46" x="248.095703"/>
      <use xlink:href="#DejaVuSans-41" x="296.490234"/>
      <use xlink:href="#DejaVuSans-52" x="364.898438"/>
      <use xlink:href="#DejaVuSans-20" x="434.380859"/>
      <use xlink:href="#DejaVuSans-74" x="466.167969"/>
      <use xlink:href="#DejaVuSans-68" x="505.376953"/>
      <use xlink:href="#DejaVuSans-6c" x="568.755859"/>
      <use xlink:href="#DejaVuSans-64" x="596.539062"/>
     </g>
    </g>
   </g>
  </g>
  <g id="axes_2">
   <g id="patch_8">
    <path d="M 62.8 246.04 
L 493.2 246.04 
L 493.2 191.222273 
L 62.8 191.222273 
z
" style="fill: #ffffff"/>
   </g>
   <g id="PathCollection_1">
    <defs>
     <path id="m063279aa78" d="M 0 7.071068 
L 0 -7.071068 
" style="stroke: #ff7f0e; stroke-width: 1.5"/>
    </defs>
    <g clip-path="url(#pae5bae04a8)">
     <use xlink:href="#m063279aa78" x="180.628477" y="243.548285" style="fill: #ff7f0e; stroke: #ff7f0e; stroke-width: 1.5"/>
     <use xlink:href="#m063279aa78" x="253.880448" y="243.548285" style="fill: #ff7f0e; stroke: #ff7f0e; stroke-width: 1.5"/>
     <use xlink:href="#m063279aa78" x="293.186384" y="243.548285" style="fill: #ff7f0e; stroke: #ff7f0e; stroke-width: 1.5"/>
     <use xlink:href="#m063279aa78" x="332.49232" y="243.548285" style="fill: #ff7f0e; stroke: #ff7f0e; stroke-width: 1.5"/>
     <use xlink:href="#m063279aa78" x="386.091324" y="243.548285" style="fill: #ff7f0e; stroke: #ff7f0e; stroke-width: 1.5"/>
     <use xlink:href="#m063279aa78" x="393.237858" y="243.548285" style="fill: #ff7f0e; stroke: #ff7f0e; stroke-width: 1.5"/>
    </g>
   </g>
   <g id="PathCollection_2">
    <defs>
     <path id="mb49193f56a" d="M 0 7.071068 
L 0 -7.071068 
" style="stroke: #2ca02c; stroke-width: 1.5"/>
    </defs>
    <g clip-path="url(#pae5bae04a8)">
     <use xlink:href="#mb49193f56a" x="180.628477" y="226.936853" style="fill: #2ca02c; stroke: #2ca02c; stroke-width: 1.5"/>
     <use xlink:href="#mb49193f56a" x="253.880448" y="226.936853" style="fill: #2ca02c; stroke: #2ca02c; stroke-width: 1.5"/>
     <use xlink:href="#mb49193f56a" x="293.186384" y="226.936853" style="fill: #2ca02c; stroke: #2ca02c; stroke-width: 1.5"/>
     <use xlink:href="#mb49193f56a" x="332.49232" y="226.936853" style="fill: #2ca02c; stroke: #2ca02c; stroke-width: 1.5"/>
     <use xlink:href="#mb49193f56a" x="386.091324" y="226.936853" style="fill: #2ca02c; stroke: #2ca02c; stroke-width: 1.5"/>
    </g>
   </g>
   <g id="PathCollection_3">
    <defs>
     <path id="me77e21d33c" d="M 0 7.071068 
L 0 -7.071068 
" style="stroke: #d62728; stroke-width: 1.5"/>
    </defs>
    <g clip-path="url(#pae5bae04a8)">
     <use xlink:href="#me77e21d33c" x="118.096306" y="210.32542" style="fill: #d62728; stroke: #d62728; stroke-width: 1.5"/>
     <use xlink:href="#me77e21d33c" x="123.456206" y="210.32542" style="fill: #d62728; stroke: #d62728; stroke-width: 1.5"/>
     <use xlink:href="#me77e21d33c" x="130.60274" y="210.32542" style="fill: #d62728; stroke: #d62728; stroke-width: 1.5"/>
     <use xlink:href="#me77e21d33c" x="180.628477" y="210.32542" style="fill: #d62728; stroke: #d62728; stroke-width: 1.5"/>
     <use xlink:href="#me77e21d33c" x="223.50768" y="210.32542" style="fill: #d62728; stroke: #d62728; stroke-width: 1.5"/>
     <use xlink:href="#me77e21d33c" x="253.880448" y="210.32542" style="fill: #d62728; stroke: #d62728; stroke-width: 1.5"/>
     <use xlink:href="#me77e21d33c" x="293.186384" y="210.32542" style="fill: #d62728; stroke: #d62728; stroke-width: 1.5"/>
     <use xlink:href="#me77e21d33c" x="332.49232" y="210.32542" style="fill: #d62728; stroke: #d62728; stroke-width: 1.5"/>
     <use xlink:href="#me77e21d33c" x="386.091324" y="210.32542" style="fill: #d62728; stroke: #d62728; stroke-width: 1.5"/>
     <use xlink:href="#me77e21d33c" x="393.237858" y="210.32542" style="fill: #d62728; stroke: #d62728; stroke-width: 1.5"/>
    </g>
   </g>
   <g id="PathCollection_4">
    <defs>
     <path id="m2e21321914" d="M 0 7.071068 
L 0 -7.071068 
" style="stroke: #9467bd; stroke-width: 1.5"/>
    </defs>
    <g clip-path="url(#pae5bae04a8)">
     <use xlink:href="#m2e21321914" x="180.628477" y="193.713988" style="fill: #9467bd; stroke: #9467bd; stroke-width: 1.5"/>
     <use xlink:href="#m2e21321914" x="293.186384" y="193.713988" style="fill: #9467bd; stroke: #9467bd; stroke-width: 1.5"/>
     <use xlink:href="#m2e21321914" x="332.49232" y="193.713988" style="fill: #9467bd; stroke: #9467bd; stroke-width: 1.5"/>
     <use xlink:href="#m2e21321914" x="386.091324" y="193.713988" style="fill: #9467bd; stroke: #9467bd; stroke-width: 1.5"/>
     <use xlink:href="#m2e21321914" x="393.237858" y="193.713988" style="fill: #9467bd; stroke: #9467bd; stroke-width: 1.5"/>
    </g>
   </g>
   <g id="matplotlib.axis_3">
    <g id="xtick_6">
     <g id="line2d_37">
      <path d="M 82.363636 246.04 
L 82.363636 191.222273 
" clip-path="url(#pae5bae04a8)" style="fill: none; stroke: #b0b0b0; stroke-width: 0.8; stroke-linecap: square"/>
     </g>
     <g id="line2d_38">
      <g>
       <use xlink:href="#me45565d8ee" x="82.363636" y="246.04" style="stroke: #000000; stroke-width: 0.8"/>
      </g>
     </g>
     <g id="text_15">
      <!-- 0 -->
      <g transform="translate(79.182386 260.638438) scale(0.1 -0.1)">
       <use xlink:href="#DejaVuSans-30"/>
      </g>
     </g>
    </g>
    <g id="xtick_7">
     <g id="line2d_39">
      <path d="M 171.695309 246.04 
L 171.695309 191.222273 
" clip-path="url(#pae5bae04a8)" style="fill: none; stroke: #b0b0b0; stroke-width: 0.8; stroke-linecap: square"/>
     </g>
     <g id="line2d_40">
      <g>
       <use xlink:href="#me45565d8ee" x="171.695309" y="246.04" style="stroke: #000000; stroke-width: 0.8"/>
      </g>
     </g>
     <g id="text_16">
      <!-- 50 -->
      <g transform="translate(165.332809 260.638438) scale(0.1 -0.1)">
       <defs>
        <path id="DejaVuSans-35" d="M 691 4666 
L 3169 4666 
L 3169 4134 
L 1269 4134 
L 1269 2991 
Q 1406 3038 1543 3061 
Q 1681 3084 1819 3084 
Q 2600 3084 3056 2656 
Q 3513 2228 3513 1497 
Q 3513 744 3044 326 
Q 2575 -91 1722 -91 
Q 1428 -91 1123 -41 
Q 819 9 494 109 
L 494 744 
Q 775 591 1075 516 
Q 1375 441 1709 441 
Q 2250 441 2565 725 
Q 2881 1009 2881 1497 
Q 2881 1984 2565 2268 
Q 2250 2553 1709 2553 
Q 1456 2553 1204 2497 
Q 953 2441 691 2322 
L 691 4666 
z
" transform="scale(0.015625)"/>
       </defs>
       <use xlink:href="#DejaVuSans-35"/>
       <use xlink:href="#DejaVuSans-30" x="63.623047"/>
      </g>
     </g>
    </g>
    <g id="xtick_8">
     <g id="line2d_41">
      <path d="M 261.026982 246.04 
L 261.026982 191.222273 
" clip-path="url(#pae5bae04a8)" style="fill: none; stroke: #b0b0b0; stroke-width: 0.8; stroke-linecap: square"/>
     </g>
     <g id="line2d_42">
      <g>
       <use xlink:href="#me45565d8ee" x="261.026982" y="246.04" style="stroke: #000000; stroke-width: 0.8"/>
      </g>
     </g>
     <g id="text_17">
      <!-- 100 -->
      <g transform="translate(251.483232 260.638438) scale(0.1 -0.1)">
       <use xlink:href="#DejaVuSans-31"/>
       <use xlink:href="#DejaVuSans-30" x="63.623047"/>
       <use xlink:href="#DejaVuSans-30" x="127.246094"/>
      </g>
     </g>
    </g>
    <g id="xtick_9">
     <g id="line2d_43">
      <path d="M 350.358655 246.04 
L 350.358655 191.222273 
" clip-path="url(#pae5bae04a8)" style="fill: none; stroke: #b0b0b0; stroke-width: 0.8; stroke-linecap: square"/>
     </g>
     <g id="line2d_44">
      <g>
       <use xlink:href="#me45565d8ee" x="350.358655" y="246.04" style="stroke: #000000; stroke-width: 0.8"/>
      </g>
     </g>
     <g id="text_18">
      <!-- 150 -->
      <g transform="translate(340.814905 260.638438) scale(0.1 -0.1)">
       <use xlink:href="#DejaVuSans-31"/>
       <use xlink:href="#DejaVuSans-35" x="63.623047"/>
       <use xlink:href="#DejaVuSans-30" x="127.246094"/>
      </g>
     </g>
    </g>
    <g id="xtick_10">
     <g id="line2d_45">
      <path d="M 439.690328 246.04 
L 439.690328 191.222273 
" clip-path="url(#pae5bae04a8)" style="fill: none; stroke: #b0b0b0; stroke-width: 0.8; stroke-linecap: square"/>
     </g>
     <g id="line2d_46">
      <g>
       <use xlink:href="#me45565d8ee" x="439.690328" y="246.04" style="stroke: #000000; stroke-width: 0.8"/>
      </g>
     </g>
     <g id="text_19">
      <!-- 200 -->
      <g transform="translate(430.146578 260.638438) scale(0.1 -0.1)">
       <use xlink:href="#DejaVuSans-32"/>
       <use xlink:href="#DejaVuSans-30" x="63.623047"/>
       <use xlink:href="#DejaVuSans-30" x="127.246094"/>
      </g>
     </g>
    </g>
    <g id="text_20">
     <!-- Range bin -->
     <g transform="translate(252.833594 274.316563) scale(0.1 -0.1)">
      <defs>
       <path id="DejaVuSans-62" d="M 3116 1747 
Q 3116 2381 2855 2742 
Q 2594 3103 2138 3103 
Q 1681 3103 1420 2742 
Q 1159 2381 1159 1747 
Q 1159 1113 1420 752 
Q 1681 391 2138 391 
Q 2594 391 2855 752 
Q 3116 1113 3116 1747 
z
M 1159 2969 
Q 1341 3281 1617 3432 
Q 1894 3584 2278 3584 
Q 2916 3584 3314 3078 
Q 3713 2572 3713 1747 
Q 3713 922 3314 415 
Q 2916 -91 2278 -91 
Q 1894 -91 1617 61 
Q 1341 213 1159 525 
L 1159 0 
L 581 0 
L 581 4863 
L 1159 4863 
L 1159 2969 
z
" transform="scale(0.015625)"/>
      </defs>
      <use xlink:href="#DejaVuSans-52"/>
      <use xlink:href="#DejaVuSans-61" x="67.232422"/>
      <use xlink:href="#DejaVuSans-6e" x="128.511719"/>
      <use xlink:href="#DejaVuSans-67" x="191.890625"/>
      <use xlink:href="#DejaVuSans-65" x="255.367188"/>
      <use xlink:href="#DejaVuSans-20" x="316.890625"/>
      <use xlink:href="#DejaVuSans-62" x="348.677734"/>
      <use xlink:href="#DejaVuSans-69" x="412.154297"/>
      <use xlink:href="#DejaVuSans-6e" x="439.9375"/>
     </g>
    </g>
   </g>
   <g id="matplotlib.axis_4">
    <g id="ytick_9">
     <g id="line2d_47">
      <g>
       <use xlink:href="#mcb65f440b5" x="62.8" y="243.548285" style="stroke: #000000; stroke-width: 0.8"/>
      </g>
     </g>
     <g id="text_21">
      <!-- CA-CFAR -->
      <g transform="translate(12.982813 247.347504) scale(0.1 -0.1)">
       <use xlink:href="#DejaVuSans-43"/>
       <use xlink:href="#DejaVuSans-41" x="69.824219"/>
       <use xlink:href="#DejaVuSans-2d" x="135.982422"/>
       <use xlink:href="#DejaVuSans-43" x="172.066406"/>
       <use xlink:href="#DejaVuSans-46" x="241.890625"/>
       <use xlink:href="#DejaVuSans-41" x="290.285156"/>
       <use xlink:href="#DejaVuSans-52" x="358.693359"/>
      </g>
     </g>
    </g>
    <g id="ytick_10">
     <g id="line2d_48">
      <g>
       <use xlink:href="#mcb65f440b5" x="62.8" y="226.936853" style="stroke: #000000; stroke-width: 0.8"/>
      </g>
     </g>
     <g id="text_22">
      <!-- GO-CFAR -->
      <g transform="translate(10.685938 230.736071) scale(0.1 -0.1)">
       <use xlink:href="#DejaVuSans-47"/>
       <use xlink:href="#DejaVuSans-4f" x="77.490234"/>
       <use xlink:href="#DejaVuSans-2d" x="158.951172"/>
       <use xlink:href="#DejaVuSans-43" x="195.035156"/>
       <use xlink:href="#DejaVuSans-46" x="264.859375"/>
       <use xlink:href="#DejaVuSans-41" x="313.253906"/>
       <use xlink:href="#DejaVuSans-52" x="381.662109"/>
      </g>
     </g>
    </g>
    <g id="ytick_11">
     <g id="line2d_49">
      <g>
       <use xlink:href="#mcb65f440b5" x="62.8" y="210.32542" style="stroke: #000000; stroke-width: 0.8"/>
      </g>
     </g>
     <g id="text_23">
      <!-- SO-CFAR -->
      <g transform="translate(12.085938 214.124639) scale(0.1 -0.1)">
       <use xlink:href="#DejaVuSans-53"/>
       <use xlink:href="#DejaVuSans-4f" x="63.476562"/>
       <use xlink:href="#DejaVuSans-2d" x="144.9375"/>
       <use xlink:href="#DejaVuSans-43" x="181.021484"/>
       <use xlink:href="#DejaVuSans-46" x="250.845703"/>
       <use xlink:href="#DejaVuSans-41" x="299.240234"/>
       <use xlink:href="#DejaVuSans-52" x="367.648438"/>
      </g>
     </g>
    </g>
    <g id="ytick_12">
     <g id="line2d_50">
      <g>
       <use xlink:href="#mcb65f440b5" x="62.8" y="193.713988" style="stroke: #000000; stroke-width: 0.8"/>
      </g>
     </g>
     <g id="text_24">
      <!-- OS-CFAR -->
      <g transform="translate(12.360937 197.513206) scale(0.1 -0.1)">
       <use xlink:href="#DejaVuSans-4f"/>
       <use xlink:href="#DejaVuSans-53" x="78.710938"/>
       <use xlink:href="#DejaVuSans-2d" x="142.1875"/>
       <use xlink:href="#DejaVuSans-43" x="178.271484"/>
       <use xlink:href="#DejaVuSans-46" x="248.095703"/>
       <use xlink:href="#DejaVuSans-41" x="296.490234"/>
       <use xlink:href="#DejaVuSans-52" x="364.898438"/>
      </g>
     </g>
    </g>
   </g>
   <g id="patch_9">
    <path d="M 62.8 246.04 
L 62.8 191.222273 
" style="fill: none; stroke: #000000; stroke-width: 0.8; stroke-linejoin: miter; stroke-linecap: square"/>
   </g>
   <g id="patch_10">
    <path d="M 493.2 246.04 
L 493.2 191.222273 
" style="fill: none; stroke: #000000; stroke-width: 0.8; stroke-linejoin: miter; stroke-linecap: square"/>
   </g>
   <g id="patch_11">
    <path d="M 62.8 246.04 
L 493.2 246.04 
" style="fill: none; stroke: #000000; stroke-width: 0.8; stroke-linejoin: miter; stroke-linecap: square"/>
   </g>
   <g id="patch_12">
    <path d="M 62.8 191.222273 
L 493.2 191.222273 
" style="fill: none; stroke: #000000; stroke-width: 0.8; stroke-linejoin: miter; stroke-linecap: square"/>
   </g>
  </g>
 </g>
 <defs>
  <clipPath id="p9577ec7503">
   <rect x="62.8" y="10.8" width="430.4" height="164.453182"/>
  </clipPath>
  <clipPath id="pae5bae04a8">
   <rect x="62.8" y="191.222273" width="430.4" height="54.817727"/>
  </clipPath>
 </defs>
</svg>
