<?xml version="1.0" encoding="utf-8" standalone="no"?>
<!DOCTYPE svg PUBLIC "-//W3C//DTD SVG 1.1//EN"
  "http://www.w3.org/Graphics/SVG/1.1/DTD/svg11.dtd">
<svg xmlns:xlink="http://www.w3.org/1999/xlink" width="460.8pt" height="345.6pt" viewBox="0 0 460.8 345.6" xmlns="http://www.w3.org/2000/svg" version="1.1">
 <metadata>
  <rdf:RDF xmlns:dc="http://purl.org/dc/elements/1.1/" xmlns:cc="http://creativecommons.org/ns#" xmlns:rdf="http://www.w3.org/1999/02/22-rdf-syntax-ns#">
   <cc:Work>
    <dc:type rdf:resource="http://purl.org/dc/dcmitype/StillImage"/>
    <dc:date>2026-02-09T16:38:59.340454</dc:date>
    <dc:format>image/svg+xml</dc:format>
    <dc:creator>
     <cc:Agent>
      <dc:title>Matplotlib v3.7.5, https://matplotlib.org/</dc:title>
     </cc:Agent>
    </dc:creator>
   </cc:Work>
  </rdf:RDF>
 </metadata>
 <defs>
  <style type="text/css">*{stroke-linejoin: round; stroke-linecap: butt}</style>
 </defs>
 <g id="figure_1">
  <g id="patch_1">
   <path d="M 0 345.6 
L 460.8 345.6 
L 460.8 0 
L 0 0 
z
" style="fill: #ffffff"/>
  </g>
  <g id="axes_1">
   <g id="patch_2">
    <path d="M 57.6 307.584 
L 414.72 307.584 
L 414.72 41.472 
L 57.6 41.472 
z
" style="fill: #ffffff"/>
   </g>
   <g id="matplotlib.axis_1">
    <g id="xtick_1">
     <g id="line2d_1">
      <path d="M 73.832727 307.584 
L 73.832727 41.472 
" clip-path="url(#p9b6e593dc6)" style="fill: none; stroke: #b0b0b0; stroke-width: 0.8; stroke-linecap: square"/>
     </g>
     <g id="line2d_2">
      <defs>
       <path id="m9eed85fbcc" d="M 0 0 
L 0 3.5 
" style="stroke: #000000; stroke-width: 0.8"/>
      </defs>
      <g>
       <use xlink:href="#m9eed85fbcc" x="73.832727" y="307.584" style="stroke: #000000; stroke-width: 0.8"/>
      </g>
     </g>
     <g id="text_1">
      <!-- 0 -->
      <g transform="translate(70.651477 322.182437) scale(0.1 -0.1)">
       <defs>
        <path id="DejaVuSans-30" d="M 2034 4250 
Q 1547 4250 1301 3770 
Q 1056 3291 1056 2328 
Q 1056 1369 1301 889 
Q 1547 409 2034 409 
Q 2525 409 2770 889 
Q 3016 1369 3016 2328 
Q 3016 3291 2770 3770 
Q 2525 4250 2034 4250 
z
M 2034 4750 
Q 2819 4750 3233 4129 
Q 3647 3509 3647 2328 
Q 3647 1150 3233 529 
Q 2819 -91 2034 -91 
Q 1250 -91 836 529 
Q 422 1150 422 2328 
Q 422 3509 836 4129 
Q 1250 4750 2034 4750 
z
" transform="scale(0.015625)"/>
       </defs>
       <use xlink:href="#DejaVuSans-30"/>
      </g>
     </g>
    </g>
    <g id="xtick_2">
     <g id="line2d_3">
      <path d="M 137.490481 307.584 
L 137.490481 41.472 
" clip-path="url(#p9b6e593dc6)" style="fill: none; stroke: #b0b0b0; stroke-width: 0.8; stroke-linecap: square"/>
     </g>
     <g id="line2d_4">
      <g>
       <use xlink:href="#m9eed85fbcc" x="137.490481" y="307.584" style="stroke: #000000; stroke-width: 0.8"/>
      </g>
     </g>
     <g id="text_2">
      <!-- 50 -->
      <g transform="translate(131.127981 322.182437) scale(0.1 -0.1)">
       <defs>
        <path id="DejaVuSans-35" d="M 691 4666 
L 3169 4666 
L 3169 4134 
L 1269 4134 
L 1269 2991 
Q 1406 3038 1543 3061 
Q 1681 3084 1819 3084 
Q 2600 3084 3056 2656 
Q 3513 2228 3513 1497 
Q 3513 744 3044 326 
Q 2575 -91 1722 -91 
Q 1428 -91 1123 -41 
Q 819 9 494 109 
L 494 744 
Q 775 591 1075 516 
Q 1375 441 1709 441 
Q 2250 441 2565 725 
Q 2881 1009 2881 1497 
Q 2881 1984 2565 2268 
Q 2250 2553 1709 2553 
Q 1456 2553 1204 2497 
Q 953 2441 691 2322 
L 691 4666 
z
" transform="scale(0.015625)"/>
       </defs>
       <use xlink:href="#DejaVuSans-35"/>
       <use xlink:href="#DejaVuSans-30" x="63.623047"/>
      </g>
     </g>
    </g>
    <g id="xtick_3">
     <g id="line2d_5">
      <path d="M 201.148235 307.584 
L 201.148235 41.472 
" clip-path="url(#p9b6e593dc6)" style="fill: none; stroke: #b0b0b0; stroke-width: 0.8; stroke-linecap: square"/>
     </g>
     <g id="line2d_6">
      <g>
       <use xlink:href="#m9eed85fbcc" x="201.148235" y="307.584" style="stroke: #000000; stroke-width: 0.8"/>
      </g>
     </g>
     <g id="text_3">
      <!-- 100 -->
      <g transform="translate(191.604485 322.182437) scale(0.1 -0.1)">
       <defs>
        <path id="DejaVuSans-31" d="M 794 531 
L 1825 531 
L 1825 4091 
L 703 3866 
L 703 4441 
L 1819 4666 
L 2450 4666 
L 2450 531 
L 3481 531 
L 3481 0 
L 794 0 
L 794 531 
z
" transform="scale(0.015625)"/>
       </defs>
       <use xlink:href="#DejaVuSans-31"/>
       <use xlink:href="#DejaVuSans-30" x="63.623047"/>
       <use xlink:href="#DejaVuSans-30" x="127.246094"/>
      </g>
     </g>
    </g>
    <g id="xtick_4">
     <g id="line2d_7">
      <path d="M 264.805989 307.584 
L 264.805989 41.472 
" clip-path="url(#p9b6e593dc6)" style="fill: none; stroke: #b0b0b0; stroke-width: 0.8; stroke-linecap: square"/>
     </g>
     <g id="line2d_8">
      <g>
       <use xlink:href="#m9eed85fbcc" x="264.805989" y="307.584" style="stroke: #000000; stroke-width: 0.8"/>
      </g>
     </g>
     <g id="text_4">
      <!-- 150 -->
      <g transform="translate(255.262239 322.182437) scale(0.1 -0.1)">
       <use xlink:href="#DejaVuSans-31"/>
       <use xlink:href="#DejaVuSans-35" x="63.623047"/>
       <use xlink:href="#DejaVuSans-30" x="127.246094"/>
      </g>
     </g>
    </g>
    <g id="xtick_5">
     <g id="line2d_9">
      <path d="M 328.463743 307.584 
L 328.463743 41.472 
" clip-path="url(#p9b6e593dc6)" style="fill: none; stroke: #b0b0b0; stroke-width: 0.8; stroke-linecap: square"/>
     </g>
     <g id="line2d_10">
      <g>
       <use xlink:href="#m9eed85fbcc" x="328.463743" y="307.584" style="stroke: #000000; stroke-width: 0.8"/>
      </g>
     </g>
     <g id="text_5">
      <!-- 200 -->
      <g transform="translate(318.919993 322.182437) scale(0.1 -0.1)">
       <defs>
        <path id="DejaVuSans-32" d="M 1228 531 
L 3431 531 
L 3431 0 
L 469 0 
L 469 531 
Q 828 903 1448 1529 
Q 2069 2156 2228 2338 
Q 2531 2678 2651 2914 
Q 2772 3150 2772 3378 
Q 2772 3750 2511 3984 
Q 2250 4219 1831 4219 
Q 1534 4219 1204 4116 
Q 875 4013 500 3803 
L 500 4441 
Q 881 4594 1212 4672 
Q 1544 4750 1819 4750 
Q 2544 4750 2975 4387 
Q 3406 4025 3406 3419 
Q 3406 3131 3298 2873 
Q 3191 2616 2906 2266 
Q 2828 2175 2409 1742 
Q 1991 1309 1228 531 
z
" transform="scale(0.015625)"/>
       </defs>
       <use xlink:href="#DejaVuSans-32"/>
       <use xlink:href="#DejaVuSans-30" x="63.623047"/>
       <use xlink:href="#DejaVuSans-30" x="127.246094"/>
      </g>
     </g>
    </g>
    <g id="xtick_6">
     <g id="line2d_11">
      <path d="M 392.121497 307.584 
L 392.121497 41.472 
" clip-path="url(#p9b6e593dc6)" style="fill: none; stroke: #b0b0b0; stroke-width: 0.8; stroke-linecap: square"/>
     </g>
     <g id="line2d_12">
      <g>
       <use xlink:href="#m9eed85fbcc" x="392.121497" y="307.584" style="stroke: #000000; stroke-width: 0.8"/>
      </g>
     </g>
     <g id="text_6">
      <!-- 250 -->
      <g transform="translate(382.577747 322.182437) scale(0.1 -0.1)">
       <use xlink:href="#DejaVuSans-32"/>
       <use xlink:href="#DejaVuSans-35" x="63.623047"/>
       <use xlink:href="#DejaVuSans-30" x="127.246094"/>
      </g>
     </g>
    </g>
    <g id="text_7">
     <!-- Sample index -->
     <g transform="translate(202.142031 335.860562) scale(0.1 -0.1)">
      <defs>
       <path id="DejaVuSans-53" d="M 3425 4513 
L 3425 3897 
Q 3066 4069 2747 4153 
Q 2428 4238 2131 4238 
Q 1616 4238 1336 4038 
Q 1056 3838 1056 3469 
Q 1056 3159 1242 3001 
Q 1428 2844 1947 2747 
L 2328 2669 
Q 3034 2534 3370 2195 
Q 3706 1856 3706 1288 
Q 3706 609 3251 259 
Q 2797 -91 1919 -91 
Q 1588 -91 1214 -16 
Q 841 59 441 206 
L 441 856 
Q 825 641 1194 531 
Q 1563 422 1919 422 
Q 2459 422 2753 634 
Q 3047 847 3047 1241 
Q 3047 1584 2836 1778 
Q 2625 1972 2144 2069 
L 1759 2144 
Q 1053 2284 737 2584 
Q 422 2884 422 3419 
Q 422 4038 858 4394 
Q 1294 4750 2059 4750 
Q 2388 4750 2728 4690 
Q 3069 4631 3425 4513 
z
" transform="scale(0.015625)"/>
       <path id="DejaVuSans-61" d="M 2194 1759 
Q 1497 1759 1228 1600 
Q 959 1441 959 1056 
Q 959 750 1161 570 
Q 1363 391 1709 391 
Q 2188 391 2477 730 
Q 2766 1069 2766 1631 
L 2766 1759 
L 2194 1759 
z
M 3341 1997 
L 3341 0 
L 2766 0 
L 2766 531 
Q 2569 213 2275 61 
Q 1981 -91 1556 -91 
Q 1019 -91 701 211 
Q 384 513 384 1019 
Q 384 1609 779 1909 
Q 1175 2209 1959 2209 
L 2766 2209 
L 2766 2266 
Q 2766 2663 2505 2880 
Q 2244 3097 1772 3097 
Q 1472 3097 1187 3025 
Q 903 2953 641 2809 
L 641 3341 
Q 956 3463 1253 3523 
Q 1550 3584 1831 3584 
Q 2591 3584 2966 3190 
Q 3341 2797 3341 1997 
z
" transform="scale(0.015625)"/>
       <path id="DejaVuSans-6d" d="M 3328 2828 
Q 3544 3216 3844 3400 
Q 4144 3584 4550 3584 
Q 5097 3584 5394 3201 
Q 5691 2819 5691 2113 
L 5691 0 
L 5113 0 
L 5113 2094 
Q 5113 2597 4934 2840 
Q 4756 3084 4391 3084 
Q 3944 3084 3684 2787 
Q 3425 2491 3425 1978 
L 3425 0 
L 2847 0 
L 2847 2094 
Q 2847 2600 2669 2842 
Q 2491 3084 2119 3084 
Q 1678 3084 1418 2786 
Q 1159 2488 1159 1978 
L 1159 0 
L 581 0 
L 581 3500 
L 1159 3500 
L 1159 2956 
Q 1356 3278 1631 3431 
Q 1906 3584 2284 3584 
Q 2666 3584 2933 3390 
Q 3200 3197 3328 2828 
z
" transform="scale(0.015625)"/>
       <path id="DejaVuSans-70" d="M 1159 525 
L 1159 -1331 
L 581 -1331 
L 581 3500 
L 1159 3500 
L 1159 2969 
Q 1341 3281 1617 3432 
Q 1894 3584 2278 3584 
Q 2916 3584 3314 3078 
Q 3713 2572 3713 1747 
Q 3713 922 3314 415 
Q 2916 -91 2278 -91 
Q 1894 -91 1617 61 
Q 1341 213 1159 525 
z
M 3116 1747 
Q 3116 2381 2855 2742 
Q 2594 3103 2138 3103 
Q 1681 3103 1420 2742 
Q 1159 2381 1159 1747 
Q 1159 1113 1420 752 
Q 1681 391 2138 391 
Q 2594 391 2855 752 
Q 3116 1113 3116 1747 
z
" transform="scale(0.015625)"/>
       <path id="DejaVuSans-6c" d="M 603 4863 
L 1178 4863 
L 1178 0 
L 603 0 
L 603 4863 
z
" transform="scale(0.015625)"/>
       <path id="DejaVuSans-65" d="M 3597 1894 
L 3597 1613 
L 953 1613 
Q 991 1019 1311 708 
Q 1631 397 2203 397 
Q 2534 397 2845 478 
Q 3156 559 3463 722 
L 3463 178 
Q 3153 47 2828 -22 
Q 2503 -91 2169 -91 
Q 1331 -91 842 396 
Q 353 884 353 1716 
Q 353 2575 817 3079 
Q 1281 3584 2069 3584 
Q 2775 3584 3186 3129 
Q 3597 2675 3597 1894 
z
M 3022 2063 
Q 3016 2534 2758 2815 
Q 2500 3097 2075 3097 
Q 1594 3097 1305 2825 
Q 1016 2553 972 2059 
L 3022 2063 
z
" transform="scale(0.015625)"/>
       <path id="DejaVuSans-20" transform="scale(0.015625)"/>
       <path id="DejaVuSans-69" d="M 603 3500 
L 1178 3500 
L 1178 0 
L 603 0 
L 603 3500 
z
M 603 4863 
L 1178 4863 
L 1178 4134 
L 603 4134 
L 603 4863 
z
" transform="scale(0.015625)"/>
       <path id="DejaVuSans-6e" d="M 3513 2113 
L 3513 0 
L 2938 0 
L 2938 2094 
Q 2938 2591 2744 2837 
Q 2550 3084 2163 3084 
Q 1697 3084 1428 2787 
Q 1159 2491 1159 1978 
L 1159 0 
L 581 0 
L 581 3500 
L 1159 3500 
L 1159 2956 
Q 1366 3272 1645 3428 
Q 1925 3584 2291 3584 
Q 2894 3584 3203 3211 
Q 3513 2838 3513 2113 
z
" transform="scale(0.015625)"/>
       <path id="DejaVuSans-64" d="M 2906 2969 
L 2906 4863 
L 3481 4863 
L 3481 0 
L 2906 0 
L 2906 525 
Q 2725 213 2448 61 
Q 2172 -91 1784 -91 
Q 1150 -91 751 415 
Q 353 922 353 1747 
Q 353 2572 751 3078 
Q 1150 3584 1784 3584 
Q 2172 3584 2448 3432 
Q 2725 3281 2906 2969 
z
M 947 1747 
Q 947 1113 1208 752 
Q 1469 391 1925 391 
Q 2381 391 2643 752 
Q 2906 1113 2906 1747 
Q 2906 2381 2643 2742 
Q 2381 3103 1925 3103 
Q 1469 3103 1208 2742 
Q 947 2381 947 1747 
z
" transform="scale(0.015625)"/>
       <path id="DejaVuSans-78" d="M 3513 3500 
L 2247 1797 
L 3578 0 
L 2900 0 
L 1881 1375 
L 863 0 
L 184 0 
L 1544 1831 
L 300 3500 
L 978 3500 
L 1906 2253 
L 2834 3500 
L 3513 3500 
z
" transform="scale(0.015625)"/>
      </defs>
      <use xlink:href="#DejaVuSans-53"/>
      <use xlink:href="#DejaVuSans-61" x="63.476562"/>
      <use xlink:href="#DejaVuSans-6d" x="124.755859"/>
      <use xlink:href="#DejaVuSans-70" x="222.167969"/>
      <use xlink:href="#DejaVuSans-6c" x="285.644531"/>
      <use xlink:href="#DejaVuSans-65" x="313.427734"/>
      <use xlink:href="#DejaVuSans-20" x="374.951172"/>
      <use xlink:href="#DejaVuSans-69" x="406.738281"/>
      <use xlink:href="#DejaVuSans-6e" x="434.521484"/>
      <use xlink:href="#DejaVuSans-64" x="497.900391"/>
      <use xlink:href="#DejaVuSans-65" x="561.376953"/>
      <use xlink:href="#DejaVuSans-78" x="621.150391"/>
     </g>
    </g>
   </g>
   <g id="matplotlib.axis_2">
    <g id="ytick_1">
     <g id="line2d_13">
      <path d="M 57.6 304.984309 
L 414.72 304.984309 
" clip-path="url(#p9b6e593dc6)" style="fill: none; stroke: #b0b0b0; stroke-width: 0.8; stroke-linecap: square"/>
     </g>
     <g id="line2d_14">
      <defs>
       <path id="m2ceab190f6" d="M 0 0 
L -3.5 0 
" style="stroke: #000000; stroke-width: 0.8"/>
      </defs>
      <g>
       <use xlink:href="#m2ceab190f6" x="57.6" y="304.984309" style="stroke: #000000; stroke-width: 0.8"/>
      </g>
     </g>
     <g id="text_8">
      <!-- −1.5 -->
      <g transform="translate(26.317187 308.783528) scale(0.1 -0.1)">
       <defs>
        <path id="DejaVuSans-2212" d="M 678 2272 
L 4684 2272 
L 4684 1741 
L 678 1741 
L 678 2272 
z
" transform="scale(0.015625)"/>
        <path id="DejaVuSans-2e" d="M 684 794 
L 1344 794 
L 1344 0 
L 684 0 
L 684 794 
z
" transform="scale(0.015625)"/>
       </defs>
       <use xlink:href="#DejaVuSans-2212"/>
       <use xlink:href="#DejaVuSans-31" x="83.789062"/>
       <use xlink:href="#DejaVuSans-2e" x="147.412109"/>
       <use xlink:href="#DejaVuSans-35" x="179.199219"/>
      </g>
     </g>
    </g>
    <g id="ytick_2">
     <g id="line2d_15">
      <path d="M 57.6 262.098319 
L 414.72 262.098319 
" clip-path="url(#p9b6e593dc6)" style="fill: none; stroke: #b0b0b0; stroke-width: 0.8; stroke-linecap: square"/>
     </g>
     <g id="line2d_16">
      <g>
       <use xlink:href="#m2ceab190f6" x="57.6" y="262.098319" style="stroke: #000000; stroke-width: 0.8"/>
      </g>
     </g>
     <g id="text_9">
      <!-- −1.0 -->
      <g transform="translate(26.317187 265.897538) scale(0.1 -0.1)">
       <use xlink:href="#DejaVuSans-2212"/>
       <use xlink:href="#DejaVuSans-31" x="83.789062"/>
       <use xlink:href="#DejaVuSans-2e" x="147.412109"/>
       <use xlink:href="#DejaVuSans-30" x="179.199219"/>
      </g>
     </g>
    </g>
    <g id="ytick_3">
     <g id="line2d_17">
      <path d="M 57.6 219.212329 
L 414.72 219.212329 
" clip-path="url(#p9b6e593dc6)" style="fill: none; stroke: #b0b0b0; stroke-width: 0.8; stroke-linecap: square"/>
     </g>
     <g id="line2d_18">
      <g>
       <use xlink:href="#m2ceab190f6" x="57.6" y="219.212329" style="stroke: #000000; stroke-width: 0.8"/>
      </g>
     </g>
     <g id="text_10">
      <!-- −0.5 -->
      <g transform="translate(26.317187 223.011548) scale(0.1 -0.1)">
       <use xlink:href="#DejaVuSans-2212"/>
       <use xlink:href="#DejaVuSans-30" x="83.789062"/>
       <use xlink:href="#DejaVuSans-2e" x="147.412109"/>
       <use xlink:href="#DejaVuSans-35" x="179.199219"/>
      </g>
     </g>
    </g>
    <g id="ytick_4">
     <g id="line2d_19">
      <path d="M 57.6 176.326339 
L 414.72 176.326339 
" clip-path="url(#p9b6e593dc6)" style="fill: none; stroke: #b0b0b0; stroke-width: 0.8; stroke-linecap: square"/>
     </g>
     <g id="line2d_20">
      <g>
       <use xlink:href="#m2ceab190f6" x="57.6" y="176.326339" style="stroke: #000000; stroke-width: 0.8"/>
      </g>
     </g>
     <g id="text_11">
      <!-- 0.0 -->
      <g transform="translate(34.696875 180.125558) scale(0.1 -0.1)">
       <use xlink:href="#DejaVuSans-30"/>
       <use xlink:href="#DejaVuSans-2e" x="63.623047"/>
       <use xlink:href="#DejaVuSans-30" x="95.410156"/>
      </g>
     </g>
    </g>
    <g id="ytick_5">
     <g id="line2d_21">
      <path d="M 57.6 133.440349 
L 414.72 133.440349 
" clip-path="url(#p9b6e593dc6)" style="fill: none; stroke: #b0b0b0; stroke-width: 0.8; stroke-linecap: square"/>
     </g>
     <g id="line2d_22">
      <g>
       <use xlink:href="#m2ceab190f6" x="57.6" y="133.440349" style="stroke: #000000; stroke-width: 0.8"/>
      </g>
     </g>
     <g id="text_12">
      <!-- 0.5 -->
      <g transform="translate(34.696875 137.239568) scale(0.1 -0.1)">
       <use xlink:href="#DejaVuSans-30"/>
       <use xlink:href="#DejaVuSans-2e" x="63.623047"/>
       <use xlink:href="#DejaVuSans-35" x="95.410156"/>
      </g>
     </g>
    </g>
    <g id="ytick_6">
     <g id="line2d_23">
      <path d="M 57.6 90.554359 
L 414.72 90.554359 
" clip-path="url(#p9b6e593dc6)" style="fill: none; stroke: #b0b0b0; stroke-width: 0.8; stroke-linecap: square"/>
     </g>
     <g id="line2d_24">
      <g>
       <use xlink:href="#m2ceab190f6" x="57.6" y="90.554359" style="stroke: #000000; stroke-width: 0.8"/>
      </g>
     </g>
     <g id="text_13">
      <!-- 1.0 -->
      <g transform="translate(34.696875 94.353578) scale(0.1 -0.1)">
       <use xlink:href="#DejaVuSans-31"/>
       <use xlink:href="#DejaVuSans-2e" x="63.623047"/>
       <use xlink:href="#DejaVuSans-30" x="95.410156"/>
      </g>
     </g>
    </g>
    <g id="ytick_7">
     <g id="line2d_25">
      <path d="M 57.6 47.668369 
L 414.72 47.668369 
" clip-path="url(#p9b6e593dc6)" style="fill: none; stroke: #b0b0b0; stroke-width: 0.8; stroke-linecap: square"/>
     </g>
     <g id="line2d_26">
      <g>
       <use xlink:href="#m2ceab190f6" x="57.6" y="47.668369" style="stroke: #000000; stroke-width: 0.8"/>
      </g>
     </g>
     <g id="text_14">
      <!-- 1.5 -->
      <g transform="translate(34.696875 51.467588) scale(0.1 -0.1)">
       <use xlink:href="#DejaVuSans-31"/>
       <use xlink:href="#DejaVuSans-2e" x="63.623047"/>
       <use xlink:href="#DejaVuSans-35" x="95.410156"/>
      </g>
     </g>
    </g>
   </g>
   <g id="line2d_27">
    <path d="M 73.832727 53.568 
L 75.105882 118.129467 
L 76.379037 230.104316 
L 77.652193 295.08521 
L 78.925348 241.009164 
L 80.198503 145.413014 
L 81.471658 59.543845 
L 82.744813 105.618872 
L 84.017968 203.943293 
L 85.291123 278.754254 
L 86.564278 247.406294 
L 89.110588 87.147868 
L 90.383743 99.581772 
L 91.656898 175.184316 
L 92.930053 258.26046 
L 94.203209 254.094568 
L 95.476364 189.038121 
L 96.749519 114.437006 
L 98.022674 100.558694 
L 100.568984 215.895451 
L 101.842139 239.650203 
L 103.115294 206.568095 
L 104.388449 146.443059 
L 105.661604 120.310208 
L 106.934759 134.387887 
L 108.207914 187.199327 
L 109.48107 226.238542 
L 110.754225 225.069538 
L 112.02738 191.747912 
L 113.300535 141.108802 
L 114.57369 121.467676 
L 115.846845 148.575358 
L 117.12 202.958597 
L 118.393155 239.02075 
L 119.66631 230.481875 
L 122.21262 103.812797 
L 123.485775 107.234073 
L 124.75893 172.171699 
L 126.032086 246.14575 
L 127.305241 260.077394 
L 129.851551 111.606445 
L 131.124706 86.195093 
L 132.397861 141.464215 
L 133.671016 228.259328 
L 134.944171 278.326057 
L 136.217326 221.27794 
L 137.490481 119.570563 
L 138.763636 68.600645 
L 140.036791 121.291012 
L 141.309947 226.112096 
L 142.583102 290.06775 
L 143.856257 244.475329 
L 145.129412 133.077816 
L 146.402567 59.082207 
L 147.675722 95.658423 
L 148.948877 202.384448 
L 150.222032 290.015018 
L 151.495187 256.934036 
L 152.768342 154.896866 
L 154.041497 73.059541 
L 155.314652 84.179004 
L 156.587807 184.782223 
L 157.860963 267.181263 
L 159.134118 261.312484 
L 160.407273 170.026519 
L 161.680428 98.108562 
L 162.953583 92.26032 
L 164.226738 164.47101 
L 165.499893 246.021855 
L 166.773048 258.88995 
L 168.046203 199.322563 
L 169.319358 130.359859 
L 170.592513 97.865878 
L 171.865668 139.041155 
L 173.138824 212.776451 
L 174.411979 243.837942 
L 175.685134 219.153247 
L 176.958289 157.912641 
L 178.231444 115.949746 
L 179.504599 126.056695 
L 182.050909 222.286405 
L 183.324064 232.644508 
L 184.597219 192.531703 
L 185.870374 143.976695 
L 187.143529 114.964746 
L 188.416684 135.485269 
L 189.68984 191.594327 
L 190.962995 235.587179 
L 192.23615 231.506398 
L 194.78246 119.174478 
L 196.055615 110.224107 
L 197.32877 159.140915 
L 198.601925 233.050832 
L 199.87508 254.017476 
L 201.148235 211.573051 
L 202.42139 121.583091 
L 203.694545 83.193525 
L 204.967701 124.899858 
L 206.240856 224.284416 
L 207.514011 275.039149 
L 208.787166 236.338932 
L 210.060321 144.821871 
L 211.333476 72.884326 
L 212.606631 100.366903 
L 213.879786 208.96667 
L 215.152941 281.684091 
L 216.426096 259.084264 
L 218.972406 69.045313 
L 220.245561 87.393896 
L 222.791872 285.09471 
L 224.065027 271.594848 
L 226.611337 81.40174 
L 227.884492 76.897914 
L 229.157647 156.872959 
L 230.430802 253.460575 
L 231.703957 286.774993 
L 234.250267 95.592217 
L 235.523422 75.634815 
L 236.796578 148.69944 
L 238.069733 232.564677 
L 239.342888 270.206924 
L 240.616043 219.528653 
L 241.889198 137.054362 
L 243.162353 89.74343 
L 244.435508 125.868656 
L 245.708663 207.031347 
L 246.981818 246.921843 
L 248.254973 233.121361 
L 249.528128 162.008286 
L 250.801283 116.893696 
L 252.074439 122.190295 
L 254.620749 216.412871 
L 255.893904 229.205281 
L 257.167059 197.380366 
L 258.440214 148.735772 
L 259.713369 120.666829 
L 260.986524 134.285044 
L 262.259679 184.599674 
L 263.532834 226.040288 
L 264.805989 231.799489 
L 266.079144 195.63847 
L 267.352299 123.745556 
L 268.625455 99.775725 
L 269.89861 147.533288 
L 271.171765 218.678408 
L 272.44492 255.025264 
L 273.718075 221.135426 
L 274.99123 142.020535 
L 276.264385 94.464601 
L 277.53754 117.985392 
L 278.810695 205.903046 
L 280.08385 267.88672 
L 281.357005 252.802377 
L 282.63016 158.779456 
L 283.903316 81.245759 
L 285.176471 84.294411 
L 286.449626 180.33268 
L 287.722781 263.149124 
L 288.995936 282.43619 
L 290.269091 184.956349 
L 291.542246 78.64865 
L 292.815401 60.061488 
L 295.361711 264.852264 
L 296.634866 287.202955 
L 297.908021 197.426733 
L 299.181176 96.455455 
L 300.454332 62.125849 
L 301.727487 141.413365 
L 303.000642 253.017376 
L 304.273797 284.48065 
L 305.546952 218.820217 
L 306.820107 111.358969 
L 308.093262 72.214242 
L 309.366417 127.350185 
L 310.639572 219.949558 
L 311.912727 271.963274 
L 313.185882 232.077398 
L 314.459037 145.14697 
L 315.732193 85.38793 
L 317.005348 114.291187 
L 318.278503 184.390922 
L 319.551658 244.319538 
L 320.824813 235.475109 
L 322.097968 182.589846 
L 323.371123 116.319099 
L 324.644278 113.068565 
L 325.917433 158.252316 
L 327.190588 212.237449 
L 328.463743 236.929063 
L 329.736898 202.045348 
L 332.283209 113.624137 
L 333.556364 139.210418 
L 336.102674 231.289867 
L 337.375829 235.078806 
L 338.648984 197.061414 
L 339.922139 128.171246 
L 341.195294 112.498824 
L 342.468449 147.414411 
L 345.014759 252.271074 
L 346.287914 234.115745 
L 347.56107 153.0751 
L 348.834225 94.331144 
L 350.10738 109.322771 
L 351.380535 178.253588 
L 352.65369 258.533414 
L 353.926845 252.74201 
L 355.2 178.197578 
L 356.473155 85.96416 
L 357.74631 80.346654 
L 360.29262 247.900655 
L 361.565775 283.66462 
L 362.83893 205.040779 
L 364.112086 101.281041 
L 365.385241 65.663315 
L 366.658396 136.348414 
L 367.931551 247.204842 
L 369.204706 288.422708 
L 370.477861 217.600958 
L 371.751016 113.456286 
L 373.024171 66.531563 
L 374.297326 123.800336 
L 375.570481 232.440668 
L 376.843636 295.488 
L 378.116791 237.338304 
L 379.389947 136.768816 
L 380.663102 71.949098 
L 381.936257 106.758428 
L 383.209412 211.379729 
L 384.482567 276.466008 
L 385.755722 245.919017 
L 387.028877 157.905394 
L 388.302032 93.779457 
L 389.575187 95.404312 
L 390.848342 184.148934 
L 392.121497 247.861355 
L 393.394652 248.85102 
L 394.667807 199.45932 
L 395.940963 114.338639 
L 397.214118 107.120515 
L 398.487273 156.849708 
L 398.487273 156.849708 
" clip-path="url(#p9b6e593dc6)" style="fill: none; stroke: #1f77b4; stroke-width: 1.5; stroke-linecap: square"/>
   </g>
   <g id="line2d_28">
    <path d="M 73.832727 176.326339 
L 77.652193 176.209225 
L 81.471658 175.858522 
L 85.291123 175.276145 
L 89.110588 174.465276 
L 92.930053 173.430344 
L 96.749519 172.176999 
L 100.568984 170.712089 
L 104.388449 169.043613 
L 108.207914 167.180684 
L 113.300535 164.41203 
L 118.393155 161.342759 
L 123.485775 158.002662 
L 128.578396 154.42416 
L 134.944171 149.668881 
L 142.583102 143.644435 
L 152.768342 135.289015 
L 168.046203 122.72387 
L 175.685134 116.723996 
L 182.050909 111.997354 
L 187.143529 108.446797 
L 192.23615 105.138832 
L 197.32877 102.105566 
L 202.42139 99.376441 
L 206.240856 97.545242 
L 210.060321 95.910091 
L 213.879786 94.479916 
L 217.699251 93.26253 
L 221.518717 92.264582 
L 225.338182 91.491521 
L 229.157647 90.94757 
L 232.977112 90.6357 
L 236.796578 90.557614 
L 240.616043 90.713738 
L 244.435508 91.103221 
L 248.254973 91.723934 
L 252.074439 92.572488 
L 255.893904 93.644248 
L 259.713369 94.93336 
L 263.532834 96.432784 
L 267.352299 98.134331 
L 271.171765 100.028707 
L 276.264385 102.836471 
L 281.357005 105.941281 
L 286.449626 109.313002 
L 291.542246 112.918907 
L 297.908021 117.7021 
L 305.546952 123.750204 
L 317.005348 133.176174 
L 331.010053 144.667595 
L 338.648984 150.641985 
L 345.014759 155.339273 
L 350.10738 158.861346 
L 355.2 162.136677 
L 360.29262 165.133478 
L 365.385241 167.82266 
L 369.204706 169.62185 
L 373.024171 171.223429 
L 376.843636 172.61865 
L 380.663102 173.799893 
L 384.482567 174.760706 
L 388.302032 175.495842 
L 392.121497 176.001285 
L 395.940963 176.274275 
L 398.487273 176.326339 
L 398.487273 176.326339 
" clip-path="url(#p9b6e593dc6)" style="fill: none; stroke: #ff7f0e; stroke-width: 1.5; stroke-linecap: square"/>
   </g>
   <g id="line2d_29">
    <path d="M 73.832727 90.554359 
L 398.487273 90.554359 
L 398.487273 90.554359 
" clip-path="url(#p9b6e593dc6)" style="fill: none; stroke-dasharray: 5.55,2.4; stroke-dashoffset: 0; stroke: #2ca02c; stroke-width: 1.5"/>
   </g>
   <g id="patch_3">
    <path d="M 57.6 307.584 
L 57.6 41.472 
" style="fill: none; stroke: #000000; stroke-width: 0.8; stroke-linejoin: miter; stroke-linecap: square"/>
   </g>
   <g id="patch_4">
    <path d="M 414.72 307.584 
L 414.72 41.472 
" style="fill: none; stroke: #000000; stroke-width: 0.8; stroke-linejoin: miter; stroke-linecap: square"/>
   </g>
   <g id="patch_5">
    <path d="M 57.6 307.584 
L 414.72 307.584 
" style="fill: none; stroke: #000000; stroke-width: 0.8; stroke-linejoin: miter; stroke-linecap: square"/>
   </g>
   <g id="patch_6">
    <path d="M 57.6 41.472 
L 414.72 41.472 
" style="fill: none; stroke: #000000; stroke-width: 0.8; stroke-linejoin: miter; stroke-linecap: square"/>
   </g>
   <g id="text_15">
    <!-- Time domain: noisy samples and window tapers -->
    <g transform="translate(91.614375 35.472) scale(0.12 -0.12)">
     <defs>
      <path id="DejaVuSans-54" d="M -19 4666 
L 3928 4666 
L 3928 4134 
L 2272 4134 
L 2272 0 
L 1638 0 
L 1638 4134 
L -19 4134 
L -19 4666 
z
" transform="scale(0.015625)"/>
      <path id="DejaVuSans-6f" d="M 1959 3097 
Q 1497 3097 1228 2736 
Q 959 2375 959 1747 
Q 959 1119 1226 758 
Q 1494 397 1959 397 
Q 2419 397 2687 759 
Q 2956 1122 2956 1747 
Q 2956 2369 2687 2733 
Q 2419 3097 1959 3097 
z
M 1959 3584 
Q 2709 3584 3137 3096 
Q 3566 2609 3566 1747 
Q 3566 888 3137 398 
Q 2709 -91 1959 -91 
Q 1206 -91 779 398 
Q 353 888 353 1747 
Q 353 2609 779 3096 
Q 1206 3584 1959 3584 
z
" transform="scale(0.015625)"/>
      <path id="DejaVuSans-3a" d="M 750 794 
L 1409 794 
L 1409 0 
L 750 0 
L 750 794 
z
M 750 3309 
L 1409 3309 
L 1409 2516 
L 750 2516 
L 750 3309 
z
" transform="scale(0.015625)"/>
      <path id="DejaVuSans-73" d="M 2834 3397 
L 2834 2853 
Q 2591 2978 2328 3040 
Q 2066 3103 1784 3103 
Q 1356 3103 1142 2972 
Q 928 2841 928 2578 
Q 928 2378 1081 2264 
Q 1234 2150 1697 2047 
L 1894 2003 
Q 2506 1872 2764 1633 
Q 3022 1394 3022 966 
Q 3022 478 2636 193 
Q 2250 -91 1575 -91 
Q 1294 -91 989 -36 
Q 684 19 347 128 
L 347 722 
Q 666 556 975 473 
Q 1284 391 1588 391 
Q 1994 391 2212 530 
Q 2431 669 2431 922 
Q 2431 1156 2273 1281 
Q 2116 1406 1581 1522 
L 1381 1569 
Q 847 1681 609 1914 
Q 372 2147 372 2553 
Q 372 3047 722 3315 
Q 1072 3584 1716 3584 
Q 2034 3584 2315 3537 
Q 2597 3491 2834 3397 
z
" transform="scale(0.015625)"/>
      <path id="DejaVuSans-79" d="M 2059 -325 
Q 1816 -950 1584 -1140 
Q 1353 -1331 966 -1331 
L 506 -1331 
L 506 -850 
L 844 -850 
Q 1081 -850 1212 -737 
Q 1344 -625 1503 -206 
L 1606 56 
L 191 3500 
L 800 3500 
L 1894 763 
L 2988 3500 
L 3597 3500 
L 2059 -325 
z
" transform="scale(0.015625)"/>
      <path id="DejaVuSans-77" d="M 269 3500 
L 844 3500 
L 1563 769 
L 2278 3500 
L 2956 3500 
L 3675 769 
L 4391 3500 
L 4966 3500 
L 4050 0 
L 3372 0 
L 2619 2869 
L 1863 0 
L 1184 0 
L 269 3500 
z
" transform="scale(0.015625)"/>
      <path id="DejaVuSans-74" d="M 1172 4494 
L 1172 3500 
L 2356 3500 
L 2356 3053 
L 1172 3053 
L 1172 1153 
Q 1172 725 1289 603 
Q 1406 481 1766 481 
L 2356 481 
L 2356 0 
L 1766 0 
Q 1100 0 847 248 
Q 594 497 594 1153 
L 594 3053 
L 172 3053 
L 172 3500 
L 594 3500 
L 594 4494 
L 1172 4494 
z
" transform="scale(0.015625)"/>
      <path id="DejaVuSans-72" d="M 2631 2963 
Q 2534 3019 2420 3045 
Q 2306 3072 2169 3072 
Q 1681 3072 1420 2755 
Q 1159 2438 1159 1844 
L 1159 0 
L 581 0 
L 581 3500 
L 1159 3500 
L 1159 2956 
Q 1341 3275 1631 3429 
Q 1922 3584 2338 3584 
Q 2397 3584 2469 3576 
Q 2541 3569 2628 3553 
L 2631 2963 
z
" transform="scale(0.015625)"/>
     </defs>
     <use xlink:href="#DejaVuSans-54"/>
     <use xlink:href="#DejaVuSans-69" x="57.958984"/>
     <use xlink:href="#DejaVuSans-6d" x="85.742188"/>
     <use xlink:href="#DejaVuSans-65" x="183.154297"/>
     <use xlink:href="#DejaVuSans-20" x="244.677734"/>
     <use xlink:href="#DejaVuSans-64" x="276.464844"/>
     <use xlink:href="#DejaVuSans-6f" x="339.941406"/>
     <use xlink:href="#DejaVuSans-6d" x="401.123047"/>
     <use xlink:href="#DejaVuSans-61" x="498.535156"/>
     <use xlink:href="#DejaVuSans-69" x="559.814453"/>
     <use xlink:href="#DejaVuSans-6e" x="587.597656"/>
     <use xlink:href="#DejaVuSans-3a" x="650.976562"/>
     <use xlink:href="#DejaVuSans-20" x="684.667969"/>
     <use xlink:href="#DejaVuSans-6e" x="716.455078"/>
     <use xlink:href="#DejaVuSans-6f" x="779.833984"/>
     <use xlink:href="#DejaVuSans-69" x="841.015625"/>
     <use xlink:href="#DejaVuSans-73" x="868.798828"/>
     <use xlink:href="#DejaVuSans-79" x="920.898438"/>
     <use xlink:href="#DejaVuSans-20" x="980.078125"/>
     <use xlink:href="#DejaVuSans-73" x="1011.865234"/>
     <use xlink:href="#DejaVuSans-61" x="1063.964844"/>
     <use xlink:href="#DejaVuSans-6d" x="1125.244141"/>
     <use xlink:href="#DejaVuSans-70" x="1222.65625"/>
     <use xlink:href="#DejaVuSans-6c" x="1286.132812"/>
     <use xlink:href="#DejaVuSans-65" x="1313.916016"/>
     <use xlink:href="#DejaVuSans-73" x="1375.439453"/>
     <use xlink:href="#DejaVuSans-20" x="1427.539062"/>
     <use xlink:href="#DejaVuSans-61" x="1459.326172"/>
     <use xlink:href="#DejaVuSans-6e" x="1520.605469"/>
     <use xlink:href="#DejaVuSans-64" x="1583.984375"/>
     <use xlink:href="#DejaVuSans-20" x="1647.460938"/>
     <use xlink:href="#DejaVuSans-77" x="1679.248047"/>
     <use xlink:href="#DejaVuSans-69" x="1761.035156"/>
     <use xlink:href="#DejaVuSans-6e" x="1788.818359"/>
     <use xlink:href="#DejaVuSans-64" x="1852.197266"/>
     <use xlink:href="#DejaVuSans-6f" x="1915.673828"/>
     <use xlink:href="#DejaVuSans-77" x="1976.855469"/>
     <use xlink:href="#DejaVuSans-20" x="2058.642578"/>
     <use xlink:href="#DejaVuSans-74" x="2090.429688"/>
     <use xlink:href="#DejaVuSans-61" x="2129.638672"/>
     <use xlink:href="#DejaVuSans-70" x="2190.917969"/>
     <use xlink:href="#DejaVuSans-65" x="2254.394531"/>
     <use xlink:href="#DejaVuSans-72" x="2315.917969"/>
     <use xlink:href="#DejaVuSans-73" x="2357.03125"/>
    </g>
   </g>
   <g id="legend_1">
    <g id="patch_7">
     <path d="M 64.6 302.584 
L 207.1375 302.584 
Q 209.1375 302.584 209.1375 300.584 
L 209.1375 257.549625 
Q 209.1375 255.549625 207.1375 255.549625 
L 64.6 255.549625 
Q 62.6 255.549625 62.6 257.549625 
L 62.6 300.584 
Q 62.6 302.584 64.6 302.584 
z
" style="fill: #ffffff; opacity: 0.8; stroke: #cccccc; stroke-linejoin: miter"/>
    </g>
    <g id="line2d_30">
     <path d="M 66.6 263.648062 
L 76.6 263.648062 
L 86.6 263.648062 
" style="fill: none; stroke: #1f77b4; stroke-width: 1.5; stroke-linecap: square"/>
    </g>
    <g id="text_16">
     <!-- Noisy signal -->
     <g transform="translate(94.6 267.148062) scale(0.1 -0.1)">
      <defs>
       <path id="DejaVuSans-4e" d="M 628 4666 
L 1478 4666 
L 3547 763 
L 3547 4666 
L 4159 4666 
L 4159 0 
L 3309 0 
L 1241 3903 
L 1241 0 
L 628 0 
L 628 4666 
z
" transform="scale(0.015625)"/>
       <path id="DejaVuSans-67" d="M 2906 1791 
Q 2906 2416 2648 2759 
Q 2391 3103 1925 3103 
Q 1463 3103 1205 2759 
Q 947 2416 947 1791 
Q 947 1169 1205 825 
Q 1463 481 1925 481 
Q 2391 481 2648 825 
Q 2906 1169 2906 1791 
z
M 3481 434 
Q 3481 -459 3084 -895 
Q 2688 -1331 1869 -1331 
Q 1566 -1331 1297 -1286 
Q 1028 -1241 775 -1147 
L 775 -588 
Q 1028 -725 1275 -790 
Q 1522 -856 1778 -856 
Q 2344 -856 2625 -561 
Q 2906 -266 2906 331 
L 2906 616 
Q 2728 306 2450 153 
Q 2172 0 1784 0 
Q 1141 0 747 490 
Q 353 981 353 1791 
Q 353 2603 747 3093 
Q 1141 3584 1784 3584 
Q 2172 3584 2450 3431 
Q 2728 3278 2906 2969 
L 2906 3500 
L 3481 3500 
L 3481 434 
z
" transform="scale(0.015625)"/>
      </defs>
      <use xlink:href="#DejaVuSans-4e"/>
      <use xlink:href="#DejaVuSans-6f" x="74.804688"/>
      <use xlink:href="#DejaVuSans-69" x="135.986328"/>
      <use xlink:href="#DejaVuSans-73" x="163.769531"/>
      <use xlink:href="#DejaVuSans-79" x="215.869141"/>
      <use xlink:href="#DejaVuSans-20" x="275.048828"/>
      <use xlink:href="#DejaVuSans-73" x="306.835938"/>
      <use xlink:href="#DejaVuSans-69" x="358.935547"/>
      <use xlink:href="#DejaVuSans-67" x="386.71875"/>
      <use xlink:href="#DejaVuSans-6e" x="450.195312"/>
      <use xlink:href="#DejaVuSans-61" x="513.574219"/>
      <use xlink:href="#DejaVuSans-6c" x="574.853516"/>
     </g>
    </g>
    <g id="line2d_31">
     <path d="M 66.6 278.326188 
L 76.6 278.326188 
L 86.6 278.326188 
" style="fill: none; stroke: #ff7f0e; stroke-width: 1.5; stroke-linecap: square"/>
    </g>
    <g id="text_17">
     <!-- Hann window (scaled) -->
     <g transform="translate(94.6 281.826188) scale(0.1 -0.1)">
      <defs>
       <path id="DejaVuSans-48" d="M 628 4666 
L 1259 4666 
L 1259 2753 
L 3553 2753 
L 3553 4666 
L 4184 4666 
L 4184 0 
L 3553 0 
L 3553 2222 
L 1259 2222 
L 1259 0 
L 628 0 
L 628 4666 
z
" transform="scale(0.015625)"/>
       <path id="DejaVuSans-28" d="M 1984 4856 
Q 1566 4138 1362 3434 
Q 1159 2731 1159 2009 
Q 1159 1288 1364 580 
Q 1569 -128 1984 -844 
L 1484 -844 
Q 1016 -109 783 600 
Q 550 1309 550 2009 
Q 550 2706 781 3412 
Q 1013 4119 1484 4856 
L 1984 4856 
z
" transform="scale(0.015625)"/>
       <path id="DejaVuSans-63" d="M 3122 3366 
L 3122 2828 
Q 2878 2963 2633 3030 
Q 2388 3097 2138 3097 
Q 1578 3097 1268 2742 
Q 959 2388 959 1747 
Q 959 1106 1268 751 
Q 1578 397 2138 397 
Q 2388 397 2633 464 
Q 2878 531 3122 666 
L 3122 134 
Q 2881 22 2623 -34 
Q 2366 -91 2075 -91 
Q 1284 -91 818 406 
Q 353 903 353 1747 
Q 353 2603 823 3093 
Q 1294 3584 2113 3584 
Q 2378 3584 2631 3529 
Q 2884 3475 3122 3366 
z
" transform="scale(0.015625)"/>
       <path id="DejaVuSans-29" d="M 513 4856 
L 1013 4856 
Q 1481 4119 1714 3412 
Q 1947 2706 1947 2009 
Q 1947 1309 1714 600 
Q 1481 -109 1013 -844 
L 513 -844 
Q 928 -128 1133 580 
Q 1338 1288 1338 2009 
Q 1338 2731 1133 3434 
Q 928 4138 513 4856 
z
" transform="scale(0.015625)"/>
      </defs>
      <use xlink:href="#DejaVuSans-48"/>
      <use xlink:href="#DejaVuSans-61" x="75.195312"/>
      <use xlink:href="#DejaVuSans-6e" x="136.474609"/>
      <use xlink:href="#DejaVuSans-6e" x="199.853516"/>
      <use xlink:href="#DejaVuSans-20" x="263.232422"/>
      <use xlink:href="#DejaVuSans-77" x="295.019531"/>
      <use xlink:href="#DejaVuSans-69" x="376.806641"/>
      <use xlink:href="#DejaVuSans-6e" x="404.589844"/>
      <use xlink:href="#DejaVuSans-64" x="467.96875"/>
      <use xlink:href="#DejaVuSans-6f" x="531.445312"/>
      <use xlink:href="#DejaVuSans-77" x="592.626953"/>
      <use xlink:href="#DejaVuSans-20" x="674.414062"/>
      <use xlink:href="#DejaVuSans-28" x="706.201172"/>
      <use xlink:href="#DejaVuSans-73" x="745.214844"/>
      <use xlink:href="#DejaVuSans-63" x="797.314453"/>
      <use xlink:href="#DejaVuSans-61" x="852.294922"/>
      <use xlink:href="#DejaVuSans-6c" x="913.574219"/>
      <use xlink:href="#DejaVuSans-65" x="941.357422"/>
      <use xlink:href="#DejaVuSans-64" x="1002.880859"/>
      <use xlink:href="#DejaVuSans-29" x="1066.357422"/>
     </g>
    </g>
    <g id="line2d_32">
     <path d="M 66.6 293.004312 
L 76.6 293.004312 
L 86.6 293.004312 
" style="fill: none; stroke-dasharray: 5.55,2.4; stroke-dashoffset: 0; stroke: #2ca02c; stroke-width: 1.5"/>
    </g>
    <g id="text_18">
     <!-- Rect window (scaled) -->
     <g transform="translate(94.6 296.504312) scale(0.1 -0.1)">
      <defs>
       <path id="DejaVuSans-52" d="M 2841 2188 
Q 3044 2119 3236 1894 
Q 3428 1669 3622 1275 
L 4263 0 
L 3584 0 
L 2988 1197 
Q 2756 1666 2539 1819 
Q 2322 1972 1947 1972 
L 1259 1972 
L 1259 0 
L 628 0 
L 628 4666 
L 2053 4666 
Q 2853 4666 3247 4331 
Q 3641 3997 3641 3322 
Q 3641 2881 3436 2590 
Q 3231 2300 2841 2188 
z
M 1259 4147 
L 1259 2491 
L 2053 2491 
Q 2509 2491 2742 2702 
Q 2975 2913 2975 3322 
Q 2975 3731 2742 3939 
Q 2509 4147 2053 4147 
L 1259 4147 
z
" transform="scale(0.015625)"/>
      </defs>
      <use xlink:href="#DejaVuSans-52"/>
      <use xlink:href="#DejaVuSans-65" x="64.982422"/>
      <use xlink:href="#DejaVuSans-63" x="126.505859"/>
      <use xlink:href="#DejaVuSans-74" x="181.486328"/>
      <use xlink:href="#DejaVuSans-20" x="220.695312"/>
      <use xlink:href="#DejaVuSans-77" x="252.482422"/>
      <use xlink:href="#DejaVuSans-69" x="334.269531"/>
      <use xlink:href="#DejaVuSans-6e" x="362.052734"/>
      <use xlink:href="#DejaVuSans-64" x="425.431641"/>
      <use xlink:href="#DejaVuSans-6f" x="488.908203"/>
      <use xlink:href="#DejaVuSans-77" x="550.089844"/>
      <use xlink:href="#DejaVuSans-20" x="631.876953"/>
      <use xlink:href="#DejaVuSans-28" x="663.664062"/>
      <use xlink:href="#DejaVuSans-73" x="702.677734"/>
      <use xlink:href="#DejaVuSans-63" x="754.777344"/>
      <use xlink:href="#DejaVuSans-61" x="809.757812"/>
      <use xlink:href="#DejaVuSans-6c" x="871.037109"/>
      <use xlink:href="#DejaVuSans-65" x="898.820312"/>
      <use xlink:href="#DejaVuSans-64" x="960.34375"/>
      <use xlink:href="#DejaVuSans-29" x="1023.820312"/>
     </g>
    </g>
   </g>
  </g>
 </g>
 <defs>
  <clipPath id="p9b6e593dc6">
   <rect x="57.6" y="41.472" width="357.12" height="266.112"/>
  </clipPath>
 </defs>
</svg>
