<?xml version="1.0" encoding="utf-8" standalone="no"?>
<!DOCTYPE svg PUBLIC "-//W3C//DTD SVG 1.1//EN"
  "http://www.w3.org/Graphics/SVG/1.1/DTD/svg11.dtd">
<svg xmlns:xlink="http://www.w3.org/1999/xlink" width="424.526875pt" height="207.714531pt" viewBox="0 0 424.526875 207.714531" xmlns="http://www.w3.org/2000/svg" version="1.1">
 <metadata>
  <rdf:RDF xmlns:dc="http://purl.org/dc/elements/1.1/" xmlns:cc="http://creativecommons.org/ns#" xmlns:rdf="http://www.w3.org/1999/02/22-rdf-syntax-ns#">
   <cc:Work>
    <dc:type rdf:resource="http://purl.org/dc/dcmitype/StillImage"/>
    <dc:date>2026-03-30T12:27:30.999471</dc:date>
    <dc:format>image/svg+xml</dc:format>
    <dc:creator>
     <cc:Agent>
      <dc:title>Matplotlib v3.7.5, https://matplotlib.org/</dc:title>
     </cc:Agent>
    </dc:creator>
   </cc:Work>
  </rdf:RDF>
 </metadata>
 <defs>
  <style type="text/css">*{stroke-linejoin: round; stroke-linecap: butt}</style>
 </defs>
 <g id="figure_1">
  <g id="patch_1">
   <path d="M 0 207.714531 
L 424.526875 207.714531 
L 424.526875 0 
L 0 0 
z
" style="fill: #ffffff"/>
  </g>
  <g id="axes_1">
   <g id="patch_2">
    <path d="M 40.603125 170.158281 
L 407.783125 170.158281 
L 407.783125 21.558281 
L 40.603125 21.558281 
z
" style="fill: #ffffff"/>
   </g>
   <g id="matplotlib.axis_1">
    <g id="xtick_1">
     <g id="line2d_1">
      <defs>
       <path id="m3660811dce" d="M 0 0 
L 0 3.5 
" style="stroke: #000000; stroke-width: 0.8"/>
      </defs>
      <g>
       <use xlink:href="#m3660811dce" x="40.603125" y="170.158281" style="stroke: #000000; stroke-width: 0.8"/>
      </g>
     </g>
     <g id="text_1">
      <!-- 0 -->
      <g transform="translate(37.421875 184.756719) scale(0.1 -0.1)">
       <defs>
        <path id="DejaVuSans-30" d="M 2034 4250 
Q 1547 4250 1301 3770 
Q 1056 3291 1056 2328 
Q 1056 1369 1301 889 
Q 1547 409 2034 409 
Q 2525 409 2770 889 
Q 3016 1369 3016 2328 
Q 3016 3291 2770 3770 
Q 2525 4250 2034 4250 
z
M 2034 4750 
Q 2819 4750 3233 4129 
Q 3647 3509 3647 2328 
Q 3647 1150 3233 529 
Q 2819 -91 2034 -91 
Q 1250 -91 836 529 
Q 422 1150 422 2328 
Q 422 3509 836 4129 
Q 1250 4750 2034 4750 
z
" transform="scale(0.015625)"/>
       </defs>
       <use xlink:href="#DejaVuSans-30"/>
      </g>
     </g>
    </g>
    <g id="xtick_2">
     <g id="line2d_2">
      <g>
       <use xlink:href="#m3660811dce" x="86.500625" y="170.158281" style="stroke: #000000; stroke-width: 0.8"/>
      </g>
     </g>
     <g id="text_2">
      <!-- 25 -->
      <g transform="translate(80.138125 184.756719) scale(0.1 -0.1)">
       <defs>
        <path id="DejaVuSans-32" d="M 1228 531 
L 3431 531 
L 3431 0 
L 469 0 
L 469 531 
Q 828 903 1448 1529 
Q 2069 2156 2228 2338 
Q 2531 2678 2651 2914 
Q 2772 3150 2772 3378 
Q 2772 3750 2511 3984 
Q 2250 4219 1831 4219 
Q 1534 4219 1204 4116 
Q 875 4013 500 3803 
L 500 4441 
Q 881 4594 1212 4672 
Q 1544 4750 1819 4750 
Q 2544 4750 2975 4387 
Q 3406 4025 3406 3419 
Q 3406 3131 3298 2873 
Q 3191 2616 2906 2266 
Q 2828 2175 2409 1742 
Q 1991 1309 1228 531 
z
" transform="scale(0.015625)"/>
        <path id="DejaVuSans-35" d="M 691 4666 
L 3169 4666 
L 3169 4134 
L 1269 4134 
L 1269 2991 
Q 1406 3038 1543 3061 
Q 1681 3084 1819 3084 
Q 2600 3084 3056 2656 
Q 3513 2228 3513 1497 
Q 3513 744 3044 326 
Q 2575 -91 1722 -91 
Q 1428 -91 1123 -41 
Q 819 9 494 109 
L 494 744 
Q 775 591 1075 516 
Q 1375 441 1709 441 
Q 2250 441 2565 725 
Q 2881 1009 2881 1497 
Q 2881 1984 2565 2268 
Q 2250 2553 1709 2553 
Q 1456 2553 1204 2497 
Q 953 2441 691 2322 
L 691 4666 
z
" transform="scale(0.015625)"/>
       </defs>
       <use xlink:href="#DejaVuSans-32"/>
       <use xlink:href="#DejaVuSans-35" x="63.623047"/>
      </g>
     </g>
    </g>
    <g id="xtick_3">
     <g id="line2d_3">
      <g>
       <use xlink:href="#m3660811dce" x="132.398125" y="170.158281" style="stroke: #000000; stroke-width: 0.8"/>
      </g>
     </g>
     <g id="text_3">
      <!-- 50 -->
      <g transform="translate(126.035625 184.756719) scale(0.1 -0.1)">
       <use xlink:href="#DejaVuSans-35"/>
       <use xlink:href="#DejaVuSans-30" x="63.623047"/>
      </g>
     </g>
    </g>
    <g id="xtick_4">
     <g id="line2d_4">
      <g>
       <use xlink:href="#m3660811dce" x="178.295625" y="170.158281" style="stroke: #000000; stroke-width: 0.8"/>
      </g>
     </g>
     <g id="text_4">
      <!-- 75 -->
      <g transform="translate(171.933125 184.756719) scale(0.1 -0.1)">
       <defs>
        <path id="DejaVuSans-37" d="M 525 4666 
L 3525 4666 
L 3525 4397 
L 1831 0 
L 1172 0 
L 2766 4134 
L 525 4134 
L 525 4666 
z
" transform="scale(0.015625)"/>
       </defs>
       <use xlink:href="#DejaVuSans-37"/>
       <use xlink:href="#DejaVuSans-35" x="63.623047"/>
      </g>
     </g>
    </g>
    <g id="xtick_5">
     <g id="line2d_5">
      <g>
       <use xlink:href="#m3660811dce" x="224.193125" y="170.158281" style="stroke: #000000; stroke-width: 0.8"/>
      </g>
     </g>
     <g id="text_5">
      <!-- 100 -->
      <g transform="translate(214.649375 184.756719) scale(0.1 -0.1)">
       <defs>
        <path id="DejaVuSans-31" d="M 794 531 
L 1825 531 
L 1825 4091 
L 703 3866 
L 703 4441 
L 1819 4666 
L 2450 4666 
L 2450 531 
L 3481 531 
L 3481 0 
L 794 0 
L 794 531 
z
" transform="scale(0.015625)"/>
       </defs>
       <use xlink:href="#DejaVuSans-31"/>
       <use xlink:href="#DejaVuSans-30" x="63.623047"/>
       <use xlink:href="#DejaVuSans-30" x="127.246094"/>
      </g>
     </g>
    </g>
    <g id="xtick_6">
     <g id="line2d_6">
      <g>
       <use xlink:href="#m3660811dce" x="270.090625" y="170.158281" style="stroke: #000000; stroke-width: 0.8"/>
      </g>
     </g>
     <g id="text_6">
      <!-- 125 -->
      <g transform="translate(260.546875 184.756719) scale(0.1 -0.1)">
       <use xlink:href="#DejaVuSans-31"/>
       <use xlink:href="#DejaVuSans-32" x="63.623047"/>
       <use xlink:href="#DejaVuSans-35" x="127.246094"/>
      </g>
     </g>
    </g>
    <g id="xtick_7">
     <g id="line2d_7">
      <g>
       <use xlink:href="#m3660811dce" x="315.988125" y="170.158281" style="stroke: #000000; stroke-width: 0.8"/>
      </g>
     </g>
     <g id="text_7">
      <!-- 150 -->
      <g transform="translate(306.444375 184.756719) scale(0.1 -0.1)">
       <use xlink:href="#DejaVuSans-31"/>
       <use xlink:href="#DejaVuSans-35" x="63.623047"/>
       <use xlink:href="#DejaVuSans-30" x="127.246094"/>
      </g>
     </g>
    </g>
    <g id="xtick_8">
     <g id="line2d_8">
      <g>
       <use xlink:href="#m3660811dce" x="361.885625" y="170.158281" style="stroke: #000000; stroke-width: 0.8"/>
      </g>
     </g>
     <g id="text_8">
      <!-- 175 -->
      <g transform="translate(352.341875 184.756719) scale(0.1 -0.1)">
       <use xlink:href="#DejaVuSans-31"/>
       <use xlink:href="#DejaVuSans-37" x="63.623047"/>
       <use xlink:href="#DejaVuSans-35" x="127.246094"/>
      </g>
     </g>
    </g>
    <g id="xtick_9">
     <g id="line2d_9">
      <g>
       <use xlink:href="#m3660811dce" x="407.783125" y="170.158281" style="stroke: #000000; stroke-width: 0.8"/>
      </g>
     </g>
     <g id="text_9">
      <!-- 200 -->
      <g transform="translate(398.239375 184.756719) scale(0.1 -0.1)">
       <use xlink:href="#DejaVuSans-32"/>
       <use xlink:href="#DejaVuSans-30" x="63.623047"/>
       <use xlink:href="#DejaVuSans-30" x="127.246094"/>
      </g>
     </g>
    </g>
    <g id="text_10">
     <!-- Range cell index -->
     <g transform="translate(182.885312 198.434844) scale(0.1 -0.1)">
      <defs>
       <path id="DejaVuSans-52" d="M 2841 2188 
Q 3044 2119 3236 1894 
Q 3428 1669 3622 1275 
L 4263 0 
L 3584 0 
L 2988 1197 
Q 2756 1666 2539 1819 
Q 2322 1972 1947 1972 
L 1259 1972 
L 1259 0 
L 628 0 
L 628 4666 
L 2053 4666 
Q 2853 4666 3247 4331 
Q 3641 3997 3641 3322 
Q 3641 2881 3436 2590 
Q 3231 2300 2841 2188 
z
M 1259 4147 
L 1259 2491 
L 2053 2491 
Q 2509 2491 2742 2702 
Q 2975 2913 2975 3322 
Q 2975 3731 2742 3939 
Q 2509 4147 2053 4147 
L 1259 4147 
z
" transform="scale(0.015625)"/>
       <path id="DejaVuSans-61" d="M 2194 1759 
Q 1497 1759 1228 1600 
Q 959 1441 959 1056 
Q 959 750 1161 570 
Q 1363 391 1709 391 
Q 2188 391 2477 730 
Q 2766 1069 2766 1631 
L 2766 1759 
L 2194 1759 
z
M 3341 1997 
L 3341 0 
L 2766 0 
L 2766 531 
Q 2569 213 2275 61 
Q 1981 -91 1556 -91 
Q 1019 -91 701 211 
Q 384 513 384 1019 
Q 384 1609 779 1909 
Q 1175 2209 1959 2209 
L 2766 2209 
L 2766 2266 
Q 2766 2663 2505 2880 
Q 2244 3097 1772 3097 
Q 1472 3097 1187 3025 
Q 903 2953 641 2809 
L 641 3341 
Q 956 3463 1253 3523 
Q 1550 3584 1831 3584 
Q 2591 3584 2966 3190 
Q 3341 2797 3341 1997 
z
" transform="scale(0.015625)"/>
       <path id="DejaVuSans-6e" d="M 3513 2113 
L 3513 0 
L 2938 0 
L 2938 2094 
Q 2938 2591 2744 2837 
Q 2550 3084 2163 3084 
Q 1697 3084 1428 2787 
Q 1159 2491 1159 1978 
L 1159 0 
L 581 0 
L 581 3500 
L 1159 3500 
L 1159 2956 
Q 1366 3272 1645 3428 
Q 1925 3584 2291 3584 
Q 2894 3584 3203 3211 
Q 3513 2838 3513 2113 
z
" transform="scale(0.015625)"/>
       <path id="DejaVuSans-67" d="M 2906 1791 
Q 2906 2416 2648 2759 
Q 2391 3103 1925 3103 
Q 1463 3103 1205 2759 
Q 947 2416 947 1791 
Q 947 1169 1205 825 
Q 1463 481 1925 481 
Q 2391 481 2648 825 
Q 2906 1169 2906 1791 
z
M 3481 434 
Q 3481 -459 3084 -895 
Q 2688 -1331 1869 -1331 
Q 1566 -1331 1297 -1286 
Q 1028 -1241 775 -1147 
L 775 -588 
Q 1028 -725 1275 -790 
Q 1522 -856 1778 -856 
Q 2344 -856 2625 -561 
Q 2906 -266 2906 331 
L 2906 616 
Q 2728 306 2450 153 
Q 2172 0 1784 0 
Q 1141 0 747 490 
Q 353 981 353 1791 
Q 353 2603 747 3093 
Q 1141 3584 1784 3584 
Q 2172 3584 2450 3431 
Q 2728 3278 2906 2969 
L 2906 3500 
L 3481 3500 
L 3481 434 
z
" transform="scale(0.015625)"/>
       <path id="DejaVuSans-65" d="M 3597 1894 
L 3597 1613 
L 953 1613 
Q 991 1019 1311 708 
Q 1631 397 2203 397 
Q 2534 397 2845 478 
Q 3156 559 3463 722 
L 3463 178 
Q 3153 47 2828 -22 
Q 2503 -91 2169 -91 
Q 1331 -91 842 396 
Q 353 884 353 1716 
Q 353 2575 817 3079 
Q 1281 3584 2069 3584 
Q 2775 3584 3186 3129 
Q 3597 2675 3597 1894 
z
M 3022 2063 
Q 3016 2534 2758 2815 
Q 2500 3097 2075 3097 
Q 1594 3097 1305 2825 
Q 1016 2553 972 2059 
L 3022 2063 
z
" transform="scale(0.015625)"/>
       <path id="DejaVuSans-20" transform="scale(0.015625)"/>
       <path id="DejaVuSans-63" d="M 3122 3366 
L 3122 2828 
Q 2878 2963 2633 3030 
Q 2388 3097 2138 3097 
Q 1578 3097 1268 2742 
Q 959 2388 959 1747 
Q 959 1106 1268 751 
Q 1578 397 2138 397 
Q 2388 397 2633 464 
Q 2878 531 3122 666 
L 3122 134 
Q 2881 22 2623 -34 
Q 2366 -91 2075 -91 
Q 1284 -91 818 406 
Q 353 903 353 1747 
Q 353 2603 823 3093 
Q 1294 3584 2113 3584 
Q 2378 3584 2631 3529 
Q 2884 3475 3122 3366 
z
" transform="scale(0.015625)"/>
       <path id="DejaVuSans-6c" d="M 603 4863 
L 1178 4863 
L 1178 0 
L 603 0 
L 603 4863 
z
" transform="scale(0.015625)"/>
       <path id="DejaVuSans-69" d="M 603 3500 
L 1178 3500 
L 1178 0 
L 603 0 
L 603 3500 
z
M 603 4863 
L 1178 4863 
L 1178 4134 
L 603 4134 
L 603 4863 
z
" transform="scale(0.015625)"/>
       <path id="DejaVuSans-64" d="M 2906 2969 
L 2906 4863 
L 3481 4863 
L 3481 0 
L 2906 0 
L 2906 525 
Q 2725 213 2448 61 
Q 2172 -91 1784 -91 
Q 1150 -91 751 415 
Q 353 922 353 1747 
Q 353 2572 751 3078 
Q 1150 3584 1784 3584 
Q 2172 3584 2448 3432 
Q 2725 3281 2906 2969 
z
M 947 1747 
Q 947 1113 1208 752 
Q 1469 391 1925 391 
Q 2381 391 2643 752 
Q 2906 1113 2906 1747 
Q 2906 2381 2643 2742 
Q 2381 3103 1925 3103 
Q 1469 3103 1208 2742 
Q 947 2381 947 1747 
z
" transform="scale(0.015625)"/>
       <path id="DejaVuSans-78" d="M 3513 3500 
L 2247 1797 
L 3578 0 
L 2900 0 
L 1881 1375 
L 863 0 
L 184 0 
L 1544 1831 
L 300 3500 
L 978 3500 
L 1906 2253 
L 2834 3500 
L 3513 3500 
z
" transform="scale(0.015625)"/>
      </defs>
      <use xlink:href="#DejaVuSans-52"/>
      <use xlink:href="#DejaVuSans-61" x="67.232422"/>
      <use xlink:href="#DejaVuSans-6e" x="128.511719"/>
      <use xlink:href="#DejaVuSans-67" x="191.890625"/>
      <use xlink:href="#DejaVuSans-65" x="255.367188"/>
      <use xlink:href="#DejaVuSans-20" x="316.890625"/>
      <use xlink:href="#DejaVuSans-63" x="348.677734"/>
      <use xlink:href="#DejaVuSans-65" x="403.658203"/>
      <use xlink:href="#DejaVuSans-6c" x="465.181641"/>
      <use xlink:href="#DejaVuSans-6c" x="492.964844"/>
      <use xlink:href="#DejaVuSans-20" x="520.748047"/>
      <use xlink:href="#DejaVuSans-69" x="552.535156"/>
      <use xlink:href="#DejaVuSans-6e" x="580.318359"/>
      <use xlink:href="#DejaVuSans-64" x="643.697266"/>
      <use xlink:href="#DejaVuSans-65" x="707.173828"/>
      <use xlink:href="#DejaVuSans-78" x="766.947266"/>
     </g>
    </g>
   </g>
   <g id="matplotlib.axis_2">
    <g id="ytick_1">
     <g id="line2d_10">
      <defs>
       <path id="mb78c205bcd" d="M 0 0 
L -3.5 0 
" style="stroke: #000000; stroke-width: 0.8"/>
      </defs>
      <g>
       <use xlink:href="#mb78c205bcd" x="40.603125" y="170.158281" style="stroke: #000000; stroke-width: 0.8"/>
      </g>
     </g>
     <g id="text_11">
      <!-- 0 -->
      <g transform="translate(27.240625 173.9575) scale(0.1 -0.1)">
       <use xlink:href="#DejaVuSans-30"/>
      </g>
     </g>
    </g>
    <g id="ytick_2">
     <g id="line2d_11">
      <g>
       <use xlink:href="#mb78c205bcd" x="40.603125" y="134.14179" style="stroke: #000000; stroke-width: 0.8"/>
      </g>
     </g>
     <g id="text_12">
      <!-- 5 -->
      <g transform="translate(27.240625 137.941009) scale(0.1 -0.1)">
       <use xlink:href="#DejaVuSans-35"/>
      </g>
     </g>
    </g>
    <g id="ytick_3">
     <g id="line2d_12">
      <g>
       <use xlink:href="#mb78c205bcd" x="40.603125" y="98.125299" style="stroke: #000000; stroke-width: 0.8"/>
      </g>
     </g>
     <g id="text_13">
      <!-- 10 -->
      <g transform="translate(20.878125 101.924518) scale(0.1 -0.1)">
       <use xlink:href="#DejaVuSans-31"/>
       <use xlink:href="#DejaVuSans-30" x="63.623047"/>
      </g>
     </g>
    </g>
    <g id="ytick_4">
     <g id="line2d_13">
      <g>
       <use xlink:href="#mb78c205bcd" x="40.603125" y="62.108808" style="stroke: #000000; stroke-width: 0.8"/>
      </g>
     </g>
     <g id="text_14">
      <!-- 15 -->
      <g transform="translate(20.878125 65.908027) scale(0.1 -0.1)">
       <use xlink:href="#DejaVuSans-31"/>
       <use xlink:href="#DejaVuSans-35" x="63.623047"/>
      </g>
     </g>
    </g>
    <g id="ytick_5">
     <g id="line2d_14">
      <g>
       <use xlink:href="#mb78c205bcd" x="40.603125" y="26.092317" style="stroke: #000000; stroke-width: 0.8"/>
      </g>
     </g>
     <g id="text_15">
      <!-- 20 -->
      <g transform="translate(20.878125 29.891536) scale(0.1 -0.1)">
       <use xlink:href="#DejaVuSans-32"/>
       <use xlink:href="#DejaVuSans-30" x="63.623047"/>
      </g>
     </g>
    </g>
    <g id="text_16">
     <!-- Power (linear) -->
     <g transform="translate(14.798438 130.605937) rotate(-90) scale(0.1 -0.1)">
      <defs>
       <path id="DejaVuSans-50" d="M 1259 4147 
L 1259 2394 
L 2053 2394 
Q 2494 2394 2734 2622 
Q 2975 2850 2975 3272 
Q 2975 3691 2734 3919 
Q 2494 4147 2053 4147 
L 1259 4147 
z
M 628 4666 
L 2053 4666 
Q 2838 4666 3239 4311 
Q 3641 3956 3641 3272 
Q 3641 2581 3239 2228 
Q 2838 1875 2053 1875 
L 1259 1875 
L 1259 0 
L 628 0 
L 628 4666 
z
" transform="scale(0.015625)"/>
       <path id="DejaVuSans-6f" d="M 1959 3097 
Q 1497 3097 1228 2736 
Q 959 2375 959 1747 
Q 959 1119 1226 758 
Q 1494 397 1959 397 
Q 2419 397 2687 759 
Q 2956 1122 2956 1747 
Q 2956 2369 2687 2733 
Q 2419 3097 1959 3097 
z
M 1959 3584 
Q 2709 3584 3137 3096 
Q 3566 2609 3566 1747 
Q 3566 888 3137 398 
Q 2709 -91 1959 -91 
Q 1206 -91 779 398 
Q 353 888 353 1747 
Q 353 2609 779 3096 
Q 1206 3584 1959 3584 
z
" transform="scale(0.015625)"/>
       <path id="DejaVuSans-77" d="M 269 3500 
L 844 3500 
L 1563 769 
L 2278 3500 
L 2956 3500 
L 3675 769 
L 4391 3500 
L 4966 3500 
L 4050 0 
L 3372 0 
L 2619 2869 
L 1863 0 
L 1184 0 
L 269 3500 
z
" transform="scale(0.015625)"/>
       <path id="DejaVuSans-72" d="M 2631 2963 
Q 2534 3019 2420 3045 
Q 2306 3072 2169 3072 
Q 1681 3072 1420 2755 
Q 1159 2438 1159 1844 
L 1159 0 
L 581 0 
L 581 3500 
L 1159 3500 
L 1159 2956 
Q 1341 3275 1631 3429 
Q 1922 3584 2338 3584 
Q 2397 3584 2469 3576 
Q 2541 3569 2628 3553 
L 2631 2963 
z
" transform="scale(0.015625)"/>
       <path id="DejaVuSans-28" d="M 1984 4856 
Q 1566 4138 1362 3434 
Q 1159 2731 1159 2009 
Q 1159 1288 1364 580 
Q 1569 -128 1984 -844 
L 1484 -844 
Q 1016 -109 783 600 
Q 550 1309 550 2009 
Q 550 2706 781 3412 
Q 1013 4119 1484 4856 
L 1984 4856 
z
" transform="scale(0.015625)"/>
       <path id="DejaVuSans-29" d="M 513 4856 
L 1013 4856 
Q 1481 4119 1714 3412 
Q 1947 2706 1947 2009 
Q 1947 1309 1714 600 
Q 1481 -109 1013 -844 
L 513 -844 
Q 928 -128 1133 580 
Q 1338 1288 1338 2009 
Q 1338 2731 1133 3434 
Q 928 4138 513 4856 
z
" transform="scale(0.015625)"/>
      </defs>
      <use xlink:href="#DejaVuSans-50"/>
      <use xlink:href="#DejaVuSans-6f" x="56.677734"/>
      <use xlink:href="#DejaVuSans-77" x="117.859375"/>
      <use xlink:href="#DejaVuSans-65" x="199.646484"/>
      <use xlink:href="#DejaVuSans-72" x="261.169922"/>
      <use xlink:href="#DejaVuSans-20" x="302.283203"/>
      <use xlink:href="#DejaVuSans-28" x="334.070312"/>
      <use xlink:href="#DejaVuSans-6c" x="373.083984"/>
      <use xlink:href="#DejaVuSans-69" x="400.867188"/>
      <use xlink:href="#DejaVuSans-6e" x="428.650391"/>
      <use xlink:href="#DejaVuSans-65" x="492.029297"/>
      <use xlink:href="#DejaVuSans-61" x="553.552734"/>
      <use xlink:href="#DejaVuSans-72" x="614.832031"/>
      <use xlink:href="#DejaVuSans-29" x="655.945312"/>
     </g>
    </g>
   </g>
   <g id="line2d_15">
    <path d="M 40.603125 166.778003 
L 42.439025 148.475479 
L 44.274925 160.673369 
L 46.110825 163.582084 
L 47.946725 168.936423 
L 49.782625 168.936629 
L 51.618525 169.727245 
L 53.454425 155.670786 
L 55.290325 163.537858 
L 57.126225 161.28922 
L 58.962125 170.008458 
L 60.798025 144.921112 
L 62.633925 157.290097 
L 64.469825 168.438943 
L 66.305725 168.712731 
L 68.141625 168.698811 
L 69.977525 167.545258 
L 71.813425 164.799547 
L 73.649325 166.084549 
L 75.485225 167.67874 
L 77.321125 163.34129 
L 79.157025 169.076097 
L 80.992925 167.66943 
L 82.828825 166.87158 
L 84.664725 165.771943 
L 86.500625 159.08007 
L 88.336525 168.553848 
L 90.172425 164.95729 
L 92.008325 163.693287 
L 93.844225 169.815665 
L 95.680125 163.420799 
L 97.516025 168.811544 
L 99.351925 169.673759 
L 101.187825 148.737921 
L 103.023725 145.878626 
L 104.859625 158.256044 
L 106.695525 167.54141 
L 108.531425 169.417946 
L 110.367325 161.854674 
L 112.203225 165.979714 
L 114.039125 169.220756 
L 115.875025 165.234487 
L 117.710925 169.906211 
L 119.546825 152.867319 
L 121.382725 168.001198 
L 123.218625 162.333657 
L 125.054525 167.467514 
L 126.890425 164.870262 
L 128.726325 164.45886 
L 130.562225 168.686009 
L 132.398125 58.558971 
L 134.234025 159.409193 
L 136.069925 149.95235 
L 137.905825 153.935359 
L 139.741725 163.595685 
L 141.577625 151.793938 
L 143.413525 169.490856 
L 145.249425 168.586992 
L 147.085325 169.824898 
L 148.921225 167.323552 
L 150.757125 166.61332 
L 152.593025 167.878002 
L 154.428925 157.447645 
L 156.264825 166.979992 
L 158.100725 167.782613 
L 159.936625 164.52237 
L 161.772525 169.064114 
L 163.608425 158.485455 
L 165.444325 169.600199 
L 167.280225 138.938133 
L 169.116125 159.501118 
L 170.952025 168.562467 
L 172.787925 170.118394 
L 174.623825 157.985451 
L 176.459725 161.319143 
L 178.295625 160.753202 
L 180.131525 159.531871 
L 181.967425 169.604137 
L 183.803325 166.96079 
L 185.639225 169.271194 
L 187.475125 155.83431 
L 189.311025 163.125693 
L 191.146925 167.263861 
L 192.982825 169.685255 
L 194.818725 167.475137 
L 196.654625 167.325122 
L 198.490525 160.737262 
L 200.326425 162.847731 
L 202.162325 154.43887 
L 203.998225 165.554897 
L 205.834125 169.24078 
L 207.670025 161.160452 
L 209.505925 159.854736 
L 211.341825 164.223574 
L 213.177725 159.541412 
L 215.013625 165.25417 
L 216.849525 164.830154 
L 218.685425 166.140179 
L 220.521325 169.972812 
L 222.357225 169.335899 
L 224.193125 169.928253 
L 226.029025 162.870492 
L 227.864925 167.43978 
L 229.700825 165.04079 
L 231.536725 153.005316 
L 233.372625 168.092816 
L 235.208525 166.352909 
L 237.044425 160.010641 
L 238.880325 168.286827 
L 240.716225 169.581266 
L 242.552125 167.693743 
L 244.388025 168.891881 
L 246.223925 151.033884 
L 248.059825 158.266449 
L 249.895725 162.929813 
L 251.731625 155.380573 
L 253.567525 158.431535 
L 255.403425 168.670833 
L 257.239325 154.089067 
L 259.075225 164.575006 
L 260.911125 28.632572 
L 262.747025 153.848266 
L 264.582925 167.401358 
L 266.418825 169.318433 
L 268.254725 168.294883 
L 270.090625 166.145629 
L 271.926525 157.885088 
L 273.762425 155.958096 
L 275.598325 170.108028 
L 277.434225 165.008815 
L 279.270125 166.266531 
L 281.106025 168.349048 
L 282.941925 169.238561 
L 284.777825 167.191181 
L 286.613725 149.534366 
L 288.449625 167.34623 
L 290.285525 164.889409 
L 292.121425 161.412851 
L 293.957325 166.902574 
L 295.793225 144.458367 
L 297.629125 146.516985 
L 299.465025 168.068883 
L 301.300925 165.204866 
L 303.136825 167.580001 
L 304.972725 167.743378 
L 306.808625 169.887549 
L 308.644525 163.383636 
L 310.480425 165.126636 
L 312.316325 169.777579 
L 314.152225 167.805497 
L 315.988125 152.950603 
L 317.824025 168.185582 
L 319.659925 169.030743 
L 321.495825 165.315705 
L 323.331725 139.587217 
L 325.167625 168.161925 
L 327.003525 162.125487 
L 328.839425 159.829561 
L 330.675325 168.203787 
L 332.511225 160.774192 
L 334.347125 109.229019 
L 336.183025 162.951354 
L 338.018925 162.927338 
L 339.854825 164.630576 
L 341.690725 169.476639 
L 343.526625 157.16609 
L 345.362525 167.371971 
L 349.034325 169.85841 
L 350.870225 163.720129 
L 352.706125 162.005216 
L 354.542025 170.037792 
L 356.377925 164.988974 
L 358.213825 168.3083 
L 360.049725 162.694769 
L 361.885625 168.778099 
L 363.721525 161.700078 
L 365.557425 166.636166 
L 367.393325 150.274702 
L 369.229225 169.092594 
L 371.065125 167.153552 
L 372.901025 169.290685 
L 374.736925 151.529181 
L 376.572825 155.043358 
L 378.408725 168.00934 
L 380.244625 162.387632 
L 382.080525 157.916391 
L 383.916425 164.322656 
L 385.752325 164.724982 
L 387.588225 168.163853 
L 389.424125 169.454331 
L 391.260025 153.76989 
L 393.095925 153.541897 
L 394.931825 162.935751 
L 396.767725 167.175781 
L 398.603625 167.063978 
L 400.439525 160.833861 
L 402.275425 153.77728 
L 404.111325 154.446933 
L 405.947225 159.255641 
L 405.947225 159.255641 
" clip-path="url(#p5258d19204)" style="fill: none; stroke: #4682b4; stroke-opacity: 0.9; stroke-width: 0.9; stroke-linecap: square"/>
   </g>
   <g id="patch_3">
    <path d="M 40.603125 170.158281 
L 40.603125 21.558281 
" style="fill: none; stroke: #000000; stroke-width: 0.8; stroke-linejoin: miter; stroke-linecap: square"/>
   </g>
   <g id="patch_4">
    <path d="M 407.783125 170.158281 
L 407.783125 21.558281 
" style="fill: none; stroke: #000000; stroke-width: 0.8; stroke-linejoin: miter; stroke-linecap: square"/>
   </g>
   <g id="patch_5">
    <path d="M 40.603125 170.158281 
L 407.783125 170.158281 
" style="fill: none; stroke: #000000; stroke-width: 0.8; stroke-linejoin: miter; stroke-linecap: square"/>
   </g>
   <g id="patch_6">
    <path d="M 40.603125 21.558281 
L 407.783125 21.558281 
" style="fill: none; stroke: #000000; stroke-width: 0.8; stroke-linejoin: miter; stroke-linecap: square"/>
   </g>
   <g id="line2d_16">
    <path d="M 64.469825 137.931064 
L 66.305725 138.867279 
L 68.141625 137.224403 
L 69.977525 136.880016 
L 71.813425 138.244017 
L 73.649325 138.109106 
L 75.485225 138.597223 
L 77.321125 132.98367 
L 79.157025 130.009243 
L 80.992925 130.485244 
L 82.828825 131.971022 
L 84.664725 131.361326 
L 86.500625 137.527713 
L 88.336525 139.335759 
L 90.172425 140.505296 
L 92.008325 138.704306 
L 93.844225 136.110718 
L 95.680125 137.53043 
L 97.516025 143.686854 
L 101.187825 144.72287 
L 103.023725 143.488238 
L 104.859625 144.134718 
L 106.695525 145.436342 
L 108.531425 109.848006 
L 110.367325 102.741523 
L 112.203225 97.000245 
L 115.875025 97.030845 
L 117.710925 93.610505 
L 119.546825 93.109651 
L 121.382725 95.739271 
L 123.218625 96.233597 
L 125.054525 95.921357 
L 126.890425 126.919604 
L 128.726325 135.372515 
L 130.562225 138.570303 
L 132.398125 142.154334 
L 134.234025 142.054651 
L 136.069925 146.29131 
L 137.905825 146.921189 
L 139.741725 113.552262 
L 141.577625 111.880548 
L 143.413525 98.523595 
L 145.249425 96.853492 
L 147.085325 95.825304 
L 148.921225 96.414144 
L 150.757125 94.487885 
L 152.593025 93.728915 
L 154.428925 94.170157 
L 156.264825 91.159769 
L 158.100725 124.089272 
L 159.936625 125.700033 
L 161.772525 136.152641 
L 163.608425 138.74389 
L 165.444325 138.398537 
L 167.280225 141.126861 
L 169.116125 144.241796 
L 170.952025 143.151576 
L 172.787925 144.90542 
L 174.623825 137.395123 
L 176.459725 133.562994 
L 178.295625 130.292107 
L 180.131525 132.766372 
L 181.967425 133.985462 
L 183.803325 131.656468 
L 185.639225 128.567719 
L 187.475125 124.424647 
L 189.311025 125.304704 
L 191.146925 124.003153 
L 192.982825 133.51562 
L 194.818725 133.412178 
L 196.654625 136.202194 
L 198.490525 136.458193 
L 200.326425 139.881005 
L 202.162325 142.054522 
L 203.998225 145.966328 
L 205.834125 146.525208 
L 207.670025 142.852267 
L 209.505925 140.176617 
L 211.341825 139.570504 
L 213.177725 141.581242 
L 215.013625 140.572347 
L 218.685425 136.466295 
L 220.521325 135.937885 
L 222.357225 130.832422 
L 224.193125 130.091493 
L 226.029025 133.743556 
L 227.864925 134.523239 
L 229.700825 133.379185 
L 231.536725 135.962102 
L 233.372625 132.511536 
L 235.208525 133.224097 
L 237.044425 95.024979 
L 238.880325 89.062143 
L 240.716225 94.369115 
L 242.552125 97.843726 
L 244.388025 97.632491 
L 246.223925 100.14119 
L 248.059825 100.057996 
L 249.895725 95.927822 
L 251.731625 102.017939 
L 253.567525 97.604584 
L 255.403425 133.763287 
L 257.239325 140.512401 
L 259.075225 137.507445 
L 262.747025 131.939953 
L 264.582925 128.34862 
L 266.418825 128.900718 
L 268.254725 91.983029 
L 270.090625 86.940506 
L 271.926525 85.78468 
L 273.762425 83.381398 
L 275.598325 84.786443 
L 277.434225 86.64643 
L 279.270125 86.602875 
L 281.106025 88.121588 
L 282.941925 93.250104 
L 284.777825 92.953903 
L 286.613725 132.01065 
L 288.449625 136.811871 
L 290.285525 143.770724 
L 292.121425 144.960645 
L 293.957325 139.809045 
L 297.629125 142.507693 
L 299.465025 136.234915 
L 301.300925 134.872376 
L 303.136825 128.846295 
L 304.972725 121.925495 
L 306.808625 121.413216 
L 308.644525 118.355771 
L 310.480425 106.382203 
L 312.316325 109.967353 
L 314.152225 108.983089 
L 315.988125 108.377707 
L 317.824025 117.662835 
L 319.659925 115.418914 
L 321.495825 123.319808 
L 323.331725 127.540642 
L 325.167625 128.030088 
L 327.003525 129.901253 
L 328.839425 143.858536 
L 330.675325 138.036619 
L 332.511225 138.129465 
L 334.347125 138.798034 
L 336.183025 135.460419 
L 338.018925 138.234146 
L 339.854825 134.72404 
L 341.690725 122.080696 
L 343.526625 115.223085 
L 345.362525 115.021114 
L 347.198425 116.254373 
L 349.034325 124.306883 
L 350.870225 117.549383 
L 352.706125 115.333749 
L 354.542025 119.245371 
L 356.377925 117.936778 
L 358.213825 117.705294 
L 360.049725 131.648979 
L 361.885625 137.599934 
L 363.721525 137.912972 
L 365.557425 139.564933 
L 367.393325 133.402333 
L 369.229225 137.167072 
L 371.065125 137.780634 
L 372.901025 136.987969 
L 374.736925 132.868815 
L 376.572825 135.159463 
L 378.408725 133.66817 
L 380.244625 130.621735 
L 382.080525 124.441081 
L 382.080525 124.441081 
" clip-path="url(#p5258d19204)" style="fill: none; stroke-dasharray: 5.55,2.4; stroke-dashoffset: 0; stroke: #ff8c00; stroke-width: 1.5"/>
   </g>
   <g id="patch_7">
    <path d="M 140.468839 49.32427 
Q 137.090607 53.189723 134.30096 56.381702 
" style="fill: none; stroke: #000000; stroke-width: 0.8; stroke-linecap: round"/>
    <path d="M 137.611495 55.025104 
L 134.30096 56.381702 
L 135.202003 52.919315 
" style="fill: none; stroke: #000000; stroke-width: 0.8; stroke-linecap: round"/>
   </g>
   <g id="text_17">
    <!-- Target (SNR=12.0 dB) -->
    <g transform="translate(103.023725 44.152375) scale(0.08 -0.08)">
     <defs>
      <path id="DejaVuSans-54" d="M -19 4666 
L 3928 4666 
L 3928 4134 
L 2272 4134 
L 2272 0 
L 1638 0 
L 1638 4134 
L -19 4134 
L -19 4666 
z
" transform="scale(0.015625)"/>
      <path id="DejaVuSans-74" d="M 1172 4494 
L 1172 3500 
L 2356 3500 
L 2356 3053 
L 1172 3053 
L 1172 1153 
Q 1172 725 1289 603 
Q 1406 481 1766 481 
L 2356 481 
L 2356 0 
L 1766 0 
Q 1100 0 847 248 
Q 594 497 594 1153 
L 594 3053 
L 172 3053 
L 172 3500 
L 594 3500 
L 594 4494 
L 1172 4494 
z
" transform="scale(0.015625)"/>
      <path id="DejaVuSans-53" d="M 3425 4513 
L 3425 3897 
Q 3066 4069 2747 4153 
Q 2428 4238 2131 4238 
Q 1616 4238 1336 4038 
Q 1056 3838 1056 3469 
Q 1056 3159 1242 3001 
Q 1428 2844 1947 2747 
L 2328 2669 
Q 3034 2534 3370 2195 
Q 3706 1856 3706 1288 
Q 3706 609 3251 259 
Q 2797 -91 1919 -91 
Q 1588 -91 1214 -16 
Q 841 59 441 206 
L 441 856 
Q 825 641 1194 531 
Q 1563 422 1919 422 
Q 2459 422 2753 634 
Q 3047 847 3047 1241 
Q 3047 1584 2836 1778 
Q 2625 1972 2144 2069 
L 1759 2144 
Q 1053 2284 737 2584 
Q 422 2884 422 3419 
Q 422 4038 858 4394 
Q 1294 4750 2059 4750 
Q 2388 4750 2728 4690 
Q 3069 4631 3425 4513 
z
" transform="scale(0.015625)"/>
      <path id="DejaVuSans-4e" d="M 628 4666 
L 1478 4666 
L 3547 763 
L 3547 4666 
L 4159 4666 
L 4159 0 
L 3309 0 
L 1241 3903 
L 1241 0 
L 628 0 
L 628 4666 
z
" transform="scale(0.015625)"/>
      <path id="DejaVuSans-3d" d="M 678 2906 
L 4684 2906 
L 4684 2381 
L 678 2381 
L 678 2906 
z
M 678 1631 
L 4684 1631 
L 4684 1100 
L 678 1100 
L 678 1631 
z
" transform="scale(0.015625)"/>
      <path id="DejaVuSans-2e" d="M 684 794 
L 1344 794 
L 1344 0 
L 684 0 
L 684 794 
z
" transform="scale(0.015625)"/>
      <path id="DejaVuSans-42" d="M 1259 2228 
L 1259 519 
L 2272 519 
Q 2781 519 3026 730 
Q 3272 941 3272 1375 
Q 3272 1813 3026 2020 
Q 2781 2228 2272 2228 
L 1259 2228 
z
M 1259 4147 
L 1259 2741 
L 2194 2741 
Q 2656 2741 2882 2914 
Q 3109 3088 3109 3444 
Q 3109 3797 2882 3972 
Q 2656 4147 2194 4147 
L 1259 4147 
z
M 628 4666 
L 2241 4666 
Q 2963 4666 3353 4366 
Q 3744 4066 3744 3513 
Q 3744 3084 3544 2831 
Q 3344 2578 2956 2516 
Q 3422 2416 3680 2098 
Q 3938 1781 3938 1306 
Q 3938 681 3513 340 
Q 3088 0 2303 0 
L 628 0 
L 628 4666 
z
" transform="scale(0.015625)"/>
     </defs>
     <use xlink:href="#DejaVuSans-54"/>
     <use xlink:href="#DejaVuSans-61" x="44.583984"/>
     <use xlink:href="#DejaVuSans-72" x="105.863281"/>
     <use xlink:href="#DejaVuSans-67" x="145.226562"/>
     <use xlink:href="#DejaVuSans-65" x="208.703125"/>
     <use xlink:href="#DejaVuSans-74" x="270.226562"/>
     <use xlink:href="#DejaVuSans-20" x="309.435547"/>
     <use xlink:href="#DejaVuSans-28" x="341.222656"/>
     <use xlink:href="#DejaVuSans-53" x="380.236328"/>
     <use xlink:href="#DejaVuSans-4e" x="443.712891"/>
     <use xlink:href="#DejaVuSans-52" x="518.517578"/>
     <use xlink:href="#DejaVuSans-3d" x="588"/>
     <use xlink:href="#DejaVuSans-31" x="671.789062"/>
     <use xlink:href="#DejaVuSans-32" x="735.412109"/>
     <use xlink:href="#DejaVuSans-2e" x="799.035156"/>
     <use xlink:href="#DejaVuSans-30" x="830.822266"/>
     <use xlink:href="#DejaVuSans-20" x="894.445312"/>
     <use xlink:href="#DejaVuSans-64" x="926.232422"/>
     <use xlink:href="#DejaVuSans-42" x="989.708984"/>
     <use xlink:href="#DejaVuSans-29" x="1058.3125"/>
    </g>
   </g>
   <g id="patch_8">
    <path d="M 244.21494 51.352943 
Q 251.970962 40.798454 259.197339 30.964713 
" style="fill: none; stroke: #000000; stroke-width: 0.8; stroke-linecap: round"/>
    <path d="M 256.013113 32.595879 
L 259.197339 30.964713 
L 258.591736 34.490794 
" style="fill: none; stroke: #000000; stroke-width: 0.8; stroke-linecap: round"/>
   </g>
   <g id="text_18">
    <!-- Target (SNR=18.0 dB) -->
    <g transform="translate(194.818725 61.047414) scale(0.08 -0.08)">
     <defs>
      <path id="DejaVuSans-38" d="M 2034 2216 
Q 1584 2216 1326 1975 
Q 1069 1734 1069 1313 
Q 1069 891 1326 650 
Q 1584 409 2034 409 
Q 2484 409 2743 651 
Q 3003 894 3003 1313 
Q 3003 1734 2745 1975 
Q 2488 2216 2034 2216 
z
M 1403 2484 
Q 997 2584 770 2862 
Q 544 3141 544 3541 
Q 544 4100 942 4425 
Q 1341 4750 2034 4750 
Q 2731 4750 3128 4425 
Q 3525 4100 3525 3541 
Q 3525 3141 3298 2862 
Q 3072 2584 2669 2484 
Q 3125 2378 3379 2068 
Q 3634 1759 3634 1313 
Q 3634 634 3220 271 
Q 2806 -91 2034 -91 
Q 1263 -91 848 271 
Q 434 634 434 1313 
Q 434 1759 690 2068 
Q 947 2378 1403 2484 
z
M 1172 3481 
Q 1172 3119 1398 2916 
Q 1625 2713 2034 2713 
Q 2441 2713 2670 2916 
Q 2900 3119 2900 3481 
Q 2900 3844 2670 4047 
Q 2441 4250 2034 4250 
Q 1625 4250 1398 4047 
Q 1172 3844 1172 3481 
z
" transform="scale(0.015625)"/>
     </defs>
     <use xlink:href="#DejaVuSans-54"/>
     <use xlink:href="#DejaVuSans-61" x="44.583984"/>
     <use xlink:href="#DejaVuSans-72" x="105.863281"/>
     <use xlink:href="#DejaVuSans-67" x="145.226562"/>
     <use xlink:href="#DejaVuSans-65" x="208.703125"/>
     <use xlink:href="#DejaVuSans-74" x="270.226562"/>
     <use xlink:href="#DejaVuSans-20" x="309.435547"/>
     <use xlink:href="#DejaVuSans-28" x="341.222656"/>
     <use xlink:href="#DejaVuSans-53" x="380.236328"/>
     <use xlink:href="#DejaVuSans-4e" x="443.712891"/>
     <use xlink:href="#DejaVuSans-52" x="518.517578"/>
     <use xlink:href="#DejaVuSans-3d" x="588"/>
     <use xlink:href="#DejaVuSans-31" x="671.789062"/>
     <use xlink:href="#DejaVuSans-38" x="735.412109"/>
     <use xlink:href="#DejaVuSans-2e" x="799.035156"/>
     <use xlink:href="#DejaVuSans-30" x="830.822266"/>
     <use xlink:href="#DejaVuSans-20" x="894.445312"/>
     <use xlink:href="#DejaVuSans-64" x="926.232422"/>
     <use xlink:href="#DejaVuSans-42" x="989.708984"/>
     <use xlink:href="#DejaVuSans-29" x="1058.3125"/>
    </g>
   </g>
   <g id="patch_9">
    <path d="M 340.921302 100.107998 
Q 338.219244 103.856835 336.040174 106.88008 
" style="fill: none; stroke: #000000; stroke-width: 0.8; stroke-linecap: round"/>
    <path d="M 339.209248 105.219669 
L 336.040174 106.88008 
L 336.613289 103.348574 
" style="fill: none; stroke: #000000; stroke-width: 0.8; stroke-linecap: round"/>
   </g>
   <g id="text_19">
    <!-- Target (SNR=8.0 dB) -->
    <g transform="translate(304.972725 94.822423) scale(0.08 -0.08)">
     <use xlink:href="#DejaVuSans-54"/>
     <use xlink:href="#DejaVuSans-61" x="44.583984"/>
     <use xlink:href="#DejaVuSans-72" x="105.863281"/>
     <use xlink:href="#DejaVuSans-67" x="145.226562"/>
     <use xlink:href="#DejaVuSans-65" x="208.703125"/>
     <use xlink:href="#DejaVuSans-74" x="270.226562"/>
     <use xlink:href="#DejaVuSans-20" x="309.435547"/>
     <use xlink:href="#DejaVuSans-28" x="341.222656"/>
     <use xlink:href="#DejaVuSans-53" x="380.236328"/>
     <use xlink:href="#DejaVuSans-4e" x="443.712891"/>
     <use xlink:href="#DejaVuSans-52" x="518.517578"/>
     <use xlink:href="#DejaVuSans-3d" x="588"/>
     <use xlink:href="#DejaVuSans-38" x="671.789062"/>
     <use xlink:href="#DejaVuSans-2e" x="735.412109"/>
     <use xlink:href="#DejaVuSans-30" x="767.199219"/>
     <use xlink:href="#DejaVuSans-20" x="830.822266"/>
     <use xlink:href="#DejaVuSans-64" x="862.609375"/>
     <use xlink:href="#DejaVuSans-42" x="926.085938"/>
     <use xlink:href="#DejaVuSans-29" x="994.689453"/>
    </g>
   </g>
   <g id="text_20">
    <!-- CA-CFAR Detection  (Window Size=13, Guard Size=3, pfa=0.01) -->
    <g transform="translate(47.494453 15.558281) scale(0.11 -0.11)">
     <defs>
      <path id="DejaVuSans-43" d="M 4122 4306 
L 4122 3641 
Q 3803 3938 3442 4084 
Q 3081 4231 2675 4231 
Q 1875 4231 1450 3742 
Q 1025 3253 1025 2328 
Q 1025 1406 1450 917 
Q 1875 428 2675 428 
Q 3081 428 3442 575 
Q 3803 722 4122 1019 
L 4122 359 
Q 3791 134 3420 21 
Q 3050 -91 2638 -91 
Q 1578 -91 968 557 
Q 359 1206 359 2328 
Q 359 3453 968 4101 
Q 1578 4750 2638 4750 
Q 3056 4750 3426 4639 
Q 3797 4528 4122 4306 
z
" transform="scale(0.015625)"/>
      <path id="DejaVuSans-41" d="M 2188 4044 
L 1331 1722 
L 3047 1722 
L 2188 4044 
z
M 1831 4666 
L 2547 4666 
L 4325 0 
L 3669 0 
L 3244 1197 
L 1141 1197 
L 716 0 
L 50 0 
L 1831 4666 
z
" transform="scale(0.015625)"/>
      <path id="DejaVuSans-2d" d="M 313 2009 
L 1997 2009 
L 1997 1497 
L 313 1497 
L 313 2009 
z
" transform="scale(0.015625)"/>
      <path id="DejaVuSans-46" d="M 628 4666 
L 3309 4666 
L 3309 4134 
L 1259 4134 
L 1259 2759 
L 3109 2759 
L 3109 2228 
L 1259 2228 
L 1259 0 
L 628 0 
L 628 4666 
z
" transform="scale(0.015625)"/>
      <path id="DejaVuSans-44" d="M 1259 4147 
L 1259 519 
L 2022 519 
Q 2988 519 3436 956 
Q 3884 1394 3884 2338 
Q 3884 3275 3436 3711 
Q 2988 4147 2022 4147 
L 1259 4147 
z
M 628 4666 
L 1925 4666 
Q 3281 4666 3915 4102 
Q 4550 3538 4550 2338 
Q 4550 1131 3912 565 
Q 3275 0 1925 0 
L 628 0 
L 628 4666 
z
" transform="scale(0.015625)"/>
      <path id="DejaVuSans-57" d="M 213 4666 
L 850 4666 
L 1831 722 
L 2809 4666 
L 3519 4666 
L 4500 722 
L 5478 4666 
L 6119 4666 
L 4947 0 
L 4153 0 
L 3169 4050 
L 2175 0 
L 1381 0 
L 213 4666 
z
" transform="scale(0.015625)"/>
      <path id="DejaVuSans-7a" d="M 353 3500 
L 3084 3500 
L 3084 2975 
L 922 459 
L 3084 459 
L 3084 0 
L 275 0 
L 275 525 
L 2438 3041 
L 353 3041 
L 353 3500 
z
" transform="scale(0.015625)"/>
      <path id="DejaVuSans-33" d="M 2597 2516 
Q 3050 2419 3304 2112 
Q 3559 1806 3559 1356 
Q 3559 666 3084 287 
Q 2609 -91 1734 -91 
Q 1441 -91 1130 -33 
Q 819 25 488 141 
L 488 750 
Q 750 597 1062 519 
Q 1375 441 1716 441 
Q 2309 441 2620 675 
Q 2931 909 2931 1356 
Q 2931 1769 2642 2001 
Q 2353 2234 1838 2234 
L 1294 2234 
L 1294 2753 
L 1863 2753 
Q 2328 2753 2575 2939 
Q 2822 3125 2822 3475 
Q 2822 3834 2567 4026 
Q 2313 4219 1838 4219 
Q 1578 4219 1281 4162 
Q 984 4106 628 3988 
L 628 4550 
Q 988 4650 1302 4700 
Q 1616 4750 1894 4750 
Q 2613 4750 3031 4423 
Q 3450 4097 3450 3541 
Q 3450 3153 3228 2886 
Q 3006 2619 2597 2516 
z
" transform="scale(0.015625)"/>
      <path id="DejaVuSans-2c" d="M 750 794 
L 1409 794 
L 1409 256 
L 897 -744 
L 494 -744 
L 750 256 
L 750 794 
z
" transform="scale(0.015625)"/>
      <path id="DejaVuSans-47" d="M 3809 666 
L 3809 1919 
L 2778 1919 
L 2778 2438 
L 4434 2438 
L 4434 434 
Q 4069 175 3628 42 
Q 3188 -91 2688 -91 
Q 1594 -91 976 548 
Q 359 1188 359 2328 
Q 359 3472 976 4111 
Q 1594 4750 2688 4750 
Q 3144 4750 3555 4637 
Q 3966 4525 4313 4306 
L 4313 3634 
Q 3963 3931 3569 4081 
Q 3175 4231 2741 4231 
Q 1884 4231 1454 3753 
Q 1025 3275 1025 2328 
Q 1025 1384 1454 906 
Q 1884 428 2741 428 
Q 3075 428 3337 486 
Q 3600 544 3809 666 
z
" transform="scale(0.015625)"/>
      <path id="DejaVuSans-75" d="M 544 1381 
L 544 3500 
L 1119 3500 
L 1119 1403 
Q 1119 906 1312 657 
Q 1506 409 1894 409 
Q 2359 409 2629 706 
Q 2900 1003 2900 1516 
L 2900 3500 
L 3475 3500 
L 3475 0 
L 2900 0 
L 2900 538 
Q 2691 219 2414 64 
Q 2138 -91 1772 -91 
Q 1169 -91 856 284 
Q 544 659 544 1381 
z
M 1991 3584 
L 1991 3584 
z
" transform="scale(0.015625)"/>
      <path id="DejaVuSans-70" d="M 1159 525 
L 1159 -1331 
L 581 -1331 
L 581 3500 
L 1159 3500 
L 1159 2969 
Q 1341 3281 1617 3432 
Q 1894 3584 2278 3584 
Q 2916 3584 3314 3078 
Q 3713 2572 3713 1747 
Q 3713 922 3314 415 
Q 2916 -91 2278 -91 
Q 1894 -91 1617 61 
Q 1341 213 1159 525 
z
M 3116 1747 
Q 3116 2381 2855 2742 
Q 2594 3103 2138 3103 
Q 1681 3103 1420 2742 
Q 1159 2381 1159 1747 
Q 1159 1113 1420 752 
Q 1681 391 2138 391 
Q 2594 391 2855 752 
Q 3116 1113 3116 1747 
z
" transform="scale(0.015625)"/>
      <path id="DejaVuSans-66" d="M 2375 4863 
L 2375 4384 
L 1825 4384 
Q 1516 4384 1395 4259 
Q 1275 4134 1275 3809 
L 1275 3500 
L 2222 3500 
L 2222 3053 
L 1275 3053 
L 1275 0 
L 697 0 
L 697 3053 
L 147 3053 
L 147 3500 
L 697 3500 
L 697 3744 
Q 697 4328 969 4595 
Q 1241 4863 1831 4863 
L 2375 4863 
z
" transform="scale(0.015625)"/>
     </defs>
     <use xlink:href="#DejaVuSans-43"/>
     <use xlink:href="#DejaVuSans-41" x="69.824219"/>
     <use xlink:href="#DejaVuSans-2d" x="135.982422"/>
     <use xlink:href="#DejaVuSans-43" x="172.066406"/>
     <use xlink:href="#DejaVuSans-46" x="241.890625"/>
     <use xlink:href="#DejaVuSans-41" x="290.285156"/>
     <use xlink:href="#DejaVuSans-52" x="358.693359"/>
     <use xlink:href="#DejaVuSans-20" x="428.175781"/>
     <use xlink:href="#DejaVuSans-44" x="459.962891"/>
     <use xlink:href="#DejaVuSans-65" x="536.964844"/>
     <use xlink:href="#DejaVuSans-74" x="598.488281"/>
     <use xlink:href="#DejaVuSans-65" x="637.697266"/>
     <use xlink:href="#DejaVuSans-63" x="699.220703"/>
     <use xlink:href="#DejaVuSans-74" x="754.201172"/>
     <use xlink:href="#DejaVuSans-69" x="793.410156"/>
     <use xlink:href="#DejaVuSans-6f" x="821.193359"/>
     <use xlink:href="#DejaVuSans-6e" x="882.375"/>
     <use xlink:href="#DejaVuSans-20" x="945.753906"/>
     <use xlink:href="#DejaVuSans-20" x="977.541016"/>
     <use xlink:href="#DejaVuSans-28" x="1009.328125"/>
     <use xlink:href="#DejaVuSans-57" x="1048.341797"/>
     <use xlink:href="#DejaVuSans-69" x="1144.96875"/>
     <use xlink:href="#DejaVuSans-6e" x="1172.751953"/>
     <use xlink:href="#DejaVuSans-64" x="1236.130859"/>
     <use xlink:href="#DejaVuSans-6f" x="1299.607422"/>
     <use xlink:href="#DejaVuSans-77" x="1360.789062"/>
     <use xlink:href="#DejaVuSans-20" x="1442.576172"/>
     <use xlink:href="#DejaVuSans-53" x="1474.363281"/>
     <use xlink:href="#DejaVuSans-69" x="1537.839844"/>
     <use xlink:href="#DejaVuSans-7a" x="1565.623047"/>
     <use xlink:href="#DejaVuSans-65" x="1618.113281"/>
     <use xlink:href="#DejaVuSans-3d" x="1679.636719"/>
     <use xlink:href="#DejaVuSans-31" x="1763.425781"/>
     <use xlink:href="#DejaVuSans-33" x="1827.048828"/>
     <use xlink:href="#DejaVuSans-2c" x="1890.671875"/>
     <use xlink:href="#DejaVuSans-20" x="1922.458984"/>
     <use xlink:href="#DejaVuSans-47" x="1954.246094"/>
     <use xlink:href="#DejaVuSans-75" x="2031.736328"/>
     <use xlink:href="#DejaVuSans-61" x="2095.115234"/>
     <use xlink:href="#DejaVuSans-72" x="2156.394531"/>
     <use xlink:href="#DejaVuSans-64" x="2195.757812"/>
     <use xlink:href="#DejaVuSans-20" x="2259.234375"/>
     <use xlink:href="#DejaVuSans-53" x="2291.021484"/>
     <use xlink:href="#DejaVuSans-69" x="2354.498047"/>
     <use xlink:href="#DejaVuSans-7a" x="2382.28125"/>
     <use xlink:href="#DejaVuSans-65" x="2434.771484"/>
     <use xlink:href="#DejaVuSans-3d" x="2496.294922"/>
     <use xlink:href="#DejaVuSans-33" x="2580.083984"/>
     <use xlink:href="#DejaVuSans-2c" x="2643.707031"/>
     <use xlink:href="#DejaVuSans-20" x="2675.494141"/>
     <use xlink:href="#DejaVuSans-70" x="2707.28125"/>
     <use xlink:href="#DejaVuSans-66" x="2770.757812"/>
     <use xlink:href="#DejaVuSans-61" x="2805.962891"/>
     <use xlink:href="#DejaVuSans-3d" x="2867.242188"/>
     <use xlink:href="#DejaVuSans-30" x="2951.03125"/>
     <use xlink:href="#DejaVuSans-2e" x="3014.654297"/>
     <use xlink:href="#DejaVuSans-30" x="3046.441406"/>
     <use xlink:href="#DejaVuSans-31" x="3110.064453"/>
     <use xlink:href="#DejaVuSans-29" x="3173.6875"/>
    </g>
   </g>
   <g id="line2d_17">
    <defs>
     <path id="m065484eccb" d="M -0 4.5 
L 4.5 -4.5 
L -4.5 -4.5 
z
" style="stroke: #008000; stroke-linejoin: miter"/>
    </defs>
    <g clip-path="url(#p5258d19204)">
     <use xlink:href="#m065484eccb" x="132.398125" y="58.558971" style="fill: #008000; stroke: #008000; stroke-linejoin: miter"/>
    </g>
   </g>
   <g id="line2d_18">
    <g clip-path="url(#p5258d19204)">
     <use xlink:href="#m065484eccb" x="260.911125" y="28.632572" style="fill: #008000; stroke: #008000; stroke-linejoin: miter"/>
    </g>
   </g>
   <g id="line2d_19">
    <g clip-path="url(#p5258d19204)">
     <use xlink:href="#m065484eccb" x="334.347125" y="109.229019" style="fill: #008000; stroke: #008000; stroke-linejoin: miter"/>
    </g>
   </g>
   <g id="line2d_20">
    <defs>
     <path id="mde006e6d03" d="M -0 3.5 
L 3.5 -3.5 
L -3.5 -3.5 
z
" style="stroke: #ff0000; stroke-linejoin: miter"/>
    </defs>
    <g clip-path="url(#p5258d19204)">
     <use xlink:href="#mde006e6d03" x="167.280225" y="138.938133" style="fill: #ff0000; stroke: #ff0000; stroke-linejoin: miter"/>
    </g>
   </g>
   <g id="legend_1">
    <g id="patch_10">
     <path d="M 302.249687 81.599531 
L 401.483125 81.599531 
Q 403.283125 81.599531 403.283125 79.799531 
L 403.283125 27.858281 
Q 403.283125 26.058281 401.483125 26.058281 
L 302.249687 26.058281 
Q 300.449687 26.058281 300.449687 27.858281 
L 300.449687 79.799531 
Q 300.449687 81.599531 302.249687 81.599531 
z
" style="fill: #ffffff; opacity: 0.8; stroke: #cccccc; stroke-linejoin: miter"/>
    </g>
    <g id="line2d_21">
     <path d="M 304.049688 33.346875 
L 313.049688 33.346875 
L 322.049688 33.346875 
" style="fill: none; stroke: #4682b4; stroke-width: 1.2; stroke-linecap: square"/>
    </g>
    <g id="text_21">
     <!-- Received signal -->
     <g transform="translate(329.249687 36.496875) scale(0.09 -0.09)">
      <defs>
       <path id="DejaVuSans-76" d="M 191 3500 
L 800 3500 
L 1894 563 
L 2988 3500 
L 3597 3500 
L 2284 0 
L 1503 0 
L 191 3500 
z
" transform="scale(0.015625)"/>
       <path id="DejaVuSans-73" d="M 2834 3397 
L 2834 2853 
Q 2591 2978 2328 3040 
Q 2066 3103 1784 3103 
Q 1356 3103 1142 2972 
Q 928 2841 928 2578 
Q 928 2378 1081 2264 
Q 1234 2150 1697 2047 
L 1894 2003 
Q 2506 1872 2764 1633 
Q 3022 1394 3022 966 
Q 3022 478 2636 193 
Q 2250 -91 1575 -91 
Q 1294 -91 989 -36 
Q 684 19 347 128 
L 347 722 
Q 666 556 975 473 
Q 1284 391 1588 391 
Q 1994 391 2212 530 
Q 2431 669 2431 922 
Q 2431 1156 2273 1281 
Q 2116 1406 1581 1522 
L 1381 1569 
Q 847 1681 609 1914 
Q 372 2147 372 2553 
Q 372 3047 722 3315 
Q 1072 3584 1716 3584 
Q 2034 3584 2315 3537 
Q 2597 3491 2834 3397 
z
" transform="scale(0.015625)"/>
      </defs>
      <use xlink:href="#DejaVuSans-52"/>
      <use xlink:href="#DejaVuSans-65" x="64.982422"/>
      <use xlink:href="#DejaVuSans-63" x="126.505859"/>
      <use xlink:href="#DejaVuSans-65" x="181.486328"/>
      <use xlink:href="#DejaVuSans-69" x="243.009766"/>
      <use xlink:href="#DejaVuSans-76" x="270.792969"/>
      <use xlink:href="#DejaVuSans-65" x="329.972656"/>
      <use xlink:href="#DejaVuSans-64" x="391.496094"/>
      <use xlink:href="#DejaVuSans-20" x="454.972656"/>
      <use xlink:href="#DejaVuSans-73" x="486.759766"/>
      <use xlink:href="#DejaVuSans-69" x="538.859375"/>
      <use xlink:href="#DejaVuSans-67" x="566.642578"/>
      <use xlink:href="#DejaVuSans-6e" x="630.119141"/>
      <use xlink:href="#DejaVuSans-61" x="693.498047"/>
      <use xlink:href="#DejaVuSans-6c" x="754.777344"/>
     </g>
    </g>
    <g id="line2d_22">
     <path d="M 304.049688 46.557187 
L 313.049688 46.557187 
L 322.049688 46.557187 
" style="fill: none; stroke-dasharray: 5.55,2.4; stroke-dashoffset: 0; stroke: #ff8c00; stroke-width: 1.5"/>
    </g>
    <g id="text_22">
     <!-- CFAR threshold -->
     <g transform="translate(329.249687 49.707187) scale(0.09 -0.09)">
      <defs>
       <path id="DejaVuSans-68" d="M 3513 2113 
L 3513 0 
L 2938 0 
L 2938 2094 
Q 2938 2591 2744 2837 
Q 2550 3084 2163 3084 
Q 1697 3084 1428 2787 
Q 1159 2491 1159 1978 
L 1159 0 
L 581 0 
L 581 4863 
L 1159 4863 
L 1159 2956 
Q 1366 3272 1645 3428 
Q 1925 3584 2291 3584 
Q 2894 3584 3203 3211 
Q 3513 2838 3513 2113 
z
" transform="scale(0.015625)"/>
      </defs>
      <use xlink:href="#DejaVuSans-43"/>
      <use xlink:href="#DejaVuSans-46" x="69.824219"/>
      <use xlink:href="#DejaVuSans-41" x="118.21875"/>
      <use xlink:href="#DejaVuSans-52" x="186.626953"/>
      <use xlink:href="#DejaVuSans-20" x="256.109375"/>
      <use xlink:href="#DejaVuSans-74" x="287.896484"/>
      <use xlink:href="#DejaVuSans-68" x="327.105469"/>
      <use xlink:href="#DejaVuSans-72" x="390.484375"/>
      <use xlink:href="#DejaVuSans-65" x="429.347656"/>
      <use xlink:href="#DejaVuSans-73" x="490.871094"/>
      <use xlink:href="#DejaVuSans-68" x="542.970703"/>
      <use xlink:href="#DejaVuSans-6f" x="606.349609"/>
      <use xlink:href="#DejaVuSans-6c" x="667.53125"/>
      <use xlink:href="#DejaVuSans-64" x="695.314453"/>
     </g>
    </g>
    <g id="line2d_23">
     <path d="M 304.049688 59.7675 
L 313.049688 59.7675 
L 322.049688 59.7675 
" style="fill: none; stroke: #ffffff; stroke-width: 1.5; stroke-linecap: square"/>
     <defs>
      <path id="m9abb242d9d" d="M -0 4.5 
L 4.5 -4.5 
L -4.5 -4.5 
z
" style="stroke: #ffffff; stroke-linejoin: miter"/>
     </defs>
     <g>
      <use xlink:href="#m9abb242d9d" x="313.049688" y="59.7675" style="fill: #008000; stroke: #ffffff; stroke-linejoin: miter"/>
     </g>
    </g>
    <g id="text_23">
     <!-- Detection (3) -->
     <g transform="translate(329.249687 62.9175) scale(0.09 -0.09)">
      <use xlink:href="#DejaVuSans-44"/>
      <use xlink:href="#DejaVuSans-65" x="77.001953"/>
      <use xlink:href="#DejaVuSans-74" x="138.525391"/>
      <use xlink:href="#DejaVuSans-65" x="177.734375"/>
      <use xlink:href="#DejaVuSans-63" x="239.257812"/>
      <use xlink:href="#DejaVuSans-74" x="294.238281"/>
      <use xlink:href="#DejaVuSans-69" x="333.447266"/>
      <use xlink:href="#DejaVuSans-6f" x="361.230469"/>
      <use xlink:href="#DejaVuSans-6e" x="422.412109"/>
      <use xlink:href="#DejaVuSans-20" x="485.791016"/>
      <use xlink:href="#DejaVuSans-28" x="517.578125"/>
      <use xlink:href="#DejaVuSans-33" x="556.591797"/>
      <use xlink:href="#DejaVuSans-29" x="620.214844"/>
     </g>
    </g>
    <g id="line2d_24">
     <path d="M 304.049688 72.977812 
L 313.049688 72.977812 
L 322.049688 72.977812 
" style="fill: none; stroke: #ffffff; stroke-width: 1.5; stroke-linecap: square"/>
     <defs>
      <path id="m9a1253db10" d="M -0 4 
L 4 -4 
L -4 -4 
z
" style="stroke: #ffffff; stroke-linejoin: miter"/>
     </defs>
     <g>
      <use xlink:href="#m9a1253db10" x="313.049688" y="72.977812" style="fill: #ff0000; stroke: #ffffff; stroke-linejoin: miter"/>
     </g>
    </g>
    <g id="text_24">
     <!-- False alarm (1) -->
     <g transform="translate(329.249687 76.127812) scale(0.09 -0.09)">
      <defs>
       <path id="DejaVuSans-6d" d="M 3328 2828 
Q 3544 3216 3844 3400 
Q 4144 3584 4550 3584 
Q 5097 3584 5394 3201 
Q 5691 2819 5691 2113 
L 5691 0 
L 5113 0 
L 5113 2094 
Q 5113 2597 4934 2840 
Q 4756 3084 4391 3084 
Q 3944 3084 3684 2787 
Q 3425 2491 3425 1978 
L 3425 0 
L 2847 0 
L 2847 2094 
Q 2847 2600 2669 2842 
Q 2491 3084 2119 3084 
Q 1678 3084 1418 2786 
Q 1159 2488 1159 1978 
L 1159 0 
L 581 0 
L 581 3500 
L 1159 3500 
L 1159 2956 
Q 1356 3278 1631 3431 
Q 1906 3584 2284 3584 
Q 2666 3584 2933 3390 
Q 3200 3197 3328 2828 
z
" transform="scale(0.015625)"/>
      </defs>
      <use xlink:href="#DejaVuSans-46"/>
      <use xlink:href="#DejaVuSans-61" x="48.394531"/>
      <use xlink:href="#DejaVuSans-6c" x="109.673828"/>
      <use xlink:href="#DejaVuSans-73" x="137.457031"/>
      <use xlink:href="#DejaVuSans-65" x="189.556641"/>
      <use xlink:href="#DejaVuSans-20" x="251.080078"/>
      <use xlink:href="#DejaVuSans-61" x="282.867188"/>
      <use xlink:href="#DejaVuSans-6c" x="344.146484"/>
      <use xlink:href="#DejaVuSans-61" x="371.929688"/>
      <use xlink:href="#DejaVuSans-72" x="433.208984"/>
      <use xlink:href="#DejaVuSans-6d" x="472.572266"/>
      <use xlink:href="#DejaVuSans-20" x="569.984375"/>
      <use xlink:href="#DejaVuSans-28" x="601.771484"/>
      <use xlink:href="#DejaVuSans-31" x="640.785156"/>
      <use xlink:href="#DejaVuSans-29" x="704.408203"/>
     </g>
    </g>
   </g>
  </g>
 </g>
 <defs>
  <clipPath id="p5258d19204">
   <rect x="40.603125" y="21.558281" width="367.18" height="148.6"/>
  </clipPath>
 </defs>
</svg>
