<?xml version="1.0" encoding="UTF-8" standalone="no"?>
<!-- Created with Inkscape (http://www.inkscape.org/) -->

<svg
   xmlns:dc="http://purl.org/dc/elements/1.1/"
   xmlns:cc="http://creativecommons.org/ns#"
   xmlns:rdf="http://www.w3.org/1999/02/22-rdf-syntax-ns#"
   xmlns:svg="http://www.w3.org/2000/svg"
   xmlns="http://www.w3.org/2000/svg"
   xmlns:sodipodi="http://sodipodi.sourceforge.net/DTD/sodipodi-0.dtd"
   xmlns:inkscape="http://www.inkscape.org/namespaces/inkscape"
   width="240mm"
   height="120mm"
   viewBox="0 0 240 120"
   version="1.1"
   id="svg8"
   inkscape:version="0.92.5 (2060ec1f9f, 2020-04-08)"
   sodipodi:docname="monopulse2.svg">
  <defs
     id="defs2" />
  <sodipodi:namedview
     id="base"
     pagecolor="#ffffff"
     bordercolor="#666666"
     borderopacity="1.0"
     inkscape:pageopacity="0.0"
     inkscape:pageshadow="2"
     inkscape:zoom="1.6219896"
     inkscape:cx="466.57775"
     inkscape:cy="183.23155"
     inkscape:document-units="mm"
     inkscape:current-layer="layer1"
     showgrid="false"
     showborder="true"
     width="200mm"
     showguides="true"
     inkscape:guide-bbox="true"
     inkscape:window-width="2488"
     inkscape:window-height="1376"
     inkscape:window-x="72"
     inkscape:window-y="27"
     inkscape:window-maximized="1">
    <inkscape:grid
       type="xygrid"
       id="grid815"
       units="mm"
       spacingx="10"
       spacingy="10"
       empspacing="4"
       dotted="false" />
  </sodipodi:namedview>
  <metadata
     id="metadata5">
    <rdf:RDF>
      <cc:Work
         rdf:about="">
        <dc:format>image/svg+xml</dc:format>
        <dc:type
           rdf:resource="http://purl.org/dc/dcmitype/StillImage" />
        <dc:title />
      </cc:Work>
    </rdf:RDF>
  </metadata>
  <g
     inkscape:label="Layer 1"
     inkscape:groupmode="layer"
     id="layer1"
     transform="translate(0,-177)">
    <flowRoot
       xml:space="preserve"
       id="flowRoot7042"
       style="font-style:normal;font-weight:normal;font-size:40px;line-height:1.25;font-family:sans-serif;letter-spacing:0px;word-spacing:0px;fill:#000000;fill-opacity:1;stroke:none"
       transform="matrix(0.26458333,0,0,0.26458333,0,177)"><flowRegion
         id="flowRegion7044"><rect
           id="rect7046"
           width="132.26601"
           height="49.777531"
           x="261.68759"
           y="53.900856" /></flowRegion><flowPara
         id="flowPara7054" /></flowRoot>    <rect
       style="fill:none;fill-opacity:1;stroke:#000000;stroke-width:0.47528148;stroke-miterlimit:4;stroke-dasharray:none;stroke-opacity:1"
       id="rect817"
       width="49.484653"
       height="82.836586"
       x="2.4918101"
       y="194.55226" />
    <ellipse
       style="fill:none;fill-opacity:1;stroke:#000000;stroke-width:0.47528148;stroke-miterlimit:4;stroke-dasharray:none;stroke-opacity:1"
       id="path819"
       cx="51.976467"
       cy="212.51363"
       rx="6.4057798"
       ry="10.723182" />
    <ellipse
       style="fill:none;fill-opacity:1;stroke:#000000;stroke-width:0.47528148;stroke-miterlimit:4;stroke-dasharray:none;stroke-opacity:1"
       id="path821"
       cx="51.816315"
       cy="259.96371"
       rx="5.9253464"
       ry="9.9189425" />
    <path
       style="fill:none;stroke:#000000;stroke-width:0.47528148px;stroke-linecap:butt;stroke-linejoin:miter;stroke-opacity:1"
       d="m 51.816316,259.96368 c -0.08184,1.61819 0.608255,-0.0541 0.800721,0.26809 0.03775,0.0632 -0.03775,0.20499 0,0.2681 0.03775,0.0632 0.122401,-0.0632 0.160148,0 0.03775,0.0632 -0.03775,0.20476 0,0.26806 0.331344,0.55466 -0.01291,-0.84759 0.320289,0.26809 0.02388,0.08 -0.02388,0.18826 0,0.26807 0.05101,0.17083 0.674884,1.12975 0.800723,1.34041 0.05339,0.0895 0.126385,0.15502 0.160144,0.26806 0.02388,0.08 -0.03775,0.20499 0,0.2681 0.03775,0.0632 0.106766,0 0.160145,0 0.05339,0.0892 0.118262,0.16292 0.160143,0.26806 0.01987,0.05 0.310026,1.05515 0.320289,1.07232 0.0844,0.14131 0.235884,0.12683 0.32029,0.26809 0.03775,0.0632 0,0.17873 0,0.26806 0.05339,0.0892 0.09732,0.19803 0.160144,0.2681 0.09931,0.11085 0.235884,0.12683 0.320289,0.26806 0.0844,0.14132 0.08852,0.37633 0.160144,0.53616 0.09059,0.2022 0.213527,0.35746 0.320288,0.53619 0.106767,0.17872 0.199503,0.3845 0.320289,0.53615 0.09549,0.11992 0.220975,0.15734 0.320291,0.26807 0.06281,0.0702 0.106766,0.17873 0.160143,0.26809 0.160144,0.26807 0.320289,0.53616 0.480433,0.80423 0.05339,0.0895 0.09262,0.2115 0.160144,0.26809 0.04775,0.0399 0.122402,-0.0632 0.160144,0 0.03775,0.0632 -0.02388,0.18826 0,0.26806 0.03376,0.11302 0.106766,0.17873 0.160145,0.2681 0.05339,0.0892 0.09262,0.2115 0.160144,0.26806 0.04775,0.0399 0.106766,0 0.160146,0 0.106766,0.0892 0.220972,0.15735 0.320288,0.26809 0.235648,0.26298 0.404933,0.80935 0.640577,1.07232 0.198635,0.22173 0.449595,0.29638 0.640582,0.53616 0.120789,0.15177 0.199498,0.3845 0.320289,0.53616 0.190982,0.23978 0.449594,0.29638 0.640578,0.53615 1.005723,1.26267 -0.505612,-0.23976 0.800721,1.07232 0.204708,0.20569 0.435871,0.33054 0.640578,0.53616 0.165041,0.16571 0.308284,0.39206 0.480433,0.53617 0.150986,0.12641 0.339979,0.11125 0.480433,0.26806 0.188441,0.21033 0.291993,0.59396 0.480434,0.80424 0.140458,0.15666 0.323701,0.16317 0.480432,0.26808 0.725714,0.48596 0.02219,0.0249 0.480434,0.53617 0.198634,0.22173 0.449595,0.29638 0.640578,0.53616 0.120791,0.15154 0.199502,0.38452 0.320293,0.53616 0.09549,0.11992 0.224797,0.14828 0.320289,0.26806 0.120789,0.15177 0.199498,0.38452 0.320288,0.53617 0.190983,0.23978 0.435866,0.33056 0.640576,0.53616 1.306335,1.31208 -0.205004,-0.19035 0.800724,1.07232 0.190983,0.23977 0.435871,0.33056 0.640577,0.53615 0.165041,0.16572 0.308284,0.39209 0.480434,0.53616 0.916645,0.76723 0.10107,-0.16665 0.800721,0.53616 0.376357,0.37802 0.709227,0.7966 1.121012,1.07232 0.156735,0.10503 0.3237,0.16315 0.480432,0.26809 0.106766,0.0895 0.213528,0.17873 0.320289,0.26806 0.106766,0.0892 0.209464,0.19383 0.320289,0.2681 0.08335,0.62695 0.453212,0.16361 0.640582,0.26806 0.334986,0.18686 0.632772,0.58455 0.960866,0.80425 0.156731,0.10503 0.314904,0.21266 0.480434,0.26807 0.104679,0.0351 0.224796,-0.08 0.320289,0 0.135048,0.11288 0.18524,0.42313 0.320287,0.53617 0.196861,0.16479 0.431776,0.15154 0.640577,0.26808 0.113235,0.0632 0.204488,0.21963 0.320291,0.26809 0.103572,0.0434 0.216715,-0.0435 0.320289,0 0.115805,0.0483 0.213525,0.17872 0.320288,0.26807 0.331346,0.27733 0.40494,0.37051 0.800722,0.53616 0.264065,0.11045 0.536659,0.15757 0.800722,0.26809 0.16377,0.0686 0.313324,0.22822 0.480437,0.26806 0.211376,0.0505 0.432139,-0.0776 0.640575,0 0.28062,0.10435 0.520098,0.43178 0.80073,0.53616 0.208436,0.0776 0.432127,-0.0777 0.640575,0 0.28062,0.10435 0.538029,0.34071 0.800718,0.53616 0.655173,0.48745 0.710961,0.70556 1.441305,1.07232 0.260718,0.13088 0.535008,0.16919 0.800719,0.26809 0.214858,0.08 0.424759,0.19569 0.640574,0.26806 0.318408,0.10665 0.647609,0.12506 0.960874,0.2681 0.277334,0.12669 0.528008,0.38397 0.800719,0.53615 0.208804,0.1164 0.428944,0.16688 0.640574,0.26807 0.162312,0.0776 0.320299,0.17873 0.480443,0.26809 0.160144,0.0895 0.312931,0.23302 0.480431,0.26808 0.264846,0.0554 0.534904,-0.0405 0.800719,0 0.565127,-0.0946 1.061263,0.42312 1.601448,0.53617 0.211872,0.0444 0.428703,-0.0444 0.640575,0 0.436797,0.0914 0.843649,0.45477 1.281161,0.53616 0.265273,0.0493 0.53811,-0.08 0.800719,0 0.6132,0.18663 0.996112,0.7029 1.601437,0.80422 0.318707,0.0535 0.640586,0 0.960873,0 0.53382,0 1.067629,0 1.601437,0 0.160156,0 0.321914,-0.0379 0.480443,0 0.21788,0.0521 0.422176,0.22243 0.640575,0.2681 0.211884,0.0444 0.428357,-0.0395 0.640575,0 0.27053,0.0502 0.530199,0.21776 0.80073,0.26806 0.212218,0.0395 0.427042,0 0.640575,0 0.26691,0 0.533809,0 0.800719,0 1.06763,0 2.13527,0 3.2029,0 0.37367,0 0.74734,0 1.121,0 0.37368,0 0.7483,-0.0447 1.12102,0 0.3765,0.0451 0.74486,0.21568 1.12102,0.2681 0.26597,0.0369 0.53381,0 0.8007,0 0.3203,0 0.64059,0 0.96088,0 0.69395,0 1.38791,0 2.08188,0 2.66907,0 5.33815,0 8.00723,0 1.92172,0 3.84346,0 5.76521,0 0.64057,0 1.28115,0 1.92172,0 0.21352,0 0.42812,0.0356 0.64058,0 0.3231,-0.0541 0.63749,-0.21894 0.96087,-0.2681 0.2658,-0.0405 0.53513,0.0444 0.80072,0 0.27084,-0.0453 0.53501,-0.1692 0.80072,-0.26806 0.21486,-0.08 0.42157,-0.23149 0.64057,-0.2681 0.31871,-0.0535 0.64169,0.0447 0.96087,0 0.32359,-0.0451 0.63749,-0.21893 0.96087,-0.26806 0.26582,-0.0405 0.53812,0.08 0.80073,0 0.33216,-0.10111 0.63074,-0.41775 0.96086,-0.53616 0.42083,-0.15107 0.85579,-0.15851 1.28115,-0.26809 0.26903,-0.0693 0.52964,-0.22683 0.80073,-0.26807 0.31897,-0.0486 0.64494,0.0881 0.96087,0 0.33302,-0.093 0.63332,-0.39911 0.96086,-0.53617 0.31501,-0.13183 0.6414,-0.17082 0.96087,-0.26808 0.26781,-0.0816 0.53292,-0.18662 0.80073,-0.26809 0.31947,-0.0972 0.63749,-0.21894 0.96086,-0.26807 1.44436,-0.21987 0.192,0.40985 2.08188,-0.26809 0.33012,-0.11857 0.63333,-0.39908 0.96087,-0.53616 1.22846,-0.5141 0.76117,-0.026 2.08187,-0.53615 0.32896,-0.12709 0.63333,-0.39909 0.96086,-0.53616 1.77721,-0.74373 0.18156,0.0625 1.7616,-0.26807 0.16751,-0.0351 0.31565,-0.20685 0.48044,-0.26809 2.64404,-0.73768 -0.13565,0.12384 1.44129,-0.53616 0.44808,-0.56193 0.96943,-0.0924 1.44131,-0.26806 0.28062,-0.10436 0.53055,-0.37171 0.80071,-0.53616 0.31729,-0.19315 0.64359,-0.34303 0.96087,-0.53616 0.27016,-0.16455 0.51789,-0.4501 0.80073,-0.53616 0.31512,-0.096 0.64216,0.0535 0.96086,0 0.21901,-0.0367 0.42573,-0.18826 0.64057,-0.26809 0.26571,-0.0988 0.53666,-0.15758 0.80073,-0.26808 0.52353,-0.21915 0.94859,-0.74239 1.44131,-1.07233 0.15673,-0.10503 0.32944,-0.14177 0.48043,-0.26806 0.17215,-0.14411 0.31539,-0.37041 0.48043,-0.53616 0.10228,-0.10273 0.21352,-0.17873 0.32029,-0.2681 0.10678,-0.0892 0.21352,-0.17872 0.3203,-0.26806 0.10678,-0.0895 0.22478,-0.14828 0.32028,-0.26809 0.12079,-0.15154 0.1995,-0.38452 0.32029,-0.53616 0.0955,-0.11992 0.21352,-0.17873 0.32029,-0.26808 0.21352,-0.26808 0.43552,-0.51821 0.64057,-0.80424 0.11594,-0.16176 0.21353,-0.35744 0.32029,-0.53616 0.32029,-0.53615 0.64058,-1.07231 0.96086,-1.60847 0.10678,-0.17873 0.2024,-0.37825 0.32029,-0.53616 0.1503,-0.20127 0.34434,-0.30835 0.48044,-0.53617 0.13607,-0.22776 0.20006,-0.55263 0.32029,-0.80422 0.49033,-1.02602 0.11761,-0.14758 0.64059,-0.80425 0.12079,-0.15153 0.21352,-0.35743 0.32029,-0.53616 0.10677,-0.17873 0.21352,-0.35743 0.32028,-0.53616 0.18272,-0.30587 0.6512,-1.00667 0.80071,-1.34039 0.0716,-0.15991 0.094,-0.3699 0.16015,-0.53616 0.12566,-0.31544 0.34455,-0.50093 0.48045,-0.80424 0.21137,-0.47181 0.26903,-1.13667 0.48042,-1.60847 0.13593,-0.3033 0.35481,-0.48879 0.48044,-0.80425 0.1971,-0.4949 0.28333,-1.11355 0.48043,-1.60847 0.042,-0.10503 0.12634,-0.15503 0.16014,-0.26807 0.48363,-1.61915 -0.0231,-0.11342 0.16015,-1.34041 0.0579,-0.38769 0.26239,-0.68462 0.32029,-1.07231 0.0518,-0.34676 -0.0518,-0.72555 0,-1.07232 0.0288,-0.19383 0.10677,-0.35743 0.16014,-0.53616 0,-0.26809 -0.0314,-0.54136 0,-0.80425 0.0235,-0.19592 0.13121,-0.3423 0.16014,-0.53616 0.026,-0.17338 0,-0.35743 0,-0.53616 0,-0.17872 0,-0.35743 0,-0.53615 0,-0.53616 0,-1.07232 0,-1.60848 0,-0.80425 0,-1.60847 0,-2.41272 0,-0.14968 0.0245,-1.21767 0,-1.34038 -0.0239,-0.11992 -0.13634,-0.14829 -0.16014,-0.2681 -0.0337,-0.16943 0.0338,-0.36661 0,-0.53615 -0.0239,-0.11992 -0.12634,-0.15503 -0.16014,-0.26807 -0.0755,-0.25275 -0.0974,-0.54187 -0.16015,-0.80425 -0.29028,-1.21483 -0.0149,-0.0372 -0.32029,-0.80425 -0.19711,-0.4949 -0.28334,-1.11355 -0.48043,-1.60848 -0.042,-0.10503 -0.10677,-0.17872 -0.16014,-0.26806 -0.10678,-0.17873 -0.21353,-0.35743 -0.32029,-0.53616 -0.32029,-0.53616 -0.64057,-1.07231 -0.96086,-1.60847 -0.10678,-0.17873 -0.21354,-0.35746 -0.32031,-0.53616 -0.10678,-0.17873 -0.22969,-0.33396 -0.32029,-0.53616 -0.0716,-0.15991 -0.0886,-0.3763 -0.16013,-0.53616 -0.0904,-0.20173 -0.68017,-1.18905 -0.80073,-1.34041 -0.0955,-0.11992 -0.23588,-0.12683 -0.32029,-0.26806 -0.0844,-0.14131 -0.094,-0.36991 -0.16014,-0.53616 -0.042,-0.10531 -0.10678,-0.17873 -0.16014,-0.26809 -0.0533,-0.0892 -0.0973,-0.19802 -0.16015,-0.26808 -0.0993,-0.11085 -0.22097,-0.15734 -0.32029,-0.26808 -0.23565,-0.26297 -0.40493,-0.80934 -0.64057,-1.07232 -0.12329,-0.13759 -0.51727,-0.39854 -0.64058,-0.53615 -0.0627,-0.0702 -0.0973,-0.19802 -0.16015,-0.2681 -0.29495,-0.32915 -0.65674,-0.49877 -0.96086,-0.80422 -0.16505,-0.16571 -0.31539,-0.3704 -0.48045,-0.53617 -0.37555,-0.37723 -0.34239,-0.22939 -0.8007,-0.53616 -0.11082,-0.0742 -0.21355,-0.17871 -0.3203,-0.26808 -0.10678,-0.0892 -0.21793,-0.16525 -0.32029,-0.26806 -0.16504,-0.16573 -0.30022,-0.42305 -0.48043,-0.53616 -0.25486,-0.15991 -0.54587,-0.10801 -0.80072,-0.26809 -0.18023,-0.11315 -0.3154,-0.37039 -0.48044,-0.53616 -0.10228,-0.10273 -0.21352,-0.17873 -0.32029,-0.26808 -0.10678,-0.0892 -0.20705,-0.20498 -0.32029,-0.26808 -0.2088,-0.1164 -0.44948,-0.0853 -0.64057,-0.26808 -0.19664,-0.18801 -0.29199,-0.59393 -0.48044,-0.80425 -0.28091,-0.31349 -0.65889,-0.2834 -0.96087,-0.53614 -0.17214,-0.14411 -0.30021,-0.42303 -0.48043,-0.53616 -0.25486,-0.15991 -0.53899,-0.14295 -0.80073,-0.26808 -0.11485,-0.0548 -0.20946,-0.19383 -0.32028,-0.26809 -0.0833,-0.62696 -0.45321,-0.16362 -0.64058,-0.26807 -0.11323,-0.0632 -0.21352,-0.17871 -0.32029,-0.26809 -0.10689,-0.0895 -0.53371,-0.44672 -0.64057,-0.53616 -0.10678,-0.0895 -0.20705,-0.20498 -0.32029,-0.26806 -0.2088,-0.1164 -0.42896,-0.16687 -0.64059,-0.26808 -0.16231,-0.0777 -0.31811,-0.19036 -0.48043,-0.26811 -0.21161,-0.10137 -0.43178,-0.15153 -0.64057,-0.26806 -0.27271,-0.15224 -0.53156,-0.36719 -0.80072,-0.53616 -0.15807,-0.0992 -0.32029,-0.17873 -0.48044,-0.26808 -0.16013,-0.0892 -0.31391,-0.2215 -0.48042,-0.26808 -0.15798,-0.0441 -0.32249,0.0441 -0.48044,0 -0.32585,0.0933 -0.51885,-0.44179 -0.80073,-0.53616 -0.15703,-0.0525 -0.32191,0.0379 -0.48044,0 -0.43577,-0.10408 -0.84539,-0.43194 -1.28115,-0.53615 -0.15854,-0.0379 -0.3219,0.0379 -0.48044,0 -0.21788,-0.0521 -0.42269,-0.21592 -0.64057,-0.2681 -0.15854,-0.0379 -0.32646,0.0736 -0.48042,0 -0.81677,-0.39063 -0.39629,-0.60202 -1.12102,-0.80422 -0.15798,-0.0441 -0.32247,0.0441 -0.48044,0 -0.16651,-0.0464 -0.32029,-0.17873 -0.48043,-0.26808 -0.16015,-0.0895 -0.32029,-0.17873 -0.48043,-0.26808 -0.16015,-0.0892 -0.31293,-0.23304 -0.48044,-0.26809 -0.26484,-0.0554 -0.53587,0.0554 -0.80073,0 -0.16748,-0.0351 -0.31812,-0.19035 -0.48044,-0.26807 -0.68346,-0.32688 -0.69826,-0.25976 -1.44128,-0.53615 -0.21486,-0.08 -0.42183,-0.2273 -0.64059,-0.2681 -0.42443,-0.079 -0.85839,0.10111 -1.28115,0 -0.21789,-0.0521 -0.42269,-0.21591 -0.64057,-0.26806 -0.15854,-0.0379 -0.3219,0.0379 -0.48044,0 -0.21788,-0.0521 -0.4227,-0.21592 -0.64058,-0.2681 -0.15854,-0.0379 -0.32029,0 -0.48044,0 -0.42704,0 -0.8541,0 -1.28115,0 -0.16014,0 -0.3219,0.0379 -0.48043,0 -0.21788,-0.0521 -0.42218,-0.22242 -0.64058,-0.26809 -0.21188,-0.0444 -0.42705,0 -0.64057,0 -0.26692,0 -0.53382,0 -0.80073,0 -1.33454,0 -2.66908,0 -4.00362,0 -0.32028,0 -0.64057,0 -0.96086,0 -0.32029,0 -0.64152,0.0412 -0.96086,0 -0.37635,-0.0483 -0.74467,-0.21963 -1.12102,-0.26806 -0.31935,-0.0411 -0.64058,0 -0.96087,0 -0.42706,0 -0.8541,0 -1.28115,0 -1.44131,0 -2.8826,0 -4.3239,0 -1.44131,0 -2.8826,0 -4.32391,0 -0.2669,0 -0.53381,0 -0.80072,0 -0.32028,0 -0.64189,-0.0486 -0.96086,0 -0.27108,0.0414 -0.5302,0.21777 -0.80073,0.26806 -0.21223,0.0395 -0.42705,0 -0.64057,0 -0.90749,0 -1.81498,0 -2.72246,0 -0.26691,0 -0.53381,0 -0.80073,0 -0.21352,0 -0.42811,-0.0356 -0.64057,0 -0.3231,0.0541 -0.6375,0.21895 -0.96088,0.26809 -0.2658,0.0405 -0.53381,0 -0.8007,0 -0.69397,0 -1.38793,0 -2.08188,0 -0.26691,0 -0.534607,-0.0341 -0.800733,0 -2.77047,0.35677 0.206556,0.2681 -2.562311,0.2681 -0.373676,0 -0.747341,0 -1.121017,0 -0.533809,0 -1.071746,-0.11085 -1.601449,0 -0.335001,0.0703 -0.640575,0.35743 -0.960862,0.53616 -0.373665,0.0892 -0.744851,0.21568 -1.121006,0.26806 -0.478782,0.0667 -0.963249,-0.08 -1.441305,0 -0.323089,0.0541 -0.637277,0.22288 -0.960862,0.26809 -0.319192,0.0444 -0.642166,-0.0535 -0.960874,0 -0.218998,0.0367 -0.425716,0.18803 -0.640575,0.26807 -0.26571,0.0988 -0.529876,0.22265 -0.800718,0.26809 -0.478056,0.08 -0.963803,-0.0888 -1.441305,0 -2.666944,0.49604 0.611932,-0.1011 -1.28115,0.80422 -0.205311,0.0981 -0.428356,-0.0395 -0.640586,0 -0.270531,0.0502 -0.535008,0.1692 -0.800718,0.2681 -0.549364,0.20429 -1.068978,0.50713 -1.601449,0.80422 -0.160144,0.0895 -0.316667,0.19965 -0.480431,0.26809 -0.914323,0.38264 -0.619312,0.12344 -1.441293,0.53616 -0.323378,0.16246 -0.643585,0.34302 -0.960874,0.53616 -0.270162,0.16455 -0.525379,0.39788 -0.800723,0.53616 -0.260714,0.13089 -0.542496,0.12385 -0.800722,0.26806 -0.226477,0.12642 -0.414098,0.4098 -0.640579,0.53619 -0.258225,0.1441 -0.536654,0.15758 -0.80072,0.26806 -0.163767,0.0686 -0.313924,0.22173 -0.480434,0.2681 -0.157966,0.0441 -0.323401,-0.0525 -0.480434,0 -0.0075,0.003 -0.61844,0.52133 -0.640576,0.53615 -0.156737,0.10503 -0.323702,0.16317 -0.480435,0.26807 -0.110825,0.0742 -0.20705,0.20499 -0.320288,0.26809 -0.208804,0.1164 -0.449481,0.0853 -0.640578,0.26808 -0.19664,0.18801 -0.291991,0.59392 -0.480433,0.80424 -0.140459,0.15664 -0.323702,0.16315 -0.480437,0.26806 -0.110825,0.0742 -0.203241,0.22893 -0.320289,0.26811 -0.157033,0.0525 -0.322467,-0.0441 -0.480433,0 -0.455256,0.12709 -0.427322,0.28611 -0.800722,0.53614 -0.313466,0.20988 -0.647399,0.32628 -0.960867,0.53616 -0.221652,0.14852 -0.418925,0.38774 -0.640577,0.53616 -0.156732,0.10504 -0.323701,0.16315 -0.480433,0.26808 -0.221656,0.1485 -0.408976,0.43924 -0.640577,0.53615 -0.732918,0.30673 0.16651,-0.54148 -0.800723,0.2681 -0.06754,0.0564 -0.09262,0.21149 -0.160145,0.26806 -0.150986,0.12641 -0.323701,0.16316 -0.480432,0.26808 -0.15052,0.10084 -0.845381,0.65925 -0.960871,0.80424 -0.120789,0.15154 -0.199498,0.3845 -0.320289,0.53616 -0.281852,0.35387 -0.679012,0.45036 -0.960866,0.80425 -0.120789,0.15152 -0.199498,0.3845 -0.320289,0.53615 -0.09549,0.11991 -0.217935,0.16524 -0.320289,0.2681 -1.7708,1.97617 0.430375,-0.43227 -0.800721,0.80422 -0.165041,0.16571 -0.313325,0.3763 -0.480434,0.53616 -0.850527,0.81359 -0.372407,0.30298 -1.12101,0.80425 -0.366068,0.2451 -0.424741,0.42659 -0.800723,0.80422 -0.10235,0.10273 -0.213527,0.17873 -0.320289,0.2681 -0.213527,0.17871 -0.421151,0.37871 -0.64058,0.53615 -0.155157,0.11125 -0.323697,0.16316 -0.480434,0.26807 -0.366068,0.24513 -0.424736,0.42659 -0.800723,0.80425 -0.10235,0.10273 -0.213522,0.17873 -0.320288,0.26806 -0.106767,0.0892 -0.204487,0.21963 -0.320289,0.2681 -0.103572,0.0432 -0.216711,-0.0435 -0.320287,0 -0.115807,0.0483 -0.213528,0.17873 -0.320291,0.26806 -0.320289,0.2681 -0.640577,0.53616 -0.960866,0.80425 -0.106766,0.0895 -0.207051,0.205 -0.320288,0.26807 -0.05064,0.0283 -0.1095,-0.0284 -0.160144,0 -0.113235,0.0632 -0.207051,0.20499 -0.32029,0.26809 -0.05063,0.0284 -0.112405,-0.0399 -0.160145,0 -0.135048,0.11301 -0.185244,0.42313 -0.320288,0.53616 -0.04775,0.0399 -0.109499,-0.0284 -0.160144,0 -0.113235,0.0632 -0.213527,0.17873 -0.320289,0.26806 -0.106766,0.0895 -0.220973,0.15736 -0.320288,0.2681 -0.06281,0.0702 -0.09262,0.2115 -0.160146,0.26806 -0.04775,0.0399 -0.112405,-0.0399 -0.160144,0 -0.06754,0.0564 -0.106766,0.17873 -0.160145,0.2681 -0.160148,0.26806 -0.320292,0.53615 -0.480437,0.80422 -0.05339,0.0895 -0.09732,0.19802 -0.160143,0.26809 -0.581718,0.6492 -0.113247,-0.0785 -0.480434,0.53616 -0.213523,0.35743 -0.42705,0.71489 -0.640578,1.07232 -0.05339,0.0892 -0.09732,0.19802 -0.160144,0.26809 -0.09932,0.11085 -0.220969,0.15711 -0.320288,0.26806 -0.06281,0.0702 -0.09262,0.2115 -0.160145,0.2681 -0.520863,0.43593 -0.380931,0.0677 -0.800723,0.53615 -0.05339,0.0892 -0.106755,0.17873 -0.160144,0.26807 0,0.0892 0.03775,0.20499 0,0.26809 -0.03775,0.0632 -0.122401,-0.0632 -0.160145,0 -0.03775,0.0632 0.03775,0.20499 0,0.26807 -0.03775,0.0632 -0.1224,-0.0632 -0.160143,0 -0.03775,0.0632 0.03775,0.20499 0,0.26809 -0.03775,0.0632 -0.122402,-0.0632 -0.160144,0 -0.03775,0.0632 0.03775,0.20499 0,0.26807 -0.03775,0.0632 -0.160145,0.0895 -0.160145,0 0,-0.0892 0.106766,0 0.160145,0"
       id="path829"
       inkscape:connector-curvature="0" />
    <path
       style="fill:none;stroke:#000000;stroke-width:0.47528148px;stroke-linecap:butt;stroke-linejoin:miter;stroke-opacity:1"
       d="m 51.496028,212.51362 c 0.01462,0.0122 0.691073,0.43713 0.80072,0.80425 0.02388,0.08 -0.02388,0.18826 0,0.26806 0.09609,0.32171 0.384346,0.48255 0.480437,0.80425 0.02388,0.08 -0.02388,0.18825 0,0.26807 0.366457,1.22689 -0.06637,-1.13757 0.320289,0.80425 0.01689,0.0849 -0.0296,0.1936 0,0.26806 0.08375,0.21035 0.229699,0.33396 0.32029,0.53616 0.07161,0.1599 0.09392,0.36991 0.160144,0.53616 0.04187,0.10503 0.106767,0.17873 0.160144,0.26809 0.106766,0.17873 0.199498,0.38451 0.320289,0.53616 0.52303,0.65666 0.150252,-0.22172 0.640577,0.80422 0.120236,0.2516 0.200054,0.55266 0.32029,0.80426 0.188639,0.39471 0.459394,0.66791 0.640577,1.07231 0.07162,0.1599 0.07574,0.39487 0.160144,0.53616 0.0844,0.14131 0.235884,0.12669 0.320289,0.26806 0.0844,0.14132 0.07574,0.39488 0.160144,0.53616 0.0844,0.14132 0.235888,0.12696 0.320291,0.2681 0.0844,0.14131 0.08852,0.3763 0.160143,0.53615 0.41286,0.9215 0.227717,0.15085 0.640577,1.07232 0.07163,0.1599 0.08852,0.3763 0.160144,0.53616 0.09059,0.2022 0.213528,0.35743 0.320289,0.53616 0.106766,0.17872 0.213528,0.35745 0.320291,0.53615 0.320288,0.53616 0.640577,1.07232 0.960869,1.60848 0.106766,0.17873 0.223629,0.34201 0.320288,0.53617 0.170867,0.34324 0.291699,0.75638 0.480434,1.0723 0.0844,0.14131 0.217931,0.16525 0.320289,0.26809 0.165041,0.16572 0.320289,0.35743 0.480433,0.53616 0.160144,0.17873 0.332573,0.32989 0.480433,0.53616 0.173986,0.24271 0.288382,0.60331 0.480433,0.80425 0.243771,0.25503 0.543602,0.32094 0.800722,0.53616 0.17215,0.1441 0.308285,0.39206 0.480433,0.53616 0.257121,0.21521 0.543602,0.32094 0.800723,0.53616 0.344302,0.28816 0.607053,0.81846 0.960867,1.07231 0.202304,0.14503 0.434495,0.13875 0.640581,0.26808 0.223526,0.14037 0.417047,0.39584 0.640577,0.53614 0.206081,0.1294 0.439449,0.11857 0.640576,0.2681 0.284437,0.2115 0.517356,0.58861 0.800724,0.80425 2.120478,1.61347 -0.09691,-0.32708 1.761588,0.80422 0.336537,0.20476 0.624335,0.59939 0.960867,0.80425 0.976085,0.59415 0.569375,-0.0476 1.441299,0.53616 0.332485,0.22265 0.618611,0.62794 0.96087,0.80422 0.36077,0.18595 0.753213,0.12601 1.121012,0.26811 0.0022,5.9e-4 1.913629,1.06812 1.921733,1.0723 0.371438,0.19128 0.749572,0.34483 1.12101,0.53616 0.322687,0.16619 0.638182,0.36997 0.960866,0.53617 0.371433,0.19127 0.742342,0.38987 1.121012,0.53616 0.316389,0.12222 0.65282,0.0962 0.960873,0.26806 0.339718,0.18965 0.618608,0.62797 0.960862,0.80424 0.360774,0.1857 0.75629,0.10531 1.121006,0.26808 0.440695,0.19662 0.857694,0.5207 1.281162,0.80425 0.37747,0.25275 0.728199,0.62889 1.121017,0.80422 0.415834,0.1857 0.865304,0.0826 1.28115,0.26809 0.392818,0.17548 0.735337,0.58904 1.121017,0.80426 0.417598,0.23301 0.860426,0.31942 1.28115,0.53614 0.274762,0.14155 0.53382,0.35744 0.800718,0.53617 0.427054,0.17872 0.856483,0.34225 1.281161,0.53616 1.539227,0.70271 -0.847627,-0.29427 1.121018,0.80422 0.258215,0.1441 0.538109,0.14829 0.800718,0.2681 0.325719,0.14873 0.635144,0.38745 0.960862,0.53615 0.575794,0.26286 1.1858,0.27328 1.761593,0.53616 0.277334,0.12668 0.523384,0.40954 0.800718,0.53616 0.313265,0.14293 0.642466,0.16152 0.960862,0.26806 0.215828,0.0723 0.42574,0.18826 0.640598,0.2681 0.265711,0.0988 0.534996,0.1692 0.800707,0.26806 0.214859,0.08 0.421577,0.23149 0.640575,0.2681 0.531179,0.0891 1.071757,-0.11085 1.601447,0 0.21841,0.0457 0.42218,0.22242 0.64058,0.26806 0.21188,0.0444 0.42705,0 0.64057,0 0.26692,0 0.53383,0 0.80073,0 0.21352,0 0.42705,0 0.64058,0 0.32028,0 0.64494,-0.0881 0.96087,0 0.33302,0.093 0.6287,0.43505 0.96086,0.53616 0.2626,0.08 0.53492,-0.0405 0.80073,0 0.97263,0.14805 1.90423,0.7019 2.8826,0.80425 0.47951,0.0502 0.96508,-0.10625 1.44131,0 3.91823,0.87453 -2.6236,0.32512 2.24201,0.80422 0.47961,0.0472 0.96087,0 1.4413,0 0.96088,0 1.92174,0 2.8826,0 3.57656,0 7.15314,0 10.72969,0 1.01425,0 2.0285,0 3.04275,0 0.21352,0 0.42704,0 0.64057,0 0.16014,0 0.32152,0.0333 0.48043,0 0.2701,-0.0564 0.53063,-0.2115 0.80072,-0.26806 0.15891,-0.0333 0.32191,0.0379 0.48043,0 0.35191,-0.0842 0.77879,-0.34521 1.12102,-0.53616 0.16013,-0.0892 0.31564,-0.20686 0.48042,-0.26809 0.31699,-0.11789 0.64587,-0.1362 0.96089,-0.26807 0.32754,-0.13713 0.63514,-0.38745 0.96086,-0.53616 0.26261,-0.11992 0.53812,-0.14828 0.80072,-0.26809 0.32572,-0.14875 0.63514,-0.38744 0.96086,-0.53616 0.2626,-0.11992 0.54492,-0.11221 0.80073,-0.26806 0.33653,-0.20476 0.62116,-0.61469 0.96086,-0.80425 0.30804,-0.17176 0.64141,-0.17082 0.96088,-0.26807 0.26779,-0.0816 0.53382,-0.17873 0.80071,-0.26809 0.26691,-0.0895 0.54251,-0.12412 0.80072,-0.26807 0.2265,-0.12642 0.41193,-0.42132 0.64059,-0.53615 0.311,-0.1562 0.6476,-0.12507 0.96087,-0.2681 0.27734,-0.12669 0.52537,-0.39788 0.80071,-0.53616 0.26072,-0.13089 0.53813,-0.14828 0.80073,-0.26806 0.32572,-0.14875 0.63333,-0.39911 0.96087,-0.53616 0.31501,-0.13184 0.6476,-0.12507 0.96087,-0.26809 0.76454,-0.34904 0.706,-0.66748 1.4413,-0.80422 0.26526,-0.0493 0.53811,0.08 0.80072,0 0.43541,-0.13251 1.32702,-0.79954 1.76159,-1.07235 0.38909,-0.24424 0.708,-0.38251 1.121,-0.53616 0.26692,-0.0892 0.53383,-0.17872 0.80073,-0.26806 0.16014,0 0.32246,0.0441 0.48043,0 0.33303,-0.093 0.62981,-0.42533 0.96087,-0.53616 0.1047,-0.0351 0.21672,0.0434 0.32029,0 0.11579,-0.0483 0.21352,-0.17873 0.3203,-0.26809 0.21352,-0.17873 0.41409,-0.40977 0.64057,-0.53616 0.47672,-0.26601 -0.32859,0.63479 0.48042,-0.26808 0.0627,-0.0702 0.0973,-0.19801 0.16016,-0.26808 0.0993,-0.11085 0.2248,-0.14828 0.32028,-0.26806 0.12079,-0.15154 0.19082,-0.40613 0.32029,-0.53616 0.14475,-0.14549 0.34539,-0.0985 0.48043,-0.26809 0.0955,-0.11992 0.0886,-0.37631 0.16015,-0.53616 0.0905,-0.2022 0.1995,-0.38452 0.32028,-0.53616 0.0955,-0.11992 0.2248,-0.14828 0.32029,-0.26808 0.1208,-0.15177 0.21352,-0.35744 0.3203,-0.53614 0.10678,-0.17873 0.22597,-0.33883 0.32029,-0.53617 0.12023,-0.25161 0.20005,-0.55266 0.32028,-0.80424 0.0942,-0.19733 0.20239,-0.37827 0.32029,-0.53617 0.1503,-0.20127 0.36856,-0.27397 0.48044,-0.53616 0.16708,-0.39156 0.17766,-0.92259 0.32029,-1.34041 0.075,-0.2194 0.22598,-0.33879 0.32029,-0.53616 0.12023,-0.25158 0.20005,-0.55263 0.32029,-0.80422 0.0942,-0.19731 0.2297,-0.33396 0.32028,-0.53616 0.0716,-0.1599 0.0856,-0.38013 0.16016,-0.53615 0.14147,-0.29605 0.32029,-0.53616 0.48042,-0.80426 0.37368,-0.62552 0.74734,-1.25104 1.12102,-1.87653 0.72437,-1.21261 -0.15099,0.30328 0.80072,-1.60851 0.19331,-0.38832 0.42705,-0.71486 0.64057,-1.07231 0.32029,-0.53616 0.64057,-1.07232 0.96086,-1.60848 0.16016,-0.26806 0.34456,-0.50091 0.48044,-0.80422 0.11552,-0.25775 0.20481,-0.5465 0.32029,-0.80425 0.13593,-0.3033 0.34455,-0.50093 0.48044,-0.80422 0.0716,-0.1599 0.094,-0.36991 0.16014,-0.53619 0.042,-0.10503 0.11829,-0.16292 0.16015,-0.26806 0.24661,-0.61922 0.0737,-0.45309 0.32029,-1.07232 0.042,-0.10503 0.13634,-0.14827 0.16014,-0.26809 0.0337,-0.16966 -0.0258,-0.36275 0,-0.53616 -0.0965,-0.48519 0.25942,-0.49857 0.32029,-0.80422 0.0338,-0.16967 -0.0338,-0.36662 0,-0.53616 0.0239,-0.11992 0.11829,-0.16292 0.16014,-0.2681 0.0662,-0.16617 0.12233,-0.34659 0.16015,-0.53615 0.0338,-0.16943 -0.0338,-0.36662 0,-0.53616 0.0378,-0.18965 0.12245,-0.3466 0.16014,-0.53616 0.0338,-0.16943 -0.0477,-0.3763 0,-0.53616 0.0338,-0.11288 0.13635,-0.14828 0.16015,-0.26806 0.0243,-0.12222 0,-1.69503 0,-1.87657 0,-0.3877 0.0339,-1.59346 0,-1.87657 -0.0234,-0.19592 -0.13121,-0.3423 -0.16015,-0.53615 -0.0259,-0.17338 0.0259,-0.36278 0,-0.53616 -0.0288,-0.19383 -0.10678,-0.35743 -0.16014,-0.53616 -0.0535,-0.17873 -0.10678,-0.35743 -0.16015,-0.53616 -0.10677,-0.35743 -0.18787,-0.7398 -0.32028,-1.07231 -0.042,-0.10503 -0.12635,-0.15503 -0.16015,-0.26807 -0.0239,-0.08 0.0239,-0.18826 0,-0.26809 -0.0674,-0.22614 -0.23655,-0.32586 -0.3203,-0.53616 -0.13244,-0.33252 -0.19747,-0.72965 -0.32028,-1.07232 -0.19805,-0.55254 -0.44252,-1.05593 -0.64058,-1.60847 -0.0613,-0.17129 -0.0987,-0.36482 -0.16013,-0.53616 -0.0991,-0.27628 -0.22127,-0.52796 -0.32031,-0.80423 -0.29936,-0.83528 -0.008,-0.35231 -0.48042,-1.3404 -0.0943,-0.19733 -0.24261,-0.31943 -0.32029,-0.53617 -0.0869,-0.24231 -0.0733,-0.56193 -0.16015,-0.80424 -0.15536,-0.43346 -0.45194,-0.67759 -0.64058,-1.07233 -0.12023,-0.25158 -0.20005,-0.55263 -0.32028,-0.80422 -0.0943,-0.19731 -0.2297,-0.33396 -0.32029,-0.53616 -0.0716,-0.1599 -0.0886,-0.37632 -0.16015,-0.53614 -0.13591,-0.30331 -0.32028,-0.53617 -0.48044,-0.80427 -0.10678,-0.17871 -0.21352,-0.35743 -0.32029,-0.53614 -0.0534,-0.0895 -0.0973,-0.19802 -0.16013,-0.2681 -0.0993,-0.11086 -0.22481,-0.14828 -0.32029,-0.26807 -0.45919,-0.57648 -0.19111,-0.63496 -0.80073,-1.07232 -0.2023,-0.14502 -0.44371,-0.10313 -0.64057,-0.26808 -0.0142,-0.0122 -0.60617,-1.02621 -0.64058,-1.07233 -0.18724,-0.48648 -0.55172,-0.4916 -0.80073,-0.80422 -0.12078,-0.15153 -0.19465,-0.39596 -0.32028,-0.53616 -0.19865,-0.22171 -0.44632,-0.30387 -0.64059,-0.53616 -0.18429,-0.22032 -0.29199,-0.59395 -0.48042,-0.80425 -0.14046,-0.15664 -0.32945,-0.14176 -0.48044,-0.26806 -0.17215,-0.14409 -0.31539,-0.3704 -0.48044,-0.53619 -0.2047,-0.20567 -0.44959,-0.29637 -0.64058,-0.53616 -0.12079,-0.15152 -0.18919,-0.41074 -0.32029,-0.53614 -0.24959,-0.23875 -0.53802,-0.34071 -0.8007,-0.53617 -0.43633,-0.32459 -0.84231,-0.75747 -1.28116,-1.07232 -0.15517,-0.11139 -0.3237,-0.16315 -0.48045,-0.26806 -0.11081,-0.0742 -0.20946,-0.19383 -0.32028,-0.2681 -0.15673,-0.10476 -0.32945,-0.14176 -0.48044,-0.26806 -0.17214,-0.14409 -0.31332,-0.3763 -0.48043,-0.53616 -0.62085,-0.59391 -1.30086,-1.01458 -1.92173,-1.60847 -0.1671,-0.1599 -0.30829,-0.39208 -0.48043,-0.53616 -0.15099,-0.12642 -0.32945,-0.14178 -0.48043,-0.26809 -0.17215,-0.1441 -0.32029,-0.35743 -0.48045,-0.53616 -0.2669,-0.26807 -0.52231,-0.5712 -0.8007,-0.80422 -0.22976,-0.19221 -0.91578,-0.45028 -1.12102,-0.53616 -0.80435,-0.33663 -0.43178,-0.15154 -1.12102,-0.53616 -1.15191,-0.64276 0.28659,0.13712 -1.12101,-0.53616 -0.0191,-0.009 -0.95671,-0.53539 -0.96086,-0.53618 -0.31834,-0.0593 -0.64253,0.0593 -0.96087,0 -0.16778,-0.0311 -0.31812,-0.19035 -0.48043,-0.26807 -0.68348,-0.3269 -0.69828,-0.25975 -1.44131,-0.53616 -0.21486,-0.08 -0.42183,-0.22729 -0.64057,-0.26809 -1.83894,0 0.13286,0.10828 -1.44132,-0.26807 -0.15852,-0.0379 -0.32029,0 -0.48042,0 -0.26691,0 -0.53382,0 -0.80073,0 -0.16013,0 -0.32246,0.0441 -0.48042,0 -0.16652,-0.0464 -0.31332,-0.22823 -0.48044,-0.26809 -0.21139,-0.0505 -0.43343,0.0868 -0.64057,0 -0.23161,-0.0969 -0.40755,-0.44947 -0.64059,-0.53616 -0.26055,-0.0969 -0.53381,0 -0.80072,0 -0.53382,0 -1.06763,0 -1.60145,0 -0.2669,0 -0.53544,0.0493 -0.80072,0 -0.21874,-0.0407 -0.42217,-0.22242 -0.64057,-0.26806 -0.21189,-0.0444 -0.42921,0.0505 -0.64058,0 -0.1671,-0.0399 -0.31333,-0.22824 -0.48044,-0.26809 -0.21138,-0.0506 -0.42705,0 -0.64057,0 -0.53381,0 -1.06763,0 -1.60144,0 -1.22777,0 -2.45556,0 -3.68333,0 -0.80073,0 -1.60145,0 -2.40217,0 -0.21352,0 -0.42704,0 -0.64058,0 -0.21352,0 -0.42869,-0.0444 -0.64058,0 -0.21838,0.0457 -0.42346,0.20755 -0.64057,0.26809 -0.1054,0.0292 -0.21498,-0.0292 -0.32029,0 -0.21711,0.0606 -0.42348,0.20755 -0.64057,0.26806 -0.1054,0.0295 -0.21561,-0.0351 -0.32029,0 -0.16553,0.0554 -0.31394,0.22173 -0.48044,0.2681 -0.31593,0.0881 -0.65014,-0.12993 -0.96087,0 -0.80926,0.33865 -0.67177,0.67542 -1.44129,0.80422 -0.6374,0.10666 -1.28379,-0.0972 -1.92175,0 -0.27107,0.0414 -0.52964,0.22683 -0.80072,0.26809 -0.31898,0.0486 -0.64168,-0.0447 -0.96086,0 -0.32359,0.0451 -0.63749,0.21894 -0.96086,0.26807 -0.26583,0.0405 -0.53493,-0.0405 -0.80073,0 -0.5516,-0.35674 -0.95217,0.4452 -1.4413,0.53616 -0.31832,0.0593 -0.6482,-0.11626 -0.96087,0 -0.18788,0.07 -0.29785,0.43429 -0.48043,0.53618 -0.15193,0.0849 -0.32247,-0.0441 -0.48044,0 -0.16651,0.0464 -0.31391,0.22148 -0.48042,0.26807 -1.4006,0.39076 0.77791,-0.71674 -1.28116,0.26809 -0.11485,0.0548 -0.20325,0.22893 -0.3203,0.26806 -0.15703,0.0525 -0.3234,-0.0525 -0.48043,0 -0.11704,0.0393 -0.20704,0.205 -0.32029,0.2681 -0.20879,0.1164 -0.42894,0.16687 -0.64057,0.26806 -0.53431,0.25554 -1.04633,0.6715 -1.60144,0.80425 -0.15854,0.0379 -0.3219,-0.0379 -0.48044,0 -0.21788,0.0521 -0.42219,0.22242 -0.64058,0.26807 -0.21188,0.0444 -0.4292,-0.0505 -0.64057,0 -0.16711,0.0399 -0.3203,0.17873 -0.480446,0.26809 -0.342231,0.19105 -0.7691,0.452 -1.121006,0.53616 -0.158541,0.0379 -0.322466,-0.0441 -0.480442,0 -0.333018,0.093 -0.627845,0.44324 -0.960863,0.53616 -1.221683,0 0.126347,-0.11992 -0.80073,0.26806 -0.103549,0.0435 -0.216703,-0.0435 -0.320287,0 -0.231602,0.0969 -0.406482,0.4578 -0.640575,0.53616 -0.15703,0.0525 -0.323401,-0.0525 -0.480431,0 -0.11704,0.0393 -0.209462,0.19384 -0.320287,0.26809 -0.156731,0.10503 -0.323701,0.16316 -0.480443,0.26807 -0.221639,0.14851 -0.418913,0.38774 -0.640575,0.53616 -0.468462,0.31369 -0.977617,0.47159 -1.441293,0.80425 -0.219425,0.15735 -0.408973,0.43924 -0.640575,0.53616 -0.207156,0.0866 -0.428703,-0.0444 -0.640575,0 -0.407312,-0.0448 -0.736306,0.44414 -1.121017,0.53615 -0.211376,0.0506 -0.429199,-0.0505 -0.640575,0 -0.16712,0.0399 -0.320299,0.17873 -0.480443,0.26807 -0.160143,0.0895 -0.320287,0.17873 -0.480431,0.26809 -0.160143,0.0895 -0.313922,0.22173 -0.480431,0.26808 -0.157964,0.0441 -0.322467,-0.0441 -0.480431,0 -0.166509,0.0464 -0.320287,0.17873 -0.480431,0.26808 -0.26691,0.0892 -0.531272,0.2036 -0.80073,0.26806 -0.10574,0.0253 -0.218998,-0.0564 -0.320287,0 -0.226482,0.12642 -0.42115,0.37875 -0.640575,0.53616 -0.310325,0.22267 -0.650549,0.31356 -0.960874,0.53619 -0.219425,0.15735 -0.406482,0.45777 -0.640575,0.53616 -2.839714,0.95071 1.125607,-1.19629 -2.081879,0.26806 -0.230311,0.10503 -0.406483,0.4578 -0.640575,0.53616 -0.314072,0.10504 -0.640575,0 -0.960862,0 -0.373677,0.0895 -0.754825,0.11478 -1.121018,0.26809 -0.278879,0.11667 -0.528006,0.38398 -0.800724,0.53616 -0.208799,0.1164 -0.428946,0.16688 -0.640577,0.26808 -0.162312,0.0776 -0.313923,0.22171 -0.480434,0.26808 -0.157966,0.0441 -0.322468,-0.0441 -0.480433,0 -0.16651,0.0464 -0.313324,0.22823 -0.480432,0.26806 -0.21138,0.0505 -0.429958,-0.0587 -0.64058,0 -0.117736,0.0328 -0.20946,0.19384 -0.320288,0.2681 -0.156731,0.10504 -0.314903,0.21267 -0.480433,0.26806 -0.104679,0.0351 -0.215599,-0.035 -0.320288,0 -0.16553,0.0554 -0.313922,0.22173 -0.480435,0.26809 -0.157965,0.0441 -0.322466,-0.0441 -0.480432,0 -0.16651,0.0464 -0.320289,0.17873 -0.480433,0.26808 -0.160144,0.0895 -0.323701,0.16315 -0.480434,0.26808 -0.110825,0.0742 -0.203244,0.22893 -0.320292,0.26808 -0.157032,0.0525 -0.323396,-0.0525 -0.480433,0 -0.117042,0.0393 -0.213522,0.17873 -0.320289,0.26808 -0.160145,0 -0.322467,-0.0441 -0.480433,0 -0.9622,0.26844 -0.06886,0.18616 -0.800722,0.53616 -0.26172,0.1252 -0.545857,0.10801 -0.800722,0.26807 -0.180216,0.11315 -0.303528,0.40927 -0.480434,0.53618 -0.2023,0.14503 -0.42895,0.16688 -0.640577,0.26806 -0.324623,0.15526 -0.633334,0.3991 -0.960868,0.53616 -0.264065,0.11059 -0.536654,0.15758 -0.80072,0.26811 -0.327537,0.13712 -0.636243,0.38087 -0.960871,0.53614 -0.211627,0.10111 -0.431774,0.15154 -0.640578,0.26808 -0.272714,0.15222 -0.528004,0.384 -0.800721,0.53616 -0.208803,0.1164 -0.428949,0.16687 -0.640578,0.26808 -0.162312,0.0777 -0.316667,0.19942 -0.480433,0.26806 -0.264067,0.11059 -0.536656,0.15759 -0.800722,0.26811 -0.163766,0.0685 -0.318122,0.19034 -0.480434,0.26806 -0.211626,0.1011 -0.428949,0.16687 -0.640577,0.2681 -0.162311,0.0777 -0.323701,0.16315 -0.480433,0.26806 -0.02214,0.0139 -0.633025,0.53363 -0.640577,0.53616 -0.157038,0.0525 -0.323401,-0.0525 -0.480437,0 -0.234093,0.0784 -0.414099,0.4098 -0.640577,0.53616 -0.101278,0.0564 -0.219006,-0.0564 -0.320291,0 -0.113236,0.0632 -0.220968,0.15734 -0.320289,0.26809 -0.06281,0.0702 -0.08852,0.22822 -0.160144,0.26806 -0.101277,0.0564 -0.213523,0 -0.320288,0 -0.05339,0 -0.112405,-0.0399 -0.160145,0 -0.06751,0.0564 -0.09262,0.21149 -0.160144,0.2681 -0.04775,0.0399 -0.112405,-0.0399 -0.160143,0 -0.06752,0.0564 -0.08852,0.22822 -0.160145,0.26808 -0.101278,0.0564 -0.219006,-0.0564 -0.32029,0 -0.08668,0.0483 -0.375221,0.68681 -0.480433,0.80423 -0.106767,0.0895 -0.213526,0.17872 -0.320289,0.2681 -0.05339,0 -0.112405,-0.0399 -0.160144,0 -0.06751,0.0564 -0.09732,0.19801 -0.160144,0.26806 -0.09933,0.11085 -0.220974,0.15711 -0.32029,0.26808 -0.125622,0.14016 -0.185245,0.42312 -0.320289,0.53616 -0.04775,0.0399 -0.1224,-0.0632 -0.160143,0 -0.03775,0.0632 0.02388,0.18826 0,0.26808 -0.333242,1.11569 0.01107,-0.28659 -0.320289,0.26809 -0.03775,0.0632 0.02388,0.18825 0,0.26807 -0.03376,0.11288 -0.106766,0.17871 -0.160145,0.26809 -0.05339,0.0892 -0.09262,0.21149 -0.160144,0.26806 -0.04775,0.0399 -0.112405,-0.0399 -0.160144,0 -0.157588,0.13183 -0.482995,0.94042 -0.640579,1.07232 -0.04775,0.0399 -0.1224,-0.0632 -0.160148,0 -0.03775,0.0632 0.03775,0.20499 0,0.26809 -0.03775,0.0632 -0.1224,-0.0632 -0.160144,0 -0.03775,0.0632 0.03775,0.20498 0,0.26807 -0.03775,0.0632 -0.122401,-0.0632 -0.160145,0 -0.03775,0.0632 0.03775,0.20499 0,0.26809 -0.03775,0.0632 -0.112393,-0.0399 -0.160143,0 -0.04253,0.0356 -0.459171,0.73305 -0.480434,0.80422 -0.02388,0.08 0.03775,0.205 0,0.2681 -0.03775,0.0632 -0.1224,-0.0632 -0.160143,0 -0.03775,0.0632 0.03775,0.20499 0,0.26806 -0.03775,0.0632 -0.122402,-0.0632 -0.160145,0 -0.03775,0.0632 0.02388,0.18826 0,0.26809 -0.03376,0.11301 -0.126386,0.15503 -0.160144,0.26807 -0.04775,0.1599 0.07548,0.4098 0,0.53616 -0.03775,0.0632 -0.122401,-0.0632 -0.160146,0 -0.03775,0.0632 -0.02748,0.19151 0,0.26809 0.137326,0.38311 0.32029,0.71489 0.480435,1.07232 z"
       id="path831"
       inkscape:connector-curvature="0" />
    <ellipse
       style="fill:none;fill-opacity:1;stroke:#000000;stroke-width:0.47528148;stroke-miterlimit:4;stroke-dasharray:none;stroke-opacity:1"
       id="path836"
       cx="-212.28108"
       cy="-206.88397"
       transform="scale(-1)"
       rx="2.6417603"
       ry="4.4222679" />
    <path
       style="fill:none;stroke:#000000;stroke-width:0.47602996;stroke-linecap:butt;stroke-linejoin:miter;stroke-miterlimit:4;stroke-dasharray:1.42808988, 0.47602997;stroke-dashoffset:0;stroke-opacity:1"
       d="M 51.656171,237.98116 242.8687,235.30037"
       id="path840"
       inkscape:connector-curvature="0" />
    <path
       style="fill:none;stroke:#000000;stroke-width:0.47528148;stroke-linecap:butt;stroke-linejoin:miter;stroke-miterlimit:4;stroke-dasharray:none;stroke-opacity:1"
       d="M 51.673655,237.74601 212.9042,206.85103"
       id="path842"
       inkscape:connector-curvature="0" />
    <path
       style="fill:none;stroke:#000000;stroke-width:0.47528148px;stroke-linecap:butt;stroke-linejoin:miter;stroke-opacity:1"
       d="m 178.17033,215.73056 c 0.16014,0.35743 0.32028,0.71489 0.48044,1.07232 0.0533,0 0.12245,-0.0632 0.16013,0 0.0755,0.12642 -0.0755,0.4098 0,0.53616 0.0378,0.0632 0.12246,-0.0632 0.16016,0 0.0377,0.0632 -0.0377,0.20499 0,0.26809 0.0377,0.0632 0.12244,-0.0632 0.16013,0 0.0377,0.0632 -0.0239,0.18826 0,0.26807 0.0571,0.1908 0.2633,0.34535 0.32029,0.53615 0.0239,0.08 -0.0239,0.18826 0,0.2681 0.33324,1.11569 -0.0115,-0.28659 0.32028,0.26806 0.0377,0.0632 -0.0239,0.18826 0,0.2681 0.0338,0.11288 0.12635,0.15502 0.16016,0.26806 0.0239,0.08 -0.0239,0.18826 0,0.26809 0.0338,0.11302 0.12634,0.15503 0.16013,0.26807 0.0853,0.28581 -0.0853,0.25039 0,0.53616 0.0338,0.11289 0.12635,0.15502 0.16016,0.26809 0.064,0.21452 -0.064,0.58977 0,0.80422 0.0338,0.11302 0.12634,0.15503 0.16014,0.2681 0.0477,0.15991 -0.0477,0.3763 0,0.53615 0.0337,0.11302 0.12633,0.15503 0.16014,0.2681 0.0477,0.1599 -0.0755,0.40977 0,0.53615 0.0377,0.0632 0.12246,-0.0632 0.16016,0 0.0755,0.12642 -0.0338,0.36662 0,0.53616 0.0377,0.18965 0.12245,0.3466 0.16013,0.53616 0.0367,0.18431 -0.0472,0.64607 0,0.80422 0.0338,0.11302 0.12635,0.15503 0.16016,0.2681 0.064,0.21452 -0.064,0.58978 0,0.80422 0.0338,0.11289 0.12634,0.15502 0.16013,0.26809 0.0211,0.0704 0,0.93213 0,1.07232 0,0.25247 0.0304,1.1879 0,1.34041 -0.0239,0.11992 -0.12634,0.15502 -0.16013,0.26806 -0.0477,0.1599 0.0477,0.37632 0,0.53616 -0.0338,0.11288 -0.12635,0.15502 -0.16016,0.26809 -0.0239,0.08 0.0239,0.18803 0,0.26807 -0.0338,0.11289 -0.12635,0.15502 -0.16013,0.26809 -0.0505,0.1692 0.0505,1.17128 0,1.34038 -0.0338,0.11302 -0.12635,0.15503 -0.16016,0.2681 -0.0243,0.0816 0,0.68351 0,0.80423 0,0.53616 0,1.0723 0,1.60846"
       id="path844"
       inkscape:connector-curvature="0" />
    <text
       xml:space="preserve"
       style="font-style:normal;font-weight:normal;font-size:19.01125908px;line-height:1.25;font-family:sans-serif;letter-spacing:0px;word-spacing:0px;fill:#000000;fill-opacity:1;stroke:none;stroke-width:0.47528148"
       x="217.46783"
       y="177.72003"
       id="text848"
       transform="scale(0.77290156,1.2938258)"><tspan
         sodipodi:role="line"
         id="tspan846"
         x="217.46783"
         y="177.72003"
         style="font-style:normal;font-variant:normal;font-weight:normal;font-stretch:normal;font-size:9.50562954px;font-family:sans-serif;-inkscape-font-specification:'sans-serif, Normal';font-variant-ligatures:normal;font-variant-caps:normal;font-variant-numeric:normal;font-feature-settings:normal;text-align:start;writing-mode:lr-tb;text-anchor:start;stroke-width:0.47528148">$\theta$</tspan></text>
  </g>
</svg>
