<?xml version="1.0" encoding="UTF-8" standalone="no"?>
<!-- Created with Inkscape (http://www.inkscape.org/) -->

<svg
   xmlns:dc="http://purl.org/dc/elements/1.1/"
   xmlns:cc="http://creativecommons.org/ns#"
   xmlns:rdf="http://www.w3.org/1999/02/22-rdf-syntax-ns#"
   xmlns:svg="http://www.w3.org/2000/svg"
   xmlns="http://www.w3.org/2000/svg"
   xmlns:sodipodi="http://sodipodi.sourceforge.net/DTD/sodipodi-0.dtd"
   xmlns:inkscape="http://www.inkscape.org/namespaces/inkscape"
   sodipodi:docname="test.svg"
   inkscape:version="0.92.5 (2060ec1f9f, 2020-04-08)"
   id="svg8"
   version="1.1"
   viewBox="0 0 240 120"
   height="120mm"
   width="240mm">
  <defs
     id="defs2" />
  <sodipodi:namedview
     id="base"
     pagecolor="#ffffff"
     bordercolor="#666666"
     borderopacity="1.0"
     inkscape:pageopacity="0.0"
     inkscape:pageshadow="2"
     inkscape:zoom="1.6219896"
     inkscape:cx="521.7036"
     inkscape:cy="242.77219"
     inkscape:document-units="mm"
     inkscape:current-layer="layer1"
     showgrid="false"
     showborder="true"
     width="200mm"
     showguides="true"
     inkscape:guide-bbox="true"
     inkscape:window-width="2488"
     inkscape:window-height="1376"
     inkscape:window-x="72"
     inkscape:window-y="27"
     inkscape:window-maximized="1">
    <inkscape:grid
       type="xygrid"
       id="grid815"
       units="mm"
       spacingx="10"
       spacingy="10"
       empspacing="4"
       dotted="false" />
  </sodipodi:namedview>
  <metadata
     id="metadata5">
    <rdf:RDF>
      <cc:Work
         rdf:about="">
        <dc:format>image/svg+xml</dc:format>
        <dc:type
           rdf:resource="http://purl.org/dc/dcmitype/StillImage" />
        <dc:title />
      </cc:Work>
    </rdf:RDF>
  </metadata>
  <g
     inkscape:label="Layer 1"
     inkscape:groupmode="layer"
     id="layer1"
     transform="translate(0,-177)">
    <flowRoot
       xml:space="preserve"
       id="flowRoot7042"
       style="font-style:normal;font-weight:normal;font-size:40px;line-height:1.25;font-family:sans-serif;letter-spacing:0px;word-spacing:0px;fill:#000000;fill-opacity:1;stroke:none"
       transform="matrix(0.26458333,0,0,0.26458333,0,177)"><flowRegion
         id="flowRegion7044"><rect
           id="rect7046"
           width="132.26601"
           height="49.777531"
           x="261.68759"
           y="53.900856" /></flowRegion><flowPara
         id="flowPara7054" /></flowRoot>    <g
       id="g945"
       transform="matrix(1.0719706,0,0,1.0719706,-8.5786934,-1.5700068)">
      <rect
         y="191.34383"
         x="12.803313"
         height="17.64781"
         width="17.64781"
         id="rect827"
         style="fill:none;fill-opacity:0.14018692;stroke:#000000;stroke-width:0.26499999;stroke-miterlimit:4;stroke-dasharray:none;stroke-dashoffset:0;stroke-opacity:1" />
      <path
         inkscape:connector-curvature="0"
         id="path829"
         d="m 30.422384,204.18318 5.546172,3.99651"
         style="fill:none;stroke:#000000;stroke-width:0.26458332px;stroke-linecap:butt;stroke-linejoin:miter;stroke-opacity:1" />
      <path
         inkscape:connector-curvature="0"
         id="path831"
         d="m 36.009336,193.5802 -0.04078,14.59949"
         style="fill:none;stroke:#000000;stroke-width:0.26458332px;stroke-linecap:butt;stroke-linejoin:miter;stroke-opacity:1" />
      <path
         inkscape:connector-curvature="0"
         id="path835"
         d="m 36.009336,193.5802 -5.709293,3.79261"
         style="fill:none;stroke:#000000;stroke-width:0.26458332px;stroke-linecap:butt;stroke-linejoin:miter;stroke-opacity:1" />
    </g>
    <text
       xml:space="preserve"
       style="font-style:normal;font-variant:normal;font-weight:normal;font-stretch:normal;font-size:5.29434395px;line-height:1.25;font-family:sans-serif;-inkscape-font-specification:'sans-serif, Normal';font-variant-ligatures:normal;font-variant-caps:normal;font-variant-numeric:normal;font-feature-settings:normal;text-align:center;letter-spacing:0px;word-spacing:0px;writing-mode:lr-tb;text-anchor:middle;fill:#000000;fill-opacity:1;stroke:none;stroke-width:0.28362554"
       x="13.953238"
       y="194.87743"
       id="text839"><tspan
         sodipodi:role="line"
         x="13.953238"
         y="194.87743"
         style="font-style:normal;font-variant:normal;font-weight:normal;font-stretch:normal;font-size:5.29434395px;font-family:sans-serif;-inkscape-font-specification:'sans-serif, Normal';font-variant-ligatures:normal;font-variant-caps:normal;font-variant-numeric:normal;font-feature-settings:normal;text-align:center;writing-mode:lr-tb;text-anchor:middle;stroke-width:0.28362554"
         id="tspan1669">Optical</tspan><tspan
         sodipodi:role="line"
         x="13.953238"
         y="201.49536"
         style="font-style:normal;font-variant:normal;font-weight:normal;font-stretch:normal;font-size:5.29434395px;font-family:sans-serif;-inkscape-font-specification:'sans-serif, Normal';font-variant-ligatures:normal;font-variant-caps:normal;font-variant-numeric:normal;font-feature-settings:normal;text-align:center;writing-mode:lr-tb;text-anchor:middle;stroke-width:0.28362554"
         id="tspan1673">Sensor</tspan></text>
    <g
       id="g951"
       transform="matrix(1.0719706,0,0,1.0719706,-8.5915826,-1.5700068)">
      <rect
         y="216.03094"
         x="12.815337"
         height="17.64781"
         width="17.64781"
         id="rect827-6"
         style="fill:none;fill-opacity:0.14018692;stroke:#000000;stroke-width:0.26499999;stroke-miterlimit:4;stroke-dasharray:none;stroke-dashoffset:0;stroke-opacity:1" />
      <path
         inkscape:connector-curvature="0"
         id="path829-3"
         d="m 30.434409,228.87029 5.546172,3.99651"
         style="fill:none;stroke:#000000;stroke-width:0.26458332px;stroke-linecap:butt;stroke-linejoin:miter;stroke-opacity:1" />
      <path
         inkscape:connector-curvature="0"
         id="path831-1"
         d="m 36.021361,218.26731 -0.04078,14.59949"
         style="fill:none;stroke:#000000;stroke-width:0.26458332px;stroke-linecap:butt;stroke-linejoin:miter;stroke-opacity:1" />
      <path
         inkscape:connector-curvature="0"
         id="path835-7"
         d="m 36.021361,218.26731 -5.709293,3.79261"
         style="fill:none;stroke:#000000;stroke-width:0.26458332px;stroke-linecap:butt;stroke-linejoin:miter;stroke-opacity:1" />
    </g>
    <text
       xml:space="preserve"
       style="font-style:normal;font-variant:normal;font-weight:normal;font-stretch:normal;font-size:5.29434395px;line-height:1.25;font-family:sans-serif;-inkscape-font-specification:'sans-serif, Normal';font-variant-ligatures:normal;font-variant-caps:normal;font-variant-numeric:normal;font-feature-settings:normal;text-align:center;letter-spacing:0px;word-spacing:0px;writing-mode:lr-tb;text-anchor:middle;fill:#000000;fill-opacity:1;stroke:none;stroke-width:0.28362554"
       x="16.718559"
       y="229.17119"
       id="text839-5"><tspan
         sodipodi:role="line"
         id="tspan837-9"
         x="16.718559"
         y="229.17119"
         style="font-style:normal;font-variant:normal;font-weight:normal;font-stretch:normal;font-size:5.29434395px;font-family:sans-serif;-inkscape-font-specification:'sans-serif, Normal';font-variant-ligatures:normal;font-variant-caps:normal;font-variant-numeric:normal;font-feature-settings:normal;text-align:center;writing-mode:lr-tb;text-anchor:middle;stroke-width:0.28362554">IR sensor</tspan></text>
    <g
       id="g957"
       transform="matrix(1.0719706,0,0,1.0719706,-8.9661553,-1.5700068)">
      <rect
         y="240.4668"
         x="13.164762"
         height="17.64781"
         width="17.64781"
         id="rect827-6-6"
         style="fill:none;fill-opacity:0.14018692;stroke:#000000;stroke-width:0.26499999;stroke-miterlimit:4;stroke-dasharray:none;stroke-dashoffset:0;stroke-opacity:1" />
      <path
         inkscape:connector-curvature="0"
         id="path829-3-2"
         d="m 30.783834,253.30615 5.546172,3.99651"
         style="fill:none;stroke:#000000;stroke-width:0.26458332px;stroke-linecap:butt;stroke-linejoin:miter;stroke-opacity:1" />
      <path
         inkscape:connector-curvature="0"
         id="path831-1-1"
         d="m 36.370786,242.70317 -0.04078,14.59949"
         style="fill:none;stroke:#000000;stroke-width:0.26458332px;stroke-linecap:butt;stroke-linejoin:miter;stroke-opacity:1" />
      <path
         inkscape:connector-curvature="0"
         id="path835-7-7"
         d="m 36.370786,242.70317 -5.709293,3.79261"
         style="fill:none;stroke:#000000;stroke-width:0.26458332px;stroke-linecap:butt;stroke-linejoin:miter;stroke-opacity:1" />
    </g>
    <text
       xml:space="preserve"
       style="font-style:normal;font-variant:normal;font-weight:normal;font-stretch:normal;font-size:5.29434395px;line-height:1.25;font-family:sans-serif;-inkscape-font-specification:'sans-serif, Normal';font-variant-ligatures:normal;font-variant-caps:normal;font-variant-numeric:normal;font-feature-settings:normal;text-align:center;letter-spacing:0px;word-spacing:0px;writing-mode:lr-tb;text-anchor:middle;fill:#000000;fill-opacity:1;stroke:none;stroke-width:0.28362554"
       x="12.278599"
       y="255.36569"
       id="text839-5-8"><tspan
         sodipodi:role="line"
         id="tspan837-9-5"
         x="12.278599"
         y="255.36569"
         style="font-style:normal;font-variant:normal;font-weight:normal;font-stretch:normal;font-size:5.29434395px;font-family:sans-serif;-inkscape-font-specification:'sans-serif, Normal';font-variant-ligatures:normal;font-variant-caps:normal;font-variant-numeric:normal;font-feature-settings:normal;text-align:center;writing-mode:lr-tb;text-anchor:middle;stroke-width:0.28362554">Radar</tspan></text>
    <flowRoot
       xml:space="preserve"
       id="flowRoot909"
       style="fill:black;fill-opacity:1;stroke:none;font-family:sans-serif;font-style:normal;font-weight:normal;font-size:18.66666667px;line-height:1.25;letter-spacing:0px;word-spacing:0px;-inkscape-font-specification:'sans-serif, Normal';font-stretch:normal;font-variant:normal;text-anchor:middle;text-align:center;writing-mode:lr;font-variant-ligatures:normal;font-variant-caps:normal;font-variant-numeric:normal;font-feature-settings:normal"><flowRegion
         id="flowRegion911"><rect
           id="rect913"
           width="142.72595"
           height="291.00064"
           x="27.43544"
           y="31.530739" /></flowRegion><flowPara
         id="flowPara915" /></flowRoot>    <path
       id="path1532"
       title="sin(x)"
       d="m 30.012334,240.12464 c 0.500655,-1.2194 1.001312,-2.38974 1.501967,-2.75662 0.500655,-0.36688 1.001312,0.10205 1.501967,1.10117 0.500656,0.99908 1.001311,2.45105 1.501968,3.41791 0.500655,0.96686 1.001312,1.36985 1.501967,0.9514 0.500655,-0.41843 1.001312,-1.6284 1.501967,-2.84655 0.500656,-1.21815 1.001312,-2.34776 1.501968,-2.66086 0.500655,-0.31311 1.00131,0.21849 1.501967,1.24861 0.500655,1.03011 1.001312,2.47897 1.501967,3.4107 0.500656,0.93173 1.001312,1.27021 1.501968,0.79964 0.500655,-0.47059 1.001311,-1.71616 1.501967,-2.93049 0.500655,-1.21433 1.001312,-2.30084 1.501967,-2.5595 0.500656,-0.25867 1.001312,0.33442 1.501967,1.39341 0.500656,1.05899 1.001312,2.50167 1.501968,3.3963 0.500655,0.89463 1.001312,1.16791 1.501967,0.64618 0.500656,-0.52173 1.001312,-1.80029 1.501967,-3.00824 0.500656,-1.20794 1.001312,-2.24906 1.501968,-2.45274 0.500655,-0.20368 1.001312,0.44965 1.501967,1.53528 0.500656,1.08564 1.001312,2.5191 1.501967,3.37473 0.500656,0.85564 1.001312,1.06315 1.501968,0.49137 0.500655,-0.57178 1.001312,-1.88063 1.501967,-3.07965 0.500655,-1.19902 1.001312,-2.19253 1.501967,-2.34081 0.500656,-0.14826 1.001312,0.56393 1.501968,1.67392 0.500655,1.10998 1.001312,2.5312 1.501967,3.34605 0.500655,0.81484 1.001312,0.95614 1.501967,0.33551 0.500656,-0.62064 1.001312,-1.95701 1.501968,-3.14457 0.500655,-1.18756 1.001311,-2.13139 1.501967,-2.22393 0.500655,-0.0925 1.001312,0.67702 1.501967,1.80901 0.500656,1.13199 1.001312,2.53797 1.501968,3.31031 0.500655,0.77235 1.001311,0.84712 1.501967,0.17895 0.500655,-0.66817 1.001312,-2.02924 1.501967,-3.20285 0.500656,-1.17359 1.001312,-2.06575 1.501968,-2.10237 0.500655,-0.0367 1.001311,0.78869 1.501967,1.9403 0.500655,1.15161 1.001312,2.53939 1.501967,3.26759 0.500656,0.7282 1.001312,0.73631 1.501967,0.022 0.500656,-0.7143 1.001312,-2.09722 1.501968,-3.25438 0.500655,-1.15716 1.001312,-1.99575 1.501967,-1.97637 0.500656,0.0194 1.001312,0.89868 1.501967,2.06748 0.500656,1.1688 1.001312,2.53546 1.501968,3.21798 0.500655,0.68252 1.001312,0.62394 1.501967,-0.13498 0.500655,-0.75891 1.001312,-2.16075 1.501967,-3.29903 0.500656,-1.13829 1.001312,-1.92155 1.501968,-1.84622 0.500655,0.0754 1.001312,1.0068 1.501967,2.19033 0.500655,1.18352 1.001312,2.52616 1.501967,3.16157 0.500656,0.63541 1.001312,0.51026 1.501964,-0.29168 0.50066,-0.80194 1.00131,-2.21973 1.50197,-3.33673 0.50066,-1.11701 1.00131,-1.8433 1.50197,-1.71216 0.50065,0.13114 1.001308,1.11277 1.501968,2.30853 0.50065,1.19576 1.00131,2.51155 1.50196,3.09851 0.50066,0.58695 1.00132,0.3955 1.50197,-0.44777 0.50066,-0.84326 1.00131,-2.27403 1.50197,-3.3674 0.50066,-1.09338 1.00131,-1.76115 1.50196,-1.57449 0.50067,0.18666 1.00132,1.21641 1.50197,2.42187 0.50066,1.20548 1.00132,2.49165 1.50197,3.02891 0.50066,0.53727 1.00131,0.27991 1.50196,-0.60291 0.50067,-0.88282 1.00132,-2.32354 1.50197,-3.39096 0.50066,-1.06744 1.00132,-1.67529 1.50197,-1.4335 0.50066,0.24179 1.00131,1.31747 1.50197,2.53011 0.50066,1.21264 1.00131,2.46647 1.50196,2.95292 0.50067,0.48643 1.00132,0.16373 1.50197,-0.75678 0.50066,-0.92052 1.00132,-2.36815 1.50197,-3.40739 0.50066,-1.03924 1.00131,-1.5859 1.50197,-1.28948 0.50066,0.29641 1.00131,1.41576 1.50196,2.633 0.50067,1.21725 1.00132,2.43611 1.50197,2.8707 0.50066,0.43459 1.00132,0.0472 1.50197,-0.90906 0.50066,-0.95625 1.00131,-2.40775 1.50197,-3.4166 0.50066,-1.00887 1.00131,-1.49315 1.50196,-1.14276 0.50067,0.35041 1.00132,1.51108 1.50197,2.73036 0.50066,1.21929 1.00131,2.4006 1.50197,2.78242 0.50066,0.38183 1.00131,-0.0695 1.50196,-1.0594 0.50067,-0.98999 1.00132,-2.44229 1.50197,-3.41865 0.50066,-0.97634 1.00132,-1.39726 1.50197,-0.99359 0.50066,0.40365 1.00131,1.60317 1.50197,2.82194 0.50066,1.21875 1.00131,2.36003 1.50196,2.68827 0.50067,0.32825 1.00132,-0.1859 1.50197,-1.20753 0.50066,-1.02163 1.00132,-2.47166 1.50197,-3.41344 0.50066,-0.94178 1.00131,-1.29843 1.50197,-0.84237 0.50066,0.45606 1.00131,1.69192 1.50196,2.90757 0.50067,1.21566 1.00132,2.31448 1.50197,2.58848 0.50066,0.27399 1.00132,-0.302 1.50197,-1.35311"
       style="fill:none;fill-opacity:0.14018692;stroke:#000000;stroke-width:0.41458654;stroke-miterlimit:4;stroke-dasharray:none;stroke-dashoffset:0;stroke-opacity:1"
       inkscape:connector-curvature="0" />
    <path
       inkscape:connector-curvature="0"
       id="path1532-7"
       title="sin(x)"
       d="m 29.994399,214.11864 c 0.335997,-1.23696 0.671995,-2.42415 1.007992,-2.79632 0.335998,-0.37218 0.671996,0.10366 1.007993,1.11702 0.335998,1.01347 0.671996,2.48637 1.007993,3.46716 0.335999,0.98079 0.671996,1.38957 1.007995,0.96511 0.335997,-0.42447 0.671995,-1.65187 1.007992,-2.88757 0.335998,-1.23569 0.671996,-2.38157 1.007994,-2.69919 0.335998,-0.31761 0.671995,0.22164 1.007993,1.26659 0.335998,1.04496 0.671993,2.51469 1.007993,3.45984 0.335998,0.94515 0.671997,1.28852 1.007991,0.81116 0.335998,-0.47736 0.671998,-1.74089 1.007996,-2.9727 0.335999,-1.23183 0.671993,-2.33398 1.007992,-2.59638 0.335998,-0.26239 0.671998,0.33925 1.007992,1.41349 0.335998,1.07424 0.671997,2.53771 1.007995,3.44522 0.335995,0.90753 0.671994,1.18474 1.007992,0.65548 0.336,-0.52925 0.671998,-1.82622 1.007993,-3.05157 0.335998,-1.22534 0.671997,-2.28145 1.007995,-2.48806 0.336,-0.20662 0.671994,0.45614 1.007992,1.5574 0.335999,1.10127 0.671994,2.55538 1.007992,3.42334 0.335999,0.86798 0.671998,1.07847 1.007997,0.49844 0.335998,-0.58003 0.671993,-1.90773 1.007991,-3.12401 0.335998,-1.21629 0.671998,-2.22412 1.007992,-2.37453 0.335999,-0.1504 0.671997,0.57206 1.007996,1.69804 0.335995,1.12596 0.671993,2.56765 1.007992,3.39424 0.335998,0.82659 0.671998,0.96992 1.007992,0.34034 0.335998,-0.62956 0.671997,-1.98518 1.007995,-3.18986 0.335996,-1.20466 0.671994,-2.16209 1.007993,-2.25597 0.335998,-0.0938 0.671993,0.68678 1.007992,1.83508 0.335998,1.14828 0.671997,2.57453 1.007995,3.35799 0.335994,0.78346 0.671992,0.85932 1.00799,0.18153 0.335999,-0.6778 0.671997,-2.05848 1.007993,-3.24898 0.335998,-1.19051 0.671996,-2.0955 1.007995,-2.13267 0.335994,-0.0372 0.671994,0.80006 1.007992,1.96826 0.335999,1.1682 0.671993,2.57595 1.007991,3.31465 0.335999,0.73869 0.671998,0.74692 1.007997,0.0223 0.335995,-0.72459 0.671993,-2.12743 1.007992,-3.30126 0.335998,-1.17383 0.671993,-2.0245 1.007991,-2.00484 0.336,0.0196 0.671998,0.91163 1.007997,2.09727 0.335994,1.18564 0.671992,2.57198 1.007992,3.26433 0.335998,0.69237 0.671992,0.63293 1.007992,-0.13692 0.335998,-0.76986 0.671997,-2.19188 1.007991,-3.34656 0.335999,-1.15469 0.671998,-1.94923 1.007997,-1.8728 0.335998,0.0764 0.671992,1.02129 1.007991,2.22186 0.335998,1.20059 0.671996,2.56256 1.007988,3.20712 0.335999,0.64458 0.671999,0.51761 1.007998,-0.29587 0.335994,-0.81351 0.671994,-2.25172 1.007994,-3.3848 0.335993,-1.13311 0.671993,-1.86985 1.007986,-1.73683 0.336,0.13303 0.671999,1.1288 1.007999,2.34178 0.335994,1.21299 0.671994,2.54773 1.007993,3.14315 0.335993,0.5954 0.671994,0.40121 1.007987,-0.45422 0.336,-0.85541 0.671999,-2.30679 1.008,-3.41592 0.335993,-1.10911 0.671992,-1.78651 1.007992,-1.59716 0.336001,0.18935 0.671994,1.23394 1.007993,2.45677 0.335993,1.22283 0.671994,2.52752 1.007994,3.07254 0.335993,0.54499 0.671992,0.28394 1.007992,-0.6116 0.336,-0.89554 0.671993,-2.35702 1.007993,-3.43982 0.336,-1.08282 0.671994,-1.69942 1.007993,-1.45414 0.335993,0.24527 0.671993,1.33644 1.007994,2.56655 0.335999,1.23011 0.671992,2.502 1.007992,2.99544 0.336,0.49346 0.672,0.1661 1.007993,-0.76767 0.336,-0.93377 0.671994,-2.40225 1.007993,-3.45646 0.336,-1.05422 0.671993,-1.60874 1.007994,-1.30806 0.335999,0.30068 0.671999,1.43616 1.007992,2.67093 0.335999,1.23478 0.671993,2.4712 1.007993,2.91204 0.336,0.44087 0.671993,0.0479 1.007993,-0.92213 0.336,-0.97004 0.671999,-2.44243 1.007993,-3.46583 0.336,-1.0234 0.672003,-1.51466 1.007993,-1.15921 0.336,0.35545 0.67199,1.53282 1.00799,2.76967 0.336,1.23685 0.672,2.4352 1.008,2.82251 0.336,0.38733 0.672,-0.0704 1.00799,-1.07466 0.336,-1.00426 0.671998,-2.47747 1.007988,-3.46789 0.336,-0.99041 0.67199,-1.41739 1.008,-1.00792 0.33599,0.40948 0.67199,1.62629 1.008,2.86259 0.33598,1.23632 0.67198,2.39402 1.00799,2.72701 0.33599,0.33298 0.67199,-0.18858 1.00799,-1.22492 0.336,-1.03635 0.67199,-2.50727 1.00799,-3.46263 0.336,-0.95532 0.672,-1.31711 1.008,-0.8545 0.33599,0.46264 0.67198,1.7163 1.00798,2.94947 0.336,1.23317 0.672,2.34783 1.008,2.62576 0.336,0.27793 0.67199,-0.30635 1.00799,-1.37261"
       style="fill:none;fill-opacity:0.14018692;stroke:#000000;stroke-width:0.34207356;stroke-miterlimit:4;stroke-dasharray:none;stroke-dashoffset:0;stroke-opacity:1" />
    <path
       style="fill:#ffffff;fill-opacity:1;stroke:#000000;stroke-width:0.28362554px;stroke-linecap:butt;stroke-linejoin:miter;stroke-opacity:1"
       d="m 142.32785,201.57072 c 5.31246,-2.32272 17.7087,-3.91063 25.18024,-0.17486 10.191,5.09549 -15.35768,16.26979 -27.97804,13.1147 -7.10394,-1.77598 -12.57012,-16.88034 2.7978,-12.93984 z"
       id="path1563"
       inkscape:connector-curvature="0" />
    <path
       style="fill:#ffffff;fill-opacity:1;stroke:#000000;stroke-width:0.28362554px;stroke-linecap:butt;stroke-linejoin:miter;stroke-opacity:1"
       d="m 139.70491,208.56523 c -2.91894,-10.31127 -11.69521,-3.57439 -16.43709,-5.94533 -2.71722,-1.3586 -14.83829,0.19991 -10.49177,4.54643 2.36514,2.36514 -9.00993,5.15396 -6.64479,7.5191 7.77847,7.77846 45.76934,9.63257 33.57365,-6.1202 z"
       id="path1559"
       inkscape:connector-curvature="0" />
    <path
       style="fill:#ffffff;fill-opacity:1;stroke:#000000;stroke-width:0.28362554px;stroke-linecap:butt;stroke-linejoin:miter;stroke-opacity:1"
       d="m 117.14761,211.18817 c -2.10559,-5.5862 13.43981,1.24867 17.66114,-2.97267 6.19693,-6.19693 47.68761,3.9469 1.92349,15.38793 -4.73726,1.18431 -9.49766,1.28875 -11.54094,-2.7978 -4.0193,-8.03861 -8.30544,0.85252 -8.04369,-9.61746 z"
       id="path1561"
       inkscape:connector-curvature="0" />
    <path
       style="fill:#ffffff;fill-opacity:1;stroke:#000000;stroke-width:0.28362554px;stroke-linecap:butt;stroke-linejoin:miter;stroke-opacity:1"
       d="m 150.84697,219.90278 c 5.31246,-2.32273 17.7087,-3.91064 25.18024,-0.17486 10.191,5.09549 -15.35767,16.26979 -27.97804,13.1147 -7.10394,-1.77598 -12.57012,-16.88034 2.7978,-12.93984 z"
       id="path1563-4"
       inkscape:connector-curvature="0" />
    <path
       style="fill:#ffffff;fill-opacity:1;stroke:#000000;stroke-width:0.28362554px;stroke-linecap:butt;stroke-linejoin:miter;stroke-opacity:1"
       d="m 148.22403,226.89729 c -2.91894,-10.31127 -11.69521,-3.57439 -16.43709,-5.94533 -2.71722,-1.35861 -14.83828,0.19991 -10.49176,4.54643 2.36513,2.36514 -9.00994,5.15396 -6.6448,7.5191 7.77847,7.77846 45.76934,9.63257 33.57365,-6.1202 z"
       id="path1559-1"
       inkscape:connector-curvature="0" />
    <path
       style="fill:#ffffff;fill-opacity:1;stroke:#000000;stroke-width:0.28362554px;stroke-linecap:butt;stroke-linejoin:miter;stroke-opacity:1"
       d="m 125.66674,229.52023 c -2.1056,-5.5862 13.43981,1.24867 17.66113,-2.97267 6.19693,-6.19693 47.68761,3.9469 1.92349,15.38792 -4.73726,1.18432 -9.49766,1.28876 -11.54094,-2.7978 -4.0193,-8.0386 -8.30544,0.85253 -8.04368,-9.61745 z"
       id="path1561-8"
       inkscape:connector-curvature="0" />
    <path
       style="fill:#ffffff;fill-opacity:1;stroke:#000000;stroke-width:0.28362554px;stroke-linecap:butt;stroke-linejoin:miter;stroke-opacity:1"
       d="m 151.29069,234.59348 c 5.31246,-2.32272 17.7087,-3.91063 25.18024,-0.17486 10.191,5.0955 -15.35767,16.26979 -27.97804,13.11471 -7.10394,-1.77599 -12.57012,-16.88035 2.7978,-12.93985 z"
       id="path1563-4-5"
       inkscape:connector-curvature="0" />
    <path
       style="fill:#ffffff;fill-opacity:1;stroke:#000000;stroke-width:0.28362554px;stroke-linecap:butt;stroke-linejoin:miter;stroke-opacity:1"
       d="m 148.66775,241.58799 c -2.91894,-10.31127 -11.69521,-3.57439 -16.43709,-5.94533 -2.71722,-1.3586 -14.83828,0.19992 -10.49176,4.54643 2.36513,2.36515 -9.00994,5.15396 -6.6448,7.51911 7.77847,7.77845 45.76934,9.63256 33.57365,-6.12021 z"
       id="path1559-1-9"
       inkscape:connector-curvature="0" />
    <path
       style="fill:#ffffff;fill-opacity:1;stroke:#000000;stroke-width:0.28362554px;stroke-linecap:butt;stroke-linejoin:miter;stroke-opacity:1"
       d="m 126.11046,244.21094 c -2.1056,-5.5862 13.43981,1.24866 17.66113,-2.97268 6.19693,-6.19693 47.68761,3.9469 1.92349,15.38793 -4.73726,1.18431 -9.49766,1.28875 -11.54094,-2.7978 -4.0193,-8.0386 -8.30544,0.85253 -8.04368,-9.61745 z"
       id="path1561-8-7"
       inkscape:connector-curvature="0" />
    <path
       style="fill:#ffffff;fill-opacity:1;stroke:#000000;stroke-width:0.28362554px;stroke-linecap:butt;stroke-linejoin:miter;stroke-opacity:1"
       d="m 171.65564,246.30706 c 5.31246,-2.32273 17.70869,-3.91064 25.18023,-0.17486 10.191,5.09549 -15.35767,16.26979 -27.97803,13.1147 -7.10394,-1.77599 -12.57012,-16.88034 2.7978,-12.93984 z"
       id="path1563-4-6"
       inkscape:connector-curvature="0" />
    <path
       style="fill:#ffffff;fill-opacity:1;stroke:#000000;stroke-width:0.28362554px;stroke-linecap:butt;stroke-linejoin:miter;stroke-opacity:1"
       d="m 169.0327,253.30157 c -2.91895,-10.31128 -11.69521,-3.57439 -16.4371,-5.94533 -2.71722,-1.35861 -14.83828,0.19991 -10.49176,4.54643 2.36513,2.36514 -9.00993,5.15396 -6.64479,7.5191 7.77846,7.77845 45.76934,9.63257 33.57365,-6.1202 z"
       id="path1559-1-4"
       inkscape:connector-curvature="0" />
    <path
       style="fill:#ffffff;fill-opacity:1;stroke:#000000;stroke-width:0.28362554px;stroke-linecap:butt;stroke-linejoin:miter;stroke-opacity:1"
       d="m 146.4754,255.92451 c -2.1056,-5.5862 13.43981,1.24866 17.66114,-2.97267 6.19693,-6.19694 47.68761,3.9469 1.92349,15.38792 -4.73727,1.18431 -9.49766,1.28876 -11.54095,-2.7978 -4.0193,-8.0386 -8.30543,0.85253 -8.04368,-9.61745 z"
       id="path1561-8-3"
       inkscape:connector-curvature="0" />
    <path
       style="fill:#ffffff;fill-opacity:1;stroke:#000000;stroke-width:0.28362554px;stroke-linecap:butt;stroke-linejoin:miter;stroke-opacity:1"
       d="m 120.94545,256.79882 c 5.31246,-2.32273 17.70869,-3.91064 25.18023,-0.17486 10.191,5.09549 -15.35767,16.26979 -27.97804,13.1147 -7.10393,-1.77599 -12.57012,-16.88034 2.79781,-12.93984 z"
       id="path1563-4-3"
       inkscape:connector-curvature="0" />
    <path
       style="fill:#ffffff;fill-opacity:1;stroke:#000000;stroke-width:0.28362554px;stroke-linecap:butt;stroke-linejoin:miter;stroke-opacity:1"
       d="m 154.34423,265.89168 c -2.91894,-10.31127 -11.69521,-3.57439 -16.43709,-5.94533 -2.71722,-1.35861 -14.83828,0.19991 -10.49176,4.54643 2.36513,2.36514 -9.00994,5.15396 -6.64479,7.5191 7.77846,7.77846 45.76934,9.63257 33.57364,-6.1202 z"
       id="path1559-1-3"
       inkscape:connector-curvature="0" />
    <path
       id="path1322"
       title="sin(x)"
       d="m 30.055125,267.11448 c 9.679553,-2.83079 19.359105,-5.48139 29.038658,-5.88464 9.679553,-0.40325 19.359113,1.49992 29.038664,4.21639 9.679555,2.71647 19.359103,5.9066 29.038663,7.07996 9.67954,1.17336 19.35909,0.17456 29.03866,-2.20929 9.67954,-2.38383 19.3591,-5.85713 29.03865,-7.70628 9.67954,-1.84913 19.35911,-1.83498 29.03866,0.0247 9.67956,1.85962 19.3591,5.33691 29.03866,7.71326"
       style="fill:none;fill-opacity:0.14018692;stroke:#000000;stroke-width:0.5412246;stroke-miterlimit:4;stroke-dasharray:none;stroke-dashoffset:0;stroke-opacity:1"
       inkscape:connector-curvature="0" />
    <path
       style="fill:#ffffff;fill-opacity:1;stroke:#000000;stroke-width:0.28362554px;stroke-linecap:butt;stroke-linejoin:miter;stroke-opacity:1"
       d="m 131.78694,268.51462 c -2.1056,-5.5862 13.43981,1.24866 17.66113,-2.97267 6.19694,-6.19693 47.68761,3.9469 1.92349,15.38792 -4.73726,1.18432 -9.49766,1.28876 -11.54094,-2.7978 -4.0193,-8.0386 -8.30544,0.85253 -8.04368,-9.61745 z"
       id="path1561-8-8"
       inkscape:connector-curvature="0" />
    <text
       xml:space="preserve"
       style="font-style:normal;font-variant:normal;font-weight:normal;font-stretch:normal;font-size:5.29434347px;line-height:1.25;font-family:sans-serif;-inkscape-font-specification:'sans-serif, Normal';font-variant-ligatures:normal;font-variant-caps:normal;font-variant-numeric:normal;font-feature-settings:normal;text-align:center;letter-spacing:0px;word-spacing:0px;writing-mode:lr-tb;text-anchor:middle;fill:#000000;fill-opacity:1;stroke:none;stroke-width:0.28362554"
       x="138.48088"
       y="198.42317"
       id="text1649"><tspan
         sodipodi:role="line"
         id="tspan1647"
         x="138.48088"
         y="198.42317"
         style="stroke-width:0.28362554">Clouds</tspan></text>
  </g>
</svg>
